Track 1: 
MetaMessage('key_signature', key='Bb', time=0)
MetaMessage('midi_port', port=0, time=0)
note_on channel=0 note=43 velocity=80 time=0
note_on channel=0 note=43 velocity=0 time=227
note_on channel=0 note=46 velocity=80 time=13
note_on channel=0 note=50 velocity=80 time=0
note_on channel=0 note=46 velocity=0 time=227
note_on channel=0 note=50 velocity=0 time=0
note_on channel=0 note=38 velocity=80 time=13
note_on channel=0 note=38 velocity=0 time=227
note_on channel=0 note=46 velocity=80 time=13
note_on channel=0 note=50 velocity=80 time=0
note_on channel=0 note=46 velocity=0 time=227
note_on channel=0 note=50 velocity=0 time=0
note_on channel=0 note=43 velocity=80 time=13
note_on channel=0 note=43 velocity=0 time=227
note_on channel=0 note=46 velocity=80 time=13
note_on channel=0 note=50 velocity=80 time=0
note_on channel=0 note=46 velocity=0 time=227
note_on channel=0 note=50 velocity=0 time=0
note_on channel=0 note=38 velocity=80 time=13
note_on channel=0 note=38 velocity=0 time=227
note_on channel=0 note=46 velocity=80 time=13
note_on channel=0 note=50 velocity=80 time=0
note_on channel=0 note=46 velocity=0 time=227
note_on channel=0 note=50 velocity=0 time=0
note_on channel=0 note=43 velocity=80 time=13
note_on channel=0 note=43 velocity=0 time=227
note_on channel=0 note=48 velocity=80 time=13
note_on channel=0 note=51 velocity=80 time=0
note_on channel=0 note=48 velocity=0 time=227
note_on channel=0 note=51 velocity=0 time=0
note_on channel=0 note=36 velocity=80 time=13
note_on channel=0 note=36 velocity=0 time=227
note_on channel=0 note=48 velocity=80 time=13
note_on channel=0 note=51 velocity=80 time=0
note_on channel=0 note=48 velocity=0 time=227
note_on channel=0 note=51 velocity=0 time=0
note_on channel=0 note=43 velocity=80 time=13
note_on channel=0 note=43 velocity=0 time=227
note_on channel=0 note=46 velocity=80 time=13
note_on channel=0 note=50 velocity=80 time=0
note_on channel=0 note=46 velocity=0 time=227
note_on channel=0 note=50 velocity=0 time=0
note_on channel=0 note=38 velocity=80 time=13
note_on channel=0 note=38 velocity=0 time=227
note_on channel=0 note=46 velocity=80 time=13
note_on channel=0 note=50 velocity=80 time=0
note_on channel=0 note=46 velocity=0 time=227
note_on channel=0 note=50 velocity=0 time=0
note_on channel=0 note=43 velocity=80 time=13
note_on channel=0 note=43 velocity=0 time=227
note_on channel=0 note=48 velocity=80 time=13
note_on channel=0 note=51 velocity=80 time=0
note_on channel=0 note=48 velocity=0 time=227
note_on channel=0 note=51 velocity=0 time=0
note_on channel=0 note=36 velocity=80 time=13
note_on channel=0 note=36 velocity=0 time=227
note_on channel=0 note=48 velocity=80 time=13
note_on channel=0 note=51 velocity=80 time=0
note_on channel=0 note=48 velocity=0 time=227
note_on channel=0 note=51 velocity=0 time=0
note_on channel=0 note=43 velocity=80 time=13
note_on channel=0 note=43 velocity=0 time=227
note_on channel=0 note=46 velocity=80 time=13
note_on channel=0 note=50 velocity=80 time=0
note_on channel=0 note=46 velocity=0 time=227
note_on channel=0 note=50 velocity=0 time=0
note_on channel=0 note=38 velocity=80 time=13
note_on channel=0 note=38 velocity=0 time=227
note_on channel=0 note=46 velocity=80 time=13
note_on channel=0 note=50 velocity=80 time=0
note_on channel=0 note=46 velocity=0 time=227
note_on channel=0 note=50 velocity=0 time=0
note_on channel=0 note=42 velocity=80 time=13
note_on channel=0 note=42 velocity=0 time=227
note_on channel=0 note=48 velocity=80 time=13
note_on channel=0 note=50 velocity=80 time=0
note_on channel=0 note=48 velocity=0 time=227
note_on channel=0 note=50 velocity=0 time=0
note_on channel=0 note=38 velocity=80 time=13
note_on channel=0 note=38 velocity=0 time=227
note_on channel=0 note=48 velocity=80 time=13
note_on channel=0 note=50 velocity=80 time=0
note_on channel=0 note=48 velocity=0 time=227
note_on channel=0 note=50 velocity=0 time=0
note_on channel=0 note=43 velocity=80 time=13
note_on channel=0 note=43 velocity=0 time=227
note_on channel=0 note=46 velocity=80 time=13
note_on channel=0 note=50 velocity=80 time=0
note_on channel=0 note=46 velocity=0 time=227
note_on channel=0 note=50 velocity=0 time=0
note_on channel=0 note=38 velocity=80 time=13
note_on channel=0 note=38 velocity=0 time=227
note_on channel=0 note=46 velocity=80 time=13
note_on channel=0 note=50 velocity=80 time=0
note_on channel=0 note=46 velocity=0 time=227
note_on channel=0 note=50 velocity=0 time=0
note_on channel=0 note=43 velocity=80 time=13
note_on channel=0 note=43 velocity=0 time=227
note_on channel=0 note=46 velocity=80 time=13
note_on channel=0 note=50 velocity=80 time=0
note_on channel=0 note=46 velocity=0 time=227
note_on channel=0 note=50 velocity=0 time=0
note_on channel=0 note=38 velocity=80 time=13
note_on channel=0 note=38 velocity=0 time=227
note_on channel=0 note=46 velocity=80 time=13
note_on channel=0 note=50 velocity=80 time=0
note_on channel=0 note=46 velocity=0 time=227
note_on channel=0 note=50 velocity=0 time=0
note_on channel=0 note=43 velocity=80 time=13
note_on channel=0 note=43 velocity=0 time=227
note_on channel=0 note=46 velocity=80 time=13
note_on channel=0 note=50 velocity=80 time=0
note_on channel=0 note=46 velocity=0 time=227
note_on channel=0 note=50 velocity=0 time=0
note_on channel=0 note=38 velocity=80 time=13
note_on channel=0 note=38 velocity=0 time=227
note_on channel=0 note=46 velocity=80 time=13
note_on channel=0 note=50 velocity=80 time=0
note_on channel=0 note=46 velocity=0 time=227
note_on channel=0 note=50 velocity=0 time=0
note_on channel=0 note=43 velocity=80 time=13
note_on channel=0 note=43 velocity=0 time=227
note_on channel=0 note=48 velocity=80 time=13
note_on channel=0 note=51 velocity=80 time=0
note_on channel=0 note=48 velocity=0 time=227
note_on channel=0 note=51 velocity=0 time=0
note_on channel=0 note=36 velocity=80 time=13
note_on channel=0 note=36 velocity=0 time=227
note_on channel=0 note=48 velocity=80 time=13
note_on channel=0 note=51 velocity=80 time=0
note_on channel=0 note=48 velocity=0 time=227
note_on channel=0 note=51 velocity=0 time=0
note_on channel=0 note=43 velocity=80 time=13
note_on channel=0 note=43 velocity=0 time=227
note_on channel=0 note=46 velocity=80 time=13
note_on channel=0 note=50 velocity=80 time=0
note_on channel=0 note=46 velocity=0 time=227
note_on channel=0 note=50 velocity=0 time=0
note_on channel=0 note=38 velocity=80 time=13
note_on channel=0 note=38 velocity=0 time=227
note_on channel=0 note=46 velocity=80 time=13
note_on channel=0 note=50 velocity=80 time=0
note_on channel=0 note=46 velocity=0 time=227
note_on channel=0 note=50 velocity=0 time=0
note_on channel=0 note=55 velocity=49 time=13
note_on channel=0 note=55 velocity=0 time=227
note_on channel=0 note=58 velocity=50 time=13
note_on channel=0 note=63 velocity=50 time=0
note_on channel=0 note=58 velocity=0 time=119
note_on channel=0 note=63 velocity=0 time=0
note_on channel=0 note=53 velocity=53 time=121
note_on channel=0 note=53 velocity=0 time=227
note_on channel=0 note=57 velocity=56 time=13
note_on channel=0 note=62 velocity=56 time=0
note_on channel=0 note=57 velocity=0 time=119
note_on channel=0 note=62 velocity=0 time=0
note_on channel=0 note=51 velocity=59 time=121
note_on channel=0 note=51 velocity=0 time=227
note_on channel=0 note=55 velocity=62 time=13
note_on channel=0 note=60 velocity=62 time=0
note_on channel=0 note=55 velocity=0 time=119
note_on channel=0 note=60 velocity=0 time=0
note_on channel=0 note=50 velocity=65 time=121
note_on channel=0 note=50 velocity=0 time=227
note_on channel=0 note=55 velocity=68 time=13
note_on channel=0 note=58 velocity=68 time=0
note_on channel=0 note=55 velocity=0 time=119
note_on channel=0 note=58 velocity=0 time=0
note_on channel=0 note=38 velocity=71 time=121
note_on channel=0 note=38 velocity=0 time=227
note_on channel=0 note=54 velocity=74 time=13
note_on channel=0 note=62 velocity=74 time=0
note_on channel=0 note=54 velocity=0 time=227
note_on channel=0 note=62 velocity=0 time=0
note_on channel=0 note=50 velocity=80 time=253
note_on channel=0 note=54 velocity=80 time=0
note_on channel=0 note=60 velocity=80 time=0
note_on channel=0 note=50 velocity=0 time=119
note_on channel=0 note=54 velocity=0 time=0
note_on channel=0 note=60 velocity=0 time=0
note_on channel=0 note=55 velocity=83 time=121
note_on channel=0 note=55 velocity=0 time=455
note_on channel=0 note=43 velocity=89 time=25
note_on channel=0 note=50 velocity=89 time=0
note_on channel=0 note=55 velocity=89 time=0
note_on channel=0 note=43 velocity=0 time=227
note_on channel=0 note=50 velocity=0 time=0
note_on channel=0 note=55 velocity=0 time=0
note_on channel=0 note=43 velocity=96 time=253
note_on channel=0 note=43 velocity=0 time=227
note_on channel=0 note=46 velocity=96 time=13
note_on channel=0 note=50 velocity=96 time=0
note_on channel=0 note=46 velocity=0 time=227
note_on channel=0 note=50 velocity=0 time=0
note_on channel=0 note=38 velocity=96 time=13
note_on channel=0 note=38 velocity=0 time=227
note_on channel=0 note=46 velocity=96 time=13
note_on channel=0 note=50 velocity=96 time=0
note_on channel=0 note=46 velocity=0 time=227
note_on channel=0 note=50 velocity=0 time=0
note_on channel=0 note=43 velocity=96 time=13
note_on channel=0 note=43 velocity=0 time=227
note_on channel=0 note=46 velocity=96 time=13
note_on channel=0 note=50 velocity=96 time=0
note_on channel=0 note=46 velocity=0 time=227
note_on channel=0 note=50 velocity=0 time=0
note_on channel=0 note=38 velocity=96 time=13
note_on channel=0 note=38 velocity=0 time=227
note_on channel=0 note=46 velocity=96 time=13
note_on channel=0 note=50 velocity=96 time=0
note_on channel=0 note=46 velocity=0 time=227
note_on channel=0 note=50 velocity=0 time=0
note_on channel=0 note=43 velocity=96 time=13
note_on channel=0 note=43 velocity=0 time=227
note_on channel=0 note=48 velocity=96 time=13
note_on channel=0 note=51 velocity=96 time=0
note_on channel=0 note=48 velocity=0 time=227
note_on channel=0 note=51 velocity=0 time=0
note_on channel=0 note=36 velocity=96 time=13
note_on channel=0 note=36 velocity=0 time=227
note_on channel=0 note=48 velocity=96 time=13
note_on channel=0 note=51 velocity=96 time=0
note_on channel=0 note=48 velocity=0 time=227
note_on channel=0 note=51 velocity=0 time=0
note_on channel=0 note=43 velocity=96 time=13
note_on channel=0 note=43 velocity=0 time=227
note_on channel=0 note=46 velocity=96 time=13
note_on channel=0 note=50 velocity=96 time=0
note_on channel=0 note=46 velocity=0 time=227
note_on channel=0 note=50 velocity=0 time=0
note_on channel=0 note=38 velocity=96 time=13
note_on channel=0 note=38 velocity=0 time=227
note_on channel=0 note=46 velocity=96 time=13
note_on channel=0 note=50 velocity=96 time=0
note_on channel=0 note=46 velocity=0 time=227
note_on channel=0 note=50 velocity=0 time=0
note_on channel=0 note=43 velocity=96 time=13
note_on channel=0 note=43 velocity=0 time=227
note_on channel=0 note=48 velocity=96 time=13
note_on channel=0 note=51 velocity=96 time=0
note_on channel=0 note=48 velocity=0 time=227
note_on channel=0 note=51 velocity=0 time=0
note_on channel=0 note=36 velocity=96 time=13
note_on channel=0 note=36 velocity=0 time=227
note_on channel=0 note=48 velocity=96 time=13
note_on channel=0 note=51 velocity=96 time=0
note_on channel=0 note=48 velocity=0 time=227
note_on channel=0 note=51 velocity=0 time=0
note_on channel=0 note=43 velocity=96 time=13
note_on channel=0 note=43 velocity=0 time=227
note_on channel=0 note=46 velocity=96 time=13
note_on channel=0 note=50 velocity=96 time=0
note_on channel=0 note=46 velocity=0 time=227
note_on channel=0 note=50 velocity=0 time=0
note_on channel=0 note=38 velocity=96 time=13
note_on channel=0 note=38 velocity=0 time=227
note_on channel=0 note=46 velocity=96 time=13
note_on channel=0 note=50 velocity=96 time=0
note_on channel=0 note=46 velocity=0 time=227
note_on channel=0 note=50 velocity=0 time=0
note_on channel=0 note=42 velocity=96 time=13
note_on channel=0 note=42 velocity=0 time=227
note_on channel=0 note=48 velocity=96 time=13
note_on channel=0 note=50 velocity=96 time=0
note_on channel=0 note=48 velocity=0 time=227
note_on channel=0 note=50 velocity=0 time=0
note_on channel=0 note=38 velocity=96 time=13
note_on channel=0 note=38 velocity=0 time=227
note_on channel=0 note=48 velocity=96 time=13
note_on channel=0 note=50 velocity=96 time=0
note_on channel=0 note=48 velocity=0 time=227
note_on channel=0 note=50 velocity=0 time=0
note_on channel=0 note=43 velocity=96 time=13
note_on channel=0 note=43 velocity=0 time=227
note_on channel=0 note=46 velocity=96 time=13
note_on channel=0 note=50 velocity=96 time=0
note_on channel=0 note=46 velocity=0 time=227
note_on channel=0 note=50 velocity=0 time=0
note_on channel=0 note=38 velocity=96 time=13
note_on channel=0 note=38 velocity=0 time=227
note_on channel=0 note=46 velocity=96 time=13
note_on channel=0 note=50 velocity=96 time=0
note_on channel=0 note=46 velocity=0 time=227
note_on channel=0 note=50 velocity=0 time=0
note_on channel=0 note=43 velocity=96 time=13
note_on channel=0 note=43 velocity=0 time=227
note_on channel=0 note=46 velocity=96 time=13
note_on channel=0 note=50 velocity=96 time=0
note_on channel=0 note=46 velocity=0 time=227
note_on channel=0 note=50 velocity=0 time=0
note_on channel=0 note=38 velocity=99 time=13
note_on channel=0 note=38 velocity=0 time=227
note_on channel=0 note=46 velocity=105 time=13
note_on channel=0 note=50 velocity=105 time=0
note_on channel=0 note=46 velocity=0 time=227
note_on channel=0 note=50 velocity=0 time=0
note_on channel=0 note=43 velocity=112 time=13
note_on channel=0 note=43 velocity=0 time=227
note_on channel=0 note=46 velocity=112 time=13
note_on channel=0 note=50 velocity=112 time=0
note_on channel=0 note=46 velocity=0 time=227
note_on channel=0 note=50 velocity=0 time=0
note_on channel=0 note=38 velocity=112 time=13
note_on channel=0 note=38 velocity=0 time=227
note_on channel=0 note=46 velocity=112 time=13
note_on channel=0 note=50 velocity=112 time=0
note_on channel=0 note=46 velocity=0 time=227
note_on channel=0 note=50 velocity=0 time=0
note_on channel=0 note=43 velocity=112 time=13
note_on channel=0 note=43 velocity=0 time=227
note_on channel=0 note=48 velocity=112 time=13
note_on channel=0 note=51 velocity=112 time=0
note_on channel=0 note=48 velocity=0 time=227
note_on channel=0 note=51 velocity=0 time=0
note_on channel=0 note=36 velocity=112 time=13
note_on channel=0 note=36 velocity=0 time=227
note_on channel=0 note=48 velocity=112 time=13
note_on channel=0 note=51 velocity=112 time=0
note_on channel=0 note=48 velocity=0 time=227
note_on channel=0 note=51 velocity=0 time=0
note_on channel=0 note=43 velocity=112 time=13
note_on channel=0 note=43 velocity=0 time=227
note_on channel=0 note=46 velocity=112 time=13
note_on channel=0 note=50 velocity=112 time=0
note_on channel=0 note=46 velocity=0 time=227
note_on channel=0 note=50 velocity=0 time=0
note_on channel=0 note=38 velocity=112 time=13
note_on channel=0 note=38 velocity=0 time=227
note_on channel=0 note=46 velocity=112 time=13
note_on channel=0 note=50 velocity=112 time=0
note_on channel=0 note=46 velocity=0 time=227
note_on channel=0 note=50 velocity=0 time=0
note_on channel=0 note=55 velocity=49 time=13
note_on channel=0 note=55 velocity=0 time=227
note_on channel=0 note=58 velocity=51 time=13
note_on channel=0 note=63 velocity=51 time=0
note_on channel=0 note=58 velocity=0 time=119
note_on channel=0 note=63 velocity=0 time=0
note_on channel=0 note=53 velocity=55 time=121
note_on channel=0 note=53 velocity=0 time=227
note_on channel=0 note=57 velocity=59 time=13
note_on channel=0 note=62 velocity=59 time=0
note_on channel=0 note=57 velocity=0 time=119
note_on channel=0 note=62 velocity=0 time=0
note_on channel=0 note=51 velocity=63 time=121
note_on channel=0 note=51 velocity=0 time=227
note_on channel=0 note=55 velocity=67 time=13
note_on channel=0 note=60 velocity=67 time=0
note_on channel=0 note=55 velocity=0 time=119
note_on channel=0 note=60 velocity=0 time=0
note_on channel=0 note=50 velocity=71 time=121
note_on channel=0 note=50 velocity=0 time=227
note_on channel=0 note=55 velocity=75 time=13
note_on channel=0 note=58 velocity=75 time=0
note_on channel=0 note=55 velocity=0 time=119
note_on channel=0 note=58 velocity=0 time=0
note_on channel=0 note=38 velocity=79 time=121
note_on channel=0 note=38 velocity=0 time=227
note_on channel=0 note=54 velocity=83 time=13
note_on channel=0 note=62 velocity=83 time=0
note_on channel=0 note=54 velocity=0 time=227
note_on channel=0 note=62 velocity=0 time=0
note_on channel=0 note=50 velocity=91 time=253
note_on channel=0 note=54 velocity=91 time=0
note_on channel=0 note=60 velocity=91 time=0
note_on channel=0 note=50 velocity=0 time=119
note_on channel=0 note=54 velocity=0 time=0
note_on channel=0 note=60 velocity=0 time=0
note_on channel=0 note=43 velocity=96 time=121
note_on channel=0 note=55 velocity=96 time=0
note_on channel=0 note=43 velocity=0 time=455
note_on channel=0 note=55 velocity=0 time=0
note_on channel=0 note=31 velocity=115 time=25
note_on channel=0 note=43 velocity=115 time=0
note_on channel=0 note=31 velocity=0 time=479
note_on channel=0 note=43 velocity=0 time=0
note_on channel=0 note=47 velocity=96 time=1
note_on channel=0 note=47 velocity=0 time=227
note_on channel=0 note=53 velocity=96 time=13
note_on channel=0 note=55 velocity=96 time=0
note_on channel=0 note=59 velocity=96 time=0
note_on channel=0 note=53 velocity=0 time=227
note_on channel=0 note=55 velocity=0 time=0
note_on channel=0 note=59 velocity=0 time=0
note_on channel=0 note=43 velocity=96 time=13
note_on channel=0 note=43 velocity=0 time=227
note_on channel=0 note=53 velocity=96 time=13
note_on channel=0 note=55 velocity=96 time=0
note_on channel=0 note=59 velocity=96 time=0
note_on channel=0 note=53 velocity=0 time=227
note_on channel=0 note=55 velocity=0 time=0
note_on channel=0 note=59 velocity=0 time=0
note_on channel=0 note=47 velocity=96 time=13
note_on channel=0 note=47 velocity=0 time=227
note_on channel=0 note=55 velocity=96 time=13
note_on channel=0 note=59 velocity=96 time=0
note_on channel=0 note=55 velocity=0 time=227
note_on channel=0 note=59 velocity=0 time=0
note_on channel=0 note=43 velocity=96 time=13
note_on channel=0 note=43 velocity=0 time=227
note_on channel=0 note=53 velocity=96 time=13
note_on channel=0 note=55 velocity=96 time=0
note_on channel=0 note=59 velocity=96 time=0
note_on channel=0 note=53 velocity=0 time=227
note_on channel=0 note=55 velocity=0 time=0
note_on channel=0 note=59 velocity=0 time=0
note_on channel=0 note=48 velocity=96 time=13
note_on channel=0 note=48 velocity=0 time=227
note_on channel=0 note=51 velocity=96 time=13
note_on channel=0 note=55 velocity=96 time=0
note_on channel=0 note=60 velocity=96 time=0
note_on channel=0 note=51 velocity=0 time=227
note_on channel=0 note=55 velocity=0 time=0
note_on channel=0 note=60 velocity=0 time=0
note_on channel=0 note=43 velocity=96 time=13
note_on channel=0 note=43 velocity=0 time=227
note_on channel=0 note=51 velocity=96 time=13
note_on channel=0 note=55 velocity=96 time=0
note_on channel=0 note=60 velocity=96 time=0
note_on channel=0 note=51 velocity=0 time=227
note_on channel=0 note=55 velocity=0 time=0
note_on channel=0 note=60 velocity=0 time=0
note_on channel=0 note=48 velocity=96 time=13
note_on channel=0 note=48 velocity=0 time=227
note_on channel=0 note=51 velocity=96 time=13
note_on channel=0 note=55 velocity=96 time=0
note_on channel=0 note=60 velocity=96 time=0
note_on channel=0 note=51 velocity=0 time=227
note_on channel=0 note=55 velocity=0 time=0
note_on channel=0 note=60 velocity=0 time=0
note_on channel=0 note=46 velocity=96 time=13
note_on channel=0 note=46 velocity=0 time=227
note_on channel=0 note=48 velocity=96 time=13
note_on channel=0 note=51 velocity=96 time=0
note_on channel=0 note=55 velocity=96 time=0
note_on channel=0 note=48 velocity=0 time=227
note_on channel=0 note=51 velocity=0 time=0
note_on channel=0 note=55 velocity=0 time=0
note_on channel=0 note=45 velocity=96 time=13
note_on channel=0 note=45 velocity=0 time=227
note_on channel=0 note=51 velocity=96 time=13
note_on channel=0 note=53 velocity=96 time=0
note_on channel=0 note=57 velocity=96 time=0
note_on channel=0 note=51 velocity=0 time=227
note_on channel=0 note=53 velocity=0 time=0
note_on channel=0 note=57 velocity=0 time=0
note_on channel=0 note=41 velocity=96 time=13
note_on channel=0 note=41 velocity=0 time=227
note_on channel=0 note=51 velocity=96 time=13
note_on channel=0 note=53 velocity=96 time=0
note_on channel=0 note=57 velocity=96 time=0
note_on channel=0 note=51 velocity=0 time=227
note_on channel=0 note=53 velocity=0 time=0
note_on channel=0 note=57 velocity=0 time=0
note_on channel=0 note=45 velocity=96 time=13
note_on channel=0 note=45 velocity=0 time=227
note_on channel=0 note=53 velocity=96 time=13
note_on channel=0 note=57 velocity=96 time=0
note_on channel=0 note=53 velocity=0 time=227
note_on channel=0 note=57 velocity=0 time=0
note_on channel=0 note=41 velocity=96 time=13
note_on channel=0 note=41 velocity=0 time=227
note_on channel=0 note=51 velocity=96 time=13
note_on channel=0 note=53 velocity=96 time=0
note_on channel=0 note=57 velocity=96 time=0
note_on channel=0 note=51 velocity=0 time=227
note_on channel=0 note=53 velocity=0 time=0
note_on channel=0 note=57 velocity=0 time=0
note_on channel=0 note=46 velocity=96 time=13
note_on channel=0 note=46 velocity=0 time=227
note_on channel=0 note=50 velocity=96 time=13
note_on channel=0 note=53 velocity=96 time=0
note_on channel=0 note=58 velocity=96 time=0
note_on channel=0 note=50 velocity=0 time=227
note_on channel=0 note=53 velocity=0 time=0
note_on channel=0 note=58 velocity=0 time=0
note_on channel=0 note=41 velocity=96 time=13
note_on channel=0 note=41 velocity=0 time=227
note_on channel=0 note=50 velocity=96 time=13
note_on channel=0 note=53 velocity=96 time=0
note_on channel=0 note=58 velocity=96 time=0
note_on channel=0 note=50 velocity=0 time=227
note_on channel=0 note=53 velocity=0 time=0
note_on channel=0 note=58 velocity=0 time=0
note_on channel=0 note=46 velocity=96 time=13
note_on channel=0 note=46 velocity=0 time=227
note_on channel=0 note=50 velocity=96 time=13
note_on channel=0 note=53 velocity=96 time=0
note_on channel=0 note=58 velocity=96 time=0
note_on channel=0 note=50 velocity=0 time=227
note_on channel=0 note=53 velocity=0 time=0
note_on channel=0 note=58 velocity=0 time=0
note_on channel=0 note=41 velocity=96 time=13
note_on channel=0 note=41 velocity=0 time=227
note_on channel=0 note=50 velocity=96 time=13
note_on channel=0 note=53 velocity=96 time=0
note_on channel=0 note=58 velocity=96 time=0
note_on channel=0 note=50 velocity=0 time=227
note_on channel=0 note=53 velocity=0 time=0
note_on channel=0 note=58 velocity=0 time=0
note_on channel=0 note=54 velocity=96 time=13
note_on channel=0 note=54 velocity=0 time=227
note_on channel=0 note=57 velocity=93 time=13
note_on channel=0 note=60 velocity=93 time=0
note_on channel=0 note=62 velocity=93 time=0
note_on channel=0 note=57 velocity=0 time=227
note_on channel=0 note=60 velocity=0 time=0
note_on channel=0 note=62 velocity=0 time=0
note_on channel=0 note=50 velocity=90 time=13
note_on channel=0 note=50 velocity=0 time=227
note_on channel=0 note=57 velocity=87 time=13
note_on channel=0 note=60 velocity=87 time=0
note_on channel=0 note=62 velocity=87 time=0
note_on channel=0 note=57 velocity=0 time=227
note_on channel=0 note=60 velocity=0 time=0
note_on channel=0 note=62 velocity=0 time=0
note_on channel=0 note=54 velocity=84 time=13
note_on channel=0 note=54 velocity=0 time=227
note_on channel=0 note=57 velocity=81 time=13
note_on channel=0 note=62 velocity=81 time=0
note_on channel=0 note=57 velocity=0 time=227
note_on channel=0 note=62 velocity=0 time=0
note_on channel=0 note=50 velocity=78 time=13
note_on channel=0 note=50 velocity=0 time=227
note_on channel=0 note=57 velocity=75 time=13
note_on channel=0 note=60 velocity=75 time=0
note_on channel=0 note=62 velocity=75 time=0
note_on channel=0 note=57 velocity=0 time=227
note_on channel=0 note=60 velocity=0 time=0
note_on channel=0 note=62 velocity=0 time=0
note_on channel=0 note=51 velocity=71 time=13
note_on channel=0 note=51 velocity=0 time=227
note_on channel=0 note=55 velocity=68 time=13
note_on channel=0 note=58 velocity=68 time=0
note_on channel=0 note=63 velocity=68 time=0
note_on channel=0 note=55 velocity=0 time=227
note_on channel=0 note=58 velocity=0 time=0
note_on channel=0 note=63 velocity=0 time=0
note_on channel=0 note=46 velocity=65 time=13
note_on channel=0 note=46 velocity=0 time=227
note_on channel=0 note=55 velocity=62 time=13
note_on channel=0 note=58 velocity=62 time=0
note_on channel=0 note=63 velocity=62 time=0
note_on channel=0 note=55 velocity=0 time=227
note_on channel=0 note=58 velocity=0 time=0
note_on channel=0 note=63 velocity=0 time=0
note_on channel=0 note=51 velocity=59 time=13
note_on channel=0 note=51 velocity=0 time=227
note_on channel=0 note=55 velocity=56 time=13
note_on channel=0 note=58 velocity=56 time=0
note_on channel=0 note=63 velocity=56 time=0
note_on channel=0 note=55 velocity=0 time=227
note_on channel=0 note=58 velocity=0 time=0
note_on channel=0 note=63 velocity=0 time=0
note_on channel=0 note=46 velocity=53 time=13
note_on channel=0 note=46 velocity=0 time=227
note_on channel=0 note=55 velocity=49 time=13
note_on channel=0 note=58 velocity=49 time=0
note_on channel=0 note=62 velocity=49 time=0
note_on channel=0 note=55 velocity=0 time=227
note_on channel=0 note=58 velocity=0 time=0
note_on channel=0 note=62 velocity=0 time=0
note_on channel=0 note=42 velocity=96 time=13
note_on channel=0 note=54 velocity=96 time=0
note_on channel=0 note=42 velocity=0 time=239
note_on channel=0 note=54 velocity=0 time=0
note_on channel=0 note=38 velocity=96 time=601
note_on channel=0 note=50 velocity=96 time=0
note_on channel=0 note=38 velocity=0 time=113
note_on channel=0 note=50 velocity=0 time=0
note_on channel=0 note=40 velocity=96 time=7
note_on channel=0 note=52 velocity=96 time=0
note_on channel=0 note=40 velocity=0 time=227
note_on channel=0 note=52 velocity=0 time=0
note_on channel=0 note=42 velocity=96 time=253
note_on channel=0 note=54 velocity=96 time=0
note_on channel=0 note=42 velocity=0 time=227
note_on channel=0 note=54 velocity=0 time=0
note_on channel=0 note=31 velocity=96 time=253
note_on channel=0 note=43 velocity=96 time=0
note_on channel=0 note=31 velocity=0 time=227
note_on channel=0 note=43 velocity=0 time=0
note_on channel=0 note=50 velocity=96 time=13
note_on channel=0 note=55 velocity=96 time=0
note_on channel=0 note=58 velocity=96 time=0
note_on channel=0 note=50 velocity=0 time=455
note_on channel=0 note=55 velocity=0 time=0
note_on channel=0 note=58 velocity=0 time=0
note_on channel=0 note=48 velocity=96 time=265
note_on channel=0 note=51 velocity=96 time=0
note_on channel=0 note=55 velocity=96 time=0
note_on channel=0 note=48 velocity=0 time=455
note_on channel=0 note=51 velocity=0 time=0
note_on channel=0 note=55 velocity=0 time=0
note_on channel=0 note=43 velocity=96 time=25
note_on channel=0 note=46 velocity=96 time=0
note_on channel=0 note=50 velocity=96 time=0
note_on channel=0 note=55 velocity=96 time=0
note_on channel=0 note=43 velocity=0 time=455
note_on channel=0 note=46 velocity=0 time=0
note_on channel=0 note=50 velocity=0 time=0
note_on channel=0 note=55 velocity=0 time=0
note_on channel=0 note=47 velocity=96 time=25
note_on channel=0 note=47 velocity=0 time=227
note_on channel=0 note=53 velocity=96 time=13
note_on channel=0 note=55 velocity=96 time=0
note_on channel=0 note=59 velocity=96 time=0
note_on channel=0 note=53 velocity=0 time=227
note_on channel=0 note=55 velocity=0 time=0
note_on channel=0 note=59 velocity=0 time=0
note_on channel=0 note=43 velocity=96 time=13
note_on channel=0 note=43 velocity=0 time=227
note_on channel=0 note=53 velocity=96 time=13
note_on channel=0 note=55 velocity=96 time=0
note_on channel=0 note=59 velocity=96 time=0
note_on channel=0 note=53 velocity=0 time=227
note_on channel=0 note=55 velocity=0 time=0
note_on channel=0 note=59 velocity=0 time=0
note_on channel=0 note=47 velocity=96 time=13
note_on channel=0 note=47 velocity=0 time=227
note_on channel=0 note=55 velocity=96 time=13
note_on channel=0 note=59 velocity=96 time=0
note_on channel=0 note=55 velocity=0 time=227
note_on channel=0 note=59 velocity=0 time=0
note_on channel=0 note=43 velocity=96 time=13
note_on channel=0 note=43 velocity=0 time=227
note_on channel=0 note=53 velocity=96 time=13
note_on channel=0 note=55 velocity=96 time=0
note_on channel=0 note=59 velocity=96 time=0
note_on channel=0 note=53 velocity=0 time=227
note_on channel=0 note=55 velocity=0 time=0
note_on channel=0 note=59 velocity=0 time=0
note_on channel=0 note=48 velocity=96 time=13
note_on channel=0 note=48 velocity=0 time=227
note_on channel=0 note=51 velocity=96 time=13
note_on channel=0 note=55 velocity=96 time=0
note_on channel=0 note=60 velocity=96 time=0
note_on channel=0 note=51 velocity=0 time=227
note_on channel=0 note=55 velocity=0 time=0
note_on channel=0 note=60 velocity=0 time=0
note_on channel=0 note=43 velocity=96 time=13
note_on channel=0 note=43 velocity=0 time=227
note_on channel=0 note=51 velocity=96 time=13
note_on channel=0 note=55 velocity=96 time=0
note_on channel=0 note=60 velocity=96 time=0
note_on channel=0 note=51 velocity=0 time=227
note_on channel=0 note=55 velocity=0 time=0
note_on channel=0 note=60 velocity=0 time=0
note_on channel=0 note=48 velocity=96 time=13
note_on channel=0 note=48 velocity=0 time=227
note_on channel=0 note=51 velocity=96 time=13
note_on channel=0 note=55 velocity=96 time=0
note_on channel=0 note=60 velocity=96 time=0
note_on channel=0 note=51 velocity=0 time=227
note_on channel=0 note=55 velocity=0 time=0
note_on channel=0 note=60 velocity=0 time=0
note_on channel=0 note=46 velocity=96 time=13
note_on channel=0 note=46 velocity=0 time=227
note_on channel=0 note=48 velocity=96 time=13
note_on channel=0 note=51 velocity=96 time=0
note_on channel=0 note=55 velocity=96 time=0
note_on channel=0 note=48 velocity=0 time=227
note_on channel=0 note=51 velocity=0 time=0
note_on channel=0 note=55 velocity=0 time=0
note_on channel=0 note=45 velocity=96 time=13
note_on channel=0 note=45 velocity=0 time=227
note_on channel=0 note=51 velocity=96 time=13
note_on channel=0 note=53 velocity=96 time=0
note_on channel=0 note=57 velocity=96 time=0
note_on channel=0 note=51 velocity=0 time=227
note_on channel=0 note=53 velocity=0 time=0
note_on channel=0 note=57 velocity=0 time=0
note_on channel=0 note=41 velocity=96 time=13
note_on channel=0 note=41 velocity=0 time=227
note_on channel=0 note=51 velocity=96 time=13
note_on channel=0 note=53 velocity=96 time=0
note_on channel=0 note=57 velocity=96 time=0
note_on channel=0 note=51 velocity=0 time=227
note_on channel=0 note=53 velocity=0 time=0
note_on channel=0 note=57 velocity=0 time=0
note_on channel=0 note=45 velocity=96 time=13
note_on channel=0 note=45 velocity=0 time=227
note_on channel=0 note=53 velocity=96 time=13
note_on channel=0 note=57 velocity=96 time=0
note_on channel=0 note=53 velocity=0 time=227
note_on channel=0 note=57 velocity=0 time=0
note_on channel=0 note=41 velocity=96 time=13
note_on channel=0 note=41 velocity=0 time=227
note_on channel=0 note=51 velocity=96 time=13
note_on channel=0 note=53 velocity=96 time=0
note_on channel=0 note=57 velocity=96 time=0
note_on channel=0 note=51 velocity=0 time=227
note_on channel=0 note=53 velocity=0 time=0
note_on channel=0 note=57 velocity=0 time=0
note_on channel=0 note=46 velocity=96 time=13
note_on channel=0 note=46 velocity=0 time=227
note_on channel=0 note=50 velocity=96 time=13
note_on channel=0 note=53 velocity=96 time=0
note_on channel=0 note=58 velocity=96 time=0
note_on channel=0 note=50 velocity=0 time=227
note_on channel=0 note=53 velocity=0 time=0
note_on channel=0 note=58 velocity=0 time=0
note_on channel=0 note=41 velocity=96 time=13
note_on channel=0 note=41 velocity=0 time=227
note_on channel=0 note=50 velocity=96 time=13
note_on channel=0 note=53 velocity=96 time=0
note_on channel=0 note=58 velocity=96 time=0
note_on channel=0 note=50 velocity=0 time=227
note_on channel=0 note=53 velocity=0 time=0
note_on channel=0 note=58 velocity=0 time=0
note_on channel=0 note=46 velocity=96 time=13
note_on channel=0 note=46 velocity=0 time=227
note_on channel=0 note=50 velocity=96 time=13
note_on channel=0 note=53 velocity=96 time=0
note_on channel=0 note=58 velocity=96 time=0
note_on channel=0 note=50 velocity=0 time=227
note_on channel=0 note=53 velocity=0 time=0
note_on channel=0 note=58 velocity=0 time=0
note_on channel=0 note=41 velocity=96 time=13
note_on channel=0 note=41 velocity=0 time=227
note_on channel=0 note=50 velocity=96 time=13
note_on channel=0 note=53 velocity=96 time=0
note_on channel=0 note=58 velocity=96 time=0
note_on channel=0 note=50 velocity=0 time=227
note_on channel=0 note=53 velocity=0 time=0
note_on channel=0 note=58 velocity=0 time=0
note_on channel=0 note=54 velocity=96 time=13
note_on channel=0 note=54 velocity=0 time=227
note_on channel=0 note=57 velocity=93 time=13
note_on channel=0 note=60 velocity=93 time=0
note_on channel=0 note=62 velocity=93 time=0
note_on channel=0 note=57 velocity=0 time=227
note_on channel=0 note=60 velocity=0 time=0
note_on channel=0 note=62 velocity=0 time=0
note_on channel=0 note=50 velocity=90 time=13
note_on channel=0 note=50 velocity=0 time=227
note_on channel=0 note=57 velocity=87 time=13
note_on channel=0 note=60 velocity=87 time=0
note_on channel=0 note=62 velocity=87 time=0
note_on channel=0 note=57 velocity=0 time=227
note_on channel=0 note=60 velocity=0 time=0
note_on channel=0 note=62 velocity=0 time=0
note_on channel=0 note=54 velocity=84 time=13
note_on channel=0 note=54 velocity=0 time=227
note_on channel=0 note=57 velocity=81 time=13
note_on channel=0 note=62 velocity=81 time=0
note_on channel=0 note=57 velocity=0 time=227
note_on channel=0 note=62 velocity=0 time=0
note_on channel=0 note=50 velocity=78 time=13
note_on channel=0 note=50 velocity=0 time=227
note_on channel=0 note=57 velocity=75 time=13
note_on channel=0 note=60 velocity=75 time=0
note_on channel=0 note=62 velocity=75 time=0
note_on channel=0 note=57 velocity=0 time=227
note_on channel=0 note=60 velocity=0 time=0
note_on channel=0 note=62 velocity=0 time=0
note_on channel=0 note=51 velocity=71 time=13
note_on channel=0 note=51 velocity=0 time=227
note_on channel=0 note=55 velocity=68 time=13
note_on channel=0 note=58 velocity=68 time=0
note_on channel=0 note=63 velocity=68 time=0
note_on channel=0 note=55 velocity=0 time=227
note_on channel=0 note=58 velocity=0 time=0
note_on channel=0 note=63 velocity=0 time=0
note_on channel=0 note=46 velocity=65 time=13
note_on channel=0 note=46 velocity=0 time=227
note_on channel=0 note=55 velocity=62 time=13
note_on channel=0 note=58 velocity=62 time=0
note_on channel=0 note=63 velocity=62 time=0
note_on channel=0 note=55 velocity=0 time=227
note_on channel=0 note=58 velocity=0 time=0
note_on channel=0 note=63 velocity=0 time=0
note_on channel=0 note=51 velocity=59 time=13
note_on channel=0 note=51 velocity=0 time=227
note_on channel=0 note=55 velocity=56 time=13
note_on channel=0 note=58 velocity=56 time=0
note_on channel=0 note=63 velocity=56 time=0
note_on channel=0 note=55 velocity=0 time=227
note_on channel=0 note=58 velocity=0 time=0
note_on channel=0 note=63 velocity=0 time=0
note_on channel=0 note=46 velocity=53 time=13
note_on channel=0 note=46 velocity=0 time=227
note_on channel=0 note=55 velocity=49 time=13
note_on channel=0 note=58 velocity=49 time=0
note_on channel=0 note=62 velocity=49 time=0
note_on channel=0 note=55 velocity=0 time=227
note_on channel=0 note=58 velocity=0 time=0
note_on channel=0 note=62 velocity=0 time=0
note_on channel=0 note=42 velocity=96 time=13
note_on channel=0 note=54 velocity=96 time=0
note_on channel=0 note=42 velocity=0 time=239
note_on channel=0 note=54 velocity=0 time=0
note_on channel=0 note=38 velocity=96 time=601
note_on channel=0 note=50 velocity=96 time=0
note_on channel=0 note=38 velocity=0 time=113
note_on channel=0 note=50 velocity=0 time=0
note_on channel=0 note=40 velocity=96 time=7
note_on channel=0 note=52 velocity=96 time=0
note_on channel=0 note=40 velocity=0 time=227
note_on channel=0 note=52 velocity=0 time=0
note_on channel=0 note=42 velocity=96 time=253
note_on channel=0 note=54 velocity=96 time=0
note_on channel=0 note=42 velocity=0 time=227
note_on channel=0 note=54 velocity=0 time=0
note_on channel=0 note=31 velocity=96 time=253
note_on channel=0 note=43 velocity=96 time=0
note_on channel=0 note=31 velocity=0 time=227
note_on channel=0 note=43 velocity=0 time=0
note_on channel=0 note=50 velocity=96 time=13
note_on channel=0 note=55 velocity=96 time=0
note_on channel=0 note=58 velocity=96 time=0
note_on channel=0 note=50 velocity=0 time=455
note_on channel=0 note=55 velocity=0 time=0
note_on channel=0 note=58 velocity=0 time=0
note_on channel=0 note=48 velocity=96 time=265
note_on channel=0 note=51 velocity=96 time=0
note_on channel=0 note=55 velocity=96 time=0
note_on channel=0 note=48 velocity=0 time=455
note_on channel=0 note=51 velocity=0 time=0
note_on channel=0 note=55 velocity=0 time=0
note_on channel=0 note=43 velocity=96 time=25
note_on channel=0 note=46 velocity=96 time=0
note_on channel=0 note=50 velocity=96 time=0
note_on channel=0 note=55 velocity=96 time=0
note_on channel=0 note=43 velocity=0 time=455
note_on channel=0 note=46 velocity=0 time=0
note_on channel=0 note=50 velocity=0 time=0
note_on channel=0 note=55 velocity=0 time=0
MetaMessage('key_signature', key='G', time=25)
note_on channel=0 note=43 velocity=96 time=0
note_on channel=0 note=55 velocity=96 time=0
note_on channel=0 note=43 velocity=0 time=227
note_on channel=0 note=55 velocity=0 time=0
note_on channel=0 note=50 velocity=96 time=13
note_on channel=0 note=50 velocity=0 time=227
note_on channel=0 note=43 velocity=96 time=13
note_on channel=0 note=55 velocity=96 time=0
note_on channel=0 note=43 velocity=0 time=227
note_on channel=0 note=55 velocity=0 time=0
note_on channel=0 note=50 velocity=96 time=13
note_on channel=0 note=50 velocity=0 time=227
note_on channel=0 note=43 velocity=96 time=13
note_on channel=0 note=55 velocity=96 time=0
note_on channel=0 note=43 velocity=0 time=227
note_on channel=0 note=55 velocity=0 time=0
note_on channel=0 note=50 velocity=96 time=13
note_on channel=0 note=50 velocity=0 time=227
note_on channel=0 note=43 velocity=96 time=13
note_on channel=0 note=55 velocity=96 time=0
note_on channel=0 note=43 velocity=0 time=227
note_on channel=0 note=55 velocity=0 time=0
note_on channel=0 note=50 velocity=96 time=13
note_on channel=0 note=50 velocity=0 time=227
note_on channel=0 note=43 velocity=96 time=13
note_on channel=0 note=55 velocity=96 time=0
note_on channel=0 note=43 velocity=0 time=227
note_on channel=0 note=55 velocity=0 time=0
note_on channel=0 note=50 velocity=96 time=13
note_on channel=0 note=50 velocity=0 time=227
note_on channel=0 note=43 velocity=96 time=13
note_on channel=0 note=55 velocity=96 time=0
note_on channel=0 note=43 velocity=0 time=227
note_on channel=0 note=55 velocity=0 time=0
note_on channel=0 note=50 velocity=96 time=13
note_on channel=0 note=50 velocity=0 time=227
note_on channel=0 note=43 velocity=96 time=13
note_on channel=0 note=55 velocity=96 time=0
note_on channel=0 note=43 velocity=0 time=227
note_on channel=0 note=55 velocity=0 time=0
note_on channel=0 note=50 velocity=96 time=13
note_on channel=0 note=50 velocity=0 time=227
note_on channel=0 note=43 velocity=96 time=13
note_on channel=0 note=55 velocity=96 time=0
note_on channel=0 note=43 velocity=0 time=227
note_on channel=0 note=55 velocity=0 time=0
note_on channel=0 note=50 velocity=96 time=13
note_on channel=0 note=50 velocity=0 time=227
note_on channel=0 note=43 velocity=96 time=13
note_on channel=0 note=55 velocity=96 time=0
note_on channel=0 note=43 velocity=0 time=227
note_on channel=0 note=55 velocity=0 time=0
note_on channel=0 note=50 velocity=96 time=13
note_on channel=0 note=50 velocity=0 time=227
note_on channel=0 note=43 velocity=96 time=13
note_on channel=0 note=55 velocity=96 time=0
note_on channel=0 note=43 velocity=0 time=227
note_on channel=0 note=55 velocity=0 time=0
note_on channel=0 note=50 velocity=96 time=13
note_on channel=0 note=50 velocity=0 time=227
note_on channel=0 note=43 velocity=96 time=13
note_on channel=0 note=55 velocity=96 time=0
note_on channel=0 note=43 velocity=0 time=227
note_on channel=0 note=55 velocity=0 time=0
note_on channel=0 note=50 velocity=96 time=13
note_on channel=0 note=50 velocity=0 time=227
note_on channel=0 note=43 velocity=96 time=13
note_on channel=0 note=55 velocity=96 time=0
note_on channel=0 note=43 velocity=0 time=227
note_on channel=0 note=55 velocity=0 time=0
note_on channel=0 note=50 velocity=96 time=13
note_on channel=0 note=50 velocity=0 time=227
note_on channel=0 note=43 velocity=96 time=13
note_on channel=0 note=55 velocity=96 time=0
note_on channel=0 note=43 velocity=0 time=227
note_on channel=0 note=55 velocity=0 time=0
note_on channel=0 note=50 velocity=96 time=13
note_on channel=0 note=50 velocity=0 time=227
note_on channel=0 note=43 velocity=96 time=13
note_on channel=0 note=55 velocity=96 time=0
note_on channel=0 note=43 velocity=0 time=227
note_on channel=0 note=55 velocity=0 time=0
note_on channel=0 note=50 velocity=96 time=13
note_on channel=0 note=50 velocity=0 time=227
note_on channel=0 note=43 velocity=96 time=13
note_on channel=0 note=55 velocity=96 time=0
note_on channel=0 note=43 velocity=0 time=227
note_on channel=0 note=55 velocity=0 time=0
note_on channel=0 note=50 velocity=96 time=13
note_on channel=0 note=50 velocity=0 time=227
note_on channel=0 note=43 velocity=96 time=13
note_on channel=0 note=55 velocity=96 time=0
note_on channel=0 note=43 velocity=0 time=227
note_on channel=0 note=55 velocity=0 time=0
note_on channel=0 note=50 velocity=96 time=13
note_on channel=0 note=50 velocity=0 time=227
note_on channel=0 note=43 velocity=96 time=13
note_on channel=0 note=55 velocity=96 time=0
note_on channel=0 note=43 velocity=0 time=227
note_on channel=0 note=55 velocity=0 time=0
note_on channel=0 note=50 velocity=96 time=13
note_on channel=0 note=50 velocity=0 time=227
note_on channel=0 note=43 velocity=96 time=13
note_on channel=0 note=55 velocity=96 time=0
note_on channel=0 note=43 velocity=0 time=227
note_on channel=0 note=55 velocity=0 time=0
note_on channel=0 note=50 velocity=96 time=13
note_on channel=0 note=50 velocity=0 time=227
note_on channel=0 note=43 velocity=96 time=13
note_on channel=0 note=55 velocity=96 time=0
note_on channel=0 note=43 velocity=0 time=227
note_on channel=0 note=55 velocity=0 time=0
note_on channel=0 note=50 velocity=96 time=13
note_on channel=0 note=50 velocity=0 time=227
note_on channel=0 note=43 velocity=96 time=13
note_on channel=0 note=55 velocity=96 time=0
note_on channel=0 note=43 velocity=0 time=227
note_on channel=0 note=55 velocity=0 time=0
note_on channel=0 note=50 velocity=96 time=13
note_on channel=0 note=50 velocity=0 time=227
note_on channel=0 note=43 velocity=96 time=13
note_on channel=0 note=55 velocity=96 time=0
note_on channel=0 note=43 velocity=0 time=227
note_on channel=0 note=55 velocity=0 time=0
note_on channel=0 note=50 velocity=96 time=13
note_on channel=0 note=50 velocity=0 time=227
note_on channel=0 note=43 velocity=96 time=13
note_on channel=0 note=55 velocity=96 time=0
note_on channel=0 note=43 velocity=0 time=227
note_on channel=0 note=55 velocity=0 time=0
note_on channel=0 note=50 velocity=96 time=13
note_on channel=0 note=50 velocity=0 time=227
note_on channel=0 note=43 velocity=96 time=13
note_on channel=0 note=55 velocity=96 time=0
note_on channel=0 note=43 velocity=0 time=227
note_on channel=0 note=55 velocity=0 time=0
note_on channel=0 note=50 velocity=96 time=13
note_on channel=0 note=50 velocity=0 time=227
note_on channel=0 note=43 velocity=96 time=13
note_on channel=0 note=55 velocity=96 time=0
note_on channel=0 note=43 velocity=0 time=227
note_on channel=0 note=55 velocity=0 time=0
note_on channel=0 note=50 velocity=96 time=13
note_on channel=0 note=50 velocity=0 time=227
note_on channel=0 note=43 velocity=49 time=13
note_on channel=0 note=43 velocity=0 time=227
note_on channel=0 note=43 velocity=49 time=13
note_on channel=0 note=50 velocity=49 time=0
note_on channel=0 note=43 velocity=0 time=227
note_on channel=0 note=50 velocity=0 time=0
note_on channel=0 note=43 velocity=49 time=13
note_on channel=0 note=43 velocity=0 time=227
note_on channel=0 note=43 velocity=49 time=13
note_on channel=0 note=50 velocity=49 time=0
note_on channel=0 note=43 velocity=0 time=227
note_on channel=0 note=50 velocity=0 time=0
note_on channel=0 note=43 velocity=49 time=13
note_on channel=0 note=43 velocity=0 time=227
note_on channel=0 note=43 velocity=49 time=13
note_on channel=0 note=50 velocity=49 time=0
note_on channel=0 note=43 velocity=0 time=227
note_on channel=0 note=50 velocity=0 time=0
note_on channel=0 note=43 velocity=49 time=13
note_on channel=0 note=43 velocity=0 time=227
note_on channel=0 note=43 velocity=49 time=13
note_on channel=0 note=50 velocity=49 time=0
note_on channel=0 note=43 velocity=0 time=227
note_on channel=0 note=50 velocity=0 time=0
note_on channel=0 note=43 velocity=96 time=13
note_on channel=0 note=43 velocity=0 time=119
note_on channel=0 note=55 velocity=96 time=121
note_on channel=0 note=55 velocity=0 time=119
note_on channel=0 note=52 velocity=96 time=121
note_on channel=0 note=52 velocity=0 time=119
note_on channel=0 note=48 velocity=96 time=121
note_on channel=0 note=48 velocity=0 time=119
note_on channel=0 note=43 velocity=96 time=121
note_on channel=0 note=55 velocity=96 time=0
note_on channel=0 note=43 velocity=0 time=239
note_on channel=0 note=55 velocity=0 time=0
note_on channel=0 note=55 velocity=96 time=1
note_on channel=0 note=59 velocity=96 time=0
note_on channel=0 note=62 velocity=96 time=0
note_on channel=0 note=55 velocity=0 time=119
note_on channel=0 note=59 velocity=0 time=0
note_on channel=0 note=62 velocity=0 time=0
note_on channel=0 note=55 velocity=96 time=361
note_on channel=0 note=59 velocity=96 time=0
note_on channel=0 note=62 velocity=96 time=0
note_on channel=0 note=55 velocity=0 time=119
note_on channel=0 note=59 velocity=0 time=0
note_on channel=0 note=62 velocity=0 time=0
note_on channel=0 note=43 velocity=49 time=121
note_on channel=0 note=43 velocity=0 time=227
note_on channel=0 note=43 velocity=49 time=13
note_on channel=0 note=50 velocity=49 time=0
note_on channel=0 note=43 velocity=0 time=227
note_on channel=0 note=50 velocity=0 time=0
note_on channel=0 note=43 velocity=49 time=13
note_on channel=0 note=43 velocity=0 time=227
note_on channel=0 note=43 velocity=49 time=13
note_on channel=0 note=50 velocity=49 time=0
note_on channel=0 note=43 velocity=0 time=227
note_on channel=0 note=50 velocity=0 time=0
note_on channel=0 note=43 velocity=49 time=13
note_on channel=0 note=43 velocity=0 time=227
note_on channel=0 note=43 velocity=49 time=13
note_on channel=0 note=50 velocity=49 time=0
note_on channel=0 note=43 velocity=0 time=227
note_on channel=0 note=50 velocity=0 time=0
note_on channel=0 note=43 velocity=49 time=13
note_on channel=0 note=43 velocity=0 time=227
note_on channel=0 note=43 velocity=49 time=13
note_on channel=0 note=50 velocity=49 time=0
note_on channel=0 note=43 velocity=0 time=227
note_on channel=0 note=50 velocity=0 time=0
note_on channel=0 note=43 velocity=96 time=13
note_on channel=0 note=43 velocity=0 time=119
note_on channel=0 note=48 velocity=96 time=121
note_on channel=0 note=48 velocity=0 time=119
note_on channel=0 note=50 velocity=96 time=121
note_on channel=0 note=50 velocity=0 time=119
note_on channel=0 note=50 velocity=96 time=121
note_on channel=0 note=50 velocity=0 time=119
note_on channel=0 note=43 velocity=96 time=121
note_on channel=0 note=50 velocity=96 time=0
note_on channel=0 note=55 velocity=96 time=0
note_on channel=0 note=43 velocity=0 time=479
note_on channel=0 note=50 velocity=0 time=0
note_on channel=0 note=55 velocity=0 time=0
note_on channel=0 note=55 velocity=96 time=1
note_on channel=0 note=59 velocity=96 time=0
note_on channel=0 note=62 velocity=96 time=0
note_on channel=0 note=55 velocity=0 time=119
note_on channel=0 note=59 velocity=0 time=0
note_on channel=0 note=62 velocity=0 time=0
note_on channel=0 note=43 velocity=49 time=361
note_on channel=0 note=43 velocity=0 time=227
note_on channel=0 note=43 velocity=49 time=13
note_on channel=0 note=50 velocity=49 time=0
note_on channel=0 note=43 velocity=0 time=227
note_on channel=0 note=50 velocity=0 time=0
note_on channel=0 note=43 velocity=49 time=13
note_on channel=0 note=43 velocity=0 time=227
note_on channel=0 note=43 velocity=49 time=13
note_on channel=0 note=50 velocity=49 time=0
note_on channel=0 note=43 velocity=0 time=227
note_on channel=0 note=50 velocity=0 time=0
note_on channel=0 note=43 velocity=49 time=13
note_on channel=0 note=43 velocity=0 time=227
note_on channel=0 note=43 velocity=49 time=13
note_on channel=0 note=50 velocity=49 time=0
note_on channel=0 note=43 velocity=0 time=227
note_on channel=0 note=50 velocity=0 time=0
note_on channel=0 note=43 velocity=49 time=13
note_on channel=0 note=43 velocity=0 time=227
note_on channel=0 note=43 velocity=49 time=13
note_on channel=0 note=50 velocity=49 time=0
note_on channel=0 note=43 velocity=0 time=227
note_on channel=0 note=50 velocity=0 time=0
note_on channel=0 note=43 velocity=96 time=13
note_on channel=0 note=43 velocity=0 time=119
note_on channel=0 note=55 velocity=96 time=121
note_on channel=0 note=55 velocity=0 time=119
note_on channel=0 note=52 velocity=96 time=121
note_on channel=0 note=52 velocity=0 time=119
note_on channel=0 note=48 velocity=96 time=121
note_on channel=0 note=48 velocity=0 time=119
note_on channel=0 note=43 velocity=96 time=121
note_on channel=0 note=55 velocity=96 time=0
note_on channel=0 note=43 velocity=0 time=239
note_on channel=0 note=55 velocity=0 time=0
note_on channel=0 note=55 velocity=96 time=1
note_on channel=0 note=59 velocity=96 time=0
note_on channel=0 note=62 velocity=96 time=0
note_on channel=0 note=55 velocity=0 time=119
note_on channel=0 note=59 velocity=0 time=0
note_on channel=0 note=62 velocity=0 time=0
note_on channel=0 note=55 velocity=96 time=361
note_on channel=0 note=59 velocity=96 time=0
note_on channel=0 note=62 velocity=96 time=0
note_on channel=0 note=55 velocity=0 time=119
note_on channel=0 note=59 velocity=0 time=0
note_on channel=0 note=62 velocity=0 time=0
note_on channel=0 note=43 velocity=49 time=121
note_on channel=0 note=43 velocity=0 time=227
note_on channel=0 note=43 velocity=49 time=13
note_on channel=0 note=50 velocity=49 time=0
note_on channel=0 note=43 velocity=0 time=227
note_on channel=0 note=50 velocity=0 time=0
note_on channel=0 note=43 velocity=49 time=13
note_on channel=0 note=43 velocity=0 time=227
note_on channel=0 note=43 velocity=49 time=13
note_on channel=0 note=50 velocity=49 time=0
note_on channel=0 note=43 velocity=0 time=227
note_on channel=0 note=50 velocity=0 time=0
note_on channel=0 note=43 velocity=49 time=13
note_on channel=0 note=43 velocity=0 time=227
note_on channel=0 note=43 velocity=49 time=13
note_on channel=0 note=50 velocity=49 time=0
note_on channel=0 note=43 velocity=0 time=227
note_on channel=0 note=50 velocity=0 time=0
note_on channel=0 note=43 velocity=49 time=13
note_on channel=0 note=43 velocity=0 time=227
note_on channel=0 note=43 velocity=49 time=13
note_on channel=0 note=50 velocity=49 time=0
note_on channel=0 note=43 velocity=0 time=227
note_on channel=0 note=50 velocity=0 time=0
note_on channel=0 note=43 velocity=96 time=13
note_on channel=0 note=43 velocity=0 time=119
note_on channel=0 note=48 velocity=96 time=121
note_on channel=0 note=48 velocity=0 time=119
note_on channel=0 note=50 velocity=96 time=121
note_on channel=0 note=50 velocity=0 time=119
note_on channel=0 note=50 velocity=96 time=121
note_on channel=0 note=50 velocity=0 time=119
note_on channel=0 note=43 velocity=96 time=121
note_on channel=0 note=50 velocity=96 time=0
note_on channel=0 note=55 velocity=96 time=0
note_on channel=0 note=43 velocity=0 time=479
note_on channel=0 note=50 velocity=0 time=0
note_on channel=0 note=55 velocity=0 time=0
note_on channel=0 note=55 velocity=96 time=1
note_on channel=0 note=59 velocity=96 time=0
note_on channel=0 note=62 velocity=96 time=0
note_on channel=0 note=55 velocity=0 time=119
note_on channel=0 note=59 velocity=0 time=0
note_on channel=0 note=62 velocity=0 time=0
MetaMessage('key_signature', key='Bb', time=361)
note_on channel=0 note=43 velocity=80 time=0
note_on channel=0 note=43 velocity=0 time=227
note_on channel=0 note=46 velocity=80 time=13
note_on channel=0 note=50 velocity=80 time=0
note_on channel=0 note=46 velocity=0 time=227
note_on channel=0 note=50 velocity=0 time=0
note_on channel=0 note=38 velocity=80 time=13
note_on channel=0 note=38 velocity=0 time=227
note_on channel=0 note=46 velocity=80 time=13
note_on channel=0 note=50 velocity=80 time=0
note_on channel=0 note=46 velocity=0 time=227
note_on channel=0 note=50 velocity=0 time=0
note_on channel=0 note=43 velocity=80 time=13
note_on channel=0 note=43 velocity=0 time=227
note_on channel=0 note=46 velocity=80 time=13
note_on channel=0 note=50 velocity=80 time=0
note_on channel=0 note=46 velocity=0 time=227
note_on channel=0 note=50 velocity=0 time=0
note_on channel=0 note=38 velocity=80 time=13
note_on channel=0 note=38 velocity=0 time=227
note_on channel=0 note=46 velocity=80 time=13
note_on channel=0 note=50 velocity=80 time=0
note_on channel=0 note=46 velocity=0 time=227
note_on channel=0 note=50 velocity=0 time=0
note_on channel=0 note=43 velocity=80 time=13
note_on channel=0 note=43 velocity=0 time=227
note_on channel=0 note=48 velocity=80 time=13
note_on channel=0 note=51 velocity=80 time=0
note_on channel=0 note=48 velocity=0 time=227
note_on channel=0 note=51 velocity=0 time=0
note_on channel=0 note=36 velocity=80 time=13
note_on channel=0 note=36 velocity=0 time=227
note_on channel=0 note=48 velocity=80 time=13
note_on channel=0 note=51 velocity=80 time=0
note_on channel=0 note=48 velocity=0 time=227
note_on channel=0 note=51 velocity=0 time=0
note_on channel=0 note=43 velocity=80 time=13
note_on channel=0 note=43 velocity=0 time=227
note_on channel=0 note=46 velocity=80 time=13
note_on channel=0 note=50 velocity=80 time=0
note_on channel=0 note=46 velocity=0 time=227
note_on channel=0 note=50 velocity=0 time=0
note_on channel=0 note=38 velocity=80 time=13
note_on channel=0 note=38 velocity=0 time=227
note_on channel=0 note=46 velocity=80 time=13
note_on channel=0 note=50 velocity=80 time=0
note_on channel=0 note=46 velocity=0 time=227
note_on channel=0 note=50 velocity=0 time=0
note_on channel=0 note=43 velocity=80 time=13
note_on channel=0 note=43 velocity=0 time=227
note_on channel=0 note=48 velocity=80 time=13
note_on channel=0 note=51 velocity=80 time=0
note_on channel=0 note=48 velocity=0 time=227
note_on channel=0 note=51 velocity=0 time=0
note_on channel=0 note=36 velocity=80 time=13
note_on channel=0 note=36 velocity=0 time=227
note_on channel=0 note=48 velocity=80 time=13
note_on channel=0 note=51 velocity=80 time=0
note_on channel=0 note=48 velocity=0 time=227
note_on channel=0 note=51 velocity=0 time=0
note_on channel=0 note=43 velocity=80 time=13
note_on channel=0 note=43 velocity=0 time=227
note_on channel=0 note=46 velocity=80 time=13
note_on channel=0 note=50 velocity=80 time=0
note_on channel=0 note=46 velocity=0 time=227
note_on channel=0 note=50 velocity=0 time=0
note_on channel=0 note=38 velocity=80 time=13
note_on channel=0 note=38 velocity=0 time=227
note_on channel=0 note=46 velocity=80 time=13
note_on channel=0 note=50 velocity=80 time=0
note_on channel=0 note=46 velocity=0 time=227
note_on channel=0 note=50 velocity=0 time=0
note_on channel=0 note=42 velocity=80 time=13
note_on channel=0 note=42 velocity=0 time=227
note_on channel=0 note=48 velocity=80 time=13
note_on channel=0 note=50 velocity=80 time=0
note_on channel=0 note=48 velocity=0 time=227
note_on channel=0 note=50 velocity=0 time=0
note_on channel=0 note=38 velocity=80 time=13
note_on channel=0 note=38 velocity=0 time=227
note_on channel=0 note=48 velocity=80 time=13
note_on channel=0 note=50 velocity=80 time=0
note_on channel=0 note=48 velocity=0 time=227
note_on channel=0 note=50 velocity=0 time=0
note_on channel=0 note=43 velocity=80 time=13
note_on channel=0 note=43 velocity=0 time=227
note_on channel=0 note=46 velocity=80 time=13
note_on channel=0 note=50 velocity=80 time=0
note_on channel=0 note=46 velocity=0 time=227
note_on channel=0 note=50 velocity=0 time=0
note_on channel=0 note=38 velocity=80 time=13
note_on channel=0 note=38 velocity=0 time=227
note_on channel=0 note=46 velocity=80 time=13
note_on channel=0 note=50 velocity=80 time=0
note_on channel=0 note=46 velocity=0 time=227
note_on channel=0 note=50 velocity=0 time=0
note_on channel=0 note=43 velocity=96 time=13
note_on channel=0 note=43 velocity=0 time=227
note_on channel=0 note=46 velocity=96 time=13
note_on channel=0 note=50 velocity=96 time=0
note_on channel=0 note=46 velocity=0 time=227
note_on channel=0 note=50 velocity=0 time=0
note_on channel=0 note=38 velocity=99 time=13
note_on channel=0 note=38 velocity=0 time=227
note_on channel=0 note=46 velocity=105 time=13
note_on channel=0 note=50 velocity=105 time=0
note_on channel=0 note=46 velocity=0 time=227
note_on channel=0 note=50 velocity=0 time=0
note_on channel=0 note=43 velocity=112 time=13
note_on channel=0 note=43 velocity=0 time=227
note_on channel=0 note=46 velocity=112 time=13
note_on channel=0 note=50 velocity=112 time=0
note_on channel=0 note=46 velocity=0 time=227
note_on channel=0 note=50 velocity=0 time=0
note_on channel=0 note=38 velocity=112 time=13
note_on channel=0 note=38 velocity=0 time=227
note_on channel=0 note=46 velocity=112 time=13
note_on channel=0 note=50 velocity=112 time=0
note_on channel=0 note=46 velocity=0 time=227
note_on channel=0 note=50 velocity=0 time=0
note_on channel=0 note=43 velocity=112 time=13
note_on channel=0 note=43 velocity=0 time=227
note_on channel=0 note=48 velocity=112 time=13
note_on channel=0 note=51 velocity=112 time=0
note_on channel=0 note=48 velocity=0 time=227
note_on channel=0 note=51 velocity=0 time=0
note_on channel=0 note=36 velocity=112 time=13
note_on channel=0 note=36 velocity=0 time=227
note_on channel=0 note=48 velocity=112 time=13
note_on channel=0 note=51 velocity=112 time=0
note_on channel=0 note=48 velocity=0 time=227
note_on channel=0 note=51 velocity=0 time=0
note_on channel=0 note=43 velocity=112 time=13
note_on channel=0 note=43 velocity=0 time=227
note_on channel=0 note=46 velocity=112 time=13
note_on channel=0 note=50 velocity=112 time=0
note_on channel=0 note=46 velocity=0 time=227
note_on channel=0 note=50 velocity=0 time=0
note_on channel=0 note=38 velocity=112 time=13
note_on channel=0 note=38 velocity=0 time=227
note_on channel=0 note=46 velocity=112 time=13
note_on channel=0 note=50 velocity=112 time=0
note_on channel=0 note=46 velocity=0 time=227
note_on channel=0 note=50 velocity=0 time=0
note_on channel=0 note=55 velocity=49 time=13
note_on channel=0 note=55 velocity=0 time=227
note_on channel=0 note=58 velocity=51 time=13
note_on channel=0 note=63 velocity=51 time=0
note_on channel=0 note=58 velocity=0 time=119
note_on channel=0 note=63 velocity=0 time=0
note_on channel=0 note=53 velocity=55 time=121
note_on channel=0 note=53 velocity=0 time=227
note_on channel=0 note=57 velocity=59 time=13
note_on channel=0 note=62 velocity=59 time=0
note_on channel=0 note=57 velocity=0 time=119
note_on channel=0 note=62 velocity=0 time=0
note_on channel=0 note=51 velocity=63 time=121
note_on channel=0 note=51 velocity=0 time=227
note_on channel=0 note=55 velocity=67 time=13
note_on channel=0 note=60 velocity=67 time=0
note_on channel=0 note=55 velocity=0 time=119
note_on channel=0 note=60 velocity=0 time=0
note_on channel=0 note=50 velocity=71 time=121
note_on channel=0 note=50 velocity=0 time=227
note_on channel=0 note=55 velocity=75 time=13
note_on channel=0 note=58 velocity=75 time=0
note_on channel=0 note=55 velocity=0 time=119
note_on channel=0 note=58 velocity=0 time=0
note_on channel=0 note=38 velocity=79 time=121
note_on channel=0 note=38 velocity=0 time=227
note_on channel=0 note=54 velocity=83 time=13
note_on channel=0 note=62 velocity=83 time=0
note_on channel=0 note=54 velocity=0 time=227
note_on channel=0 note=62 velocity=0 time=0
note_on channel=0 note=50 velocity=91 time=253
note_on channel=0 note=54 velocity=91 time=0
note_on channel=0 note=60 velocity=91 time=0
note_on channel=0 note=50 velocity=0 time=119
note_on channel=0 note=54 velocity=0 time=0
note_on channel=0 note=60 velocity=0 time=0
note_on channel=0 note=43 velocity=96 time=121
note_on channel=0 note=55 velocity=96 time=0
note_on channel=0 note=43 velocity=0 time=455
note_on channel=0 note=55 velocity=0 time=0
note_on channel=0 note=31 velocity=115 time=25
note_on channel=0 note=43 velocity=115 time=0
note_on channel=0 note=31 velocity=0 time=479
note_on channel=0 note=43 velocity=0 time=0
note_on channel=0 note=47 velocity=96 time=1
note_on channel=0 note=47 velocity=0 time=227
note_on channel=0 note=53 velocity=96 time=13
note_on channel=0 note=55 velocity=96 time=0
note_on channel=0 note=59 velocity=96 time=0
note_on channel=0 note=53 velocity=0 time=227
note_on channel=0 note=55 velocity=0 time=0
note_on channel=0 note=59 velocity=0 time=0
note_on channel=0 note=43 velocity=96 time=13
note_on channel=0 note=43 velocity=0 time=227
note_on channel=0 note=53 velocity=96 time=13
note_on channel=0 note=55 velocity=96 time=0
note_on channel=0 note=59 velocity=96 time=0
note_on channel=0 note=53 velocity=0 time=227
note_on channel=0 note=55 velocity=0 time=0
note_on channel=0 note=59 velocity=0 time=0
note_on channel=0 note=47 velocity=96 time=13
note_on channel=0 note=47 velocity=0 time=227
note_on channel=0 note=55 velocity=96 time=13
note_on channel=0 note=59 velocity=96 time=0
note_on channel=0 note=55 velocity=0 time=227
note_on channel=0 note=59 velocity=0 time=0
note_on channel=0 note=43 velocity=96 time=13
note_on channel=0 note=43 velocity=0 time=227
note_on channel=0 note=53 velocity=96 time=13
note_on channel=0 note=55 velocity=96 time=0
note_on channel=0 note=59 velocity=96 time=0
note_on channel=0 note=53 velocity=0 time=227
note_on channel=0 note=55 velocity=0 time=0
note_on channel=0 note=59 velocity=0 time=0
note_on channel=0 note=48 velocity=96 time=13
note_on channel=0 note=48 velocity=0 time=227
note_on channel=0 note=51 velocity=96 time=13
note_on channel=0 note=55 velocity=96 time=0
note_on channel=0 note=60 velocity=96 time=0
note_on channel=0 note=51 velocity=0 time=227
note_on channel=0 note=55 velocity=0 time=0
note_on channel=0 note=60 velocity=0 time=0
note_on channel=0 note=43 velocity=96 time=13
note_on channel=0 note=43 velocity=0 time=227
note_on channel=0 note=51 velocity=96 time=13
note_on channel=0 note=55 velocity=96 time=0
note_on channel=0 note=60 velocity=96 time=0
note_on channel=0 note=51 velocity=0 time=227
note_on channel=0 note=55 velocity=0 time=0
note_on channel=0 note=60 velocity=0 time=0
note_on channel=0 note=48 velocity=96 time=13
note_on channel=0 note=48 velocity=0 time=227
note_on channel=0 note=51 velocity=96 time=13
note_on channel=0 note=55 velocity=96 time=0
note_on channel=0 note=60 velocity=96 time=0
note_on channel=0 note=51 velocity=0 time=227
note_on channel=0 note=55 velocity=0 time=0
note_on channel=0 note=60 velocity=0 time=0
note_on channel=0 note=46 velocity=96 time=13
note_on channel=0 note=46 velocity=0 time=227
note_on channel=0 note=48 velocity=96 time=13
note_on channel=0 note=51 velocity=96 time=0
note_on channel=0 note=55 velocity=96 time=0
note_on channel=0 note=48 velocity=0 time=227
note_on channel=0 note=51 velocity=0 time=0
note_on channel=0 note=55 velocity=0 time=0
note_on channel=0 note=45 velocity=96 time=13
note_on channel=0 note=45 velocity=0 time=227
note_on channel=0 note=51 velocity=96 time=13
note_on channel=0 note=53 velocity=96 time=0
note_on channel=0 note=57 velocity=96 time=0
note_on channel=0 note=51 velocity=0 time=227
note_on channel=0 note=53 velocity=0 time=0
note_on channel=0 note=57 velocity=0 time=0
note_on channel=0 note=41 velocity=96 time=13
note_on channel=0 note=41 velocity=0 time=227
note_on channel=0 note=51 velocity=96 time=13
note_on channel=0 note=53 velocity=96 time=0
note_on channel=0 note=57 velocity=96 time=0
note_on channel=0 note=51 velocity=0 time=227
note_on channel=0 note=53 velocity=0 time=0
note_on channel=0 note=57 velocity=0 time=0
note_on channel=0 note=45 velocity=96 time=13
note_on channel=0 note=45 velocity=0 time=227
note_on channel=0 note=53 velocity=96 time=13
note_on channel=0 note=57 velocity=96 time=0
note_on channel=0 note=53 velocity=0 time=227
note_on channel=0 note=57 velocity=0 time=0
note_on channel=0 note=41 velocity=96 time=13
note_on channel=0 note=41 velocity=0 time=227
note_on channel=0 note=51 velocity=96 time=13
note_on channel=0 note=53 velocity=96 time=0
note_on channel=0 note=57 velocity=96 time=0
note_on channel=0 note=51 velocity=0 time=227
note_on channel=0 note=53 velocity=0 time=0
note_on channel=0 note=57 velocity=0 time=0
note_on channel=0 note=46 velocity=96 time=13
note_on channel=0 note=46 velocity=0 time=227
note_on channel=0 note=50 velocity=96 time=13
note_on channel=0 note=53 velocity=96 time=0
note_on channel=0 note=58 velocity=96 time=0
note_on channel=0 note=50 velocity=0 time=227
note_on channel=0 note=53 velocity=0 time=0
note_on channel=0 note=58 velocity=0 time=0
note_on channel=0 note=41 velocity=96 time=13
note_on channel=0 note=41 velocity=0 time=227
note_on channel=0 note=50 velocity=96 time=13
note_on channel=0 note=53 velocity=96 time=0
note_on channel=0 note=58 velocity=96 time=0
note_on channel=0 note=50 velocity=0 time=227
note_on channel=0 note=53 velocity=0 time=0
note_on channel=0 note=58 velocity=0 time=0
note_on channel=0 note=46 velocity=96 time=13
note_on channel=0 note=46 velocity=0 time=227
note_on channel=0 note=50 velocity=96 time=13
note_on channel=0 note=53 velocity=96 time=0
note_on channel=0 note=58 velocity=96 time=0
note_on channel=0 note=50 velocity=0 time=227
note_on channel=0 note=53 velocity=0 time=0
note_on channel=0 note=58 velocity=0 time=0
note_on channel=0 note=41 velocity=96 time=13
note_on channel=0 note=41 velocity=0 time=227
note_on channel=0 note=50 velocity=96 time=13
note_on channel=0 note=53 velocity=96 time=0
note_on channel=0 note=58 velocity=96 time=0
note_on channel=0 note=50 velocity=0 time=227
note_on channel=0 note=53 velocity=0 time=0
note_on channel=0 note=58 velocity=0 time=0
note_on channel=0 note=54 velocity=96 time=13
note_on channel=0 note=54 velocity=0 time=227
note_on channel=0 note=57 velocity=93 time=13
note_on channel=0 note=60 velocity=93 time=0
note_on channel=0 note=62 velocity=93 time=0
note_on channel=0 note=57 velocity=0 time=227
note_on channel=0 note=60 velocity=0 time=0
note_on channel=0 note=62 velocity=0 time=0
note_on channel=0 note=50 velocity=90 time=13
note_on channel=0 note=50 velocity=0 time=227
note_on channel=0 note=57 velocity=87 time=13
note_on channel=0 note=60 velocity=87 time=0
note_on channel=0 note=62 velocity=87 time=0
note_on channel=0 note=57 velocity=0 time=227
note_on channel=0 note=60 velocity=0 time=0
note_on channel=0 note=62 velocity=0 time=0
note_on channel=0 note=54 velocity=84 time=13
note_on channel=0 note=54 velocity=0 time=227
note_on channel=0 note=57 velocity=81 time=13
note_on channel=0 note=62 velocity=81 time=0
note_on channel=0 note=57 velocity=0 time=227
note_on channel=0 note=62 velocity=0 time=0
note_on channel=0 note=50 velocity=78 time=13
note_on channel=0 note=50 velocity=0 time=227
note_on channel=0 note=57 velocity=75 time=13
note_on channel=0 note=60 velocity=75 time=0
note_on channel=0 note=62 velocity=75 time=0
note_on channel=0 note=57 velocity=0 time=227
note_on channel=0 note=60 velocity=0 time=0
note_on channel=0 note=62 velocity=0 time=0
note_on channel=0 note=51 velocity=71 time=13
note_on channel=0 note=51 velocity=0 time=227
note_on channel=0 note=55 velocity=68 time=13
note_on channel=0 note=58 velocity=68 time=0
note_on channel=0 note=63 velocity=68 time=0
note_on channel=0 note=55 velocity=0 time=227
note_on channel=0 note=58 velocity=0 time=0
note_on channel=0 note=63 velocity=0 time=0
note_on channel=0 note=46 velocity=65 time=13
note_on channel=0 note=46 velocity=0 time=227
note_on channel=0 note=55 velocity=62 time=13
note_on channel=0 note=58 velocity=62 time=0
note_on channel=0 note=63 velocity=62 time=0
note_on channel=0 note=55 velocity=0 time=227
note_on channel=0 note=58 velocity=0 time=0
note_on channel=0 note=63 velocity=0 time=0
note_on channel=0 note=51 velocity=59 time=13
note_on channel=0 note=51 velocity=0 time=227
note_on channel=0 note=55 velocity=56 time=13
note_on channel=0 note=58 velocity=56 time=0
note_on channel=0 note=63 velocity=56 time=0
note_on channel=0 note=55 velocity=0 time=227
note_on channel=0 note=58 velocity=0 time=0
note_on channel=0 note=63 velocity=0 time=0
note_on channel=0 note=46 velocity=53 time=13
note_on channel=0 note=46 velocity=0 time=227
note_on channel=0 note=55 velocity=49 time=13
note_on channel=0 note=58 velocity=49 time=0
note_on channel=0 note=62 velocity=49 time=0
note_on channel=0 note=55 velocity=0 time=227
note_on channel=0 note=58 velocity=0 time=0
note_on channel=0 note=62 velocity=0 time=0
note_on channel=0 note=42 velocity=96 time=13
note_on channel=0 note=54 velocity=96 time=0
note_on channel=0 note=42 velocity=0 time=239
note_on channel=0 note=54 velocity=0 time=0
note_on channel=0 note=38 velocity=96 time=601
note_on channel=0 note=50 velocity=96 time=0
note_on channel=0 note=38 velocity=0 time=113
note_on channel=0 note=50 velocity=0 time=0
note_on channel=0 note=40 velocity=96 time=7
note_on channel=0 note=52 velocity=96 time=0
note_on channel=0 note=40 velocity=0 time=227
note_on channel=0 note=52 velocity=0 time=0
note_on channel=0 note=42 velocity=96 time=253
note_on channel=0 note=54 velocity=96 time=0
note_on channel=0 note=42 velocity=0 time=227
note_on channel=0 note=54 velocity=0 time=0
note_on channel=0 note=31 velocity=96 time=253
note_on channel=0 note=43 velocity=96 time=0
note_on channel=0 note=31 velocity=0 time=227
note_on channel=0 note=43 velocity=0 time=0
note_on channel=0 note=50 velocity=96 time=13
note_on channel=0 note=55 velocity=96 time=0
note_on channel=0 note=58 velocity=96 time=0
note_on channel=0 note=50 velocity=0 time=455
note_on channel=0 note=55 velocity=0 time=0
note_on channel=0 note=58 velocity=0 time=0
note_on channel=0 note=48 velocity=96 time=265
note_on channel=0 note=51 velocity=96 time=0
note_on channel=0 note=55 velocity=96 time=0
note_on channel=0 note=48 velocity=0 time=455
note_on channel=0 note=51 velocity=0 time=0
note_on channel=0 note=55 velocity=0 time=0
note_on channel=0 note=43 velocity=96 time=25
note_on channel=0 note=46 velocity=96 time=0
note_on channel=0 note=50 velocity=96 time=0
note_on channel=0 note=55 velocity=96 time=0
note_on channel=0 note=43 velocity=0 time=455
note_on channel=0 note=46 velocity=0 time=0
note_on channel=0 note=50 velocity=0 time=0
note_on channel=0 note=55 velocity=0 time=0
note_on channel=0 note=47 velocity=96 time=25
note_on channel=0 note=47 velocity=0 time=227
note_on channel=0 note=53 velocity=96 time=13
note_on channel=0 note=55 velocity=96 time=0
note_on channel=0 note=59 velocity=96 time=0
note_on channel=0 note=53 velocity=0 time=227
note_on channel=0 note=55 velocity=0 time=0
note_on channel=0 note=59 velocity=0 time=0
note_on channel=0 note=43 velocity=96 time=13
note_on channel=0 note=43 velocity=0 time=227
note_on channel=0 note=53 velocity=96 time=13
note_on channel=0 note=55 velocity=96 time=0
note_on channel=0 note=59 velocity=96 time=0
note_on channel=0 note=53 velocity=0 time=227
note_on channel=0 note=55 velocity=0 time=0
note_on channel=0 note=59 velocity=0 time=0
note_on channel=0 note=47 velocity=96 time=13
note_on channel=0 note=47 velocity=0 time=227
note_on channel=0 note=55 velocity=96 time=13
note_on channel=0 note=59 velocity=96 time=0
note_on channel=0 note=55 velocity=0 time=227
note_on channel=0 note=59 velocity=0 time=0
note_on channel=0 note=43 velocity=96 time=13
note_on channel=0 note=43 velocity=0 time=227
note_on channel=0 note=53 velocity=96 time=13
note_on channel=0 note=55 velocity=96 time=0
note_on channel=0 note=59 velocity=96 time=0
note_on channel=0 note=53 velocity=0 time=227
note_on channel=0 note=55 velocity=0 time=0
note_on channel=0 note=59 velocity=0 time=0
note_on channel=0 note=48 velocity=96 time=13
note_on channel=0 note=48 velocity=0 time=227
note_on channel=0 note=51 velocity=96 time=13
note_on channel=0 note=55 velocity=96 time=0
note_on channel=0 note=60 velocity=96 time=0
note_on channel=0 note=51 velocity=0 time=227
note_on channel=0 note=55 velocity=0 time=0
note_on channel=0 note=60 velocity=0 time=0
note_on channel=0 note=43 velocity=96 time=13
note_on channel=0 note=43 velocity=0 time=227
note_on channel=0 note=51 velocity=96 time=13
note_on channel=0 note=55 velocity=96 time=0
note_on channel=0 note=60 velocity=96 time=0
note_on channel=0 note=51 velocity=0 time=227
note_on channel=0 note=55 velocity=0 time=0
note_on channel=0 note=60 velocity=0 time=0
note_on channel=0 note=48 velocity=96 time=13
note_on channel=0 note=48 velocity=0 time=227
note_on channel=0 note=51 velocity=96 time=13
note_on channel=0 note=55 velocity=96 time=0
note_on channel=0 note=60 velocity=96 time=0
note_on channel=0 note=51 velocity=0 time=227
note_on channel=0 note=55 velocity=0 time=0
note_on channel=0 note=60 velocity=0 time=0
note_on channel=0 note=46 velocity=96 time=13
note_on channel=0 note=46 velocity=0 time=227
note_on channel=0 note=48 velocity=96 time=13
note_on channel=0 note=51 velocity=96 time=0
note_on channel=0 note=55 velocity=96 time=0
note_on channel=0 note=48 velocity=0 time=227
note_on channel=0 note=51 velocity=0 time=0
note_on channel=0 note=55 velocity=0 time=0
note_on channel=0 note=45 velocity=96 time=13
note_on channel=0 note=45 velocity=0 time=227
note_on channel=0 note=51 velocity=96 time=13
note_on channel=0 note=53 velocity=96 time=0
note_on channel=0 note=57 velocity=96 time=0
note_on channel=0 note=51 velocity=0 time=227
note_on channel=0 note=53 velocity=0 time=0
note_on channel=0 note=57 velocity=0 time=0
note_on channel=0 note=41 velocity=96 time=13
note_on channel=0 note=41 velocity=0 time=227
note_on channel=0 note=51 velocity=96 time=13
note_on channel=0 note=53 velocity=96 time=0
note_on channel=0 note=57 velocity=96 time=0
note_on channel=0 note=51 velocity=0 time=227
note_on channel=0 note=53 velocity=0 time=0
note_on channel=0 note=57 velocity=0 time=0
note_on channel=0 note=45 velocity=96 time=13
note_on channel=0 note=45 velocity=0 time=227
note_on channel=0 note=53 velocity=96 time=13
note_on channel=0 note=57 velocity=96 time=0
note_on channel=0 note=53 velocity=0 time=227
note_on channel=0 note=57 velocity=0 time=0
note_on channel=0 note=41 velocity=96 time=13
note_on channel=0 note=41 velocity=0 time=227
note_on channel=0 note=51 velocity=96 time=13
note_on channel=0 note=53 velocity=96 time=0
note_on channel=0 note=57 velocity=96 time=0
note_on channel=0 note=51 velocity=0 time=227
note_on channel=0 note=53 velocity=0 time=0
note_on channel=0 note=57 velocity=0 time=0
note_on channel=0 note=46 velocity=96 time=13
note_on channel=0 note=46 velocity=0 time=227
note_on channel=0 note=50 velocity=96 time=13
note_on channel=0 note=53 velocity=96 time=0
note_on channel=0 note=58 velocity=96 time=0
note_on channel=0 note=50 velocity=0 time=227
note_on channel=0 note=53 velocity=0 time=0
note_on channel=0 note=58 velocity=0 time=0
note_on channel=0 note=41 velocity=96 time=13
note_on channel=0 note=41 velocity=0 time=227
note_on channel=0 note=50 velocity=96 time=13
note_on channel=0 note=53 velocity=96 time=0
note_on channel=0 note=58 velocity=96 time=0
note_on channel=0 note=50 velocity=0 time=227
note_on channel=0 note=53 velocity=0 time=0
note_on channel=0 note=58 velocity=0 time=0
note_on channel=0 note=46 velocity=96 time=13
note_on channel=0 note=46 velocity=0 time=227
note_on channel=0 note=50 velocity=96 time=13
note_on channel=0 note=53 velocity=96 time=0
note_on channel=0 note=58 velocity=96 time=0
note_on channel=0 note=50 velocity=0 time=227
note_on channel=0 note=53 velocity=0 time=0
note_on channel=0 note=58 velocity=0 time=0
note_on channel=0 note=41 velocity=96 time=13
note_on channel=0 note=41 velocity=0 time=227
note_on channel=0 note=50 velocity=96 time=13
note_on channel=0 note=53 velocity=96 time=0
note_on channel=0 note=58 velocity=96 time=0
note_on channel=0 note=50 velocity=0 time=227
note_on channel=0 note=53 velocity=0 time=0
note_on channel=0 note=58 velocity=0 time=0
note_on channel=0 note=54 velocity=96 time=13
note_on channel=0 note=54 velocity=0 time=227
note_on channel=0 note=57 velocity=93 time=13
note_on channel=0 note=60 velocity=93 time=0
note_on channel=0 note=62 velocity=93 time=0
note_on channel=0 note=57 velocity=0 time=227
note_on channel=0 note=60 velocity=0 time=0
note_on channel=0 note=62 velocity=0 time=0
note_on channel=0 note=50 velocity=90 time=13
note_on channel=0 note=50 velocity=0 time=227
note_on channel=0 note=57 velocity=87 time=13
note_on channel=0 note=60 velocity=87 time=0
note_on channel=0 note=62 velocity=87 time=0
note_on channel=0 note=57 velocity=0 time=227
note_on channel=0 note=60 velocity=0 time=0
note_on channel=0 note=62 velocity=0 time=0
note_on channel=0 note=54 velocity=84 time=13
note_on channel=0 note=54 velocity=0 time=227
note_on channel=0 note=57 velocity=81 time=13
note_on channel=0 note=62 velocity=81 time=0
note_on channel=0 note=57 velocity=0 time=227
note_on channel=0 note=62 velocity=0 time=0
note_on channel=0 note=50 velocity=78 time=13
note_on channel=0 note=50 velocity=0 time=227
note_on channel=0 note=57 velocity=75 time=13
note_on channel=0 note=60 velocity=75 time=0
note_on channel=0 note=62 velocity=75 time=0
note_on channel=0 note=57 velocity=0 time=227
note_on channel=0 note=60 velocity=0 time=0
note_on channel=0 note=62 velocity=0 time=0
note_on channel=0 note=51 velocity=71 time=13
note_on channel=0 note=51 velocity=0 time=227
note_on channel=0 note=55 velocity=68 time=13
note_on channel=0 note=58 velocity=68 time=0
note_on channel=0 note=63 velocity=68 time=0
note_on channel=0 note=55 velocity=0 time=227
note_on channel=0 note=58 velocity=0 time=0
note_on channel=0 note=63 velocity=0 time=0
note_on channel=0 note=46 velocity=65 time=13
note_on channel=0 note=46 velocity=0 time=227
note_on channel=0 note=55 velocity=62 time=13
note_on channel=0 note=58 velocity=62 time=0
note_on channel=0 note=63 velocity=62 time=0
note_on channel=0 note=55 velocity=0 time=227
note_on channel=0 note=58 velocity=0 time=0
note_on channel=0 note=63 velocity=0 time=0
note_on channel=0 note=51 velocity=59 time=13
note_on channel=0 note=51 velocity=0 time=227
note_on channel=0 note=55 velocity=56 time=13
note_on channel=0 note=58 velocity=56 time=0
note_on channel=0 note=63 velocity=56 time=0
note_on channel=0 note=55 velocity=0 time=227
note_on channel=0 note=58 velocity=0 time=0
note_on channel=0 note=63 velocity=0 time=0
note_on channel=0 note=46 velocity=53 time=13
note_on channel=0 note=46 velocity=0 time=227
note_on channel=0 note=55 velocity=49 time=13
note_on channel=0 note=58 velocity=49 time=0
note_on channel=0 note=62 velocity=49 time=0
note_on channel=0 note=55 velocity=0 time=227
note_on channel=0 note=58 velocity=0 time=0
note_on channel=0 note=62 velocity=0 time=0
note_on channel=0 note=42 velocity=96 time=13
note_on channel=0 note=54 velocity=96 time=0
note_on channel=0 note=42 velocity=0 time=239
note_on channel=0 note=54 velocity=0 time=0
note_on channel=0 note=38 velocity=96 time=601
note_on channel=0 note=50 velocity=96 time=0
note_on channel=0 note=38 velocity=0 time=113
note_on channel=0 note=50 velocity=0 time=0
note_on channel=0 note=40 velocity=96 time=7
note_on channel=0 note=52 velocity=96 time=0
note_on channel=0 note=40 velocity=0 time=227
note_on channel=0 note=52 velocity=0 time=0
note_on channel=0 note=42 velocity=96 time=253
note_on channel=0 note=54 velocity=96 time=0
note_on channel=0 note=42 velocity=0 time=227
note_on channel=0 note=54 velocity=0 time=0
note_on channel=0 note=31 velocity=96 time=253
note_on channel=0 note=43 velocity=96 time=0
note_on channel=0 note=31 velocity=0 time=227
note_on channel=0 note=43 velocity=0 time=0
note_on channel=0 note=50 velocity=96 time=13
note_on channel=0 note=55 velocity=96 time=0
note_on channel=0 note=58 velocity=96 time=0
note_on channel=0 note=50 velocity=0 time=455
note_on channel=0 note=55 velocity=0 time=0
note_on channel=0 note=58 velocity=0 time=0
note_on channel=0 note=48 velocity=96 time=265
note_on channel=0 note=51 velocity=96 time=0
note_on channel=0 note=55 velocity=96 time=0
note_on channel=0 note=48 velocity=0 time=455
note_on channel=0 note=51 velocity=0 time=0
note_on channel=0 note=55 velocity=0 time=0
note_on channel=0 note=43 velocity=96 time=25
note_on channel=0 note=46 velocity=96 time=0
note_on channel=0 note=50 velocity=96 time=0
note_on channel=0 note=55 velocity=96 time=0
note_on channel=0 note=43 velocity=0 time=455
note_on channel=0 note=46 velocity=0 time=0
note_on channel=0 note=50 velocity=0 time=0
note_on channel=0 note=55 velocity=0 time=0
note_on channel=0 note=36 velocity=126 time=25
note_on channel=0 note=45 velocity=126 time=0
note_on channel=0 note=51 velocity=126 time=0
note_on channel=0 note=36 velocity=0 time=119
note_on channel=0 note=45 velocity=0 time=0
note_on channel=0 note=51 velocity=0 time=0
note_on channel=0 note=38 velocity=126 time=361
note_on channel=0 note=45 velocity=126 time=0
note_on channel=0 note=50 velocity=126 time=0
note_on channel=0 note=38 velocity=0 time=119
note_on channel=0 note=45 velocity=0 time=0
note_on channel=0 note=50 velocity=0 time=0
note_on channel=0 note=43 velocity=126 time=361
note_on channel=0 note=46 velocity=126 time=0
note_on channel=0 note=50 velocity=126 time=0
note_on channel=0 note=58 velocity=126 time=0
note_on channel=0 note=43 velocity=0 time=911
note_on channel=0 note=46 velocity=0 time=0
note_on channel=0 note=50 velocity=0 time=0
note_on channel=0 note=58 velocity=0 time=0
MetaMessage('end_of_track', time=1)
