Track 0: 
MetaMessage('time_signature', numerator=2, denominator=4, clocks_per_click=24, notated_32nd_notes_per_beat=8, time=0)
MetaMessage('key_signature', key='Bb', time=0)
MetaMessage('set_tempo', tempo=461538, time=0)
control_change channel=0 control=121 value=0 time=0
program_change channel=0 program=0 time=0
control_change channel=0 control=7 value=100 time=0
control_change channel=0 control=10 value=64 time=0
control_change channel=0 control=91 value=0 time=0
control_change channel=0 control=93 value=0 time=0
MetaMessage('midi_port', port=0, time=0)
note_on channel=0 note=62 velocity=80 time=0
note_on channel=0 note=62 velocity=0 time=719
note_on channel=0 note=67 velocity=80 time=1
note_on channel=0 note=67 velocity=0 time=227
note_on channel=0 note=70 velocity=80 time=13
note_on channel=0 note=70 velocity=0 time=719
note_on channel=0 note=67 velocity=80 time=1
note_on channel=0 note=67 velocity=0 time=227
note_on channel=0 note=66 velocity=80 time=13
note_on channel=0 note=66 velocity=0 time=719
note_on channel=0 note=67 velocity=80 time=1
note_on channel=0 note=67 velocity=0 time=119
note_on channel=0 note=69 velocity=80 time=1
note_on channel=0 note=69 velocity=0 time=119
note_on channel=0 note=67 velocity=80 time=1
note_on channel=0 note=67 velocity=0 time=911
note_on channel=0 note=63 velocity=80 time=49
note_on channel=0 note=63 velocity=0 time=719
note_on channel=0 note=65 velocity=80 time=1
note_on channel=0 note=65 velocity=0 time=119
note_on channel=0 note=67 velocity=80 time=1
note_on channel=0 note=67 velocity=0 time=119
note_on channel=0 note=62 velocity=80 time=1
note_on channel=0 note=62 velocity=0 time=911
note_on channel=0 note=60 velocity=80 time=49
note_on channel=0 note=60 velocity=0 time=119
note_on channel=0 note=58 velocity=80 time=1
note_on channel=0 note=58 velocity=0 time=119
note_on channel=0 note=58 velocity=80 time=1
note_on channel=0 note=58 velocity=0 time=119
note_on channel=0 note=57 velocity=80 time=1
note_on channel=0 note=57 velocity=0 time=119
note_on channel=0 note=57 velocity=80 time=1
note_on channel=0 note=57 velocity=0 time=341
note_on channel=0 note=62 velocity=80 time=19
note_on channel=0 note=62 velocity=0 time=113
note_on channel=0 note=55 velocity=80 time=7
note_on channel=0 note=55 velocity=0 time=911
note_on channel=0 note=62 velocity=80 time=49
note_on channel=0 note=62 velocity=0 time=719
note_on channel=0 note=67 velocity=80 time=1
note_on channel=0 note=67 velocity=0 time=119
note_on channel=0 note=70 velocity=80 time=1
note_on channel=0 note=70 velocity=0 time=119
note_on channel=0 note=74 velocity=80 time=1
note_on channel=0 note=74 velocity=0 time=683
note_on channel=0 note=70 velocity=80 time=37
note_on channel=0 note=70 velocity=0 time=227
note_on channel=0 note=63 velocity=80 time=13
note_on channel=0 note=69 velocity=80 time=0
note_on channel=0 note=63 velocity=0 time=683
note_on channel=0 note=69 velocity=0 time=0
note_on channel=0 note=70 velocity=80 time=37
note_on channel=0 note=70 velocity=0 time=119
note_on channel=0 note=72 velocity=80 time=1
note_on channel=0 note=72 velocity=0 time=119
note_on channel=0 note=62 velocity=80 time=1
note_on channel=0 note=70 velocity=80 time=0
note_on channel=0 note=62 velocity=0 time=911
note_on channel=0 note=70 velocity=0 time=0
note_on channel=0 note=75 velocity=49 time=49
note_on channel=0 note=75 velocity=0 time=59
note_on channel=0 note=77 velocity=49 time=61
note_on channel=0 note=77 velocity=0 time=59
note_on channel=0 note=79 velocity=50 time=61
note_on channel=0 note=79 velocity=0 time=59
note_on channel=0 note=75 velocity=52 time=61
note_on channel=0 note=75 velocity=0 time=59
note_on channel=0 note=74 velocity=53 time=61
note_on channel=0 note=74 velocity=0 time=59
note_on channel=0 note=75 velocity=55 time=61
note_on channel=0 note=75 velocity=0 time=59
note_on channel=0 note=77 velocity=56 time=61
note_on channel=0 note=77 velocity=0 time=59
note_on channel=0 note=74 velocity=58 time=61
note_on channel=0 note=74 velocity=0 time=59
note_on channel=0 note=72 velocity=59 time=61
note_on channel=0 note=72 velocity=0 time=59
note_on channel=0 note=74 velocity=61 time=61
note_on channel=0 note=74 velocity=0 time=59
note_on channel=0 note=75 velocity=62 time=61
note_on channel=0 note=75 velocity=0 time=59
note_on channel=0 note=72 velocity=64 time=61
note_on channel=0 note=72 velocity=0 time=59
note_on channel=0 note=70 velocity=65 time=61
note_on channel=0 note=70 velocity=0 time=59
note_on channel=0 note=72 velocity=67 time=61
note_on channel=0 note=72 velocity=0 time=59
note_on channel=0 note=74 velocity=68 time=61
note_on channel=0 note=74 velocity=0 time=59
note_on channel=0 note=70 velocity=70 time=61
note_on channel=0 note=70 velocity=0 time=59
note_on channel=0 note=72 velocity=71 time=61
note_on channel=0 note=72 velocity=0 time=119
note_on channel=0 note=70 velocity=73 time=1
note_on channel=0 note=70 velocity=0 time=119
note_on channel=0 note=70 velocity=74 time=1
note_on channel=0 note=70 velocity=0 time=119
note_on channel=0 note=69 velocity=76 time=1
note_on channel=0 note=69 velocity=0 time=119
note_on channel=0 note=69 velocity=77 time=1
note_on channel=0 note=69 velocity=0 time=341
note_on channel=0 note=74 velocity=82 time=19
note_on channel=0 note=74 velocity=0 time=113
note_on channel=0 note=67 velocity=83 time=7
note_on channel=0 note=67 velocity=0 time=455
note_on channel=0 note=67 velocity=89 time=25
note_on channel=0 note=70 velocity=89 time=42
note_on channel=0 note=74 velocity=89 time=42
note_on channel=0 note=79 velocity=89 time=42
note_on channel=0 note=67 velocity=0 time=113
note_on channel=0 note=70 velocity=0 time=0
note_on channel=0 note=74 velocity=0 time=0
note_on channel=0 note=79 velocity=0 time=0
note_on channel=0 note=70 velocity=96 time=241
note_on channel=0 note=74 velocity=96 time=0
note_on channel=0 note=70 velocity=0 time=683
note_on channel=0 note=74 velocity=0 time=0
note_on channel=0 note=70 velocity=96 time=37
note_on channel=0 note=79 velocity=96 time=0
note_on channel=0 note=70 velocity=0 time=227
note_on channel=0 note=79 velocity=0 time=0
note_on channel=0 note=74 velocity=96 time=13
note_on channel=0 note=82 velocity=96 time=0
note_on channel=0 note=74 velocity=0 time=683
note_on channel=0 note=82 velocity=0 time=0
note_on channel=0 note=74 velocity=96 time=37
note_on channel=0 note=79 velocity=96 time=0
note_on channel=0 note=74 velocity=0 time=227
note_on channel=0 note=79 velocity=0 time=0
note_on channel=0 note=72 velocity=96 time=13
note_on channel=0 note=75 velocity=96 time=0
note_on channel=0 note=78 velocity=96 time=0
note_on channel=0 note=72 velocity=0 time=683
note_on channel=0 note=75 velocity=0 time=0
note_on channel=0 note=78 velocity=0 time=0
note_on channel=0 note=79 velocity=96 time=37
note_on channel=0 note=79 velocity=0 time=119
note_on channel=0 note=81 velocity=96 time=1
note_on channel=0 note=81 velocity=0 time=119
note_on channel=0 note=70 velocity=96 time=1
note_on channel=0 note=74 velocity=96 time=0
note_on channel=0 note=79 velocity=96 time=0
note_on channel=0 note=70 velocity=0 time=911
note_on channel=0 note=74 velocity=0 time=0
note_on channel=0 note=79 velocity=0 time=0
note_on channel=0 note=72 velocity=96 time=49
note_on channel=0 note=75 velocity=96 time=0
note_on channel=0 note=72 velocity=0 time=683
note_on channel=0 note=75 velocity=0 time=0
note_on channel=0 note=74 velocity=96 time=37
note_on channel=0 note=77 velocity=96 time=0
note_on channel=0 note=74 velocity=0 time=119
note_on channel=0 note=77 velocity=0 time=0
note_on channel=0 note=75 velocity=96 time=1
note_on channel=0 note=79 velocity=96 time=0
note_on channel=0 note=75 velocity=0 time=119
note_on channel=0 note=79 velocity=0 time=0
note_on channel=0 note=70 velocity=96 time=1
note_on channel=0 note=74 velocity=96 time=0
note_on channel=0 note=70 velocity=0 time=911
note_on channel=0 note=74 velocity=0 time=0
note_on channel=0 note=72 velocity=96 time=49
note_on channel=0 note=72 velocity=0 time=119
note_on channel=0 note=70 velocity=96 time=1
note_on channel=0 note=70 velocity=0 time=119
note_on channel=0 note=70 velocity=96 time=1
note_on channel=0 note=70 velocity=0 time=119
note_on channel=0 note=69 velocity=96 time=1
note_on channel=0 note=69 velocity=0 time=119
note_on channel=0 note=69 velocity=96 time=1
note_on channel=0 note=69 velocity=0 time=341
note_on channel=0 note=74 velocity=96 time=19
note_on channel=0 note=74 velocity=0 time=113
note_on channel=0 note=67 velocity=96 time=7
note_on channel=0 note=67 velocity=0 time=911
note_on channel=0 note=62 velocity=96 time=49
note_on channel=0 note=62 velocity=0 time=359
note_on channel=0 note=67 velocity=96 time=1
note_on channel=0 note=67 velocity=0 time=119
note_on channel=0 note=70 velocity=99 time=1
note_on channel=0 note=70 velocity=0 time=119
note_on channel=0 note=74 velocity=102 time=1
note_on channel=0 note=74 velocity=0 time=119
note_on channel=0 note=79 velocity=105 time=1
note_on channel=0 note=79 velocity=0 time=119
note_on channel=0 note=82 velocity=108 time=1
note_on channel=0 note=82 velocity=0 time=119
note_on channel=0 note=86 velocity=112 time=1
note_on channel=0 note=86 velocity=0 time=683
note_on channel=0 note=82 velocity=112 time=37
note_on channel=0 note=82 velocity=0 time=227
note_on channel=0 note=72 velocity=112 time=13
note_on channel=0 note=75 velocity=112 time=0
note_on channel=0 note=78 velocity=112 time=0
note_on channel=0 note=81 velocity=112 time=0
note_on channel=0 note=72 velocity=0 time=683
note_on channel=0 note=75 velocity=0 time=0
note_on channel=0 note=78 velocity=0 time=0
note_on channel=0 note=81 velocity=0 time=0
note_on channel=0 note=82 velocity=112 time=37
note_on channel=0 note=82 velocity=0 time=119
note_on channel=0 note=84 velocity=112 time=1
note_on channel=0 note=84 velocity=0 time=119
note_on channel=0 note=70 velocity=112 time=1
note_on channel=0 note=74 velocity=112 time=0
note_on channel=0 note=79 velocity=112 time=0
note_on channel=0 note=82 velocity=112 time=0
note_on channel=0 note=70 velocity=0 time=911
note_on channel=0 note=74 velocity=0 time=0
note_on channel=0 note=79 velocity=0 time=0
note_on channel=0 note=82 velocity=0 time=0
note_on channel=0 note=87 velocity=49 time=49
note_on channel=0 note=87 velocity=0 time=119
note_on channel=0 note=89 velocity=49 time=1
note_on channel=0 note=89 velocity=0 time=119
note_on channel=0 note=91 velocity=61 time=1
note_on channel=0 note=91 velocity=0 time=119
note_on channel=0 note=87 velocity=53 time=1
note_on channel=0 note=87 velocity=0 time=119
note_on channel=0 note=86 velocity=55 time=1
note_on channel=0 note=86 velocity=0 time=119
note_on channel=0 note=87 velocity=57 time=1
note_on channel=0 note=87 velocity=0 time=119
note_on channel=0 note=89 velocity=70 time=1
note_on channel=0 note=89 velocity=0 time=119
note_on channel=0 note=86 velocity=61 time=1
note_on channel=0 note=86 velocity=0 time=113
note_on channel=0 note=84 velocity=63 time=7
note_on channel=0 note=84 velocity=0 time=119
note_on channel=0 note=86 velocity=65 time=1
note_on channel=0 note=86 velocity=0 time=119
note_on channel=0 note=87 velocity=80 time=1
note_on channel=0 note=87 velocity=0 time=119
note_on channel=0 note=84 velocity=69 time=1
note_on channel=0 note=84 velocity=0 time=119
note_on channel=0 note=82 velocity=71 time=1
note_on channel=0 note=82 velocity=0 time=119
note_on channel=0 note=84 velocity=73 time=1
note_on channel=0 note=84 velocity=0 time=119
note_on channel=0 note=86 velocity=90 time=1
note_on channel=0 note=86 velocity=0 time=119
note_on channel=0 note=82 velocity=77 time=1
note_on channel=0 note=82 velocity=0 time=113
note_on channel=0 note=84 velocity=94 time=7
note_on channel=0 note=84 velocity=0 time=119
note_on channel=0 note=82 velocity=81 time=1
note_on channel=0 note=82 velocity=0 time=119
note_on channel=0 note=82 velocity=99 time=1
note_on channel=0 note=82 velocity=0 time=119
note_on channel=0 note=81 velocity=85 time=1
note_on channel=0 note=81 velocity=0 time=119
note_on channel=0 note=81 velocity=104 time=1
note_on channel=0 note=81 velocity=0 time=359
note_on channel=0 note=86 velocity=93 time=1
note_on channel=0 note=86 velocity=0 time=113
note_on channel=0 note=67 velocity=96 time=7
note_on channel=0 note=79 velocity=96 time=0
note_on channel=0 note=67 velocity=0 time=455
note_on channel=0 note=79 velocity=0 time=0
note_on channel=0 note=79 velocity=115 time=25
note_on channel=0 note=82 velocity=115 time=0
note_on channel=0 note=86 velocity=115 time=0
note_on channel=0 note=91 velocity=115 time=0
note_on channel=0 note=79 velocity=0 time=239
note_on channel=0 note=82 velocity=0 time=0
note_on channel=0 note=86 velocity=0 time=0
note_on channel=0 note=91 velocity=0 time=0
note_on channel=0 note=77 velocity=96 time=241
note_on channel=0 note=86 velocity=96 time=0
note_on channel=0 note=77 velocity=0 time=455
note_on channel=0 note=86 velocity=0 time=0
note_on channel=0 note=77 velocity=96 time=25
note_on channel=0 note=86 velocity=96 time=0
note_on channel=0 note=77 velocity=0 time=455
note_on channel=0 note=86 velocity=0 time=0
note_on channel=0 note=79 velocity=96 time=25
note_on channel=0 note=87 velocity=96 time=0
note_on channel=0 note=79 velocity=0 time=683
note_on channel=0 note=87 velocity=0 time=0
note_on channel=0 note=77 velocity=96 time=37
note_on channel=0 note=86 velocity=96 time=0
note_on channel=0 note=77 velocity=0 time=227
note_on channel=0 note=86 velocity=0 time=0
note_on channel=0 note=75 velocity=96 time=253
note_on channel=0 note=84 velocity=96 time=0
note_on channel=0 note=75 velocity=0 time=455
note_on channel=0 note=84 velocity=0 time=0
note_on channel=0 note=83 velocity=96 time=25
note_on channel=0 note=75 velocity=96 time=0
note_on channel=0 note=83 velocity=0 time=113
note_on channel=0 note=84 velocity=96 time=7
note_on channel=0 note=84 velocity=0 time=113
note_on channel=0 note=86 velocity=96 time=7
note_on channel=0 note=86 velocity=0 time=113
note_on channel=0 note=84 velocity=96 time=7
note_on channel=0 note=84 velocity=0 time=113
note_on channel=0 note=83 velocity=96 time=7
note_on channel=0 note=83 velocity=0 time=113
note_on channel=0 note=86 velocity=96 time=7
note_on channel=0 note=86 velocity=0 time=113
note_on channel=0 note=84 velocity=96 time=7
note_on channel=0 note=75 velocity=0 time=191
note_on channel=0 note=84 velocity=0 time=264
note_on channel=0 note=75 velocity=96 time=25
note_on channel=0 note=84 velocity=96 time=0
note_on channel=0 note=75 velocity=0 time=455
note_on channel=0 note=84 velocity=0 time=0
note_on channel=0 note=75 velocity=96 time=25
note_on channel=0 note=84 velocity=96 time=0
note_on channel=0 note=75 velocity=0 time=455
note_on channel=0 note=84 velocity=0 time=0
note_on channel=0 note=77 velocity=96 time=25
note_on channel=0 note=86 velocity=96 time=0
note_on channel=0 note=77 velocity=0 time=683
note_on channel=0 note=86 velocity=0 time=0
note_on channel=0 note=75 velocity=96 time=37
note_on channel=0 note=84 velocity=96 time=0
note_on channel=0 note=75 velocity=0 time=227
note_on channel=0 note=84 velocity=0 time=0
note_on channel=0 note=74 velocity=96 time=253
note_on channel=0 note=82 velocity=96 time=0
note_on channel=0 note=74 velocity=0 time=455
note_on channel=0 note=82 velocity=0 time=0
note_on channel=0 note=74 velocity=96 time=25
note_on channel=0 note=81 velocity=96 time=0
note_on channel=0 note=81 velocity=0 time=113
note_on channel=0 note=82 velocity=96 time=7
note_on channel=0 note=74 velocity=0 time=107
note_on channel=0 note=82 velocity=0 time=6
note_on channel=0 note=74 velocity=96 time=7
note_on channel=0 note=84 velocity=96 time=0
note_on channel=0 note=84 velocity=0 time=113
note_on channel=0 note=82 velocity=96 time=7
note_on channel=0 note=74 velocity=0 time=107
note_on channel=0 note=82 velocity=0 time=6
note_on channel=0 note=81 velocity=96 time=7
note_on channel=0 note=81 velocity=0 time=113
note_on channel=0 note=84 velocity=96 time=7
note_on channel=0 note=84 velocity=0 time=113
note_on channel=0 note=74 velocity=96 time=7
note_on channel=0 note=82 velocity=96 time=0
note_on channel=0 note=74 velocity=0 time=227
note_on channel=0 note=82 velocity=0 time=228
MetaMessage('set_tempo', tempo=545456, time=25)
note_on channel=0 note=72 velocity=96 time=0
note_on channel=0 note=81 velocity=96 time=0
note_on channel=0 note=72 velocity=0 time=455
note_on channel=0 note=81 velocity=0 time=0
MetaMessage('set_tempo', tempo=750002, time=25)
note_on channel=0 note=72 velocity=90 time=0
note_on channel=0 note=81 velocity=90 time=0
note_on channel=0 note=72 velocity=0 time=455
note_on channel=0 note=81 velocity=0 time=0
note_on channel=0 note=75 velocity=84 time=25
note_on channel=0 note=84 velocity=84 time=0
note_on channel=0 note=75 velocity=0 time=227
note_on channel=0 note=84 velocity=0 time=0
note_on channel=0 note=74 velocity=81 time=13
note_on channel=0 note=82 velocity=81 time=0
note_on channel=0 note=74 velocity=0 time=455
note_on channel=0 note=82 velocity=0 time=0
note_on channel=0 note=72 velocity=75 time=25
note_on channel=0 note=81 velocity=75 time=0
note_on channel=0 note=72 velocity=0 time=227
note_on channel=0 note=81 velocity=0 time=0
note_on channel=0 note=72 velocity=71 time=13
note_on channel=0 note=81 velocity=71 time=0
note_on channel=0 note=72 velocity=0 time=227
note_on channel=0 note=81 velocity=0 time=0
MetaMessage('set_tempo', tempo=1000000, time=13)
note_on channel=0 note=70 velocity=68 time=0
note_on channel=0 note=79 velocity=68 time=0
note_on channel=0 note=70 velocity=0 time=455
note_on channel=0 note=79 velocity=0 time=0
note_on channel=0 note=69 velocity=62 time=25
note_on channel=0 note=78 velocity=62 time=0
note_on channel=0 note=69 velocity=0 time=113
note_on channel=0 note=78 velocity=0 time=0
note_on channel=0 note=70 velocity=60 time=7
note_on channel=0 note=79 velocity=60 time=0
note_on channel=0 note=70 velocity=0 time=113
note_on channel=0 note=79 velocity=0 time=0
MetaMessage('set_tempo', tempo=1200000, time=7)
note_on channel=0 note=72 velocity=59 time=0
note_on channel=0 note=81 velocity=59 time=0
note_on channel=0 note=72 velocity=0 time=113
note_on channel=0 note=81 velocity=0 time=0
note_on channel=0 note=70 velocity=57 time=7
note_on channel=0 note=79 velocity=57 time=0
note_on channel=0 note=70 velocity=0 time=113
note_on channel=0 note=79 velocity=0 time=0
note_on channel=0 note=69 velocity=56 time=7
note_on channel=0 note=78 velocity=56 time=0
note_on channel=0 note=69 velocity=0 time=113
note_on channel=0 note=78 velocity=0 time=0
note_on channel=0 note=72 velocity=54 time=7
note_on channel=0 note=81 velocity=54 time=0
note_on channel=0 note=72 velocity=0 time=113
note_on channel=0 note=81 velocity=0 time=0
note_on channel=0 note=70 velocity=53 time=7
note_on channel=0 note=74 velocity=53 time=0
note_on channel=0 note=79 velocity=53 time=0
note_on channel=0 note=70 velocity=0 time=227
note_on channel=0 note=74 velocity=0 time=0
note_on channel=0 note=79 velocity=0 time=0
MetaMessage('set_tempo', tempo=3000003, time=13)
MetaMessage('set_tempo', tempo=461538, time=240)
note_on channel=0 note=74 velocity=96 time=0
note_on channel=0 note=78 velocity=96 time=0
note_on channel=0 note=81 velocity=96 time=0
note_on channel=0 note=86 velocity=96 time=0
note_on channel=0 note=74 velocity=0 time=119
note_on channel=0 note=78 velocity=0 time=0
note_on channel=0 note=81 velocity=0 time=0
note_on channel=0 note=86 velocity=0 time=0
note_on channel=0 note=62 velocity=96 time=721
note_on channel=0 note=74 velocity=96 time=0
note_on channel=0 note=62 velocity=0 time=113
note_on channel=0 note=74 velocity=0 time=0
note_on channel=0 note=64 velocity=96 time=7
note_on channel=0 note=76 velocity=96 time=0
note_on channel=0 note=64 velocity=0 time=227
note_on channel=0 note=76 velocity=0 time=0
note_on channel=0 note=66 velocity=96 time=253
note_on channel=0 note=78 velocity=96 time=0
note_on channel=0 note=66 velocity=0 time=227
note_on channel=0 note=78 velocity=0 time=0
note_on channel=0 note=81 velocity=96 time=253
note_on channel=0 note=81 velocity=0 time=66
note_on channel=0 note=79 velocity=96 time=1
note_on channel=0 note=79 velocity=0 time=162
note_on channel=0 note=70 velocity=96 time=11
note_on channel=0 note=79 velocity=96 time=0
note_on channel=0 note=70 velocity=0 time=455
note_on channel=0 note=79 velocity=0 time=0
note_on channel=0 note=78 velocity=96 time=25
note_on channel=0 note=78 velocity=0 time=113
note_on channel=0 note=79 velocity=96 time=7
note_on channel=0 note=79 velocity=0 time=113
note_on channel=0 note=72 velocity=96 time=7
note_on channel=0 note=81 velocity=96 time=0
note_on channel=0 note=72 velocity=0 time=95
note_on channel=0 note=81 velocity=0 time=0
note_on channel=0 note=79 velocity=96 time=1
note_on channel=0 note=79 velocity=0 time=95
note_on channel=0 note=78 velocity=96 time=1
note_on channel=0 note=78 velocity=0 time=95
note_on channel=0 note=79 velocity=96 time=1
note_on channel=0 note=79 velocity=0 time=95
note_on channel=0 note=81 velocity=96 time=1
note_on channel=0 note=81 velocity=0 time=95
note_on channel=0 note=70 velocity=96 time=1
note_on channel=0 note=79 velocity=96 time=0
note_on channel=0 note=70 velocity=0 time=227
note_on channel=0 note=79 velocity=0 time=0
note_on channel=0 note=77 velocity=96 time=253
note_on channel=0 note=86 velocity=96 time=0
note_on channel=0 note=77 velocity=0 time=455
note_on channel=0 note=86 velocity=0 time=0
note_on channel=0 note=77 velocity=96 time=25
note_on channel=0 note=86 velocity=96 time=0
note_on channel=0 note=77 velocity=0 time=455
note_on channel=0 note=86 velocity=0 time=0
note_on channel=0 note=79 velocity=96 time=25
note_on channel=0 note=87 velocity=96 time=0
note_on channel=0 note=79 velocity=0 time=683
note_on channel=0 note=87 velocity=0 time=0
note_on channel=0 note=77 velocity=96 time=37
note_on channel=0 note=86 velocity=96 time=0
note_on channel=0 note=77 velocity=0 time=227
note_on channel=0 note=86 velocity=0 time=0
note_on channel=0 note=75 velocity=96 time=253
note_on channel=0 note=84 velocity=96 time=0
note_on channel=0 note=75 velocity=0 time=455
note_on channel=0 note=84 velocity=0 time=0
note_on channel=0 note=83 velocity=96 time=25
note_on channel=0 note=75 velocity=96 time=0
note_on channel=0 note=83 velocity=0 time=113
note_on channel=0 note=84 velocity=96 time=7
note_on channel=0 note=84 velocity=0 time=113
note_on channel=0 note=86 velocity=96 time=7
note_on channel=0 note=86 velocity=0 time=113
note_on channel=0 note=84 velocity=96 time=7
note_on channel=0 note=84 velocity=0 time=113
note_on channel=0 note=83 velocity=96 time=7
note_on channel=0 note=83 velocity=0 time=113
note_on channel=0 note=86 velocity=96 time=7
note_on channel=0 note=86 velocity=0 time=113
note_on channel=0 note=84 velocity=96 time=7
note_on channel=0 note=75 velocity=0 time=191
note_on channel=0 note=84 velocity=0 time=264
note_on channel=0 note=75 velocity=96 time=25
note_on channel=0 note=84 velocity=96 time=0
note_on channel=0 note=75 velocity=0 time=455
note_on channel=0 note=84 velocity=0 time=0
note_on channel=0 note=75 velocity=96 time=25
note_on channel=0 note=84 velocity=96 time=0
note_on channel=0 note=75 velocity=0 time=455
note_on channel=0 note=84 velocity=0 time=0
note_on channel=0 note=77 velocity=96 time=25
note_on channel=0 note=86 velocity=96 time=0
note_on channel=0 note=77 velocity=0 time=683
note_on channel=0 note=86 velocity=0 time=0
note_on channel=0 note=75 velocity=96 time=37
note_on channel=0 note=84 velocity=96 time=0
note_on channel=0 note=75 velocity=0 time=227
note_on channel=0 note=84 velocity=0 time=0
note_on channel=0 note=74 velocity=96 time=253
note_on channel=0 note=82 velocity=96 time=0
note_on channel=0 note=74 velocity=0 time=455
note_on channel=0 note=82 velocity=0 time=0
note_on channel=0 note=74 velocity=96 time=25
note_on channel=0 note=81 velocity=96 time=0
note_on channel=0 note=81 velocity=0 time=113
note_on channel=0 note=82 velocity=96 time=7
note_on channel=0 note=74 velocity=0 time=107
note_on channel=0 note=82 velocity=0 time=6
note_on channel=0 note=74 velocity=96 time=7
note_on channel=0 note=84 velocity=96 time=0
note_on channel=0 note=84 velocity=0 time=113
note_on channel=0 note=82 velocity=96 time=7
note_on channel=0 note=74 velocity=0 time=107
note_on channel=0 note=82 velocity=0 time=6
note_on channel=0 note=81 velocity=96 time=7
note_on channel=0 note=81 velocity=0 time=113
note_on channel=0 note=84 velocity=96 time=7
note_on channel=0 note=84 velocity=0 time=113
note_on channel=0 note=74 velocity=96 time=7
note_on channel=0 note=82 velocity=96 time=0
note_on channel=0 note=74 velocity=0 time=227
note_on channel=0 note=82 velocity=0 time=228
MetaMessage('set_tempo', tempo=545456, time=25)
note_on channel=0 note=72 velocity=96 time=0
note_on channel=0 note=81 velocity=96 time=0
note_on channel=0 note=72 velocity=0 time=455
note_on channel=0 note=81 velocity=0 time=0
MetaMessage('set_tempo', tempo=750002, time=25)
note_on channel=0 note=72 velocity=90 time=0
note_on channel=0 note=81 velocity=90 time=0
note_on channel=0 note=72 velocity=0 time=455
note_on channel=0 note=81 velocity=0 time=0
note_on channel=0 note=75 velocity=84 time=25
note_on channel=0 note=84 velocity=84 time=0
note_on channel=0 note=75 velocity=0 time=227
note_on channel=0 note=84 velocity=0 time=0
note_on channel=0 note=74 velocity=81 time=13
note_on channel=0 note=82 velocity=81 time=0
note_on channel=0 note=74 velocity=0 time=455
note_on channel=0 note=82 velocity=0 time=0
note_on channel=0 note=72 velocity=75 time=25
note_on channel=0 note=81 velocity=75 time=0
note_on channel=0 note=72 velocity=0 time=227
note_on channel=0 note=81 velocity=0 time=0
note_on channel=0 note=72 velocity=71 time=13
note_on channel=0 note=81 velocity=71 time=0
note_on channel=0 note=72 velocity=0 time=227
note_on channel=0 note=81 velocity=0 time=0
MetaMessage('set_tempo', tempo=1000000, time=13)
note_on channel=0 note=70 velocity=68 time=0
note_on channel=0 note=79 velocity=68 time=0
note_on channel=0 note=70 velocity=0 time=455
note_on channel=0 note=79 velocity=0 time=0
note_on channel=0 note=69 velocity=62 time=25
note_on channel=0 note=78 velocity=62 time=0
note_on channel=0 note=69 velocity=0 time=113
note_on channel=0 note=78 velocity=0 time=0
note_on channel=0 note=70 velocity=60 time=7
note_on channel=0 note=79 velocity=60 time=0
note_on channel=0 note=70 velocity=0 time=113
note_on channel=0 note=79 velocity=0 time=0
MetaMessage('set_tempo', tempo=1200000, time=7)
note_on channel=0 note=72 velocity=59 time=0
note_on channel=0 note=81 velocity=59 time=0
note_on channel=0 note=72 velocity=0 time=113
note_on channel=0 note=81 velocity=0 time=0
note_on channel=0 note=70 velocity=57 time=7
note_on channel=0 note=79 velocity=57 time=0
note_on channel=0 note=70 velocity=0 time=113
note_on channel=0 note=79 velocity=0 time=0
note_on channel=0 note=69 velocity=56 time=7
note_on channel=0 note=78 velocity=56 time=0
note_on channel=0 note=69 velocity=0 time=113
note_on channel=0 note=78 velocity=0 time=0
note_on channel=0 note=72 velocity=54 time=7
note_on channel=0 note=81 velocity=54 time=0
note_on channel=0 note=72 velocity=0 time=113
note_on channel=0 note=81 velocity=0 time=0
note_on channel=0 note=70 velocity=53 time=7
note_on channel=0 note=74 velocity=53 time=0
note_on channel=0 note=79 velocity=53 time=0
note_on channel=0 note=70 velocity=0 time=227
note_on channel=0 note=74 velocity=0 time=0
note_on channel=0 note=79 velocity=0 time=0
MetaMessage('set_tempo', tempo=3000003, time=13)
MetaMessage('set_tempo', tempo=461538, time=240)
note_on channel=0 note=74 velocity=96 time=0
note_on channel=0 note=78 velocity=96 time=0
note_on channel=0 note=81 velocity=96 time=0
note_on channel=0 note=86 velocity=96 time=0
note_on channel=0 note=74 velocity=0 time=119
note_on channel=0 note=78 velocity=0 time=0
note_on channel=0 note=81 velocity=0 time=0
note_on channel=0 note=86 velocity=0 time=0
note_on channel=0 note=62 velocity=96 time=721
note_on channel=0 note=74 velocity=96 time=0
note_on channel=0 note=62 velocity=0 time=113
note_on channel=0 note=74 velocity=0 time=0
note_on channel=0 note=64 velocity=96 time=7
note_on channel=0 note=76 velocity=96 time=0
note_on channel=0 note=64 velocity=0 time=227
note_on channel=0 note=76 velocity=0 time=0
note_on channel=0 note=66 velocity=96 time=253
note_on channel=0 note=78 velocity=96 time=0
note_on channel=0 note=66 velocity=0 time=227
note_on channel=0 note=78 velocity=0 time=0
note_on channel=0 note=81 velocity=96 time=253
note_on channel=0 note=81 velocity=0 time=66
note_on channel=0 note=79 velocity=96 time=1
note_on channel=0 note=79 velocity=0 time=162
note_on channel=0 note=70 velocity=96 time=11
note_on channel=0 note=79 velocity=96 time=0
note_on channel=0 note=70 velocity=0 time=455
note_on channel=0 note=79 velocity=0 time=0
note_on channel=0 note=78 velocity=96 time=25
note_on channel=0 note=78 velocity=0 time=113
note_on channel=0 note=79 velocity=96 time=7
note_on channel=0 note=79 velocity=0 time=113
note_on channel=0 note=72 velocity=96 time=7
note_on channel=0 note=81 velocity=96 time=0
note_on channel=0 note=72 velocity=0 time=95
note_on channel=0 note=81 velocity=0 time=0
note_on channel=0 note=79 velocity=96 time=1
note_on channel=0 note=79 velocity=0 time=95
note_on channel=0 note=78 velocity=96 time=1
note_on channel=0 note=78 velocity=0 time=95
note_on channel=0 note=79 velocity=96 time=1
note_on channel=0 note=79 velocity=0 time=95
note_on channel=0 note=81 velocity=96 time=1
note_on channel=0 note=81 velocity=0 time=95
note_on channel=0 note=70 velocity=96 time=1
note_on channel=0 note=79 velocity=96 time=0
note_on channel=0 note=70 velocity=0 time=227
note_on channel=0 note=79 velocity=0 time=0
MetaMessage('key_signature', key='G', time=253)
MetaMessage('set_tempo', tempo=428572, time=0)
note_on channel=0 note=74 velocity=96 time=0
note_on channel=0 note=79 velocity=96 time=0
note_on channel=0 note=74 velocity=0 time=227
note_on channel=0 note=79 velocity=0 time=0
note_on channel=0 note=71 velocity=96 time=13
note_on channel=0 note=74 velocity=96 time=0
note_on channel=0 note=71 velocity=0 time=227
note_on channel=0 note=74 velocity=0 time=0
note_on channel=0 note=71 velocity=96 time=13
note_on channel=0 note=74 velocity=96 time=0
note_on channel=0 note=71 velocity=0 time=227
note_on channel=0 note=74 velocity=0 time=0
note_on channel=0 note=71 velocity=96 time=13
note_on channel=0 note=74 velocity=96 time=0
note_on channel=0 note=71 velocity=0 time=227
note_on channel=0 note=74 velocity=0 time=0
note_on channel=0 note=71 velocity=96 time=13
note_on channel=0 note=74 velocity=96 time=0
note_on channel=0 note=71 velocity=0 time=227
note_on channel=0 note=74 velocity=0 time=0
note_on channel=0 note=69 velocity=96 time=13
note_on channel=0 note=72 velocity=96 time=0
note_on channel=0 note=69 velocity=0 time=227
note_on channel=0 note=72 velocity=0 time=0
note_on channel=0 note=67 velocity=96 time=13
note_on channel=0 note=71 velocity=96 time=0
note_on channel=0 note=67 velocity=0 time=227
note_on channel=0 note=71 velocity=0 time=0
note_on channel=0 note=69 velocity=96 time=13
note_on channel=0 note=72 velocity=96 time=0
note_on channel=0 note=69 velocity=0 time=227
note_on channel=0 note=72 velocity=0 time=0
note_on channel=0 note=67 velocity=96 time=13
note_on channel=0 note=71 velocity=96 time=0
note_on channel=0 note=74 velocity=96 time=0
note_on channel=0 note=67 velocity=0 time=227
note_on channel=0 note=71 velocity=0 time=0
note_on channel=0 note=74 velocity=0 time=0
note_on channel=0 note=67 velocity=96 time=13
note_on channel=0 note=71 velocity=96 time=0
note_on channel=0 note=74 velocity=96 time=0
note_on channel=0 note=67 velocity=0 time=227
note_on channel=0 note=71 velocity=0 time=0
note_on channel=0 note=74 velocity=0 time=0
note_on channel=0 note=67 velocity=96 time=13
note_on channel=0 note=71 velocity=96 time=0
note_on channel=0 note=74 velocity=96 time=0
note_on channel=0 note=67 velocity=0 time=227
note_on channel=0 note=71 velocity=0 time=0
note_on channel=0 note=74 velocity=0 time=0
note_on channel=0 note=67 velocity=96 time=13
note_on channel=0 note=71 velocity=96 time=0
note_on channel=0 note=74 velocity=96 time=0
note_on channel=0 note=67 velocity=0 time=227
note_on channel=0 note=71 velocity=0 time=0
note_on channel=0 note=74 velocity=0 time=0
note_on channel=0 note=74 velocity=96 time=13
note_on channel=0 note=79 velocity=96 time=0
note_on channel=0 note=74 velocity=0 time=227
note_on channel=0 note=79 velocity=0 time=0
note_on channel=0 note=71 velocity=96 time=13
note_on channel=0 note=74 velocity=96 time=0
note_on channel=0 note=71 velocity=0 time=227
note_on channel=0 note=74 velocity=0 time=0
note_on channel=0 note=71 velocity=96 time=13
note_on channel=0 note=74 velocity=96 time=0
note_on channel=0 note=71 velocity=0 time=227
note_on channel=0 note=74 velocity=0 time=0
note_on channel=0 note=71 velocity=96 time=13
note_on channel=0 note=74 velocity=96 time=0
note_on channel=0 note=71 velocity=0 time=227
note_on channel=0 note=74 velocity=0 time=0
note_on channel=0 note=71 velocity=96 time=13
note_on channel=0 note=74 velocity=96 time=0
note_on channel=0 note=71 velocity=0 time=227
note_on channel=0 note=74 velocity=0 time=0
note_on channel=0 note=69 velocity=96 time=13
note_on channel=0 note=72 velocity=96 time=0
note_on channel=0 note=69 velocity=0 time=227
note_on channel=0 note=72 velocity=0 time=0
note_on channel=0 note=67 velocity=96 time=13
note_on channel=0 note=71 velocity=96 time=0
note_on channel=0 note=67 velocity=0 time=227
note_on channel=0 note=71 velocity=0 time=0
note_on channel=0 note=66 velocity=96 time=13
note_on channel=0 note=69 velocity=96 time=0
note_on channel=0 note=66 velocity=0 time=227
note_on channel=0 note=69 velocity=0 time=0
note_on channel=0 note=59 velocity=96 time=13
note_on channel=0 note=62 velocity=96 time=0
note_on channel=0 note=67 velocity=96 time=0
note_on channel=0 note=59 velocity=0 time=227
note_on channel=0 note=62 velocity=0 time=0
note_on channel=0 note=67 velocity=0 time=0
note_on channel=0 note=59 velocity=96 time=13
note_on channel=0 note=62 velocity=96 time=0
note_on channel=0 note=67 velocity=96 time=0
note_on channel=0 note=59 velocity=0 time=227
note_on channel=0 note=62 velocity=0 time=0
note_on channel=0 note=67 velocity=0 time=0
note_on channel=0 note=59 velocity=96 time=13
note_on channel=0 note=62 velocity=96 time=0
note_on channel=0 note=67 velocity=96 time=0
note_on channel=0 note=59 velocity=0 time=227
note_on channel=0 note=62 velocity=0 time=0
note_on channel=0 note=67 velocity=0 time=0
note_on channel=0 note=59 velocity=96 time=13
note_on channel=0 note=62 velocity=96 time=0
note_on channel=0 note=67 velocity=96 time=0
note_on channel=0 note=59 velocity=0 time=227
note_on channel=0 note=62 velocity=0 time=0
note_on channel=0 note=67 velocity=0 time=0
note_on channel=0 note=74 velocity=96 time=13
note_on channel=0 note=79 velocity=96 time=0
note_on channel=0 note=74 velocity=0 time=227
note_on channel=0 note=79 velocity=0 time=0
note_on channel=0 note=71 velocity=96 time=13
note_on channel=0 note=74 velocity=96 time=0
note_on channel=0 note=71 velocity=0 time=227
note_on channel=0 note=74 velocity=0 time=0
note_on channel=0 note=71 velocity=96 time=13
note_on channel=0 note=74 velocity=96 time=0
note_on channel=0 note=71 velocity=0 time=227
note_on channel=0 note=74 velocity=0 time=0
note_on channel=0 note=71 velocity=96 time=13
note_on channel=0 note=74 velocity=96 time=0
note_on channel=0 note=71 velocity=0 time=227
note_on channel=0 note=74 velocity=0 time=0
note_on channel=0 note=71 velocity=96 time=13
note_on channel=0 note=74 velocity=96 time=0
note_on channel=0 note=71 velocity=0 time=227
note_on channel=0 note=74 velocity=0 time=0
note_on channel=0 note=69 velocity=96 time=13
note_on channel=0 note=72 velocity=96 time=0
note_on channel=0 note=69 velocity=0 time=227
note_on channel=0 note=72 velocity=0 time=0
note_on channel=0 note=67 velocity=96 time=13
note_on channel=0 note=71 velocity=96 time=0
note_on channel=0 note=67 velocity=0 time=227
note_on channel=0 note=71 velocity=0 time=0
note_on channel=0 note=69 velocity=96 time=13
note_on channel=0 note=72 velocity=96 time=0
note_on channel=0 note=69 velocity=0 time=227
note_on channel=0 note=72 velocity=0 time=0
note_on channel=0 note=67 velocity=96 time=13
note_on channel=0 note=71 velocity=96 time=0
note_on channel=0 note=74 velocity=96 time=0
note_on channel=0 note=67 velocity=0 time=227
note_on channel=0 note=71 velocity=0 time=0
note_on channel=0 note=74 velocity=0 time=0
note_on channel=0 note=67 velocity=96 time=13
note_on channel=0 note=71 velocity=96 time=0
note_on channel=0 note=74 velocity=96 time=0
note_on channel=0 note=67 velocity=0 time=227
note_on channel=0 note=71 velocity=0 time=0
note_on channel=0 note=74 velocity=0 time=0
note_on channel=0 note=67 velocity=96 time=13
note_on channel=0 note=71 velocity=96 time=0
note_on channel=0 note=74 velocity=96 time=0
note_on channel=0 note=67 velocity=0 time=227
note_on channel=0 note=71 velocity=0 time=0
note_on channel=0 note=74 velocity=0 time=0
note_on channel=0 note=67 velocity=96 time=13
note_on channel=0 note=71 velocity=96 time=0
note_on channel=0 note=74 velocity=96 time=0
note_on channel=0 note=67 velocity=0 time=227
note_on channel=0 note=71 velocity=0 time=0
note_on channel=0 note=74 velocity=0 time=0
note_on channel=0 note=74 velocity=96 time=13
note_on channel=0 note=79 velocity=96 time=0
note_on channel=0 note=74 velocity=0 time=227
note_on channel=0 note=79 velocity=0 time=0
note_on channel=0 note=71 velocity=96 time=13
note_on channel=0 note=74 velocity=96 time=0
note_on channel=0 note=71 velocity=0 time=227
note_on channel=0 note=74 velocity=0 time=0
note_on channel=0 note=71 velocity=96 time=13
note_on channel=0 note=74 velocity=96 time=0
note_on channel=0 note=71 velocity=0 time=227
note_on channel=0 note=74 velocity=0 time=0
note_on channel=0 note=71 velocity=96 time=13
note_on channel=0 note=74 velocity=96 time=0
note_on channel=0 note=71 velocity=0 time=227
note_on channel=0 note=74 velocity=0 time=0
note_on channel=0 note=71 velocity=96 time=13
note_on channel=0 note=74 velocity=96 time=0
note_on channel=0 note=71 velocity=0 time=227
note_on channel=0 note=74 velocity=0 time=0
note_on channel=0 note=69 velocity=96 time=13
note_on channel=0 note=72 velocity=96 time=0
note_on channel=0 note=69 velocity=0 time=227
note_on channel=0 note=72 velocity=0 time=0
note_on channel=0 note=67 velocity=96 time=13
note_on channel=0 note=71 velocity=96 time=0
note_on channel=0 note=67 velocity=0 time=227
note_on channel=0 note=71 velocity=0 time=0
note_on channel=0 note=66 velocity=96 time=13
note_on channel=0 note=69 velocity=96 time=0
note_on channel=0 note=66 velocity=0 time=227
note_on channel=0 note=69 velocity=0 time=0
note_on channel=0 note=59 velocity=96 time=13
note_on channel=0 note=62 velocity=96 time=0
note_on channel=0 note=67 velocity=96 time=0
note_on channel=0 note=59 velocity=0 time=227
note_on channel=0 note=62 velocity=0 time=0
note_on channel=0 note=67 velocity=0 time=0
note_on channel=0 note=59 velocity=96 time=13
note_on channel=0 note=62 velocity=96 time=0
note_on channel=0 note=67 velocity=96 time=0
note_on channel=0 note=59 velocity=0 time=227
note_on channel=0 note=62 velocity=0 time=0
note_on channel=0 note=67 velocity=0 time=0
note_on channel=0 note=59 velocity=96 time=13
note_on channel=0 note=62 velocity=96 time=0
note_on channel=0 note=67 velocity=96 time=0
note_on channel=0 note=59 velocity=0 time=227
note_on channel=0 note=62 velocity=0 time=0
note_on channel=0 note=67 velocity=0 time=0
MetaMessage('set_tempo', tempo=1499999, time=13)
note_on channel=0 note=59 velocity=96 time=0
note_on channel=0 note=62 velocity=96 time=0
note_on channel=0 note=67 velocity=96 time=0
note_on channel=0 note=59 velocity=0 time=227
note_on channel=0 note=62 velocity=0 time=0
note_on channel=0 note=67 velocity=0 time=0
MetaMessage('set_tempo', tempo=1000000, time=13)
note_on channel=0 note=71 velocity=49 time=0
note_on channel=0 note=62 velocity=49 time=240
note_on channel=0 note=67 velocity=49 time=0
note_on channel=0 note=71 velocity=0 time=215
note_on channel=0 note=62 velocity=0 time=12
note_on channel=0 note=67 velocity=0 time=0
note_on channel=0 note=72 velocity=49 time=13
note_on channel=0 note=64 velocity=49 time=240
note_on channel=0 note=67 velocity=49 time=0
note_on channel=0 note=72 velocity=0 time=215
note_on channel=0 note=64 velocity=0 time=12
note_on channel=0 note=67 velocity=0 time=0
MetaMessage('set_tempo', tempo=1000000, time=13)
note_on channel=0 note=71 velocity=49 time=0
note_on channel=0 note=62 velocity=49 time=240
note_on channel=0 note=67 velocity=49 time=0
note_on channel=0 note=71 velocity=0 time=215
note_on channel=0 note=62 velocity=0 time=12
note_on channel=0 note=67 velocity=0 time=0
note_on channel=0 note=69 velocity=49 time=13
MetaMessage('set_tempo', tempo=3000003, time=240)
note_on channel=0 note=62 velocity=49 time=0
note_on channel=0 note=66 velocity=49 time=0
note_on channel=0 note=69 velocity=0 time=215
note_on channel=0 note=62 velocity=0 time=12
note_on channel=0 note=66 velocity=0 time=0
MetaMessage('set_tempo', tempo=428572, time=13)
note_on channel=0 note=71 velocity=96 time=0
note_on channel=0 note=79 velocity=96 time=0
note_on channel=0 note=83 velocity=96 time=0
note_on channel=0 note=71 velocity=0 time=119
note_on channel=0 note=79 velocity=0 time=0
note_on channel=0 note=83 velocity=0 time=0
note_on channel=0 note=71 velocity=96 time=121
note_on channel=0 note=79 velocity=96 time=0
note_on channel=0 note=83 velocity=96 time=0
note_on channel=0 note=71 velocity=0 time=119
note_on channel=0 note=79 velocity=0 time=0
note_on channel=0 note=83 velocity=0 time=0
note_on channel=0 note=72 velocity=96 time=121
note_on channel=0 note=81 velocity=96 time=0
note_on channel=0 note=84 velocity=96 time=0
note_on channel=0 note=72 velocity=0 time=119
note_on channel=0 note=81 velocity=0 time=0
note_on channel=0 note=84 velocity=0 time=0
note_on channel=0 note=72 velocity=96 time=121
note_on channel=0 note=81 velocity=96 time=0
note_on channel=0 note=84 velocity=96 time=0
note_on channel=0 note=72 velocity=0 time=119
note_on channel=0 note=81 velocity=0 time=0
note_on channel=0 note=84 velocity=0 time=0
note_on channel=0 note=74 velocity=96 time=121
note_on channel=0 note=83 velocity=96 time=0
note_on channel=0 note=86 velocity=96 time=0
note_on channel=0 note=74 velocity=0 time=227
note_on channel=0 note=83 velocity=0 time=0
note_on channel=0 note=86 velocity=0 time=0
note_on channel=0 note=79 velocity=96 time=13
note_on channel=0 note=83 velocity=96 time=0
note_on channel=0 note=91 velocity=96 time=0
note_on channel=0 note=79 velocity=0 time=227
note_on channel=0 note=83 velocity=0 time=0
note_on channel=0 note=91 velocity=0 time=0
note_on channel=0 note=74 velocity=96 time=13
note_on channel=0 note=83 velocity=96 time=0
note_on channel=0 note=86 velocity=96 time=0
MetaMessage('set_tempo', tempo=3000003, time=240)
note_on channel=0 note=74 velocity=0 time=215
note_on channel=0 note=83 velocity=0 time=0
note_on channel=0 note=86 velocity=0 time=0
MetaMessage('set_tempo', tempo=1000000, time=25)
note_on channel=0 note=71 velocity=49 time=0
note_on channel=0 note=62 velocity=49 time=240
note_on channel=0 note=67 velocity=49 time=0
note_on channel=0 note=71 velocity=0 time=215
note_on channel=0 note=62 velocity=0 time=12
note_on channel=0 note=67 velocity=0 time=0
note_on channel=0 note=72 velocity=49 time=13
note_on channel=0 note=64 velocity=49 time=240
note_on channel=0 note=67 velocity=49 time=0
note_on channel=0 note=72 velocity=0 time=215
note_on channel=0 note=64 velocity=0 time=12
note_on channel=0 note=67 velocity=0 time=0
MetaMessage('set_tempo', tempo=1200000, time=13)
note_on channel=0 note=74 velocity=49 time=0
note_on channel=0 note=69 velocity=49 time=240
note_on channel=0 note=72 velocity=49 time=0
note_on channel=0 note=74 velocity=0 time=215
note_on channel=0 note=69 velocity=0 time=12
note_on channel=0 note=72 velocity=0 time=0
note_on channel=0 note=74 velocity=49 time=13
MetaMessage('set_tempo', tempo=3000003, time=240)
note_on channel=0 note=67 velocity=49 time=0
note_on channel=0 note=71 velocity=49 time=0
note_on channel=0 note=74 velocity=0 time=215
note_on channel=0 note=67 velocity=0 time=12
note_on channel=0 note=71 velocity=0 time=0
MetaMessage('set_tempo', tempo=428572, time=13)
note_on channel=0 note=74 velocity=96 time=0
note_on channel=0 note=83 velocity=96 time=0
note_on channel=0 note=86 velocity=96 time=0
note_on channel=0 note=74 velocity=0 time=119
note_on channel=0 note=83 velocity=0 time=0
note_on channel=0 note=86 velocity=0 time=0
note_on channel=0 note=72 velocity=96 time=121
note_on channel=0 note=81 velocity=96 time=0
note_on channel=0 note=84 velocity=96 time=0
note_on channel=0 note=72 velocity=0 time=119
note_on channel=0 note=81 velocity=0 time=0
note_on channel=0 note=84 velocity=0 time=0
note_on channel=0 note=71 velocity=96 time=121
note_on channel=0 note=79 velocity=96 time=0
note_on channel=0 note=83 velocity=96 time=0
note_on channel=0 note=71 velocity=0 time=119
note_on channel=0 note=79 velocity=0 time=0
note_on channel=0 note=83 velocity=0 time=0
note_on channel=0 note=69 velocity=96 time=121
note_on channel=0 note=78 velocity=96 time=0
note_on channel=0 note=81 velocity=96 time=0
note_on channel=0 note=69 velocity=0 time=119
note_on channel=0 note=78 velocity=0 time=0
note_on channel=0 note=81 velocity=0 time=0
note_on channel=0 note=67 velocity=96 time=121
note_on channel=0 note=71 velocity=96 time=0
note_on channel=0 note=74 velocity=96 time=0
note_on channel=0 note=67 velocity=0 time=239
note_on channel=0 note=71 velocity=0 time=0
note_on channel=0 note=74 velocity=0 time=0
note_on channel=0 note=79 velocity=96 time=1
note_on channel=0 note=83 velocity=96 time=0
note_on channel=0 note=86 velocity=96 time=0
note_on channel=0 note=79 velocity=0 time=227
note_on channel=0 note=83 velocity=0 time=0
note_on channel=0 note=86 velocity=0 time=0
MetaMessage('set_tempo', tempo=1499999, time=13)
MetaMessage('set_tempo', tempo=1000000, time=480)
note_on channel=0 note=71 velocity=49 time=0
note_on channel=0 note=62 velocity=49 time=240
note_on channel=0 note=67 velocity=49 time=0
note_on channel=0 note=71 velocity=0 time=215
note_on channel=0 note=62 velocity=0 time=12
note_on channel=0 note=67 velocity=0 time=0
note_on channel=0 note=72 velocity=49 time=13
note_on channel=0 note=64 velocity=49 time=240
note_on channel=0 note=67 velocity=49 time=0
note_on channel=0 note=72 velocity=0 time=215
note_on channel=0 note=64 velocity=0 time=12
note_on channel=0 note=67 velocity=0 time=0
MetaMessage('set_tempo', tempo=1000000, time=13)
note_on channel=0 note=71 velocity=49 time=0
note_on channel=0 note=62 velocity=49 time=240
note_on channel=0 note=67 velocity=49 time=0
note_on channel=0 note=71 velocity=0 time=215
note_on channel=0 note=62 velocity=0 time=12
note_on channel=0 note=67 velocity=0 time=0
note_on channel=0 note=69 velocity=49 time=13
MetaMessage('set_tempo', tempo=3000003, time=240)
note_on channel=0 note=62 velocity=49 time=0
note_on channel=0 note=66 velocity=49 time=0
note_on channel=0 note=69 velocity=0 time=215
note_on channel=0 note=62 velocity=0 time=12
note_on channel=0 note=66 velocity=0 time=0
MetaMessage('set_tempo', tempo=428572, time=13)
note_on channel=0 note=71 velocity=96 time=0
note_on channel=0 note=79 velocity=96 time=0
note_on channel=0 note=83 velocity=96 time=0
note_on channel=0 note=71 velocity=0 time=119
note_on channel=0 note=79 velocity=0 time=0
note_on channel=0 note=83 velocity=0 time=0
note_on channel=0 note=71 velocity=96 time=121
note_on channel=0 note=79 velocity=96 time=0
note_on channel=0 note=83 velocity=96 time=0
note_on channel=0 note=71 velocity=0 time=119
note_on channel=0 note=79 velocity=0 time=0
note_on channel=0 note=83 velocity=0 time=0
note_on channel=0 note=72 velocity=96 time=121
note_on channel=0 note=81 velocity=96 time=0
note_on channel=0 note=84 velocity=96 time=0
note_on channel=0 note=72 velocity=0 time=119
note_on channel=0 note=81 velocity=0 time=0
note_on channel=0 note=84 velocity=0 time=0
note_on channel=0 note=72 velocity=96 time=121
note_on channel=0 note=81 velocity=96 time=0
note_on channel=0 note=84 velocity=96 time=0
note_on channel=0 note=72 velocity=0 time=119
note_on channel=0 note=81 velocity=0 time=0
note_on channel=0 note=84 velocity=0 time=0
note_on channel=0 note=74 velocity=96 time=121
note_on channel=0 note=83 velocity=96 time=0
note_on channel=0 note=86 velocity=96 time=0
note_on channel=0 note=74 velocity=0 time=227
note_on channel=0 note=83 velocity=0 time=0
note_on channel=0 note=86 velocity=0 time=0
note_on channel=0 note=79 velocity=96 time=13
note_on channel=0 note=83 velocity=96 time=0
note_on channel=0 note=91 velocity=96 time=0
note_on channel=0 note=79 velocity=0 time=227
note_on channel=0 note=83 velocity=0 time=0
note_on channel=0 note=91 velocity=0 time=0
note_on channel=0 note=74 velocity=96 time=13
note_on channel=0 note=83 velocity=96 time=0
note_on channel=0 note=86 velocity=96 time=0
MetaMessage('set_tempo', tempo=3000003, time=240)
note_on channel=0 note=74 velocity=0 time=215
note_on channel=0 note=83 velocity=0 time=0
note_on channel=0 note=86 velocity=0 time=0
MetaMessage('set_tempo', tempo=1000000, time=25)
note_on channel=0 note=71 velocity=49 time=0
note_on channel=0 note=62 velocity=49 time=240
note_on channel=0 note=67 velocity=49 time=0
note_on channel=0 note=71 velocity=0 time=215
note_on channel=0 note=62 velocity=0 time=12
note_on channel=0 note=67 velocity=0 time=0
note_on channel=0 note=72 velocity=49 time=13
note_on channel=0 note=64 velocity=49 time=240
note_on channel=0 note=67 velocity=49 time=0
note_on channel=0 note=72 velocity=0 time=215
note_on channel=0 note=64 velocity=0 time=12
note_on channel=0 note=67 velocity=0 time=0
MetaMessage('set_tempo', tempo=1200000, time=13)
note_on channel=0 note=74 velocity=49 time=0
note_on channel=0 note=69 velocity=49 time=240
note_on channel=0 note=72 velocity=49 time=0
note_on channel=0 note=74 velocity=0 time=215
note_on channel=0 note=69 velocity=0 time=12
note_on channel=0 note=72 velocity=0 time=0
note_on channel=0 note=74 velocity=49 time=13
MetaMessage('set_tempo', tempo=3000003, time=240)
note_on channel=0 note=67 velocity=49 time=0
note_on channel=0 note=71 velocity=49 time=0
note_on channel=0 note=74 velocity=0 time=215
note_on channel=0 note=67 velocity=0 time=12
note_on channel=0 note=71 velocity=0 time=0
MetaMessage('set_tempo', tempo=428572, time=13)
note_on channel=0 note=74 velocity=96 time=0
note_on channel=0 note=83 velocity=96 time=0
note_on channel=0 note=86 velocity=96 time=0
note_on channel=0 note=74 velocity=0 time=119
note_on channel=0 note=83 velocity=0 time=0
note_on channel=0 note=86 velocity=0 time=0
note_on channel=0 note=72 velocity=96 time=121
note_on channel=0 note=81 velocity=96 time=0
note_on channel=0 note=84 velocity=96 time=0
note_on channel=0 note=72 velocity=0 time=119
note_on channel=0 note=81 velocity=0 time=0
note_on channel=0 note=84 velocity=0 time=0
note_on channel=0 note=71 velocity=96 time=121
note_on channel=0 note=79 velocity=96 time=0
note_on channel=0 note=83 velocity=96 time=0
note_on channel=0 note=71 velocity=0 time=119
note_on channel=0 note=79 velocity=0 time=0
note_on channel=0 note=83 velocity=0 time=0
note_on channel=0 note=69 velocity=96 time=121
note_on channel=0 note=78 velocity=96 time=0
note_on channel=0 note=81 velocity=96 time=0
note_on channel=0 note=69 velocity=0 time=119
note_on channel=0 note=78 velocity=0 time=0
note_on channel=0 note=81 velocity=0 time=0
note_on channel=0 note=67 velocity=96 time=121
note_on channel=0 note=71 velocity=96 time=0
note_on channel=0 note=74 velocity=96 time=0
note_on channel=0 note=67 velocity=0 time=239
note_on channel=0 note=71 velocity=0 time=0
note_on channel=0 note=74 velocity=0 time=0
note_on channel=0 note=79 velocity=96 time=1
note_on channel=0 note=83 velocity=96 time=0
note_on channel=0 note=86 velocity=96 time=0
note_on channel=0 note=79 velocity=0 time=227
note_on channel=0 note=83 velocity=0 time=0
note_on channel=0 note=86 velocity=0 time=0
MetaMessage('set_tempo', tempo=1499999, time=13)
MetaMessage('key_signature', key='Bb', time=480)
MetaMessage('set_tempo', tempo=461538, time=0)
note_on channel=0 note=62 velocity=80 time=0
note_on channel=0 note=62 velocity=0 time=719
note_on channel=0 note=67 velocity=80 time=1
note_on channel=0 note=67 velocity=0 time=227
note_on channel=0 note=70 velocity=80 time=13
note_on channel=0 note=70 velocity=0 time=719
note_on channel=0 note=67 velocity=80 time=1
note_on channel=0 note=67 velocity=0 time=227
note_on channel=0 note=66 velocity=80 time=13
note_on channel=0 note=66 velocity=0 time=719
note_on channel=0 note=67 velocity=80 time=1
note_on channel=0 note=67 velocity=0 time=119
note_on channel=0 note=69 velocity=80 time=1
note_on channel=0 note=69 velocity=0 time=119
note_on channel=0 note=67 velocity=80 time=1
note_on channel=0 note=67 velocity=0 time=911
note_on channel=0 note=63 velocity=80 time=49
note_on channel=0 note=63 velocity=0 time=719
note_on channel=0 note=65 velocity=80 time=1
note_on channel=0 note=65 velocity=0 time=119
note_on channel=0 note=67 velocity=80 time=1
note_on channel=0 note=67 velocity=0 time=119
note_on channel=0 note=62 velocity=80 time=1
note_on channel=0 note=62 velocity=0 time=911
note_on channel=0 note=60 velocity=80 time=49
note_on channel=0 note=60 velocity=0 time=119
note_on channel=0 note=58 velocity=80 time=1
note_on channel=0 note=58 velocity=0 time=119
note_on channel=0 note=58 velocity=80 time=1
note_on channel=0 note=58 velocity=0 time=119
note_on channel=0 note=57 velocity=80 time=1
note_on channel=0 note=57 velocity=0 time=119
note_on channel=0 note=57 velocity=80 time=1
note_on channel=0 note=57 velocity=0 time=341
note_on channel=0 note=62 velocity=80 time=19
note_on channel=0 note=62 velocity=0 time=113
note_on channel=0 note=55 velocity=80 time=7
note_on channel=0 note=55 velocity=0 time=911
note_on channel=0 note=62 velocity=96 time=49
note_on channel=0 note=62 velocity=0 time=359
note_on channel=0 note=67 velocity=96 time=1
note_on channel=0 note=67 velocity=0 time=119
note_on channel=0 note=70 velocity=99 time=1
note_on channel=0 note=70 velocity=0 time=119
note_on channel=0 note=74 velocity=102 time=1
note_on channel=0 note=74 velocity=0 time=119
note_on channel=0 note=79 velocity=105 time=1
note_on channel=0 note=79 velocity=0 time=119
note_on channel=0 note=82 velocity=108 time=1
note_on channel=0 note=82 velocity=0 time=119
note_on channel=0 note=86 velocity=112 time=1
note_on channel=0 note=86 velocity=0 time=683
note_on channel=0 note=82 velocity=112 time=37
note_on channel=0 note=82 velocity=0 time=227
note_on channel=0 note=72 velocity=112 time=13
note_on channel=0 note=75 velocity=112 time=0
note_on channel=0 note=78 velocity=112 time=0
note_on channel=0 note=81 velocity=112 time=0
note_on channel=0 note=72 velocity=0 time=683
note_on channel=0 note=75 velocity=0 time=0
note_on channel=0 note=78 velocity=0 time=0
note_on channel=0 note=81 velocity=0 time=0
note_on channel=0 note=82 velocity=112 time=37
note_on channel=0 note=82 velocity=0 time=119
note_on channel=0 note=84 velocity=112 time=1
note_on channel=0 note=84 velocity=0 time=119
note_on channel=0 note=70 velocity=112 time=1
note_on channel=0 note=74 velocity=112 time=0
note_on channel=0 note=79 velocity=112 time=0
note_on channel=0 note=82 velocity=112 time=0
note_on channel=0 note=70 velocity=0 time=911
note_on channel=0 note=74 velocity=0 time=0
note_on channel=0 note=79 velocity=0 time=0
note_on channel=0 note=82 velocity=0 time=0
note_on channel=0 note=87 velocity=49 time=49
note_on channel=0 note=87 velocity=0 time=119
note_on channel=0 note=89 velocity=49 time=1
note_on channel=0 note=89 velocity=0 time=119
note_on channel=0 note=91 velocity=61 time=1
note_on channel=0 note=91 velocity=0 time=119
note_on channel=0 note=87 velocity=53 time=1
note_on channel=0 note=87 velocity=0 time=119
note_on channel=0 note=86 velocity=55 time=1
note_on channel=0 note=86 velocity=0 time=119
note_on channel=0 note=87 velocity=57 time=1
note_on channel=0 note=87 velocity=0 time=119
note_on channel=0 note=89 velocity=70 time=1
note_on channel=0 note=89 velocity=0 time=119
note_on channel=0 note=86 velocity=61 time=1
note_on channel=0 note=86 velocity=0 time=113
note_on channel=0 note=84 velocity=63 time=7
note_on channel=0 note=84 velocity=0 time=119
note_on channel=0 note=86 velocity=65 time=1
note_on channel=0 note=86 velocity=0 time=119
note_on channel=0 note=87 velocity=80 time=1
note_on channel=0 note=87 velocity=0 time=119
note_on channel=0 note=84 velocity=69 time=1
note_on channel=0 note=84 velocity=0 time=119
note_on channel=0 note=82 velocity=71 time=1
note_on channel=0 note=82 velocity=0 time=119
note_on channel=0 note=84 velocity=73 time=1
note_on channel=0 note=84 velocity=0 time=119
note_on channel=0 note=86 velocity=90 time=1
note_on channel=0 note=86 velocity=0 time=119
note_on channel=0 note=82 velocity=77 time=1
note_on channel=0 note=82 velocity=0 time=113
note_on channel=0 note=84 velocity=94 time=7
note_on channel=0 note=84 velocity=0 time=119
note_on channel=0 note=82 velocity=81 time=1
note_on channel=0 note=82 velocity=0 time=119
note_on channel=0 note=82 velocity=99 time=1
note_on channel=0 note=82 velocity=0 time=119
note_on channel=0 note=81 velocity=85 time=1
note_on channel=0 note=81 velocity=0 time=119
note_on channel=0 note=81 velocity=104 time=1
note_on channel=0 note=81 velocity=0 time=359
note_on channel=0 note=86 velocity=93 time=1
note_on channel=0 note=86 velocity=0 time=113
note_on channel=0 note=67 velocity=96 time=7
note_on channel=0 note=79 velocity=96 time=0
note_on channel=0 note=67 velocity=0 time=455
note_on channel=0 note=79 velocity=0 time=0
note_on channel=0 note=79 velocity=115 time=25
note_on channel=0 note=82 velocity=115 time=0
note_on channel=0 note=86 velocity=115 time=0
note_on channel=0 note=91 velocity=115 time=0
note_on channel=0 note=79 velocity=0 time=239
note_on channel=0 note=82 velocity=0 time=0
note_on channel=0 note=86 velocity=0 time=0
note_on channel=0 note=91 velocity=0 time=0
note_on channel=0 note=77 velocity=96 time=241
note_on channel=0 note=86 velocity=96 time=0
note_on channel=0 note=77 velocity=0 time=455
note_on channel=0 note=86 velocity=0 time=0
note_on channel=0 note=77 velocity=96 time=25
note_on channel=0 note=86 velocity=96 time=0
note_on channel=0 note=77 velocity=0 time=455
note_on channel=0 note=86 velocity=0 time=0
note_on channel=0 note=79 velocity=96 time=25
note_on channel=0 note=87 velocity=96 time=0
note_on channel=0 note=79 velocity=0 time=683
note_on channel=0 note=87 velocity=0 time=0
note_on channel=0 note=77 velocity=96 time=37
note_on channel=0 note=86 velocity=96 time=0
note_on channel=0 note=77 velocity=0 time=227
note_on channel=0 note=86 velocity=0 time=0
note_on channel=0 note=75 velocity=96 time=253
note_on channel=0 note=84 velocity=96 time=0
note_on channel=0 note=75 velocity=0 time=455
note_on channel=0 note=84 velocity=0 time=0
note_on channel=0 note=83 velocity=96 time=25
note_on channel=0 note=75 velocity=96 time=0
note_on channel=0 note=83 velocity=0 time=113
note_on channel=0 note=84 velocity=96 time=7
note_on channel=0 note=84 velocity=0 time=113
note_on channel=0 note=86 velocity=96 time=7
note_on channel=0 note=86 velocity=0 time=113
note_on channel=0 note=84 velocity=96 time=7
note_on channel=0 note=84 velocity=0 time=113
note_on channel=0 note=83 velocity=96 time=7
note_on channel=0 note=83 velocity=0 time=113
note_on channel=0 note=86 velocity=96 time=7
note_on channel=0 note=86 velocity=0 time=113
note_on channel=0 note=84 velocity=96 time=7
note_on channel=0 note=75 velocity=0 time=191
note_on channel=0 note=84 velocity=0 time=264
note_on channel=0 note=75 velocity=96 time=25
note_on channel=0 note=84 velocity=96 time=0
note_on channel=0 note=75 velocity=0 time=455
note_on channel=0 note=84 velocity=0 time=0
note_on channel=0 note=75 velocity=96 time=25
note_on channel=0 note=84 velocity=96 time=0
note_on channel=0 note=75 velocity=0 time=455
note_on channel=0 note=84 velocity=0 time=0
note_on channel=0 note=77 velocity=96 time=25
note_on channel=0 note=86 velocity=96 time=0
note_on channel=0 note=77 velocity=0 time=683
note_on channel=0 note=86 velocity=0 time=0
note_on channel=0 note=75 velocity=96 time=37
note_on channel=0 note=84 velocity=96 time=0
note_on channel=0 note=75 velocity=0 time=227
note_on channel=0 note=84 velocity=0 time=0
note_on channel=0 note=74 velocity=96 time=253
note_on channel=0 note=82 velocity=96 time=0
note_on channel=0 note=74 velocity=0 time=455
note_on channel=0 note=82 velocity=0 time=0
note_on channel=0 note=74 velocity=96 time=25
note_on channel=0 note=81 velocity=96 time=0
note_on channel=0 note=81 velocity=0 time=113
note_on channel=0 note=82 velocity=96 time=7
note_on channel=0 note=74 velocity=0 time=107
note_on channel=0 note=82 velocity=0 time=6
note_on channel=0 note=74 velocity=96 time=7
note_on channel=0 note=84 velocity=96 time=0
note_on channel=0 note=84 velocity=0 time=113
note_on channel=0 note=82 velocity=96 time=7
note_on channel=0 note=74 velocity=0 time=107
note_on channel=0 note=82 velocity=0 time=6
note_on channel=0 note=81 velocity=96 time=7
note_on channel=0 note=81 velocity=0 time=113
note_on channel=0 note=84 velocity=96 time=7
note_on channel=0 note=84 velocity=0 time=113
note_on channel=0 note=74 velocity=96 time=7
note_on channel=0 note=82 velocity=96 time=0
note_on channel=0 note=74 velocity=0 time=227
note_on channel=0 note=82 velocity=0 time=228
MetaMessage('set_tempo', tempo=599999, time=25)
note_on channel=0 note=72 velocity=96 time=0
note_on channel=0 note=81 velocity=96 time=0
note_on channel=0 note=72 velocity=0 time=455
note_on channel=0 note=81 velocity=0 time=0
MetaMessage('set_tempo', tempo=666667, time=25)
note_on channel=0 note=72 velocity=90 time=0
note_on channel=0 note=81 velocity=90 time=0
note_on channel=0 note=72 velocity=0 time=455
note_on channel=0 note=81 velocity=0 time=0
MetaMessage('set_tempo', tempo=750002, time=25)
note_on channel=0 note=75 velocity=84 time=0
note_on channel=0 note=84 velocity=84 time=0
note_on channel=0 note=75 velocity=0 time=227
note_on channel=0 note=84 velocity=0 time=0
note_on channel=0 note=74 velocity=81 time=13
note_on channel=0 note=82 velocity=81 time=0
note_on channel=0 note=74 velocity=0 time=455
note_on channel=0 note=82 velocity=0 time=0
MetaMessage('set_tempo', tempo=857140, time=25)
note_on channel=0 note=72 velocity=75 time=0
note_on channel=0 note=81 velocity=75 time=0
note_on channel=0 note=72 velocity=0 time=227
note_on channel=0 note=81 velocity=0 time=0
MetaMessage('set_tempo', tempo=1000000, time=13)
note_on channel=0 note=72 velocity=71 time=0
note_on channel=0 note=81 velocity=71 time=0
note_on channel=0 note=72 velocity=0 time=227
note_on channel=0 note=81 velocity=0 time=0
note_on channel=0 note=70 velocity=68 time=13
note_on channel=0 note=79 velocity=68 time=0
note_on channel=0 note=70 velocity=0 time=455
note_on channel=0 note=79 velocity=0 time=0
note_on channel=0 note=69 velocity=62 time=25
note_on channel=0 note=78 velocity=62 time=0
note_on channel=0 note=69 velocity=0 time=113
note_on channel=0 note=78 velocity=0 time=0
note_on channel=0 note=70 velocity=60 time=7
note_on channel=0 note=79 velocity=60 time=0
note_on channel=0 note=70 velocity=0 time=113
note_on channel=0 note=79 velocity=0 time=0
note_on channel=0 note=72 velocity=59 time=7
note_on channel=0 note=81 velocity=59 time=0
note_on channel=0 note=72 velocity=0 time=113
note_on channel=0 note=81 velocity=0 time=0
note_on channel=0 note=70 velocity=57 time=7
note_on channel=0 note=79 velocity=57 time=0
note_on channel=0 note=70 velocity=0 time=113
note_on channel=0 note=79 velocity=0 time=0
note_on channel=0 note=69 velocity=56 time=7
note_on channel=0 note=78 velocity=56 time=0
note_on channel=0 note=69 velocity=0 time=113
note_on channel=0 note=78 velocity=0 time=0
note_on channel=0 note=72 velocity=54 time=7
note_on channel=0 note=81 velocity=54 time=0
note_on channel=0 note=72 velocity=0 time=113
note_on channel=0 note=81 velocity=0 time=0
note_on channel=0 note=70 velocity=53 time=7
note_on channel=0 note=74 velocity=53 time=0
note_on channel=0 note=79 velocity=53 time=0
note_on channel=0 note=70 velocity=0 time=227
note_on channel=0 note=74 velocity=0 time=0
note_on channel=0 note=79 velocity=0 time=0
MetaMessage('set_tempo', tempo=3000003, time=13)
MetaMessage('set_tempo', tempo=461538, time=240)
note_on channel=0 note=74 velocity=96 time=0
note_on channel=0 note=78 velocity=96 time=0
note_on channel=0 note=81 velocity=96 time=0
note_on channel=0 note=86 velocity=96 time=0
note_on channel=0 note=74 velocity=0 time=119
note_on channel=0 note=78 velocity=0 time=0
note_on channel=0 note=81 velocity=0 time=0
note_on channel=0 note=86 velocity=0 time=0
note_on channel=0 note=62 velocity=96 time=721
note_on channel=0 note=74 velocity=96 time=0
note_on channel=0 note=62 velocity=0 time=113
note_on channel=0 note=74 velocity=0 time=0
note_on channel=0 note=64 velocity=96 time=7
note_on channel=0 note=76 velocity=96 time=0
note_on channel=0 note=64 velocity=0 time=227
note_on channel=0 note=76 velocity=0 time=0
note_on channel=0 note=66 velocity=96 time=253
note_on channel=0 note=78 velocity=96 time=0
note_on channel=0 note=66 velocity=0 time=227
note_on channel=0 note=78 velocity=0 time=0
note_on channel=0 note=81 velocity=96 time=253
note_on channel=0 note=81 velocity=0 time=66
note_on channel=0 note=79 velocity=96 time=1
note_on channel=0 note=79 velocity=0 time=162
note_on channel=0 note=70 velocity=96 time=11
note_on channel=0 note=79 velocity=96 time=0
note_on channel=0 note=70 velocity=0 time=455
note_on channel=0 note=79 velocity=0 time=0
note_on channel=0 note=78 velocity=96 time=25
note_on channel=0 note=78 velocity=0 time=113
note_on channel=0 note=79 velocity=96 time=7
note_on channel=0 note=79 velocity=0 time=113
note_on channel=0 note=72 velocity=96 time=7
note_on channel=0 note=81 velocity=96 time=0
note_on channel=0 note=72 velocity=0 time=95
note_on channel=0 note=81 velocity=0 time=0
note_on channel=0 note=79 velocity=96 time=1
note_on channel=0 note=79 velocity=0 time=95
note_on channel=0 note=78 velocity=96 time=1
note_on channel=0 note=78 velocity=0 time=95
note_on channel=0 note=79 velocity=96 time=1
note_on channel=0 note=79 velocity=0 time=95
note_on channel=0 note=81 velocity=96 time=1
note_on channel=0 note=81 velocity=0 time=95
note_on channel=0 note=70 velocity=96 time=1
note_on channel=0 note=79 velocity=96 time=0
note_on channel=0 note=70 velocity=0 time=227
note_on channel=0 note=79 velocity=0 time=0
note_on channel=0 note=77 velocity=96 time=253
note_on channel=0 note=86 velocity=96 time=0
note_on channel=0 note=77 velocity=0 time=455
note_on channel=0 note=86 velocity=0 time=0
note_on channel=0 note=77 velocity=96 time=25
note_on channel=0 note=86 velocity=96 time=0
note_on channel=0 note=77 velocity=0 time=455
note_on channel=0 note=86 velocity=0 time=0
note_on channel=0 note=79 velocity=96 time=25
note_on channel=0 note=87 velocity=96 time=0
note_on channel=0 note=79 velocity=0 time=683
note_on channel=0 note=87 velocity=0 time=0
note_on channel=0 note=77 velocity=96 time=37
note_on channel=0 note=86 velocity=96 time=0
note_on channel=0 note=77 velocity=0 time=227
note_on channel=0 note=86 velocity=0 time=0
note_on channel=0 note=75 velocity=96 time=253
note_on channel=0 note=84 velocity=96 time=0
note_on channel=0 note=75 velocity=0 time=455
note_on channel=0 note=84 velocity=0 time=0
note_on channel=0 note=83 velocity=96 time=25
note_on channel=0 note=75 velocity=96 time=0
note_on channel=0 note=83 velocity=0 time=113
note_on channel=0 note=84 velocity=96 time=7
note_on channel=0 note=84 velocity=0 time=113
note_on channel=0 note=86 velocity=96 time=7
note_on channel=0 note=86 velocity=0 time=113
note_on channel=0 note=84 velocity=96 time=7
note_on channel=0 note=84 velocity=0 time=113
note_on channel=0 note=83 velocity=96 time=7
note_on channel=0 note=83 velocity=0 time=113
note_on channel=0 note=86 velocity=96 time=7
note_on channel=0 note=86 velocity=0 time=113
note_on channel=0 note=84 velocity=96 time=7
note_on channel=0 note=75 velocity=0 time=191
note_on channel=0 note=84 velocity=0 time=264
note_on channel=0 note=75 velocity=96 time=25
note_on channel=0 note=84 velocity=96 time=0
note_on channel=0 note=75 velocity=0 time=455
note_on channel=0 note=84 velocity=0 time=0
note_on channel=0 note=75 velocity=96 time=25
note_on channel=0 note=84 velocity=96 time=0
note_on channel=0 note=75 velocity=0 time=455
note_on channel=0 note=84 velocity=0 time=0
note_on channel=0 note=77 velocity=96 time=25
note_on channel=0 note=86 velocity=96 time=0
note_on channel=0 note=77 velocity=0 time=683
note_on channel=0 note=86 velocity=0 time=0
note_on channel=0 note=75 velocity=96 time=37
note_on channel=0 note=84 velocity=96 time=0
note_on channel=0 note=75 velocity=0 time=227
note_on channel=0 note=84 velocity=0 time=0
note_on channel=0 note=74 velocity=96 time=253
note_on channel=0 note=82 velocity=96 time=0
note_on channel=0 note=74 velocity=0 time=455
note_on channel=0 note=82 velocity=0 time=0
note_on channel=0 note=74 velocity=96 time=25
note_on channel=0 note=81 velocity=96 time=0
note_on channel=0 note=81 velocity=0 time=113
note_on channel=0 note=82 velocity=96 time=7
note_on channel=0 note=74 velocity=0 time=107
note_on channel=0 note=82 velocity=0 time=6
note_on channel=0 note=74 velocity=96 time=7
note_on channel=0 note=84 velocity=96 time=0
note_on channel=0 note=84 velocity=0 time=113
note_on channel=0 note=82 velocity=96 time=7
note_on channel=0 note=74 velocity=0 time=107
note_on channel=0 note=82 velocity=0 time=6
note_on channel=0 note=81 velocity=96 time=7
note_on channel=0 note=81 velocity=0 time=113
note_on channel=0 note=84 velocity=96 time=7
note_on channel=0 note=84 velocity=0 time=113
note_on channel=0 note=74 velocity=96 time=7
note_on channel=0 note=82 velocity=96 time=0
note_on channel=0 note=74 velocity=0 time=227
note_on channel=0 note=82 velocity=0 time=228
MetaMessage('set_tempo', tempo=599999, time=25)
note_on channel=0 note=72 velocity=96 time=0
note_on channel=0 note=81 velocity=96 time=0
note_on channel=0 note=72 velocity=0 time=455
note_on channel=0 note=81 velocity=0 time=0
MetaMessage('set_tempo', tempo=666667, time=25)
note_on channel=0 note=72 velocity=90 time=0
note_on channel=0 note=81 velocity=90 time=0
note_on channel=0 note=72 velocity=0 time=455
note_on channel=0 note=81 velocity=0 time=0
MetaMessage('set_tempo', tempo=750002, time=25)
note_on channel=0 note=75 velocity=84 time=0
note_on channel=0 note=84 velocity=84 time=0
note_on channel=0 note=75 velocity=0 time=227
note_on channel=0 note=84 velocity=0 time=0
note_on channel=0 note=74 velocity=81 time=13
note_on channel=0 note=82 velocity=81 time=0
note_on channel=0 note=74 velocity=0 time=455
note_on channel=0 note=82 velocity=0 time=0
MetaMessage('set_tempo', tempo=857140, time=25)
note_on channel=0 note=72 velocity=75 time=0
note_on channel=0 note=81 velocity=75 time=0
note_on channel=0 note=72 velocity=0 time=227
note_on channel=0 note=81 velocity=0 time=0
MetaMessage('set_tempo', tempo=1000000, time=13)
note_on channel=0 note=72 velocity=71 time=0
note_on channel=0 note=81 velocity=71 time=0
note_on channel=0 note=72 velocity=0 time=227
note_on channel=0 note=81 velocity=0 time=0
note_on channel=0 note=70 velocity=68 time=13
note_on channel=0 note=79 velocity=68 time=0
note_on channel=0 note=70 velocity=0 time=455
note_on channel=0 note=79 velocity=0 time=0
note_on channel=0 note=69 velocity=62 time=25
note_on channel=0 note=78 velocity=62 time=0
note_on channel=0 note=69 velocity=0 time=113
note_on channel=0 note=78 velocity=0 time=0
note_on channel=0 note=70 velocity=60 time=7
note_on channel=0 note=79 velocity=60 time=0
note_on channel=0 note=70 velocity=0 time=113
note_on channel=0 note=79 velocity=0 time=0
note_on channel=0 note=72 velocity=59 time=7
note_on channel=0 note=81 velocity=59 time=0
note_on channel=0 note=72 velocity=0 time=113
note_on channel=0 note=81 velocity=0 time=0
note_on channel=0 note=70 velocity=57 time=7
note_on channel=0 note=79 velocity=57 time=0
note_on channel=0 note=70 velocity=0 time=113
note_on channel=0 note=79 velocity=0 time=0
note_on channel=0 note=69 velocity=56 time=7
note_on channel=0 note=78 velocity=56 time=0
note_on channel=0 note=69 velocity=0 time=113
note_on channel=0 note=78 velocity=0 time=0
note_on channel=0 note=72 velocity=54 time=7
note_on channel=0 note=81 velocity=54 time=0
note_on channel=0 note=72 velocity=0 time=113
note_on channel=0 note=81 velocity=0 time=0
note_on channel=0 note=70 velocity=53 time=7
note_on channel=0 note=74 velocity=53 time=0
note_on channel=0 note=79 velocity=53 time=0
note_on channel=0 note=70 velocity=0 time=227
note_on channel=0 note=74 velocity=0 time=0
note_on channel=0 note=79 velocity=0 time=0
MetaMessage('set_tempo', tempo=3000003, time=13)
MetaMessage('set_tempo', tempo=461538, time=240)
note_on channel=0 note=74 velocity=96 time=0
note_on channel=0 note=78 velocity=96 time=0
note_on channel=0 note=81 velocity=96 time=0
note_on channel=0 note=86 velocity=96 time=0
note_on channel=0 note=74 velocity=0 time=119
note_on channel=0 note=78 velocity=0 time=0
note_on channel=0 note=81 velocity=0 time=0
note_on channel=0 note=86 velocity=0 time=0
note_on channel=0 note=62 velocity=96 time=721
note_on channel=0 note=74 velocity=96 time=0
note_on channel=0 note=62 velocity=0 time=113
note_on channel=0 note=74 velocity=0 time=0
note_on channel=0 note=64 velocity=96 time=7
note_on channel=0 note=76 velocity=96 time=0
note_on channel=0 note=64 velocity=0 time=227
note_on channel=0 note=76 velocity=0 time=0
note_on channel=0 note=66 velocity=96 time=253
note_on channel=0 note=78 velocity=96 time=0
note_on channel=0 note=66 velocity=0 time=227
note_on channel=0 note=78 velocity=0 time=0
note_on channel=0 note=81 velocity=96 time=253
note_on channel=0 note=81 velocity=0 time=66
note_on channel=0 note=79 velocity=96 time=1
note_on channel=0 note=79 velocity=0 time=162
note_on channel=0 note=70 velocity=96 time=11
note_on channel=0 note=79 velocity=96 time=0
note_on channel=0 note=70 velocity=0 time=455
note_on channel=0 note=79 velocity=0 time=0
note_on channel=0 note=78 velocity=96 time=25
note_on channel=0 note=78 velocity=0 time=113
note_on channel=0 note=79 velocity=96 time=7
note_on channel=0 note=79 velocity=0 time=113
note_on channel=0 note=72 velocity=96 time=7
note_on channel=0 note=81 velocity=96 time=0
note_on channel=0 note=72 velocity=0 time=95
note_on channel=0 note=81 velocity=0 time=0
note_on channel=0 note=79 velocity=96 time=1
note_on channel=0 note=79 velocity=0 time=95
note_on channel=0 note=78 velocity=96 time=1
note_on channel=0 note=78 velocity=0 time=95
note_on channel=0 note=79 velocity=96 time=1
note_on channel=0 note=79 velocity=0 time=95
note_on channel=0 note=81 velocity=96 time=1
note_on channel=0 note=81 velocity=0 time=95
note_on channel=0 note=70 velocity=96 time=1
note_on channel=0 note=79 velocity=96 time=0
note_on channel=0 note=70 velocity=0 time=227
note_on channel=0 note=79 velocity=0 time=0
note_on channel=0 note=79 velocity=126 time=253
note_on channel=0 note=81 velocity=126 time=0
note_on channel=0 note=87 velocity=126 time=0
note_on channel=0 note=79 velocity=0 time=119
note_on channel=0 note=81 velocity=0 time=0
note_on channel=0 note=87 velocity=0 time=0
note_on channel=0 note=74 velocity=126 time=361
note_on channel=0 note=78 velocity=126 time=0
note_on channel=0 note=81 velocity=126 time=0
note_on channel=0 note=86 velocity=126 time=0
note_on channel=0 note=74 velocity=0 time=119
note_on channel=0 note=78 velocity=0 time=0
note_on channel=0 note=81 velocity=0 time=0
note_on channel=0 note=86 velocity=0 time=0
note_on channel=0 note=67 velocity=126 time=361
note_on channel=0 note=70 velocity=126 time=0
note_on channel=0 note=74 velocity=126 time=0
note_on channel=0 note=79 velocity=126 time=0
note_on channel=0 note=67 velocity=0 time=911
note_on channel=0 note=70 velocity=0 time=0
note_on channel=0 note=74 velocity=0 time=0
note_on channel=0 note=79 velocity=0 time=0
MetaMessage('end_of_track', time=1)
