Track 0: 
UnknownMetaMessage(type_byte=8, data=(83, 111, 108, 97, 114, 32, 83, 101, 99, 116, 32, 111, 102, 32, 77, 121, 115, 116, 105, 99, 32, 87, 105, 115, 100, 111, 109, 32, 45, 32, 78, 117, 99, 108, 101, 97, 114, 32, 70, 117, 115, 105, 111, 110, 0), time=0)
MetaMessage('device_name', name="Utsuho Reiuji's Theme\x00", time=0)
UnknownMetaMessage(type_byte=10, data=(90, 85, 78, 0), time=0)
UnknownMetaMessage(type_byte=12, data=(65, 114, 114, 46, 32, 68, 32, 46, 66, 108, 117, 101, 116, 0), time=0)
MetaMessage('time_signature', numerator=4, denominator=4, clocks_per_click=24, notated_32nd_notes_per_beat=8, time=0)
MetaMessage('key_signature', key='C', time=0)
MetaMessage('set_tempo', tempo=342857, time=0)
program_change channel=0 program=0 time=0
note_on channel=0 note=60 velocity=80 time=0
control_change channel=0 control=7 value=100 time=2
control_change channel=0 control=10 value=64 time=2
control_change channel=0 control=91 value=30 time=2
control_change channel=0 control=93 value=30 time=2
note_on channel=0 note=60 velocity=0 time=231
note_on channel=0 note=67 velocity=80 time=1
note_on channel=0 note=67 velocity=0 time=239
note_on channel=0 note=66 velocity=80 time=1
note_on channel=0 note=66 velocity=0 time=239
note_on channel=0 note=62 velocity=80 time=1
note_on channel=0 note=62 velocity=0 time=239
note_on channel=0 note=69 velocity=80 time=1
note_on channel=0 note=69 velocity=0 time=239
note_on channel=0 note=68 velocity=80 time=1
note_on channel=0 note=68 velocity=0 time=239
note_on channel=0 note=64 velocity=80 time=1
note_on channel=0 note=64 velocity=0 time=239
note_on channel=0 note=67 velocity=80 time=1
note_on channel=0 note=67 velocity=0 time=239
note_on channel=0 note=66 velocity=80 time=1
note_on channel=0 note=66 velocity=0 time=239
note_on channel=0 note=62 velocity=80 time=1
note_on channel=0 note=62 velocity=0 time=239
note_on channel=0 note=66 velocity=80 time=1
note_on channel=0 note=66 velocity=0 time=239
note_on channel=0 note=65 velocity=80 time=1
note_on channel=0 note=65 velocity=0 time=239
note_on channel=0 note=61 velocity=80 time=1
note_on channel=0 note=61 velocity=0 time=239
note_on channel=0 note=65 velocity=80 time=1
note_on channel=0 note=65 velocity=0 time=239
note_on channel=0 note=64 velocity=80 time=1
note_on channel=0 note=64 velocity=0 time=239
note_on channel=0 note=59 velocity=80 time=1
note_on channel=0 note=59 velocity=0 time=239
note_on channel=0 note=60 velocity=80 time=1
note_on channel=0 note=60 velocity=0 time=239
note_on channel=0 note=67 velocity=80 time=1
note_on channel=0 note=67 velocity=0 time=239
note_on channel=0 note=66 velocity=80 time=1
note_on channel=0 note=66 velocity=0 time=239
note_on channel=0 note=62 velocity=80 time=1
note_on channel=0 note=62 velocity=0 time=239
note_on channel=0 note=69 velocity=80 time=1
note_on channel=0 note=69 velocity=0 time=239
note_on channel=0 note=68 velocity=80 time=1
note_on channel=0 note=68 velocity=0 time=239
note_on channel=0 note=64 velocity=80 time=1
note_on channel=0 note=64 velocity=0 time=239
note_on channel=0 note=67 velocity=80 time=1
note_on channel=0 note=67 velocity=0 time=239
note_on channel=0 note=66 velocity=80 time=1
note_on channel=0 note=66 velocity=0 time=239
note_on channel=0 note=62 velocity=80 time=1
note_on channel=0 note=62 velocity=0 time=239
note_on channel=0 note=66 velocity=80 time=1
note_on channel=0 note=66 velocity=0 time=239
note_on channel=0 note=65 velocity=80 time=1
note_on channel=0 note=65 velocity=0 time=239
note_on channel=0 note=61 velocity=80 time=1
note_on channel=0 note=61 velocity=0 time=239
note_on channel=0 note=65 velocity=80 time=1
note_on channel=0 note=65 velocity=0 time=239
note_on channel=0 note=64 velocity=80 time=1
note_on channel=0 note=64 velocity=0 time=239
note_on channel=0 note=59 velocity=80 time=1
note_on channel=0 note=59 velocity=0 time=239
note_on channel=0 note=60 velocity=80 time=1
note_on channel=0 note=60 velocity=0 time=239
note_on channel=0 note=67 velocity=80 time=1
note_on channel=0 note=67 velocity=0 time=239
note_on channel=0 note=66 velocity=80 time=1
note_on channel=0 note=66 velocity=0 time=239
note_on channel=0 note=62 velocity=80 time=1
note_on channel=0 note=62 velocity=0 time=239
note_on channel=0 note=69 velocity=80 time=1
note_on channel=0 note=69 velocity=0 time=239
note_on channel=0 note=68 velocity=80 time=1
note_on channel=0 note=68 velocity=0 time=239
note_on channel=0 note=64 velocity=80 time=1
note_on channel=0 note=64 velocity=0 time=239
note_on channel=0 note=67 velocity=80 time=1
note_on channel=0 note=67 velocity=0 time=239
note_on channel=0 note=66 velocity=80 time=1
note_on channel=0 note=66 velocity=0 time=239
note_on channel=0 note=62 velocity=80 time=1
note_on channel=0 note=62 velocity=0 time=239
note_on channel=0 note=66 velocity=80 time=1
note_on channel=0 note=66 velocity=0 time=239
note_on channel=0 note=65 velocity=80 time=1
note_on channel=0 note=65 velocity=0 time=239
note_on channel=0 note=61 velocity=80 time=1
note_on channel=0 note=61 velocity=0 time=239
note_on channel=0 note=65 velocity=80 time=1
note_on channel=0 note=65 velocity=0 time=239
note_on channel=0 note=64 velocity=80 time=1
note_on channel=0 note=64 velocity=0 time=239
note_on channel=0 note=59 velocity=80 time=1
note_on channel=0 note=59 velocity=0 time=239
note_on channel=0 note=60 velocity=80 time=1
note_on channel=0 note=60 velocity=0 time=239
note_on channel=0 note=67 velocity=80 time=1
note_on channel=0 note=67 velocity=0 time=239
note_on channel=0 note=66 velocity=80 time=1
note_on channel=0 note=66 velocity=0 time=239
note_on channel=0 note=62 velocity=80 time=1
note_on channel=0 note=62 velocity=0 time=239
note_on channel=0 note=69 velocity=80 time=1
note_on channel=0 note=69 velocity=0 time=239
note_on channel=0 note=68 velocity=80 time=1
note_on channel=0 note=68 velocity=0 time=239
note_on channel=0 note=64 velocity=80 time=1
note_on channel=0 note=64 velocity=0 time=239
note_on channel=0 note=67 velocity=80 time=1
note_on channel=0 note=67 velocity=0 time=239
note_on channel=0 note=66 velocity=80 time=1
note_on channel=0 note=66 velocity=0 time=239
note_on channel=0 note=62 velocity=80 time=1
note_on channel=0 note=62 velocity=0 time=239
note_on channel=0 note=66 velocity=80 time=1
note_on channel=0 note=66 velocity=0 time=239
note_on channel=0 note=65 velocity=80 time=1
note_on channel=0 note=65 velocity=0 time=239
note_on channel=0 note=61 velocity=80 time=1
note_on channel=0 note=61 velocity=0 time=239
note_on channel=0 note=65 velocity=80 time=1
note_on channel=0 note=65 velocity=0 time=239
note_on channel=0 note=64 velocity=80 time=1
note_on channel=0 note=64 velocity=0 time=239
note_on channel=0 note=59 velocity=80 time=1
note_on channel=0 note=59 velocity=0 time=239
note_on channel=0 note=72 velocity=80 time=1
note_on channel=0 note=72 velocity=0 time=239
note_on channel=0 note=79 velocity=80 time=1
note_on channel=0 note=79 velocity=0 time=239
note_on channel=0 note=78 velocity=80 time=1
note_on channel=0 note=78 velocity=0 time=239
note_on channel=0 note=74 velocity=80 time=1
note_on channel=0 note=74 velocity=0 time=239
note_on channel=0 note=81 velocity=80 time=1
note_on channel=0 note=81 velocity=0 time=239
note_on channel=0 note=80 velocity=80 time=1
note_on channel=0 note=80 velocity=0 time=239
note_on channel=0 note=76 velocity=80 time=1
note_on channel=0 note=76 velocity=0 time=239
note_on channel=0 note=79 velocity=80 time=1
note_on channel=0 note=79 velocity=0 time=239
note_on channel=0 note=78 velocity=80 time=1
note_on channel=0 note=78 velocity=0 time=239
note_on channel=0 note=74 velocity=80 time=1
note_on channel=0 note=74 velocity=0 time=239
note_on channel=0 note=78 velocity=80 time=1
note_on channel=0 note=78 velocity=0 time=239
note_on channel=0 note=77 velocity=80 time=1
note_on channel=0 note=77 velocity=0 time=239
note_on channel=0 note=73 velocity=80 time=1
note_on channel=0 note=73 velocity=0 time=239
note_on channel=0 note=77 velocity=80 time=1
note_on channel=0 note=77 velocity=0 time=239
note_on channel=0 note=76 velocity=80 time=1
note_on channel=0 note=76 velocity=0 time=239
note_on channel=0 note=71 velocity=80 time=1
note_on channel=0 note=71 velocity=0 time=239
note_on channel=0 note=72 velocity=80 time=1
note_on channel=0 note=72 velocity=0 time=239
note_on channel=0 note=79 velocity=80 time=1
note_on channel=0 note=79 velocity=0 time=239
note_on channel=0 note=78 velocity=80 time=1
note_on channel=0 note=78 velocity=0 time=239
note_on channel=0 note=74 velocity=80 time=1
note_on channel=0 note=74 velocity=0 time=239
note_on channel=0 note=81 velocity=80 time=1
note_on channel=0 note=81 velocity=0 time=239
note_on channel=0 note=80 velocity=80 time=1
note_on channel=0 note=80 velocity=0 time=239
note_on channel=0 note=76 velocity=80 time=1
note_on channel=0 note=76 velocity=0 time=239
note_on channel=0 note=79 velocity=80 time=1
note_on channel=0 note=79 velocity=0 time=239
note_on channel=0 note=78 velocity=80 time=1
note_on channel=0 note=78 velocity=0 time=239
note_on channel=0 note=74 velocity=80 time=1
note_on channel=0 note=74 velocity=0 time=239
note_on channel=0 note=78 velocity=80 time=1
note_on channel=0 note=78 velocity=0 time=239
note_on channel=0 note=77 velocity=80 time=1
note_on channel=0 note=77 velocity=0 time=239
note_on channel=0 note=73 velocity=80 time=1
note_on channel=0 note=73 velocity=0 time=239
note_on channel=0 note=77 velocity=80 time=1
note_on channel=0 note=77 velocity=0 time=239
note_on channel=0 note=76 velocity=80 time=1
note_on channel=0 note=76 velocity=0 time=239
note_on channel=0 note=71 velocity=80 time=1
note_on channel=0 note=71 velocity=0 time=239
note_on channel=0 note=72 velocity=80 time=1
note_on channel=0 note=72 velocity=0 time=239
note_on channel=0 note=79 velocity=80 time=1
note_on channel=0 note=79 velocity=0 time=239
note_on channel=0 note=78 velocity=80 time=1
note_on channel=0 note=78 velocity=0 time=239
note_on channel=0 note=74 velocity=80 time=1
note_on channel=0 note=74 velocity=0 time=239
note_on channel=0 note=81 velocity=80 time=1
note_on channel=0 note=81 velocity=0 time=239
note_on channel=0 note=80 velocity=80 time=1
note_on channel=0 note=80 velocity=0 time=239
note_on channel=0 note=76 velocity=80 time=1
note_on channel=0 note=76 velocity=0 time=239
note_on channel=0 note=79 velocity=80 time=1
note_on channel=0 note=79 velocity=0 time=239
note_on channel=0 note=78 velocity=80 time=1
note_on channel=0 note=78 velocity=0 time=239
note_on channel=0 note=74 velocity=80 time=1
note_on channel=0 note=74 velocity=0 time=239
note_on channel=0 note=78 velocity=80 time=1
note_on channel=0 note=78 velocity=0 time=239
note_on channel=0 note=77 velocity=80 time=1
note_on channel=0 note=77 velocity=0 time=239
note_on channel=0 note=73 velocity=80 time=1
note_on channel=0 note=73 velocity=0 time=239
note_on channel=0 note=77 velocity=80 time=1
note_on channel=0 note=77 velocity=0 time=239
note_on channel=0 note=76 velocity=80 time=1
note_on channel=0 note=76 velocity=0 time=239
note_on channel=0 note=71 velocity=80 time=1
note_on channel=0 note=71 velocity=0 time=239
note_on channel=0 note=72 velocity=80 time=1
note_on channel=0 note=72 velocity=0 time=239
note_on channel=0 note=79 velocity=80 time=1
note_on channel=0 note=79 velocity=0 time=239
note_on channel=0 note=78 velocity=80 time=1
note_on channel=0 note=78 velocity=0 time=239
MetaMessage('set_tempo', tempo=352942, time=1)
note_on channel=0 note=74 velocity=80 time=0
note_on channel=0 note=74 velocity=0 time=239
note_on channel=0 note=81 velocity=80 time=1
note_on channel=0 note=81 velocity=0 time=239
note_on channel=0 note=80 velocity=80 time=1
note_on channel=0 note=80 velocity=0 time=239
MetaMessage('set_tempo', tempo=363636, time=1)
note_on channel=0 note=76 velocity=80 time=0
note_on channel=0 note=76 velocity=0 time=239
note_on channel=0 note=79 velocity=80 time=1
note_on channel=0 note=79 velocity=0 time=239
note_on channel=0 note=78 velocity=80 time=1
note_on channel=0 note=78 velocity=0 time=239
MetaMessage('set_tempo', tempo=375000, time=1)
note_on channel=0 note=74 velocity=80 time=0
note_on channel=0 note=74 velocity=0 time=239
note_on channel=0 note=78 velocity=80 time=1
note_on channel=0 note=78 velocity=0 time=239
note_on channel=0 note=77 velocity=80 time=1
note_on channel=0 note=77 velocity=0 time=239
MetaMessage('set_tempo', tempo=387097, time=1)
note_on channel=0 note=73 velocity=80 time=0
note_on channel=0 note=73 velocity=0 time=239
note_on channel=0 note=77 velocity=80 time=1
note_on channel=0 note=77 velocity=0 time=239
note_on channel=0 note=83 velocity=80 time=1
note_on channel=0 note=83 velocity=0 time=239
note_on channel=0 note=71 velocity=80 time=1
note_on channel=0 note=71 velocity=0 time=239
MetaMessage('key_signature', key='Eb', time=1)
MetaMessage('set_tempo', tempo=342857, time=0)
note_on channel=0 note=72 velocity=80 time=0
note_on channel=0 note=63 velocity=80 time=0
note_on channel=0 note=72 velocity=0 time=479
note_on channel=0 note=63 velocity=0 time=0
note_on channel=0 note=72 velocity=80 time=1
note_on channel=0 note=63 velocity=80 time=0
note_on channel=0 note=72 velocity=0 time=479
note_on channel=0 note=63 velocity=0 time=0
note_on channel=0 note=67 velocity=80 time=1
note_on channel=0 note=67 velocity=0 time=239
note_on channel=0 note=70 velocity=80 time=1
note_on channel=0 note=62 velocity=80 time=0
note_on channel=0 note=70 velocity=0 time=479
note_on channel=0 note=62 velocity=0 time=0
note_on channel=0 note=67 velocity=80 time=1
note_on channel=0 note=67 velocity=0 time=119
note_on channel=0 note=70 velocity=80 time=1
note_on channel=0 note=70 velocity=0 time=119
note_on channel=0 note=72 velocity=80 time=1
note_on channel=0 note=63 velocity=80 time=0
note_on channel=0 note=72 velocity=0 time=479
note_on channel=0 note=63 velocity=0 time=0
note_on channel=0 note=67 velocity=80 time=1
note_on channel=0 note=67 velocity=0 time=239
note_on channel=0 note=70 velocity=80 time=1
note_on channel=0 note=62 velocity=80 time=0
note_on channel=0 note=70 velocity=0 time=479
note_on channel=0 note=62 velocity=0 time=0
note_on channel=0 note=67 velocity=80 time=1
note_on channel=0 note=67 velocity=0 time=239
note_on channel=0 note=72 velocity=80 time=1
note_on channel=0 note=63 velocity=80 time=0
note_on channel=0 note=72 velocity=0 time=479
note_on channel=0 note=63 velocity=0 time=0
note_on channel=0 note=68 velocity=80 time=1
note_on channel=0 note=60 velocity=80 time=0
note_on channel=0 note=68 velocity=0 time=479
note_on channel=0 note=60 velocity=0 time=0
note_on channel=0 note=68 velocity=80 time=1
note_on channel=0 note=68 velocity=0 time=239
note_on channel=0 note=67 velocity=80 time=1
note_on channel=0 note=67 velocity=0 time=239
note_on channel=0 note=70 velocity=80 time=1
note_on channel=0 note=70 velocity=0 time=239
note_on channel=0 note=74 velocity=80 time=1
note_on channel=0 note=65 velocity=80 time=0
note_on channel=0 note=74 velocity=0 time=479
note_on channel=0 note=65 velocity=0 time=0
note_on channel=0 note=70 velocity=80 time=1
note_on channel=0 note=70 velocity=0 time=119
note_on channel=0 note=72 velocity=80 time=1
note_on channel=0 note=72 velocity=0 time=119
note_on channel=0 note=75 velocity=80 time=1
note_on channel=0 note=67 velocity=80 time=0
note_on channel=0 note=75 velocity=0 time=479
note_on channel=0 note=67 velocity=0 time=0
note_on channel=0 note=70 velocity=80 time=1
note_on channel=0 note=70 velocity=0 time=239
note_on channel=0 note=74 velocity=80 time=1
note_on channel=0 note=65 velocity=80 time=0
note_on channel=0 note=74 velocity=0 time=239
note_on channel=0 note=65 velocity=0 time=0
note_on channel=0 note=62 velocity=80 time=1
note_on channel=0 note=62 velocity=0 time=239
note_on channel=0 note=63 velocity=80 time=1
note_on channel=0 note=63 velocity=0 time=239
note_on channel=0 note=67 velocity=80 time=1
note_on channel=0 note=62 velocity=80 time=0
note_on channel=0 note=67 velocity=0 time=239
note_on channel=0 note=62 velocity=0 time=0
note_on channel=0 note=70 velocity=80 time=1
note_on channel=0 note=70 velocity=0 time=239
note_on channel=0 note=72 velocity=80 time=1
note_on channel=0 note=63 velocity=80 time=0
note_on channel=0 note=72 velocity=0 time=479
note_on channel=0 note=63 velocity=0 time=0
note_on channel=0 note=72 velocity=80 time=1
note_on channel=0 note=63 velocity=80 time=0
note_on channel=0 note=72 velocity=0 time=479
note_on channel=0 note=63 velocity=0 time=0
note_on channel=0 note=67 velocity=80 time=1
note_on channel=0 note=67 velocity=0 time=239
note_on channel=0 note=70 velocity=80 time=1
note_on channel=0 note=62 velocity=80 time=0
note_on channel=0 note=70 velocity=0 time=479
note_on channel=0 note=62 velocity=0 time=0
note_on channel=0 note=67 velocity=80 time=1
note_on channel=0 note=67 velocity=0 time=119
note_on channel=0 note=70 velocity=80 time=1
note_on channel=0 note=70 velocity=0 time=119
note_on channel=0 note=72 velocity=80 time=1
note_on channel=0 note=63 velocity=80 time=0
note_on channel=0 note=72 velocity=0 time=479
note_on channel=0 note=63 velocity=0 time=0
note_on channel=0 note=67 velocity=80 time=1
note_on channel=0 note=67 velocity=0 time=239
note_on channel=0 note=70 velocity=80 time=1
note_on channel=0 note=62 velocity=80 time=0
note_on channel=0 note=70 velocity=0 time=479
note_on channel=0 note=62 velocity=0 time=0
note_on channel=0 note=67 velocity=80 time=1
note_on channel=0 note=67 velocity=0 time=239
note_on channel=0 note=72 velocity=80 time=1
note_on channel=0 note=63 velocity=80 time=0
note_on channel=0 note=72 velocity=0 time=479
note_on channel=0 note=63 velocity=0 time=0
note_on channel=0 note=68 velocity=80 time=1
note_on channel=0 note=60 velocity=80 time=0
note_on channel=0 note=68 velocity=0 time=479
note_on channel=0 note=60 velocity=0 time=0
note_on channel=0 note=68 velocity=80 time=1
note_on channel=0 note=68 velocity=0 time=239
note_on channel=0 note=67 velocity=80 time=1
note_on channel=0 note=67 velocity=0 time=239
note_on channel=0 note=72 velocity=80 time=1
note_on channel=0 note=72 velocity=0 time=239
note_on channel=0 note=75 velocity=80 time=1
note_on channel=0 note=67 velocity=80 time=0
note_on channel=0 note=75 velocity=0 time=239
note_on channel=0 note=67 velocity=0 time=0
note_on channel=0 note=72 velocity=80 time=1
note_on channel=0 note=72 velocity=0 time=239
note_on channel=0 note=74 velocity=80 time=1
note_on channel=0 note=74 velocity=0 time=119
note_on channel=0 note=75 velocity=80 time=1
note_on channel=0 note=75 velocity=0 time=119
note_on channel=0 note=77 velocity=80 time=1
note_on channel=0 note=70 velocity=80 time=0
note_on channel=0 note=77 velocity=0 time=479
note_on channel=0 note=70 velocity=0 time=0
note_on channel=0 note=72 velocity=80 time=1
note_on channel=0 note=72 velocity=0 time=239
note_on channel=0 note=74 velocity=80 time=1
note_on channel=0 note=65 velocity=80 time=0
note_on channel=0 note=74 velocity=0 time=239
note_on channel=0 note=65 velocity=0 time=0
note_on channel=0 note=70 velocity=80 time=1
note_on channel=0 note=70 velocity=0 time=239
note_on channel=0 note=74 velocity=80 time=1
note_on channel=0 note=74 velocity=0 time=239
note_on channel=0 note=75 velocity=80 time=1
note_on channel=0 note=67 velocity=80 time=0
note_on channel=0 note=75 velocity=0 time=239
note_on channel=0 note=67 velocity=0 time=0
note_on channel=0 note=70 velocity=80 time=1
note_on channel=0 note=70 velocity=0 time=239
note_on channel=0 note=72 velocity=80 time=1
note_on channel=0 note=63 velocity=80 time=0
note_on channel=0 note=72 velocity=0 time=479
note_on channel=0 note=63 velocity=0 time=0
note_on channel=0 note=72 velocity=80 time=1
note_on channel=0 note=63 velocity=80 time=0
note_on channel=0 note=72 velocity=0 time=479
note_on channel=0 note=63 velocity=0 time=0
note_on channel=0 note=67 velocity=80 time=1
note_on channel=0 note=67 velocity=0 time=239
note_on channel=0 note=70 velocity=80 time=1
note_on channel=0 note=62 velocity=80 time=0
note_on channel=0 note=70 velocity=0 time=479
note_on channel=0 note=62 velocity=0 time=0
note_on channel=0 note=67 velocity=80 time=1
note_on channel=0 note=67 velocity=0 time=119
note_on channel=0 note=70 velocity=80 time=1
note_on channel=0 note=70 velocity=0 time=119
note_on channel=0 note=72 velocity=80 time=1
note_on channel=0 note=63 velocity=80 time=0
note_on channel=0 note=72 velocity=0 time=479
note_on channel=0 note=63 velocity=0 time=0
note_on channel=0 note=67 velocity=80 time=1
note_on channel=0 note=67 velocity=0 time=239
note_on channel=0 note=70 velocity=80 time=1
note_on channel=0 note=62 velocity=80 time=0
note_on channel=0 note=70 velocity=0 time=479
note_on channel=0 note=62 velocity=0 time=0
note_on channel=0 note=67 velocity=80 time=1
note_on channel=0 note=67 velocity=0 time=239
note_on channel=0 note=72 velocity=80 time=1
note_on channel=0 note=63 velocity=80 time=0
note_on channel=0 note=72 velocity=0 time=479
note_on channel=0 note=63 velocity=0 time=0
note_on channel=0 note=68 velocity=80 time=1
note_on channel=0 note=60 velocity=80 time=0
note_on channel=0 note=68 velocity=0 time=479
note_on channel=0 note=60 velocity=0 time=0
note_on channel=0 note=68 velocity=80 time=1
note_on channel=0 note=68 velocity=0 time=239
note_on channel=0 note=67 velocity=80 time=1
note_on channel=0 note=67 velocity=0 time=239
note_on channel=0 note=70 velocity=80 time=1
note_on channel=0 note=70 velocity=0 time=239
note_on channel=0 note=74 velocity=80 time=1
note_on channel=0 note=65 velocity=80 time=0
note_on channel=0 note=74 velocity=0 time=479
note_on channel=0 note=65 velocity=0 time=0
note_on channel=0 note=70 velocity=80 time=1
note_on channel=0 note=70 velocity=0 time=119
note_on channel=0 note=72 velocity=80 time=1
note_on channel=0 note=72 velocity=0 time=119
note_on channel=0 note=75 velocity=80 time=1
note_on channel=0 note=67 velocity=80 time=0
note_on channel=0 note=75 velocity=0 time=479
note_on channel=0 note=67 velocity=0 time=0
note_on channel=0 note=70 velocity=80 time=1
note_on channel=0 note=70 velocity=0 time=239
note_on channel=0 note=74 velocity=80 time=1
note_on channel=0 note=65 velocity=80 time=0
note_on channel=0 note=74 velocity=0 time=239
note_on channel=0 note=65 velocity=0 time=0
note_on channel=0 note=62 velocity=80 time=1
note_on channel=0 note=62 velocity=0 time=239
note_on channel=0 note=63 velocity=80 time=1
note_on channel=0 note=63 velocity=0 time=239
note_on channel=0 note=67 velocity=80 time=1
note_on channel=0 note=62 velocity=80 time=0
note_on channel=0 note=67 velocity=0 time=239
note_on channel=0 note=62 velocity=0 time=0
note_on channel=0 note=70 velocity=80 time=1
note_on channel=0 note=70 velocity=0 time=239
note_on channel=0 note=72 velocity=80 time=1
note_on channel=0 note=63 velocity=80 time=0
note_on channel=0 note=72 velocity=0 time=479
note_on channel=0 note=63 velocity=0 time=0
note_on channel=0 note=72 velocity=80 time=1
note_on channel=0 note=63 velocity=80 time=0
note_on channel=0 note=72 velocity=0 time=479
note_on channel=0 note=63 velocity=0 time=0
note_on channel=0 note=72 velocity=80 time=1
note_on channel=0 note=72 velocity=0 time=239
note_on channel=0 note=74 velocity=80 time=1
note_on channel=0 note=65 velocity=80 time=0
note_on channel=0 note=74 velocity=0 time=239
note_on channel=0 note=65 velocity=0 time=0
note_on channel=0 note=70 velocity=80 time=1
note_on channel=0 note=70 velocity=0 time=239
note_on channel=0 note=72 velocity=80 time=1
note_on channel=0 note=72 velocity=0 time=119
note_on channel=0 note=74 velocity=80 time=1
note_on channel=0 note=74 velocity=0 time=119
note_on channel=0 note=75 velocity=80 time=1
note_on channel=0 note=67 velocity=80 time=0
note_on channel=0 note=75 velocity=0 time=239
note_on channel=0 note=67 velocity=0 time=0
note_on channel=0 note=72 velocity=80 time=1
note_on channel=0 note=72 velocity=0 time=239
note_on channel=0 note=75 velocity=80 time=1
note_on channel=0 note=75 velocity=0 time=239
note_on channel=0 note=74 velocity=80 time=1
note_on channel=0 note=65 velocity=80 time=0
note_on channel=0 note=74 velocity=0 time=239
note_on channel=0 note=65 velocity=0 time=0
note_on channel=0 note=70 velocity=80 time=1
note_on channel=0 note=70 velocity=0 time=239
note_on channel=0 note=74 velocity=80 time=1
note_on channel=0 note=74 velocity=0 time=239
note_on channel=0 note=75 velocity=80 time=1
note_on channel=0 note=67 velocity=80 time=0
note_on channel=0 note=75 velocity=0 time=479
note_on channel=0 note=67 velocity=0 time=0
note_on channel=0 note=68 velocity=80 time=1
note_on channel=0 note=60 velocity=80 time=0
note_on channel=0 note=68 velocity=0 time=479
note_on channel=0 note=60 velocity=0 time=0
note_on channel=0 note=68 velocity=80 time=1
note_on channel=0 note=68 velocity=0 time=239
note_on channel=0 note=67 velocity=80 time=1
note_on channel=0 note=67 velocity=0 time=239
note_on channel=0 note=72 velocity=80 time=1
note_on channel=0 note=72 velocity=0 time=239
note_on channel=0 note=75 velocity=80 time=1
note_on channel=0 note=67 velocity=80 time=0
note_on channel=0 note=75 velocity=0 time=239
note_on channel=0 note=67 velocity=0 time=0
note_on channel=0 note=72 velocity=80 time=1
note_on channel=0 note=72 velocity=0 time=239
note_on channel=0 note=74 velocity=80 time=1
note_on channel=0 note=74 velocity=0 time=119
note_on channel=0 note=75 velocity=80 time=1
note_on channel=0 note=75 velocity=0 time=119
note_on channel=0 note=77 velocity=80 time=1
note_on channel=0 note=70 velocity=80 time=0
note_on channel=0 note=77 velocity=0 time=479
note_on channel=0 note=70 velocity=0 time=0
note_on channel=0 note=72 velocity=80 time=1
note_on channel=0 note=72 velocity=0 time=239
note_on channel=0 note=74 velocity=80 time=1
note_on channel=0 note=65 velocity=80 time=0
note_on channel=0 note=74 velocity=0 time=239
note_on channel=0 note=65 velocity=0 time=0
note_on channel=0 note=70 velocity=80 time=1
note_on channel=0 note=70 velocity=0 time=239
note_on channel=0 note=74 velocity=80 time=1
note_on channel=0 note=74 velocity=0 time=239
note_on channel=0 note=75 velocity=80 time=1
note_on channel=0 note=67 velocity=80 time=0
note_on channel=0 note=75 velocity=0 time=239
note_on channel=0 note=67 velocity=0 time=0
note_on channel=0 note=70 velocity=80 time=1
note_on channel=0 note=70 velocity=0 time=239
note_on channel=0 note=75 velocity=80 time=1
note_on channel=0 note=72 velocity=80 time=0
note_on channel=0 note=67 velocity=80 time=0
note_on channel=0 note=75 velocity=0 time=479
note_on channel=0 note=72 velocity=0 time=0
note_on channel=0 note=67 velocity=0 time=0
note_on channel=0 note=75 velocity=80 time=1
note_on channel=0 note=72 velocity=80 time=0
note_on channel=0 note=67 velocity=80 time=0
note_on channel=0 note=75 velocity=0 time=719
note_on channel=0 note=72 velocity=0 time=0
note_on channel=0 note=67 velocity=0 time=0
note_on channel=0 note=74 velocity=80 time=1
note_on channel=0 note=70 velocity=80 time=0
note_on channel=0 note=65 velocity=80 time=0
note_on channel=0 note=74 velocity=0 time=719
note_on channel=0 note=70 velocity=0 time=0
note_on channel=0 note=65 velocity=0 time=0
note_on channel=0 note=72 velocity=80 time=1
note_on channel=0 note=68 velocity=80 time=0
note_on channel=0 note=63 velocity=80 time=0
note_on channel=0 note=72 velocity=0 time=719
note_on channel=0 note=68 velocity=0 time=0
note_on channel=0 note=63 velocity=0 time=0
note_on channel=0 note=72 velocity=80 time=1
note_on channel=0 note=68 velocity=80 time=0
note_on channel=0 note=63 velocity=80 time=0
note_on channel=0 note=72 velocity=0 time=719
note_on channel=0 note=68 velocity=0 time=0
note_on channel=0 note=63 velocity=0 time=0
note_on channel=0 note=74 velocity=80 time=1
note_on channel=0 note=70 velocity=80 time=0
note_on channel=0 note=65 velocity=80 time=0
note_on channel=0 note=74 velocity=0 time=479
note_on channel=0 note=70 velocity=0 time=0
note_on channel=0 note=65 velocity=0 time=0
note_on channel=0 note=75 velocity=80 time=1
note_on channel=0 note=72 velocity=80 time=0
note_on channel=0 note=67 velocity=80 time=0
note_on channel=0 note=75 velocity=0 time=479
note_on channel=0 note=72 velocity=0 time=0
note_on channel=0 note=67 velocity=0 time=0
note_on channel=0 note=75 velocity=80 time=1
note_on channel=0 note=72 velocity=80 time=0
note_on channel=0 note=67 velocity=80 time=0
note_on channel=0 note=75 velocity=0 time=719
note_on channel=0 note=72 velocity=0 time=0
note_on channel=0 note=67 velocity=0 time=0
note_on channel=0 note=74 velocity=80 time=1
note_on channel=0 note=70 velocity=80 time=0
note_on channel=0 note=65 velocity=80 time=0
note_on channel=0 note=74 velocity=0 time=719
note_on channel=0 note=70 velocity=0 time=0
note_on channel=0 note=65 velocity=0 time=0
note_on channel=0 note=72 velocity=80 time=1
note_on channel=0 note=68 velocity=80 time=0
note_on channel=0 note=63 velocity=80 time=0
note_on channel=0 note=72 velocity=0 time=719
note_on channel=0 note=68 velocity=0 time=0
note_on channel=0 note=63 velocity=0 time=0
note_on channel=0 note=72 velocity=80 time=1
note_on channel=0 note=68 velocity=80 time=0
note_on channel=0 note=63 velocity=80 time=0
note_on channel=0 note=72 velocity=0 time=719
note_on channel=0 note=68 velocity=0 time=0
note_on channel=0 note=63 velocity=0 time=0
note_on channel=0 note=74 velocity=80 time=1
note_on channel=0 note=70 velocity=80 time=0
note_on channel=0 note=66 velocity=80 time=0
note_on channel=0 note=74 velocity=0 time=479
note_on channel=0 note=70 velocity=0 time=0
note_on channel=0 note=66 velocity=0 time=0
note_on channel=0 note=75 velocity=80 time=1
note_on channel=0 note=72 velocity=80 time=0
note_on channel=0 note=67 velocity=80 time=0
note_on channel=0 note=75 velocity=0 time=479
note_on channel=0 note=72 velocity=0 time=0
note_on channel=0 note=67 velocity=0 time=0
note_on channel=0 note=75 velocity=80 time=1
note_on channel=0 note=72 velocity=80 time=0
note_on channel=0 note=67 velocity=80 time=0
note_on channel=0 note=75 velocity=0 time=719
note_on channel=0 note=72 velocity=0 time=0
note_on channel=0 note=67 velocity=0 time=0
note_on channel=0 note=78 velocity=80 time=1
note_on channel=0 note=74 velocity=80 time=0
note_on channel=0 note=69 velocity=80 time=0
note_on channel=0 note=78 velocity=0 time=719
note_on channel=0 note=74 velocity=0 time=0
note_on channel=0 note=69 velocity=0 time=0
note_on channel=0 note=79 velocity=80 time=1
note_on channel=0 note=76 velocity=80 time=0
note_on channel=0 note=79 velocity=0 time=239
note_on channel=0 note=76 velocity=0 time=0
note_on channel=0 note=78 velocity=80 time=1
note_on channel=0 note=74 velocity=80 time=0
note_on channel=0 note=78 velocity=0 time=239
note_on channel=0 note=74 velocity=0 time=0
note_on channel=0 note=79 velocity=80 time=1
note_on channel=0 note=76 velocity=80 time=0
note_on channel=0 note=79 velocity=0 time=239
note_on channel=0 note=76 velocity=0 time=0
note_on channel=0 note=78 velocity=80 time=1
note_on channel=0 note=74 velocity=80 time=0
note_on channel=0 note=78 velocity=0 time=239
note_on channel=0 note=74 velocity=0 time=0
note_on channel=0 note=76 velocity=80 time=1
note_on channel=0 note=72 velocity=80 time=0
note_on channel=0 note=76 velocity=0 time=239
note_on channel=0 note=72 velocity=0 time=0
note_on channel=0 note=78 velocity=80 time=1
note_on channel=0 note=74 velocity=80 time=0
note_on channel=0 note=78 velocity=0 time=239
note_on channel=0 note=74 velocity=0 time=0
note_on channel=0 note=79 velocity=80 time=1
note_on channel=0 note=76 velocity=80 time=0
note_on channel=0 note=79 velocity=0 time=239
note_on channel=0 note=76 velocity=0 time=0
note_on channel=0 note=78 velocity=80 time=1
note_on channel=0 note=74 velocity=80 time=0
note_on channel=0 note=78 velocity=0 time=239
note_on channel=0 note=74 velocity=0 time=0
note_on channel=0 note=77 velocity=80 time=1
note_on channel=0 note=73 velocity=80 time=0
note_on channel=0 note=68 velocity=80 time=0
note_on channel=0 note=77 velocity=0 time=479
note_on channel=0 note=73 velocity=0 time=0
note_on channel=0 note=68 velocity=0 time=0
note_on channel=0 note=77 velocity=80 time=1
note_on channel=0 note=73 velocity=80 time=0
note_on channel=0 note=68 velocity=80 time=0
note_on channel=0 note=77 velocity=0 time=719
note_on channel=0 note=73 velocity=0 time=0
note_on channel=0 note=68 velocity=0 time=0
note_on channel=0 note=79 velocity=80 time=1
note_on channel=0 note=75 velocity=80 time=0
note_on channel=0 note=70 velocity=80 time=0
note_on channel=0 note=79 velocity=0 time=719
note_on channel=0 note=75 velocity=0 time=0
note_on channel=0 note=70 velocity=0 time=0
note_on channel=0 note=79 velocity=80 time=1
note_on channel=0 note=76 velocity=80 time=0
note_on channel=0 note=72 velocity=80 time=0
note_on channel=0 note=79 velocity=0 time=959
note_on channel=0 note=76 velocity=0 time=0
note_on channel=0 note=72 velocity=0 time=0
note_on channel=0 note=84 velocity=80 time=1
note_on channel=0 note=79 velocity=80 time=0
note_on channel=0 note=76 velocity=80 time=0
note_on channel=0 note=84 velocity=0 time=959
note_on channel=0 note=79 velocity=0 time=0
note_on channel=0 note=76 velocity=0 time=0
note_on channel=0 note=68 velocity=80 time=1
note_on channel=0 note=65 velocity=80 time=0
note_on channel=0 note=60 velocity=80 time=0
note_on channel=0 note=68 velocity=0 time=1919
note_on channel=0 note=65 velocity=0 time=0
note_on channel=0 note=60 velocity=0 time=0
note_on channel=0 note=72 velocity=80 time=1
note_on channel=0 note=68 velocity=80 time=0
note_on channel=0 note=63 velocity=80 time=0
note_on channel=0 note=72 velocity=0 time=1919
note_on channel=0 note=68 velocity=0 time=0
note_on channel=0 note=63 velocity=0 time=0
note_on channel=0 note=70 velocity=80 time=1
note_on channel=0 note=65 velocity=80 time=0
note_on channel=0 note=62 velocity=80 time=0
note_on channel=0 note=70 velocity=0 time=479
note_on channel=0 note=65 velocity=0 time=0
note_on channel=0 note=62 velocity=0 time=0
note_on channel=0 note=74 velocity=80 time=1
note_on channel=0 note=70 velocity=80 time=0
note_on channel=0 note=65 velocity=80 time=0
note_on channel=0 note=74 velocity=0 time=479
note_on channel=0 note=70 velocity=0 time=0
note_on channel=0 note=65 velocity=0 time=0
note_on channel=0 note=76 velocity=80 time=1
note_on channel=0 note=72 velocity=80 time=0
note_on channel=0 note=76 velocity=0 time=239
note_on channel=0 note=72 velocity=0 time=0
note_on channel=0 note=77 velocity=80 time=1
note_on channel=0 note=74 velocity=80 time=0
note_on channel=0 note=77 velocity=0 time=239
note_on channel=0 note=74 velocity=0 time=0
note_on channel=0 note=77 velocity=80 time=241
note_on channel=0 note=73 velocity=80 time=0
note_on channel=0 note=68 velocity=80 time=0
note_on channel=0 note=77 velocity=0 time=1199
note_on channel=0 note=73 velocity=0 time=0
note_on channel=0 note=68 velocity=0 time=0
note_on channel=0 note=76 velocity=80 time=1
note_on channel=0 note=72 velocity=80 time=0
note_on channel=0 note=67 velocity=80 time=0
note_on channel=0 note=76 velocity=0 time=959
note_on channel=0 note=72 velocity=0 time=0
note_on channel=0 note=67 velocity=0 time=0
note_on channel=0 note=77 velocity=80 time=1
note_on channel=0 note=72 velocity=80 time=0
note_on channel=0 note=68 velocity=80 time=0
note_on channel=0 note=77 velocity=0 time=1919
note_on channel=0 note=72 velocity=0 time=0
note_on channel=0 note=68 velocity=0 time=0
note_on channel=0 note=72 velocity=80 time=1
note_on channel=0 note=68 velocity=80 time=0
note_on channel=0 note=63 velocity=80 time=0
note_on channel=0 note=72 velocity=0 time=1439
note_on channel=0 note=68 velocity=0 time=0
note_on channel=0 note=63 velocity=0 time=0
note_on channel=0 note=72 velocity=80 time=1
note_on channel=0 note=69 velocity=80 time=0
note_on channel=0 note=72 velocity=0 time=479
note_on channel=0 note=69 velocity=0 time=0
note_on channel=0 note=70 velocity=80 time=1
note_on channel=0 note=65 velocity=80 time=0
note_on channel=0 note=62 velocity=80 time=0
note_on channel=0 note=70 velocity=0 time=719
note_on channel=0 note=65 velocity=0 time=0
note_on channel=0 note=62 velocity=0 time=0
note_on channel=0 note=65 velocity=80 time=1
note_on channel=0 note=62 velocity=80 time=0
note_on channel=0 note=58 velocity=80 time=0
note_on channel=0 note=65 velocity=0 time=719
note_on channel=0 note=62 velocity=0 time=0
note_on channel=0 note=58 velocity=0 time=0
note_on channel=0 note=70 velocity=80 time=1
note_on channel=0 note=65 velocity=80 time=0
note_on channel=0 note=62 velocity=80 time=0
note_on channel=0 note=70 velocity=0 time=479
note_on channel=0 note=65 velocity=0 time=0
note_on channel=0 note=62 velocity=0 time=0
note_on channel=0 note=68 velocity=80 time=1
note_on channel=0 note=65 velocity=80 time=0
note_on channel=0 note=60 velocity=80 time=0
note_on channel=0 note=68 velocity=0 time=959
note_on channel=0 note=65 velocity=0 time=0
note_on channel=0 note=60 velocity=0 time=0
note_on channel=0 note=67 velocity=80 time=1
note_on channel=0 note=63 velocity=80 time=0
note_on channel=0 note=58 velocity=80 time=0
note_on channel=0 note=67 velocity=0 time=959
note_on channel=0 note=63 velocity=0 time=0
note_on channel=0 note=58 velocity=0 time=0
note_on channel=0 note=68 velocity=80 time=1
note_on channel=0 note=65 velocity=80 time=0
note_on channel=0 note=60 velocity=80 time=0
note_on channel=0 note=68 velocity=0 time=1919
note_on channel=0 note=65 velocity=0 time=0
note_on channel=0 note=60 velocity=0 time=0
note_on channel=0 note=72 velocity=80 time=1
note_on channel=0 note=68 velocity=80 time=0
note_on channel=0 note=63 velocity=80 time=0
note_on channel=0 note=72 velocity=0 time=1919
note_on channel=0 note=68 velocity=0 time=0
note_on channel=0 note=63 velocity=0 time=0
note_on channel=0 note=70 velocity=80 time=1
note_on channel=0 note=65 velocity=80 time=0
note_on channel=0 note=62 velocity=80 time=0
note_on channel=0 note=70 velocity=0 time=479
note_on channel=0 note=65 velocity=0 time=0
note_on channel=0 note=62 velocity=0 time=0
note_on channel=0 note=74 velocity=80 time=1
note_on channel=0 note=70 velocity=80 time=0
note_on channel=0 note=65 velocity=80 time=0
note_on channel=0 note=74 velocity=0 time=479
note_on channel=0 note=70 velocity=0 time=0
note_on channel=0 note=65 velocity=0 time=0
note_on channel=0 note=76 velocity=80 time=1
note_on channel=0 note=72 velocity=80 time=0
note_on channel=0 note=76 velocity=0 time=239
note_on channel=0 note=72 velocity=0 time=0
note_on channel=0 note=77 velocity=80 time=1
note_on channel=0 note=74 velocity=80 time=0
note_on channel=0 note=77 velocity=0 time=239
note_on channel=0 note=74 velocity=0 time=0
note_on channel=0 note=77 velocity=80 time=241
note_on channel=0 note=73 velocity=80 time=0
note_on channel=0 note=68 velocity=80 time=0
note_on channel=0 note=77 velocity=0 time=1199
note_on channel=0 note=73 velocity=0 time=0
note_on channel=0 note=68 velocity=0 time=0
note_on channel=0 note=76 velocity=80 time=1
note_on channel=0 note=72 velocity=80 time=0
note_on channel=0 note=67 velocity=80 time=0
note_on channel=0 note=76 velocity=0 time=959
note_on channel=0 note=72 velocity=0 time=0
note_on channel=0 note=67 velocity=0 time=0
note_on channel=0 note=77 velocity=80 time=1
note_on channel=0 note=72 velocity=80 time=0
note_on channel=0 note=68 velocity=80 time=0
note_on channel=0 note=77 velocity=0 time=1919
note_on channel=0 note=72 velocity=0 time=0
note_on channel=0 note=68 velocity=0 time=0
note_on channel=0 note=72 velocity=80 time=1
note_on channel=0 note=68 velocity=80 time=0
note_on channel=0 note=63 velocity=80 time=0
note_on channel=0 note=72 velocity=0 time=1439
note_on channel=0 note=68 velocity=0 time=0
note_on channel=0 note=63 velocity=0 time=0
note_on channel=0 note=72 velocity=80 time=1
note_on channel=0 note=69 velocity=80 time=0
note_on channel=0 note=72 velocity=0 time=479
note_on channel=0 note=69 velocity=0 time=0
note_on channel=0 note=70 velocity=80 time=1
note_on channel=0 note=65 velocity=80 time=0
note_on channel=0 note=62 velocity=80 time=0
note_on channel=0 note=70 velocity=0 time=719
note_on channel=0 note=65 velocity=0 time=0
note_on channel=0 note=62 velocity=0 time=0
note_on channel=0 note=65 velocity=80 time=1
note_on channel=0 note=62 velocity=80 time=0
note_on channel=0 note=58 velocity=80 time=0
note_on channel=0 note=65 velocity=0 time=719
note_on channel=0 note=62 velocity=0 time=0
note_on channel=0 note=58 velocity=0 time=0
note_on channel=0 note=70 velocity=80 time=1
note_on channel=0 note=65 velocity=80 time=0
note_on channel=0 note=62 velocity=80 time=0
note_on channel=0 note=70 velocity=0 time=479
note_on channel=0 note=65 velocity=0 time=0
note_on channel=0 note=62 velocity=0 time=0
note_on channel=0 note=68 velocity=80 time=1
note_on channel=0 note=65 velocity=80 time=0
note_on channel=0 note=60 velocity=80 time=0
note_on channel=0 note=68 velocity=0 time=959
note_on channel=0 note=65 velocity=0 time=0
note_on channel=0 note=60 velocity=0 time=0
note_on channel=0 note=67 velocity=80 time=1
note_on channel=0 note=63 velocity=80 time=0
note_on channel=0 note=58 velocity=80 time=0
note_on channel=0 note=67 velocity=0 time=959
note_on channel=0 note=63 velocity=0 time=0
note_on channel=0 note=58 velocity=0 time=0
MetaMessage('key_signature', key='C', time=1)
note_on channel=0 note=65 velocity=80 time=0
note_on channel=0 note=65 velocity=0 time=239
note_on channel=0 note=72 velocity=80 time=1
note_on channel=0 note=72 velocity=0 time=239
note_on channel=0 note=71 velocity=80 time=1
note_on channel=0 note=71 velocity=0 time=239
note_on channel=0 note=67 velocity=80 time=1
note_on channel=0 note=67 velocity=0 time=239
note_on channel=0 note=74 velocity=80 time=1
note_on channel=0 note=74 velocity=0 time=239
note_on channel=0 note=73 velocity=80 time=1
note_on channel=0 note=73 velocity=0 time=239
note_on channel=0 note=69 velocity=80 time=1
note_on channel=0 note=69 velocity=0 time=239
note_on channel=0 note=72 velocity=80 time=1
note_on channel=0 note=72 velocity=0 time=239
note_on channel=0 note=71 velocity=80 time=1
note_on channel=0 note=71 velocity=0 time=239
note_on channel=0 note=67 velocity=80 time=1
note_on channel=0 note=67 velocity=0 time=239
note_on channel=0 note=71 velocity=80 time=1
note_on channel=0 note=71 velocity=0 time=239
note_on channel=0 note=70 velocity=80 time=1
note_on channel=0 note=70 velocity=0 time=239
note_on channel=0 note=66 velocity=80 time=1
note_on channel=0 note=66 velocity=0 time=239
note_on channel=0 note=70 velocity=80 time=1
note_on channel=0 note=70 velocity=0 time=239
note_on channel=0 note=69 velocity=80 time=1
note_on channel=0 note=69 velocity=0 time=239
note_on channel=0 note=64 velocity=80 time=1
note_on channel=0 note=64 velocity=0 time=239
note_on channel=0 note=65 velocity=80 time=1
note_on channel=0 note=65 velocity=0 time=239
note_on channel=0 note=72 velocity=80 time=1
note_on channel=0 note=72 velocity=0 time=239
note_on channel=0 note=71 velocity=80 time=1
note_on channel=0 note=71 velocity=0 time=239
note_on channel=0 note=67 velocity=80 time=1
note_on channel=0 note=67 velocity=0 time=239
note_on channel=0 note=74 velocity=80 time=1
note_on channel=0 note=74 velocity=0 time=239
note_on channel=0 note=73 velocity=80 time=1
note_on channel=0 note=73 velocity=0 time=239
note_on channel=0 note=69 velocity=80 time=1
note_on channel=0 note=69 velocity=0 time=239
note_on channel=0 note=72 velocity=80 time=1
note_on channel=0 note=72 velocity=0 time=239
note_on channel=0 note=71 velocity=80 time=1
note_on channel=0 note=71 velocity=0 time=239
note_on channel=0 note=67 velocity=80 time=1
note_on channel=0 note=67 velocity=0 time=239
note_on channel=0 note=71 velocity=80 time=1
note_on channel=0 note=71 velocity=0 time=239
note_on channel=0 note=70 velocity=80 time=1
note_on channel=0 note=70 velocity=0 time=239
note_on channel=0 note=66 velocity=80 time=1
note_on channel=0 note=66 velocity=0 time=239
note_on channel=0 note=70 velocity=80 time=1
note_on channel=0 note=70 velocity=0 time=239
note_on channel=0 note=69 velocity=80 time=1
note_on channel=0 note=69 velocity=0 time=239
note_on channel=0 note=64 velocity=80 time=1
note_on channel=0 note=64 velocity=0 time=239
note_on channel=0 note=65 velocity=80 time=1
note_on channel=0 note=65 velocity=0 time=239
note_on channel=0 note=72 velocity=80 time=1
note_on channel=0 note=72 velocity=0 time=239
note_on channel=0 note=71 velocity=80 time=1
note_on channel=0 note=71 velocity=0 time=239
note_on channel=0 note=67 velocity=80 time=1
note_on channel=0 note=67 velocity=0 time=239
note_on channel=0 note=74 velocity=80 time=1
note_on channel=0 note=74 velocity=0 time=239
note_on channel=0 note=73 velocity=80 time=1
note_on channel=0 note=73 velocity=0 time=239
note_on channel=0 note=69 velocity=80 time=1
note_on channel=0 note=69 velocity=0 time=239
note_on channel=0 note=72 velocity=80 time=1
note_on channel=0 note=72 velocity=0 time=239
note_on channel=0 note=71 velocity=80 time=1
note_on channel=0 note=71 velocity=0 time=239
note_on channel=0 note=67 velocity=80 time=1
note_on channel=0 note=67 velocity=0 time=239
note_on channel=0 note=71 velocity=80 time=1
note_on channel=0 note=71 velocity=0 time=239
note_on channel=0 note=70 velocity=80 time=1
note_on channel=0 note=70 velocity=0 time=239
note_on channel=0 note=66 velocity=80 time=1
note_on channel=0 note=66 velocity=0 time=239
note_on channel=0 note=70 velocity=80 time=1
note_on channel=0 note=70 velocity=0 time=239
note_on channel=0 note=69 velocity=80 time=1
note_on channel=0 note=69 velocity=0 time=239
note_on channel=0 note=64 velocity=80 time=1
note_on channel=0 note=64 velocity=0 time=239
note_on channel=0 note=65 velocity=80 time=1
note_on channel=0 note=65 velocity=0 time=239
note_on channel=0 note=72 velocity=80 time=1
note_on channel=0 note=72 velocity=0 time=239
note_on channel=0 note=71 velocity=80 time=1
note_on channel=0 note=71 velocity=0 time=239
note_on channel=0 note=67 velocity=80 time=1
note_on channel=0 note=67 velocity=0 time=239
note_on channel=0 note=74 velocity=80 time=1
note_on channel=0 note=74 velocity=0 time=239
note_on channel=0 note=73 velocity=80 time=1
note_on channel=0 note=73 velocity=0 time=239
note_on channel=0 note=69 velocity=80 time=1
note_on channel=0 note=69 velocity=0 time=239
note_on channel=0 note=72 velocity=80 time=1
note_on channel=0 note=72 velocity=0 time=239
note_on channel=0 note=71 velocity=80 time=1
note_on channel=0 note=71 velocity=0 time=239
note_on channel=0 note=67 velocity=80 time=1
note_on channel=0 note=67 velocity=0 time=239
note_on channel=0 note=71 velocity=80 time=1
note_on channel=0 note=71 velocity=0 time=239
note_on channel=0 note=70 velocity=80 time=1
note_on channel=0 note=70 velocity=0 time=239
note_on channel=0 note=66 velocity=80 time=1
note_on channel=0 note=66 velocity=0 time=239
note_on channel=0 note=70 velocity=80 time=1
note_on channel=0 note=70 velocity=0 time=239
note_on channel=0 note=69 velocity=80 time=1
note_on channel=0 note=69 velocity=0 time=239
note_on channel=0 note=64 velocity=80 time=1
note_on channel=0 note=64 velocity=0 time=239
note_on channel=0 note=74 velocity=80 time=1441
note_on channel=0 note=74 velocity=0 time=239
note_on channel=0 note=77 velocity=80 time=1
note_on channel=0 note=77 velocity=0 time=239
MetaMessage('key_signature', key='Bb', time=1)
note_on channel=0 note=79 velocity=80 time=0
note_on channel=0 note=70 velocity=80 time=0
note_on channel=0 note=79 velocity=0 time=479
note_on channel=0 note=70 velocity=0 time=0
note_on channel=0 note=79 velocity=80 time=1
note_on channel=0 note=70 velocity=80 time=0
note_on channel=0 note=79 velocity=0 time=479
note_on channel=0 note=70 velocity=0 time=0
note_on channel=0 note=74 velocity=80 time=1
note_on channel=0 note=74 velocity=0 time=239
note_on channel=0 note=77 velocity=80 time=1
note_on channel=0 note=69 velocity=80 time=0
note_on channel=0 note=77 velocity=0 time=479
note_on channel=0 note=69 velocity=0 time=0
note_on channel=0 note=74 velocity=80 time=1
note_on channel=0 note=74 velocity=0 time=119
note_on channel=0 note=77 velocity=80 time=1
note_on channel=0 note=77 velocity=0 time=119
note_on channel=0 note=79 velocity=80 time=1
note_on channel=0 note=70 velocity=80 time=0
note_on channel=0 note=79 velocity=0 time=479
note_on channel=0 note=70 velocity=0 time=0
note_on channel=0 note=74 velocity=80 time=1
note_on channel=0 note=74 velocity=0 time=239
note_on channel=0 note=77 velocity=80 time=1
note_on channel=0 note=69 velocity=80 time=0
note_on channel=0 note=77 velocity=0 time=479
note_on channel=0 note=69 velocity=0 time=0
note_on channel=0 note=74 velocity=80 time=1
note_on channel=0 note=74 velocity=0 time=239
note_on channel=0 note=79 velocity=80 time=1
note_on channel=0 note=70 velocity=80 time=0
note_on channel=0 note=79 velocity=0 time=479
note_on channel=0 note=70 velocity=0 time=0
note_on channel=0 note=75 velocity=80 time=1
note_on channel=0 note=67 velocity=80 time=0
note_on channel=0 note=75 velocity=0 time=479
note_on channel=0 note=67 velocity=0 time=0
note_on channel=0 note=75 velocity=80 time=1
note_on channel=0 note=75 velocity=0 time=239
note_on channel=0 note=74 velocity=80 time=1
note_on channel=0 note=74 velocity=0 time=239
note_on channel=0 note=77 velocity=80 time=1
note_on channel=0 note=77 velocity=0 time=239
note_on channel=0 note=81 velocity=80 time=1
note_on channel=0 note=72 velocity=80 time=0
note_on channel=0 note=81 velocity=0 time=479
note_on channel=0 note=72 velocity=0 time=0
note_on channel=0 note=77 velocity=80 time=1
note_on channel=0 note=77 velocity=0 time=119
note_on channel=0 note=79 velocity=80 time=1
note_on channel=0 note=79 velocity=0 time=119
note_on channel=0 note=82 velocity=80 time=1
note_on channel=0 note=74 velocity=80 time=0
note_on channel=0 note=82 velocity=0 time=479
note_on channel=0 note=74 velocity=0 time=0
note_on channel=0 note=77 velocity=80 time=1
note_on channel=0 note=77 velocity=0 time=239
note_on channel=0 note=81 velocity=80 time=1
note_on channel=0 note=72 velocity=80 time=0
note_on channel=0 note=81 velocity=0 time=239
note_on channel=0 note=72 velocity=0 time=0
note_on channel=0 note=69 velocity=80 time=1
note_on channel=0 note=69 velocity=0 time=239
note_on channel=0 note=70 velocity=80 time=1
note_on channel=0 note=70 velocity=0 time=239
note_on channel=0 note=74 velocity=80 time=1
note_on channel=0 note=69 velocity=80 time=0
note_on channel=0 note=74 velocity=0 time=239
note_on channel=0 note=69 velocity=0 time=0
note_on channel=0 note=77 velocity=80 time=1
note_on channel=0 note=77 velocity=0 time=239
note_on channel=0 note=79 velocity=80 time=1
note_on channel=0 note=70 velocity=80 time=0
note_on channel=0 note=79 velocity=0 time=479
note_on channel=0 note=70 velocity=0 time=0
note_on channel=0 note=79 velocity=80 time=1
note_on channel=0 note=70 velocity=80 time=0
note_on channel=0 note=79 velocity=0 time=479
note_on channel=0 note=70 velocity=0 time=0
note_on channel=0 note=79 velocity=80 time=1
note_on channel=0 note=79 velocity=0 time=239
note_on channel=0 note=81 velocity=80 time=1
note_on channel=0 note=72 velocity=80 time=0
note_on channel=0 note=81 velocity=0 time=239
note_on channel=0 note=72 velocity=0 time=0
note_on channel=0 note=77 velocity=80 time=1
note_on channel=0 note=77 velocity=0 time=239
note_on channel=0 note=79 velocity=80 time=1
note_on channel=0 note=79 velocity=0 time=119
note_on channel=0 note=81 velocity=80 time=1
note_on channel=0 note=81 velocity=0 time=119
note_on channel=0 note=82 velocity=80 time=1
note_on channel=0 note=74 velocity=80 time=0
note_on channel=0 note=82 velocity=0 time=239
note_on channel=0 note=74 velocity=0 time=0
note_on channel=0 note=79 velocity=80 time=1
note_on channel=0 note=79 velocity=0 time=239
note_on channel=0 note=82 velocity=80 time=1
note_on channel=0 note=82 velocity=0 time=239
note_on channel=0 note=81 velocity=80 time=1
note_on channel=0 note=72 velocity=80 time=0
note_on channel=0 note=81 velocity=0 time=239
note_on channel=0 note=72 velocity=0 time=0
note_on channel=0 note=77 velocity=80 time=1
note_on channel=0 note=77 velocity=0 time=239
note_on channel=0 note=81 velocity=80 time=1
note_on channel=0 note=81 velocity=0 time=239
note_on channel=0 note=82 velocity=80 time=1
note_on channel=0 note=74 velocity=80 time=0
note_on channel=0 note=82 velocity=0 time=479
note_on channel=0 note=74 velocity=0 time=0
note_on channel=0 note=75 velocity=80 time=1
note_on channel=0 note=67 velocity=80 time=0
note_on channel=0 note=75 velocity=0 time=479
note_on channel=0 note=67 velocity=0 time=0
note_on channel=0 note=75 velocity=80 time=1
note_on channel=0 note=75 velocity=0 time=239
note_on channel=0 note=74 velocity=80 time=1
note_on channel=0 note=74 velocity=0 time=239
note_on channel=0 note=79 velocity=80 time=1
note_on channel=0 note=79 velocity=0 time=239
note_on channel=0 note=82 velocity=80 time=1
note_on channel=0 note=74 velocity=80 time=0
note_on channel=0 note=82 velocity=0 time=239
note_on channel=0 note=74 velocity=0 time=0
note_on channel=0 note=79 velocity=80 time=1
note_on channel=0 note=79 velocity=0 time=239
note_on channel=0 note=81 velocity=80 time=1
note_on channel=0 note=81 velocity=0 time=119
note_on channel=0 note=82 velocity=80 time=1
note_on channel=0 note=82 velocity=0 time=119
note_on channel=0 note=84 velocity=80 time=1
note_on channel=0 note=77 velocity=80 time=0
note_on channel=0 note=84 velocity=0 time=479
note_on channel=0 note=77 velocity=0 time=0
note_on channel=0 note=79 velocity=80 time=1
note_on channel=0 note=79 velocity=0 time=239
note_on channel=0 note=81 velocity=80 time=1
note_on channel=0 note=72 velocity=80 time=0
note_on channel=0 note=81 velocity=0 time=239
note_on channel=0 note=72 velocity=0 time=0
note_on channel=0 note=77 velocity=80 time=1
note_on channel=0 note=77 velocity=0 time=239
note_on channel=0 note=81 velocity=80 time=1
note_on channel=0 note=81 velocity=0 time=239
note_on channel=0 note=82 velocity=80 time=1
note_on channel=0 note=74 velocity=80 time=0
note_on channel=0 note=82 velocity=0 time=239
note_on channel=0 note=74 velocity=0 time=0
note_on channel=0 note=77 velocity=80 time=1
note_on channel=0 note=77 velocity=0 time=239
note_on channel=0 note=79 velocity=80 time=1
note_on channel=0 note=70 velocity=80 time=0
note_on channel=0 note=79 velocity=0 time=479
note_on channel=0 note=70 velocity=0 time=0
note_on channel=0 note=79 velocity=80 time=1
note_on channel=0 note=70 velocity=80 time=0
note_on channel=0 note=79 velocity=0 time=479
note_on channel=0 note=70 velocity=0 time=0
note_on channel=0 note=74 velocity=80 time=1
note_on channel=0 note=74 velocity=0 time=239
note_on channel=0 note=77 velocity=80 time=1
note_on channel=0 note=69 velocity=80 time=0
note_on channel=0 note=77 velocity=0 time=479
note_on channel=0 note=69 velocity=0 time=0
note_on channel=0 note=74 velocity=80 time=1
note_on channel=0 note=74 velocity=0 time=119
note_on channel=0 note=77 velocity=80 time=1
note_on channel=0 note=77 velocity=0 time=119
note_on channel=0 note=79 velocity=80 time=1
note_on channel=0 note=70 velocity=80 time=0
note_on channel=0 note=79 velocity=0 time=479
note_on channel=0 note=70 velocity=0 time=0
note_on channel=0 note=74 velocity=80 time=1
note_on channel=0 note=74 velocity=0 time=239
note_on channel=0 note=77 velocity=80 time=1
note_on channel=0 note=69 velocity=80 time=0
note_on channel=0 note=77 velocity=0 time=479
note_on channel=0 note=69 velocity=0 time=0
note_on channel=0 note=74 velocity=80 time=1
note_on channel=0 note=74 velocity=0 time=239
note_on channel=0 note=79 velocity=80 time=1
note_on channel=0 note=70 velocity=80 time=0
note_on channel=0 note=79 velocity=0 time=479
note_on channel=0 note=70 velocity=0 time=0
note_on channel=0 note=75 velocity=80 time=1
note_on channel=0 note=67 velocity=80 time=0
note_on channel=0 note=75 velocity=0 time=479
note_on channel=0 note=67 velocity=0 time=0
note_on channel=0 note=75 velocity=80 time=1
note_on channel=0 note=75 velocity=0 time=239
note_on channel=0 note=74 velocity=80 time=1
note_on channel=0 note=74 velocity=0 time=239
note_on channel=0 note=77 velocity=80 time=1
note_on channel=0 note=77 velocity=0 time=239
note_on channel=0 note=81 velocity=80 time=1
note_on channel=0 note=72 velocity=80 time=0
note_on channel=0 note=81 velocity=0 time=479
note_on channel=0 note=72 velocity=0 time=0
note_on channel=0 note=77 velocity=80 time=1
note_on channel=0 note=77 velocity=0 time=119
note_on channel=0 note=79 velocity=80 time=1
note_on channel=0 note=79 velocity=0 time=119
note_on channel=0 note=82 velocity=80 time=1
note_on channel=0 note=74 velocity=80 time=0
note_on channel=0 note=82 velocity=0 time=479
note_on channel=0 note=74 velocity=0 time=0
note_on channel=0 note=77 velocity=80 time=1
note_on channel=0 note=77 velocity=0 time=239
note_on channel=0 note=81 velocity=80 time=1
note_on channel=0 note=72 velocity=80 time=0
note_on channel=0 note=81 velocity=0 time=239
note_on channel=0 note=72 velocity=0 time=0
note_on channel=0 note=69 velocity=80 time=1
note_on channel=0 note=69 velocity=0 time=239
note_on channel=0 note=70 velocity=80 time=1
note_on channel=0 note=70 velocity=0 time=239
note_on channel=0 note=74 velocity=80 time=1
note_on channel=0 note=69 velocity=80 time=0
note_on channel=0 note=74 velocity=0 time=239
note_on channel=0 note=69 velocity=0 time=0
note_on channel=0 note=77 velocity=80 time=1
note_on channel=0 note=77 velocity=0 time=239
note_on channel=0 note=79 velocity=80 time=1
note_on channel=0 note=70 velocity=80 time=0
note_on channel=0 note=79 velocity=0 time=479
note_on channel=0 note=70 velocity=0 time=0
note_on channel=0 note=79 velocity=80 time=1
note_on channel=0 note=70 velocity=80 time=0
note_on channel=0 note=79 velocity=0 time=479
note_on channel=0 note=70 velocity=0 time=0
note_on channel=0 note=79 velocity=80 time=1
note_on channel=0 note=79 velocity=0 time=239
note_on channel=0 note=81 velocity=80 time=1
note_on channel=0 note=72 velocity=80 time=0
note_on channel=0 note=81 velocity=0 time=239
note_on channel=0 note=72 velocity=0 time=0
note_on channel=0 note=77 velocity=80 time=1
note_on channel=0 note=77 velocity=0 time=239
note_on channel=0 note=79 velocity=80 time=1
note_on channel=0 note=79 velocity=0 time=119
note_on channel=0 note=81 velocity=80 time=1
note_on channel=0 note=81 velocity=0 time=119
note_on channel=0 note=82 velocity=80 time=1
note_on channel=0 note=74 velocity=80 time=0
note_on channel=0 note=82 velocity=0 time=239
note_on channel=0 note=74 velocity=0 time=0
note_on channel=0 note=79 velocity=80 time=1
note_on channel=0 note=79 velocity=0 time=239
note_on channel=0 note=82 velocity=80 time=1
note_on channel=0 note=82 velocity=0 time=239
note_on channel=0 note=81 velocity=80 time=1
note_on channel=0 note=72 velocity=80 time=0
note_on channel=0 note=81 velocity=0 time=239
note_on channel=0 note=72 velocity=0 time=0
note_on channel=0 note=77 velocity=80 time=1
note_on channel=0 note=77 velocity=0 time=239
note_on channel=0 note=81 velocity=80 time=1
note_on channel=0 note=81 velocity=0 time=239
note_on channel=0 note=82 velocity=80 time=1
note_on channel=0 note=74 velocity=80 time=0
note_on channel=0 note=82 velocity=0 time=479
note_on channel=0 note=74 velocity=0 time=0
note_on channel=0 note=75 velocity=80 time=1
note_on channel=0 note=67 velocity=80 time=0
note_on channel=0 note=75 velocity=0 time=479
note_on channel=0 note=67 velocity=0 time=0
note_on channel=0 note=75 velocity=80 time=1
note_on channel=0 note=75 velocity=0 time=239
note_on channel=0 note=74 velocity=80 time=1
note_on channel=0 note=74 velocity=0 time=239
note_on channel=0 note=79 velocity=80 time=1
note_on channel=0 note=79 velocity=0 time=239
note_on channel=0 note=82 velocity=80 time=1
note_on channel=0 note=74 velocity=80 time=0
note_on channel=0 note=82 velocity=0 time=239
note_on channel=0 note=74 velocity=0 time=0
note_on channel=0 note=79 velocity=80 time=1
note_on channel=0 note=79 velocity=0 time=239
note_on channel=0 note=81 velocity=80 time=1
note_on channel=0 note=81 velocity=0 time=119
note_on channel=0 note=82 velocity=80 time=1
note_on channel=0 note=82 velocity=0 time=119
note_on channel=0 note=84 velocity=80 time=1
note_on channel=0 note=77 velocity=80 time=0
note_on channel=0 note=84 velocity=0 time=479
note_on channel=0 note=77 velocity=0 time=0
note_on channel=0 note=79 velocity=80 time=1
note_on channel=0 note=79 velocity=0 time=239
note_on channel=0 note=81 velocity=80 time=1
note_on channel=0 note=72 velocity=80 time=0
note_on channel=0 note=81 velocity=0 time=239
note_on channel=0 note=72 velocity=0 time=0
note_on channel=0 note=77 velocity=80 time=1
note_on channel=0 note=77 velocity=0 time=239
note_on channel=0 note=81 velocity=80 time=1
note_on channel=0 note=81 velocity=0 time=239
note_on channel=0 note=82 velocity=80 time=1
note_on channel=0 note=74 velocity=80 time=0
note_on channel=0 note=82 velocity=0 time=239
note_on channel=0 note=74 velocity=0 time=0
note_on channel=0 note=77 velocity=80 time=1
note_on channel=0 note=77 velocity=0 time=239
note_on channel=0 note=79 velocity=80 time=1
note_on channel=0 note=70 velocity=80 time=0
note_on channel=0 note=79 velocity=0 time=479
note_on channel=0 note=70 velocity=0 time=0
note_on channel=0 note=79 velocity=80 time=1
note_on channel=0 note=70 velocity=80 time=0
note_on channel=0 note=79 velocity=0 time=479
note_on channel=0 note=70 velocity=0 time=0
note_on channel=0 note=74 velocity=80 time=1
note_on channel=0 note=74 velocity=0 time=239
note_on channel=0 note=77 velocity=80 time=1
note_on channel=0 note=69 velocity=80 time=0
note_on channel=0 note=77 velocity=0 time=479
note_on channel=0 note=69 velocity=0 time=0
note_on channel=0 note=74 velocity=80 time=1
note_on channel=0 note=74 velocity=0 time=119
note_on channel=0 note=77 velocity=80 time=1
note_on channel=0 note=77 velocity=0 time=119
note_on channel=0 note=79 velocity=80 time=1
note_on channel=0 note=70 velocity=80 time=0
note_on channel=0 note=79 velocity=0 time=479
note_on channel=0 note=70 velocity=0 time=0
note_on channel=0 note=74 velocity=80 time=1
note_on channel=0 note=74 velocity=0 time=239
note_on channel=0 note=77 velocity=80 time=1
note_on channel=0 note=69 velocity=80 time=0
note_on channel=0 note=77 velocity=0 time=479
note_on channel=0 note=69 velocity=0 time=0
note_on channel=0 note=74 velocity=80 time=1
note_on channel=0 note=74 velocity=0 time=239
note_on channel=0 note=79 velocity=80 time=1
note_on channel=0 note=70 velocity=80 time=0
note_on channel=0 note=79 velocity=0 time=479
note_on channel=0 note=70 velocity=0 time=0
note_on channel=0 note=75 velocity=80 time=1
note_on channel=0 note=67 velocity=80 time=0
note_on channel=0 note=75 velocity=0 time=479
note_on channel=0 note=67 velocity=0 time=0
note_on channel=0 note=75 velocity=80 time=1
note_on channel=0 note=75 velocity=0 time=239
note_on channel=0 note=74 velocity=80 time=1
note_on channel=0 note=74 velocity=0 time=239
note_on channel=0 note=77 velocity=80 time=1
note_on channel=0 note=77 velocity=0 time=239
note_on channel=0 note=81 velocity=80 time=1
note_on channel=0 note=72 velocity=80 time=0
note_on channel=0 note=81 velocity=0 time=479
note_on channel=0 note=72 velocity=0 time=0
note_on channel=0 note=77 velocity=80 time=1
note_on channel=0 note=77 velocity=0 time=119
note_on channel=0 note=79 velocity=80 time=1
note_on channel=0 note=79 velocity=0 time=119
note_on channel=0 note=82 velocity=80 time=1
note_on channel=0 note=74 velocity=80 time=0
note_on channel=0 note=82 velocity=0 time=479
note_on channel=0 note=74 velocity=0 time=0
note_on channel=0 note=77 velocity=80 time=1
note_on channel=0 note=77 velocity=0 time=239
note_on channel=0 note=81 velocity=80 time=1
note_on channel=0 note=72 velocity=80 time=0
note_on channel=0 note=81 velocity=0 time=239
note_on channel=0 note=72 velocity=0 time=0
note_on channel=0 note=69 velocity=80 time=1
note_on channel=0 note=69 velocity=0 time=239
note_on channel=0 note=70 velocity=80 time=1
note_on channel=0 note=70 velocity=0 time=239
note_on channel=0 note=74 velocity=80 time=1
note_on channel=0 note=69 velocity=80 time=0
note_on channel=0 note=74 velocity=0 time=239
note_on channel=0 note=69 velocity=0 time=0
note_on channel=0 note=77 velocity=80 time=1
note_on channel=0 note=77 velocity=0 time=239
note_on channel=0 note=79 velocity=80 time=1
note_on channel=0 note=70 velocity=80 time=0
note_on channel=0 note=79 velocity=0 time=479
note_on channel=0 note=70 velocity=0 time=0
note_on channel=0 note=79 velocity=80 time=1
note_on channel=0 note=70 velocity=80 time=0
note_on channel=0 note=79 velocity=0 time=479
note_on channel=0 note=70 velocity=0 time=0
note_on channel=0 note=79 velocity=80 time=1
note_on channel=0 note=79 velocity=0 time=239
note_on channel=0 note=81 velocity=80 time=1
note_on channel=0 note=72 velocity=80 time=0
note_on channel=0 note=81 velocity=0 time=239
note_on channel=0 note=72 velocity=0 time=0
note_on channel=0 note=77 velocity=80 time=1
note_on channel=0 note=77 velocity=0 time=239
note_on channel=0 note=79 velocity=80 time=1
note_on channel=0 note=79 velocity=0 time=119
note_on channel=0 note=81 velocity=80 time=1
note_on channel=0 note=81 velocity=0 time=119
note_on channel=0 note=82 velocity=80 time=1
note_on channel=0 note=74 velocity=80 time=0
note_on channel=0 note=82 velocity=0 time=239
note_on channel=0 note=74 velocity=0 time=0
note_on channel=0 note=79 velocity=80 time=1
note_on channel=0 note=79 velocity=0 time=239
note_on channel=0 note=82 velocity=80 time=1
note_on channel=0 note=82 velocity=0 time=239
note_on channel=0 note=81 velocity=80 time=1
note_on channel=0 note=72 velocity=80 time=0
note_on channel=0 note=81 velocity=0 time=239
note_on channel=0 note=72 velocity=0 time=0
note_on channel=0 note=77 velocity=80 time=1
note_on channel=0 note=77 velocity=0 time=239
note_on channel=0 note=81 velocity=80 time=1
note_on channel=0 note=81 velocity=0 time=239
note_on channel=0 note=82 velocity=80 time=1
note_on channel=0 note=74 velocity=80 time=0
note_on channel=0 note=82 velocity=0 time=479
note_on channel=0 note=74 velocity=0 time=0
note_on channel=0 note=75 velocity=80 time=1
note_on channel=0 note=67 velocity=80 time=0
note_on channel=0 note=75 velocity=0 time=479
note_on channel=0 note=67 velocity=0 time=0
note_on channel=0 note=75 velocity=80 time=1
note_on channel=0 note=75 velocity=0 time=239
note_on channel=0 note=74 velocity=80 time=1
note_on channel=0 note=74 velocity=0 time=239
note_on channel=0 note=79 velocity=80 time=1
note_on channel=0 note=79 velocity=0 time=239
note_on channel=0 note=82 velocity=80 time=1
note_on channel=0 note=74 velocity=80 time=0
note_on channel=0 note=82 velocity=0 time=239
note_on channel=0 note=74 velocity=0 time=0
note_on channel=0 note=79 velocity=80 time=1
note_on channel=0 note=79 velocity=0 time=239
note_on channel=0 note=81 velocity=80 time=1
note_on channel=0 note=81 velocity=0 time=119
note_on channel=0 note=82 velocity=80 time=1
note_on channel=0 note=82 velocity=0 time=119
note_on channel=0 note=84 velocity=80 time=1
note_on channel=0 note=77 velocity=80 time=0
note_on channel=0 note=84 velocity=0 time=479
note_on channel=0 note=77 velocity=0 time=0
note_on channel=0 note=79 velocity=80 time=1
note_on channel=0 note=79 velocity=0 time=239
note_on channel=0 note=81 velocity=80 time=1
note_on channel=0 note=72 velocity=80 time=0
note_on channel=0 note=81 velocity=0 time=239
note_on channel=0 note=72 velocity=0 time=0
note_on channel=0 note=77 velocity=80 time=1
note_on channel=0 note=77 velocity=0 time=239
note_on channel=0 note=81 velocity=80 time=1
note_on channel=0 note=81 velocity=0 time=239
note_on channel=0 note=82 velocity=80 time=1
note_on channel=0 note=74 velocity=80 time=0
note_on channel=0 note=82 velocity=0 time=239
note_on channel=0 note=74 velocity=0 time=0
note_on channel=0 note=77 velocity=80 time=1
note_on channel=0 note=77 velocity=0 time=239
note_on channel=0 note=79 velocity=80 time=1
note_on channel=0 note=70 velocity=80 time=0
note_on channel=0 note=79 velocity=0 time=479
note_on channel=0 note=70 velocity=0 time=0
note_on channel=0 note=79 velocity=80 time=1
note_on channel=0 note=70 velocity=80 time=0
note_on channel=0 note=79 velocity=0 time=479
note_on channel=0 note=70 velocity=0 time=0
note_on channel=0 note=74 velocity=80 time=1
note_on channel=0 note=74 velocity=0 time=239
note_on channel=0 note=77 velocity=80 time=1
note_on channel=0 note=69 velocity=80 time=0
note_on channel=0 note=77 velocity=0 time=479
note_on channel=0 note=69 velocity=0 time=0
note_on channel=0 note=74 velocity=80 time=1
note_on channel=0 note=74 velocity=0 time=119
note_on channel=0 note=77 velocity=80 time=1
note_on channel=0 note=77 velocity=0 time=119
note_on channel=0 note=79 velocity=80 time=1
note_on channel=0 note=70 velocity=80 time=0
note_on channel=0 note=79 velocity=0 time=479
note_on channel=0 note=70 velocity=0 time=0
note_on channel=0 note=74 velocity=80 time=1
note_on channel=0 note=74 velocity=0 time=239
note_on channel=0 note=77 velocity=80 time=1
note_on channel=0 note=69 velocity=80 time=0
note_on channel=0 note=77 velocity=0 time=479
note_on channel=0 note=69 velocity=0 time=0
note_on channel=0 note=74 velocity=80 time=1
note_on channel=0 note=74 velocity=0 time=239
note_on channel=0 note=79 velocity=80 time=1
note_on channel=0 note=70 velocity=80 time=0
note_on channel=0 note=79 velocity=0 time=479
note_on channel=0 note=70 velocity=0 time=0
note_on channel=0 note=75 velocity=80 time=1
note_on channel=0 note=67 velocity=80 time=0
note_on channel=0 note=75 velocity=0 time=479
note_on channel=0 note=67 velocity=0 time=0
note_on channel=0 note=75 velocity=80 time=1
note_on channel=0 note=75 velocity=0 time=239
note_on channel=0 note=74 velocity=80 time=1
note_on channel=0 note=74 velocity=0 time=239
note_on channel=0 note=77 velocity=80 time=1
note_on channel=0 note=77 velocity=0 time=239
note_on channel=0 note=81 velocity=80 time=1
note_on channel=0 note=72 velocity=80 time=0
note_on channel=0 note=81 velocity=0 time=479
note_on channel=0 note=72 velocity=0 time=0
note_on channel=0 note=77 velocity=80 time=1
note_on channel=0 note=77 velocity=0 time=119
note_on channel=0 note=79 velocity=80 time=1
note_on channel=0 note=79 velocity=0 time=119
note_on channel=0 note=82 velocity=80 time=1
note_on channel=0 note=74 velocity=80 time=0
note_on channel=0 note=82 velocity=0 time=479
note_on channel=0 note=74 velocity=0 time=0
note_on channel=0 note=77 velocity=80 time=1
note_on channel=0 note=77 velocity=0 time=239
note_on channel=0 note=81 velocity=80 time=1
note_on channel=0 note=72 velocity=80 time=0
note_on channel=0 note=81 velocity=0 time=239
note_on channel=0 note=72 velocity=0 time=0
note_on channel=0 note=69 velocity=80 time=1
note_on channel=0 note=69 velocity=0 time=239
note_on channel=0 note=70 velocity=80 time=1
note_on channel=0 note=70 velocity=0 time=239
note_on channel=0 note=74 velocity=80 time=1
note_on channel=0 note=69 velocity=80 time=0
note_on channel=0 note=74 velocity=0 time=239
note_on channel=0 note=69 velocity=0 time=0
note_on channel=0 note=77 velocity=80 time=1
note_on channel=0 note=77 velocity=0 time=239
note_on channel=0 note=79 velocity=80 time=1
note_on channel=0 note=70 velocity=80 time=0
note_on channel=0 note=79 velocity=0 time=479
note_on channel=0 note=70 velocity=0 time=0
note_on channel=0 note=79 velocity=80 time=1
note_on channel=0 note=70 velocity=80 time=0
note_on channel=0 note=79 velocity=0 time=479
note_on channel=0 note=70 velocity=0 time=0
note_on channel=0 note=79 velocity=80 time=1
note_on channel=0 note=79 velocity=0 time=239
note_on channel=0 note=81 velocity=80 time=1
note_on channel=0 note=72 velocity=80 time=0
note_on channel=0 note=81 velocity=0 time=239
note_on channel=0 note=72 velocity=0 time=0
note_on channel=0 note=77 velocity=80 time=1
note_on channel=0 note=77 velocity=0 time=239
note_on channel=0 note=79 velocity=80 time=1
note_on channel=0 note=79 velocity=0 time=119
note_on channel=0 note=81 velocity=80 time=1
note_on channel=0 note=81 velocity=0 time=119
note_on channel=0 note=82 velocity=80 time=1
note_on channel=0 note=74 velocity=80 time=0
note_on channel=0 note=82 velocity=0 time=239
note_on channel=0 note=74 velocity=0 time=0
note_on channel=0 note=79 velocity=80 time=1
note_on channel=0 note=79 velocity=0 time=239
note_on channel=0 note=82 velocity=80 time=1
note_on channel=0 note=82 velocity=0 time=239
note_on channel=0 note=81 velocity=80 time=1
note_on channel=0 note=72 velocity=80 time=0
note_on channel=0 note=81 velocity=0 time=239
note_on channel=0 note=72 velocity=0 time=0
note_on channel=0 note=77 velocity=80 time=1
note_on channel=0 note=77 velocity=0 time=239
note_on channel=0 note=81 velocity=80 time=1
note_on channel=0 note=81 velocity=0 time=239
note_on channel=0 note=82 velocity=80 time=1
note_on channel=0 note=74 velocity=80 time=0
note_on channel=0 note=82 velocity=0 time=479
note_on channel=0 note=74 velocity=0 time=0
note_on channel=0 note=75 velocity=80 time=1
note_on channel=0 note=67 velocity=80 time=0
note_on channel=0 note=75 velocity=0 time=479
note_on channel=0 note=67 velocity=0 time=0
note_on channel=0 note=75 velocity=80 time=1
note_on channel=0 note=75 velocity=0 time=239
note_on channel=0 note=74 velocity=80 time=1
note_on channel=0 note=74 velocity=0 time=239
note_on channel=0 note=79 velocity=80 time=1
note_on channel=0 note=79 velocity=0 time=239
note_on channel=0 note=82 velocity=80 time=1
note_on channel=0 note=74 velocity=80 time=0
note_on channel=0 note=82 velocity=0 time=239
note_on channel=0 note=74 velocity=0 time=0
note_on channel=0 note=79 velocity=80 time=1
note_on channel=0 note=79 velocity=0 time=239
note_on channel=0 note=81 velocity=80 time=1
note_on channel=0 note=81 velocity=0 time=119
note_on channel=0 note=82 velocity=80 time=1
note_on channel=0 note=82 velocity=0 time=119
note_on channel=0 note=84 velocity=80 time=1
note_on channel=0 note=77 velocity=80 time=0
note_on channel=0 note=84 velocity=0 time=479
note_on channel=0 note=77 velocity=0 time=0
note_on channel=0 note=79 velocity=80 time=1
note_on channel=0 note=79 velocity=0 time=239
note_on channel=0 note=81 velocity=80 time=1
note_on channel=0 note=72 velocity=80 time=0
note_on channel=0 note=81 velocity=0 time=239
note_on channel=0 note=72 velocity=0 time=0
note_on channel=0 note=77 velocity=80 time=1
note_on channel=0 note=77 velocity=0 time=239
note_on channel=0 note=81 velocity=80 time=1
note_on channel=0 note=81 velocity=0 time=239
note_on channel=0 note=82 velocity=80 time=1
note_on channel=0 note=74 velocity=80 time=0
note_on channel=0 note=82 velocity=0 time=239
note_on channel=0 note=74 velocity=0 time=0
note_on channel=0 note=77 velocity=80 time=1
note_on channel=0 note=77 velocity=0 time=239
note_on channel=0 note=82 velocity=80 time=1
note_on channel=0 note=79 velocity=80 time=0
note_on channel=0 note=74 velocity=80 time=0
note_on channel=0 note=82 velocity=0 time=479
note_on channel=0 note=79 velocity=0 time=0
note_on channel=0 note=74 velocity=0 time=0
note_on channel=0 note=82 velocity=80 time=1
note_on channel=0 note=79 velocity=80 time=0
note_on channel=0 note=74 velocity=80 time=0
note_on channel=0 note=82 velocity=0 time=359
note_on channel=0 note=79 velocity=0 time=0
note_on channel=0 note=74 velocity=0 time=0
note_on channel=0 note=81 velocity=80 time=361
note_on channel=0 note=77 velocity=80 time=0
note_on channel=0 note=72 velocity=80 time=0
note_on channel=0 note=81 velocity=0 time=359
note_on channel=0 note=77 velocity=0 time=0
note_on channel=0 note=72 velocity=0 time=0
note_on channel=0 note=79 velocity=80 time=361
note_on channel=0 note=75 velocity=80 time=0
note_on channel=0 note=70 velocity=80 time=0
note_on channel=0 note=79 velocity=0 time=359
note_on channel=0 note=75 velocity=0 time=0
note_on channel=0 note=70 velocity=0 time=0
note_on channel=0 note=79 velocity=80 time=361
note_on channel=0 note=75 velocity=80 time=0
note_on channel=0 note=70 velocity=80 time=0
note_on channel=0 note=79 velocity=0 time=719
note_on channel=0 note=75 velocity=0 time=0
note_on channel=0 note=70 velocity=0 time=0
note_on channel=0 note=81 velocity=80 time=1
note_on channel=0 note=77 velocity=80 time=0
note_on channel=0 note=72 velocity=80 time=0
note_on channel=0 note=81 velocity=0 time=479
note_on channel=0 note=77 velocity=0 time=0
note_on channel=0 note=72 velocity=0 time=0
note_on channel=0 note=82 velocity=80 time=1
note_on channel=0 note=79 velocity=80 time=0
note_on channel=0 note=74 velocity=80 time=0
note_on channel=0 note=82 velocity=0 time=479
note_on channel=0 note=79 velocity=0 time=0
note_on channel=0 note=74 velocity=0 time=0
note_on channel=0 note=82 velocity=80 time=1
note_on channel=0 note=79 velocity=80 time=0
note_on channel=0 note=74 velocity=80 time=0
note_on channel=0 note=82 velocity=0 time=719
note_on channel=0 note=79 velocity=0 time=0
note_on channel=0 note=74 velocity=0 time=0
note_on channel=0 note=81 velocity=80 time=1
note_on channel=0 note=77 velocity=80 time=0
note_on channel=0 note=72 velocity=80 time=0
note_on channel=0 note=81 velocity=0 time=719
note_on channel=0 note=77 velocity=0 time=0
note_on channel=0 note=72 velocity=0 time=0
note_on channel=0 note=79 velocity=80 time=1
note_on channel=0 note=75 velocity=80 time=0
note_on channel=0 note=70 velocity=80 time=0
note_on channel=0 note=79 velocity=0 time=719
note_on channel=0 note=75 velocity=0 time=0
note_on channel=0 note=70 velocity=0 time=0
note_on channel=0 note=79 velocity=80 time=1
note_on channel=0 note=75 velocity=80 time=0
note_on channel=0 note=70 velocity=80 time=0
note_on channel=0 note=79 velocity=0 time=719
note_on channel=0 note=75 velocity=0 time=0
note_on channel=0 note=70 velocity=0 time=0
note_on channel=0 note=81 velocity=80 time=1
note_on channel=0 note=77 velocity=80 time=0
note_on channel=0 note=72 velocity=80 time=0
note_on channel=0 note=81 velocity=0 time=479
note_on channel=0 note=77 velocity=0 time=0
note_on channel=0 note=72 velocity=0 time=0
note_on channel=0 note=82 velocity=80 time=1
note_on channel=0 note=79 velocity=80 time=0
note_on channel=0 note=74 velocity=80 time=0
note_on channel=0 note=82 velocity=0 time=479
note_on channel=0 note=79 velocity=0 time=0
note_on channel=0 note=74 velocity=0 time=0
note_on channel=0 note=82 velocity=80 time=1
note_on channel=0 note=79 velocity=80 time=0
note_on channel=0 note=74 velocity=80 time=0
note_on channel=0 note=82 velocity=0 time=719
note_on channel=0 note=79 velocity=0 time=0
note_on channel=0 note=74 velocity=0 time=0
note_on channel=0 note=85 velocity=80 time=1
note_on channel=0 note=81 velocity=80 time=0
note_on channel=0 note=76 velocity=80 time=0
note_on channel=0 note=85 velocity=0 time=719
note_on channel=0 note=81 velocity=0 time=0
note_on channel=0 note=76 velocity=0 time=0
note_on channel=0 note=86 velocity=80 time=1
note_on channel=0 note=83 velocity=80 time=0
note_on channel=0 note=86 velocity=0 time=239
note_on channel=0 note=83 velocity=0 time=0
note_on channel=0 note=85 velocity=80 time=1
note_on channel=0 note=81 velocity=80 time=0
note_on channel=0 note=85 velocity=0 time=239
note_on channel=0 note=81 velocity=0 time=0
note_on channel=0 note=86 velocity=80 time=1
note_on channel=0 note=83 velocity=80 time=0
note_on channel=0 note=86 velocity=0 time=239
note_on channel=0 note=83 velocity=0 time=0
note_on channel=0 note=85 velocity=80 time=1
note_on channel=0 note=81 velocity=80 time=0
note_on channel=0 note=85 velocity=0 time=239
note_on channel=0 note=81 velocity=0 time=0
note_on channel=0 note=83 velocity=80 time=1
note_on channel=0 note=79 velocity=80 time=0
note_on channel=0 note=83 velocity=0 time=239
note_on channel=0 note=79 velocity=0 time=0
note_on channel=0 note=85 velocity=80 time=1
note_on channel=0 note=81 velocity=80 time=0
note_on channel=0 note=85 velocity=0 time=239
note_on channel=0 note=81 velocity=0 time=0
note_on channel=0 note=86 velocity=80 time=1
note_on channel=0 note=83 velocity=80 time=0
note_on channel=0 note=86 velocity=0 time=239
note_on channel=0 note=83 velocity=0 time=0
note_on channel=0 note=85 velocity=80 time=1
note_on channel=0 note=81 velocity=80 time=0
note_on channel=0 note=85 velocity=0 time=239
note_on channel=0 note=81 velocity=0 time=0
note_on channel=0 note=84 velocity=80 time=1
note_on channel=0 note=80 velocity=80 time=0
note_on channel=0 note=75 velocity=80 time=0
note_on channel=0 note=84 velocity=0 time=479
note_on channel=0 note=80 velocity=0 time=0
note_on channel=0 note=75 velocity=0 time=0
note_on channel=0 note=84 velocity=80 time=1
note_on channel=0 note=80 velocity=80 time=0
note_on channel=0 note=75 velocity=80 time=0
note_on channel=0 note=84 velocity=0 time=719
note_on channel=0 note=80 velocity=0 time=0
note_on channel=0 note=75 velocity=0 time=0
note_on channel=0 note=86 velocity=80 time=1
note_on channel=0 note=82 velocity=80 time=0
note_on channel=0 note=77 velocity=80 time=0
note_on channel=0 note=86 velocity=0 time=719
note_on channel=0 note=82 velocity=0 time=0
note_on channel=0 note=77 velocity=0 time=0
note_on channel=0 note=86 velocity=80 time=1
note_on channel=0 note=83 velocity=80 time=0
note_on channel=0 note=79 velocity=80 time=0
note_on channel=0 note=86 velocity=0 time=959
note_on channel=0 note=83 velocity=0 time=0
note_on channel=0 note=79 velocity=0 time=0
note_on channel=0 note=91 velocity=80 time=1
note_on channel=0 note=86 velocity=80 time=0
note_on channel=0 note=83 velocity=80 time=0
note_on channel=0 note=91 velocity=0 time=959
note_on channel=0 note=86 velocity=0 time=0
note_on channel=0 note=83 velocity=0 time=0
note_on channel=0 note=75 velocity=80 time=1
note_on channel=0 note=72 velocity=80 time=0
note_on channel=0 note=67 velocity=80 time=0
note_on channel=0 note=75 velocity=0 time=1919
note_on channel=0 note=72 velocity=0 time=0
note_on channel=0 note=67 velocity=0 time=0
note_on channel=0 note=79 velocity=80 time=1
note_on channel=0 note=75 velocity=80 time=0
note_on channel=0 note=70 velocity=80 time=0
note_on channel=0 note=79 velocity=0 time=1919
note_on channel=0 note=75 velocity=0 time=0
note_on channel=0 note=70 velocity=0 time=0
note_on channel=0 note=77 velocity=80 time=1
note_on channel=0 note=72 velocity=80 time=0
note_on channel=0 note=69 velocity=80 time=0
note_on channel=0 note=77 velocity=0 time=479
note_on channel=0 note=72 velocity=0 time=0
note_on channel=0 note=69 velocity=0 time=0
note_on channel=0 note=81 velocity=80 time=1
note_on channel=0 note=77 velocity=80 time=0
note_on channel=0 note=72 velocity=80 time=0
note_on channel=0 note=81 velocity=0 time=479
note_on channel=0 note=77 velocity=0 time=0
note_on channel=0 note=72 velocity=0 time=0
note_on channel=0 note=83 velocity=80 time=1
note_on channel=0 note=79 velocity=80 time=0
note_on channel=0 note=83 velocity=0 time=239
note_on channel=0 note=79 velocity=0 time=0
note_on channel=0 note=84 velocity=80 time=1
note_on channel=0 note=81 velocity=80 time=0
note_on channel=0 note=84 velocity=0 time=239
note_on channel=0 note=81 velocity=0 time=0
note_on channel=0 note=84 velocity=80 time=241
note_on channel=0 note=80 velocity=80 time=0
note_on channel=0 note=75 velocity=80 time=0
note_on channel=0 note=84 velocity=0 time=1199
note_on channel=0 note=80 velocity=0 time=0
note_on channel=0 note=75 velocity=0 time=0
note_on channel=0 note=83 velocity=80 time=1
note_on channel=0 note=79 velocity=80 time=0
note_on channel=0 note=74 velocity=80 time=0
note_on channel=0 note=83 velocity=0 time=959
note_on channel=0 note=79 velocity=0 time=0
note_on channel=0 note=74 velocity=0 time=0
note_on channel=0 note=84 velocity=80 time=1
note_on channel=0 note=79 velocity=80 time=0
note_on channel=0 note=75 velocity=80 time=0
note_on channel=0 note=84 velocity=0 time=1919
note_on channel=0 note=79 velocity=0 time=0
note_on channel=0 note=75 velocity=0 time=0
note_on channel=0 note=79 velocity=80 time=1
note_on channel=0 note=75 velocity=80 time=0
note_on channel=0 note=70 velocity=80 time=0
note_on channel=0 note=79 velocity=0 time=1439
note_on channel=0 note=75 velocity=0 time=0
note_on channel=0 note=70 velocity=0 time=0
note_on channel=0 note=79 velocity=80 time=1
note_on channel=0 note=76 velocity=80 time=0
note_on channel=0 note=79 velocity=0 time=479
note_on channel=0 note=76 velocity=0 time=0
note_on channel=0 note=77 velocity=80 time=1
note_on channel=0 note=72 velocity=80 time=0
note_on channel=0 note=69 velocity=80 time=0
note_on channel=0 note=77 velocity=0 time=719
note_on channel=0 note=72 velocity=0 time=0
note_on channel=0 note=69 velocity=0 time=0
note_on channel=0 note=72 velocity=80 time=1
note_on channel=0 note=69 velocity=80 time=0
note_on channel=0 note=65 velocity=80 time=0
note_on channel=0 note=72 velocity=0 time=719
note_on channel=0 note=69 velocity=0 time=0
note_on channel=0 note=65 velocity=0 time=0
note_on channel=0 note=77 velocity=80 time=1
note_on channel=0 note=72 velocity=80 time=0
note_on channel=0 note=69 velocity=80 time=0
note_on channel=0 note=77 velocity=0 time=479
note_on channel=0 note=72 velocity=0 time=0
note_on channel=0 note=69 velocity=0 time=0
note_on channel=0 note=75 velocity=80 time=1
note_on channel=0 note=72 velocity=80 time=0
note_on channel=0 note=67 velocity=80 time=0
note_on channel=0 note=75 velocity=0 time=959
note_on channel=0 note=72 velocity=0 time=0
note_on channel=0 note=67 velocity=0 time=0
note_on channel=0 note=74 velocity=80 time=1
note_on channel=0 note=70 velocity=80 time=0
note_on channel=0 note=65 velocity=80 time=0
note_on channel=0 note=74 velocity=0 time=959
note_on channel=0 note=70 velocity=0 time=0
note_on channel=0 note=65 velocity=0 time=0
note_on channel=0 note=75 velocity=80 time=1
note_on channel=0 note=72 velocity=80 time=0
note_on channel=0 note=67 velocity=80 time=0
note_on channel=0 note=75 velocity=0 time=1919
note_on channel=0 note=72 velocity=0 time=0
note_on channel=0 note=67 velocity=0 time=0
note_on channel=0 note=79 velocity=80 time=1
note_on channel=0 note=75 velocity=80 time=0
note_on channel=0 note=70 velocity=80 time=0
note_on channel=0 note=79 velocity=0 time=1919
note_on channel=0 note=75 velocity=0 time=0
note_on channel=0 note=70 velocity=0 time=0
note_on channel=0 note=77 velocity=80 time=1
note_on channel=0 note=72 velocity=80 time=0
note_on channel=0 note=69 velocity=80 time=0
note_on channel=0 note=77 velocity=0 time=479
note_on channel=0 note=72 velocity=0 time=0
note_on channel=0 note=69 velocity=0 time=0
note_on channel=0 note=81 velocity=80 time=1
note_on channel=0 note=77 velocity=80 time=0
note_on channel=0 note=72 velocity=80 time=0
note_on channel=0 note=81 velocity=0 time=479
note_on channel=0 note=77 velocity=0 time=0
note_on channel=0 note=72 velocity=0 time=0
note_on channel=0 note=83 velocity=80 time=1
note_on channel=0 note=79 velocity=80 time=0
note_on channel=0 note=83 velocity=0 time=239
note_on channel=0 note=79 velocity=0 time=0
note_on channel=0 note=84 velocity=80 time=1
note_on channel=0 note=81 velocity=80 time=0
note_on channel=0 note=84 velocity=0 time=239
note_on channel=0 note=81 velocity=0 time=0
note_on channel=0 note=84 velocity=80 time=241
note_on channel=0 note=80 velocity=80 time=0
note_on channel=0 note=75 velocity=80 time=0
note_on channel=0 note=84 velocity=0 time=1199
note_on channel=0 note=80 velocity=0 time=0
note_on channel=0 note=75 velocity=0 time=0
note_on channel=0 note=83 velocity=80 time=1
note_on channel=0 note=79 velocity=80 time=0
note_on channel=0 note=74 velocity=80 time=0
note_on channel=0 note=83 velocity=0 time=959
note_on channel=0 note=79 velocity=0 time=0
note_on channel=0 note=74 velocity=0 time=0
note_on channel=0 note=84 velocity=80 time=1
note_on channel=0 note=79 velocity=80 time=0
note_on channel=0 note=75 velocity=80 time=0
note_on channel=0 note=84 velocity=0 time=1919
note_on channel=0 note=79 velocity=0 time=0
note_on channel=0 note=75 velocity=0 time=0
note_on channel=0 note=79 velocity=80 time=1
note_on channel=0 note=75 velocity=80 time=0
note_on channel=0 note=70 velocity=80 time=0
note_on channel=0 note=79 velocity=0 time=1439
note_on channel=0 note=75 velocity=0 time=0
note_on channel=0 note=70 velocity=0 time=0
note_on channel=0 note=79 velocity=80 time=1
note_on channel=0 note=76 velocity=80 time=0
note_on channel=0 note=79 velocity=0 time=479
note_on channel=0 note=76 velocity=0 time=0
note_on channel=0 note=77 velocity=80 time=1
note_on channel=0 note=72 velocity=80 time=0
note_on channel=0 note=69 velocity=80 time=0
note_on channel=0 note=77 velocity=0 time=719
note_on channel=0 note=72 velocity=0 time=0
note_on channel=0 note=69 velocity=0 time=0
note_on channel=0 note=72 velocity=80 time=1
note_on channel=0 note=69 velocity=80 time=0
note_on channel=0 note=65 velocity=80 time=0
note_on channel=0 note=72 velocity=0 time=719
note_on channel=0 note=69 velocity=0 time=0
note_on channel=0 note=65 velocity=0 time=0
note_on channel=0 note=77 velocity=80 time=1
note_on channel=0 note=72 velocity=80 time=0
note_on channel=0 note=69 velocity=80 time=0
note_on channel=0 note=77 velocity=0 time=479
note_on channel=0 note=72 velocity=0 time=0
note_on channel=0 note=69 velocity=0 time=0
note_on channel=0 note=75 velocity=80 time=1
note_on channel=0 note=72 velocity=80 time=0
note_on channel=0 note=67 velocity=80 time=0
note_on channel=0 note=75 velocity=0 time=959
note_on channel=0 note=72 velocity=0 time=0
note_on channel=0 note=67 velocity=0 time=0
note_on channel=0 note=74 velocity=80 time=1
note_on channel=0 note=70 velocity=80 time=0
note_on channel=0 note=65 velocity=80 time=0
note_on channel=0 note=74 velocity=0 time=959
note_on channel=0 note=70 velocity=0 time=0
note_on channel=0 note=65 velocity=0 time=0
MetaMessage('time_signature', numerator=4, denominator=4, clocks_per_click=24, notated_32nd_notes_per_beat=8, time=1)
MetaMessage('key_signature', key='C', time=0)
MetaMessage('set_tempo', tempo=342857, time=0)
note_on channel=0 note=60 velocity=80 time=0
note_on channel=0 note=60 velocity=0 time=239
note_on channel=0 note=67 velocity=80 time=1
note_on channel=0 note=67 velocity=0 time=239
note_on channel=0 note=66 velocity=80 time=1
note_on channel=0 note=66 velocity=0 time=239
note_on channel=0 note=62 velocity=80 time=1
note_on channel=0 note=62 velocity=0 time=239
note_on channel=0 note=69 velocity=80 time=1
note_on channel=0 note=69 velocity=0 time=239
note_on channel=0 note=68 velocity=80 time=1
note_on channel=0 note=68 velocity=0 time=239
note_on channel=0 note=64 velocity=80 time=1
note_on channel=0 note=64 velocity=0 time=239
note_on channel=0 note=67 velocity=80 time=1
note_on channel=0 note=67 velocity=0 time=239
note_on channel=0 note=66 velocity=80 time=1
note_on channel=0 note=66 velocity=0 time=239
note_on channel=0 note=62 velocity=80 time=1
note_on channel=0 note=62 velocity=0 time=239
note_on channel=0 note=66 velocity=80 time=1
note_on channel=0 note=66 velocity=0 time=239
note_on channel=0 note=65 velocity=80 time=1
note_on channel=0 note=65 velocity=0 time=239
note_on channel=0 note=61 velocity=80 time=1
note_on channel=0 note=61 velocity=0 time=239
note_on channel=0 note=65 velocity=80 time=1
note_on channel=0 note=65 velocity=0 time=239
note_on channel=0 note=64 velocity=80 time=1
note_on channel=0 note=64 velocity=0 time=239
note_on channel=0 note=59 velocity=80 time=1
note_on channel=0 note=59 velocity=0 time=239
note_on channel=0 note=60 velocity=80 time=1
note_on channel=0 note=60 velocity=0 time=239
note_on channel=0 note=67 velocity=80 time=1
note_on channel=0 note=67 velocity=0 time=239
note_on channel=0 note=66 velocity=80 time=1
note_on channel=0 note=66 velocity=0 time=239
note_on channel=0 note=62 velocity=80 time=1
note_on channel=0 note=62 velocity=0 time=239
note_on channel=0 note=69 velocity=80 time=1
note_on channel=0 note=69 velocity=0 time=239
note_on channel=0 note=68 velocity=80 time=1
note_on channel=0 note=68 velocity=0 time=239
note_on channel=0 note=64 velocity=80 time=1
note_on channel=0 note=64 velocity=0 time=239
note_on channel=0 note=67 velocity=80 time=1
note_on channel=0 note=67 velocity=0 time=239
note_on channel=0 note=66 velocity=80 time=1
note_on channel=0 note=66 velocity=0 time=239
note_on channel=0 note=62 velocity=80 time=1
note_on channel=0 note=62 velocity=0 time=239
note_on channel=0 note=66 velocity=80 time=1
note_on channel=0 note=66 velocity=0 time=239
note_on channel=0 note=65 velocity=80 time=1
note_on channel=0 note=65 velocity=0 time=239
note_on channel=0 note=61 velocity=80 time=1
note_on channel=0 note=61 velocity=0 time=239
note_on channel=0 note=65 velocity=80 time=1
note_on channel=0 note=65 velocity=0 time=239
note_on channel=0 note=64 velocity=80 time=1
note_on channel=0 note=64 velocity=0 time=239
note_on channel=0 note=59 velocity=80 time=1
note_on channel=0 note=59 velocity=0 time=239
note_on channel=0 note=60 velocity=80 time=1
note_on channel=0 note=60 velocity=0 time=239
note_on channel=0 note=67 velocity=80 time=1
note_on channel=0 note=67 velocity=0 time=239
note_on channel=0 note=66 velocity=80 time=1
note_on channel=0 note=66 velocity=0 time=239
note_on channel=0 note=62 velocity=80 time=1
note_on channel=0 note=62 velocity=0 time=239
note_on channel=0 note=69 velocity=80 time=1
note_on channel=0 note=69 velocity=0 time=239
note_on channel=0 note=68 velocity=80 time=1
note_on channel=0 note=68 velocity=0 time=239
note_on channel=0 note=64 velocity=80 time=1
note_on channel=0 note=64 velocity=0 time=239
note_on channel=0 note=67 velocity=80 time=1
note_on channel=0 note=67 velocity=0 time=239
note_on channel=0 note=66 velocity=80 time=1
note_on channel=0 note=66 velocity=0 time=239
note_on channel=0 note=62 velocity=80 time=1
note_on channel=0 note=62 velocity=0 time=239
note_on channel=0 note=66 velocity=80 time=1
note_on channel=0 note=66 velocity=0 time=239
note_on channel=0 note=65 velocity=80 time=1
note_on channel=0 note=65 velocity=0 time=239
note_on channel=0 note=61 velocity=80 time=1
note_on channel=0 note=61 velocity=0 time=239
note_on channel=0 note=65 velocity=80 time=1
note_on channel=0 note=65 velocity=0 time=239
note_on channel=0 note=64 velocity=80 time=1
note_on channel=0 note=64 velocity=0 time=239
note_on channel=0 note=59 velocity=80 time=1
note_on channel=0 note=59 velocity=0 time=239
note_on channel=0 note=60 velocity=80 time=1
note_on channel=0 note=60 velocity=0 time=239
note_on channel=0 note=67 velocity=80 time=1
note_on channel=0 note=67 velocity=0 time=239
note_on channel=0 note=66 velocity=80 time=1
note_on channel=0 note=66 velocity=0 time=239
note_on channel=0 note=62 velocity=80 time=1
note_on channel=0 note=62 velocity=0 time=239
note_on channel=0 note=69 velocity=80 time=1
note_on channel=0 note=69 velocity=0 time=239
note_on channel=0 note=68 velocity=80 time=1
note_on channel=0 note=68 velocity=0 time=239
note_on channel=0 note=64 velocity=80 time=1
note_on channel=0 note=64 velocity=0 time=239
note_on channel=0 note=67 velocity=80 time=1
note_on channel=0 note=67 velocity=0 time=239
note_on channel=0 note=66 velocity=80 time=1
note_on channel=0 note=66 velocity=0 time=239
note_on channel=0 note=62 velocity=80 time=1
note_on channel=0 note=62 velocity=0 time=239
note_on channel=0 note=66 velocity=80 time=1
note_on channel=0 note=66 velocity=0 time=239
note_on channel=0 note=65 velocity=80 time=1
note_on channel=0 note=65 velocity=0 time=239
note_on channel=0 note=61 velocity=80 time=1
note_on channel=0 note=61 velocity=0 time=239
note_on channel=0 note=65 velocity=80 time=1
note_on channel=0 note=65 velocity=0 time=239
note_on channel=0 note=64 velocity=80 time=1
note_on channel=0 note=64 velocity=0 time=239
note_on channel=0 note=59 velocity=80 time=1
note_on channel=0 note=59 velocity=0 time=239
note_on channel=0 note=72 velocity=80 time=1
note_on channel=0 note=72 velocity=0 time=239
note_on channel=0 note=79 velocity=80 time=1
note_on channel=0 note=79 velocity=0 time=239
note_on channel=0 note=78 velocity=80 time=1
note_on channel=0 note=78 velocity=0 time=239
note_on channel=0 note=74 velocity=80 time=1
note_on channel=0 note=74 velocity=0 time=239
note_on channel=0 note=81 velocity=80 time=1
note_on channel=0 note=81 velocity=0 time=239
note_on channel=0 note=80 velocity=80 time=1
note_on channel=0 note=80 velocity=0 time=239
note_on channel=0 note=76 velocity=80 time=1
note_on channel=0 note=76 velocity=0 time=239
note_on channel=0 note=79 velocity=80 time=1
note_on channel=0 note=79 velocity=0 time=239
note_on channel=0 note=78 velocity=80 time=1
note_on channel=0 note=78 velocity=0 time=239
note_on channel=0 note=74 velocity=80 time=1
note_on channel=0 note=74 velocity=0 time=239
note_on channel=0 note=78 velocity=80 time=1
note_on channel=0 note=78 velocity=0 time=239
note_on channel=0 note=77 velocity=80 time=1
note_on channel=0 note=77 velocity=0 time=239
note_on channel=0 note=73 velocity=80 time=1
note_on channel=0 note=73 velocity=0 time=239
note_on channel=0 note=77 velocity=80 time=1
note_on channel=0 note=77 velocity=0 time=239
note_on channel=0 note=76 velocity=80 time=1
note_on channel=0 note=76 velocity=0 time=239
note_on channel=0 note=71 velocity=80 time=1
note_on channel=0 note=71 velocity=0 time=239
note_on channel=0 note=72 velocity=80 time=1
note_on channel=0 note=72 velocity=0 time=239
note_on channel=0 note=79 velocity=80 time=1
note_on channel=0 note=79 velocity=0 time=239
note_on channel=0 note=78 velocity=80 time=1
note_on channel=0 note=78 velocity=0 time=239
note_on channel=0 note=74 velocity=80 time=1
note_on channel=0 note=74 velocity=0 time=239
note_on channel=0 note=81 velocity=80 time=1
note_on channel=0 note=81 velocity=0 time=239
note_on channel=0 note=80 velocity=80 time=1
note_on channel=0 note=80 velocity=0 time=239
note_on channel=0 note=76 velocity=80 time=1
note_on channel=0 note=76 velocity=0 time=239
note_on channel=0 note=79 velocity=80 time=1
note_on channel=0 note=79 velocity=0 time=239
note_on channel=0 note=78 velocity=80 time=1
note_on channel=0 note=78 velocity=0 time=239
note_on channel=0 note=74 velocity=80 time=1
note_on channel=0 note=74 velocity=0 time=239
note_on channel=0 note=78 velocity=80 time=1
note_on channel=0 note=78 velocity=0 time=239
note_on channel=0 note=77 velocity=80 time=1
note_on channel=0 note=77 velocity=0 time=239
note_on channel=0 note=73 velocity=80 time=1
note_on channel=0 note=73 velocity=0 time=239
note_on channel=0 note=77 velocity=80 time=1
note_on channel=0 note=77 velocity=0 time=239
note_on channel=0 note=76 velocity=80 time=1
note_on channel=0 note=76 velocity=0 time=239
note_on channel=0 note=71 velocity=80 time=1
note_on channel=0 note=71 velocity=0 time=239
note_on channel=0 note=72 velocity=80 time=1
note_on channel=0 note=72 velocity=0 time=239
note_on channel=0 note=79 velocity=80 time=1
note_on channel=0 note=79 velocity=0 time=239
note_on channel=0 note=78 velocity=80 time=1
note_on channel=0 note=78 velocity=0 time=239
note_on channel=0 note=74 velocity=80 time=1
note_on channel=0 note=74 velocity=0 time=239
note_on channel=0 note=81 velocity=80 time=1
note_on channel=0 note=81 velocity=0 time=239
note_on channel=0 note=80 velocity=80 time=1
note_on channel=0 note=80 velocity=0 time=239
note_on channel=0 note=76 velocity=80 time=1
note_on channel=0 note=76 velocity=0 time=239
note_on channel=0 note=79 velocity=80 time=1
note_on channel=0 note=79 velocity=0 time=239
note_on channel=0 note=78 velocity=80 time=1
note_on channel=0 note=78 velocity=0 time=239
note_on channel=0 note=74 velocity=80 time=1
note_on channel=0 note=74 velocity=0 time=239
note_on channel=0 note=78 velocity=80 time=1
note_on channel=0 note=78 velocity=0 time=239
note_on channel=0 note=77 velocity=80 time=1
note_on channel=0 note=77 velocity=0 time=239
note_on channel=0 note=73 velocity=80 time=1
note_on channel=0 note=73 velocity=0 time=239
note_on channel=0 note=77 velocity=80 time=1
note_on channel=0 note=77 velocity=0 time=239
note_on channel=0 note=76 velocity=80 time=1
note_on channel=0 note=76 velocity=0 time=239
note_on channel=0 note=71 velocity=80 time=1
note_on channel=0 note=71 velocity=0 time=239
note_on channel=0 note=72 velocity=80 time=1
note_on channel=0 note=72 velocity=0 time=239
note_on channel=0 note=79 velocity=80 time=1
note_on channel=0 note=79 velocity=0 time=239
note_on channel=0 note=78 velocity=80 time=1
note_on channel=0 note=78 velocity=0 time=239
MetaMessage('set_tempo', tempo=352942, time=1)
note_on channel=0 note=74 velocity=80 time=0
note_on channel=0 note=74 velocity=0 time=239
note_on channel=0 note=81 velocity=80 time=1
note_on channel=0 note=81 velocity=0 time=239
note_on channel=0 note=80 velocity=80 time=1
note_on channel=0 note=80 velocity=0 time=239
MetaMessage('set_tempo', tempo=363636, time=1)
note_on channel=0 note=76 velocity=80 time=0
note_on channel=0 note=76 velocity=0 time=239
note_on channel=0 note=79 velocity=80 time=1
note_on channel=0 note=79 velocity=0 time=239
note_on channel=0 note=78 velocity=80 time=1
note_on channel=0 note=78 velocity=0 time=239
MetaMessage('set_tempo', tempo=375000, time=1)
note_on channel=0 note=74 velocity=80 time=0
note_on channel=0 note=74 velocity=0 time=239
note_on channel=0 note=78 velocity=80 time=1
note_on channel=0 note=78 velocity=0 time=239
note_on channel=0 note=77 velocity=80 time=1
note_on channel=0 note=77 velocity=0 time=239
MetaMessage('set_tempo', tempo=387097, time=1)
note_on channel=0 note=73 velocity=80 time=0
note_on channel=0 note=73 velocity=0 time=239
note_on channel=0 note=77 velocity=80 time=1
note_on channel=0 note=77 velocity=0 time=239
note_on channel=0 note=83 velocity=80 time=1
note_on channel=0 note=83 velocity=0 time=239
note_on channel=0 note=71 velocity=80 time=1
note_on channel=0 note=71 velocity=0 time=239
MetaMessage('key_signature', key='Eb', time=1)
MetaMessage('set_tempo', tempo=342857, time=0)
note_on channel=0 note=72 velocity=80 time=0
note_on channel=0 note=63 velocity=80 time=0
note_on channel=0 note=72 velocity=0 time=479
note_on channel=0 note=63 velocity=0 time=0
note_on channel=0 note=72 velocity=80 time=1
note_on channel=0 note=63 velocity=80 time=0
note_on channel=0 note=72 velocity=0 time=479
note_on channel=0 note=63 velocity=0 time=0
note_on channel=0 note=67 velocity=80 time=1
note_on channel=0 note=67 velocity=0 time=239
note_on channel=0 note=70 velocity=80 time=1
note_on channel=0 note=62 velocity=80 time=0
note_on channel=0 note=70 velocity=0 time=479
note_on channel=0 note=62 velocity=0 time=0
note_on channel=0 note=67 velocity=80 time=1
note_on channel=0 note=67 velocity=0 time=119
note_on channel=0 note=70 velocity=80 time=1
note_on channel=0 note=70 velocity=0 time=119
note_on channel=0 note=72 velocity=80 time=1
note_on channel=0 note=63 velocity=80 time=0
note_on channel=0 note=72 velocity=0 time=479
note_on channel=0 note=63 velocity=0 time=0
note_on channel=0 note=67 velocity=80 time=1
note_on channel=0 note=67 velocity=0 time=239
note_on channel=0 note=70 velocity=80 time=1
note_on channel=0 note=62 velocity=80 time=0
note_on channel=0 note=70 velocity=0 time=479
note_on channel=0 note=62 velocity=0 time=0
note_on channel=0 note=67 velocity=80 time=1
note_on channel=0 note=67 velocity=0 time=239
note_on channel=0 note=72 velocity=80 time=1
note_on channel=0 note=63 velocity=80 time=0
note_on channel=0 note=72 velocity=0 time=479
note_on channel=0 note=63 velocity=0 time=0
note_on channel=0 note=68 velocity=80 time=1
note_on channel=0 note=60 velocity=80 time=0
note_on channel=0 note=68 velocity=0 time=479
note_on channel=0 note=60 velocity=0 time=0
note_on channel=0 note=68 velocity=80 time=1
note_on channel=0 note=68 velocity=0 time=239
note_on channel=0 note=67 velocity=80 time=1
note_on channel=0 note=67 velocity=0 time=239
note_on channel=0 note=70 velocity=80 time=1
note_on channel=0 note=70 velocity=0 time=239
note_on channel=0 note=74 velocity=80 time=1
note_on channel=0 note=65 velocity=80 time=0
note_on channel=0 note=74 velocity=0 time=479
note_on channel=0 note=65 velocity=0 time=0
note_on channel=0 note=70 velocity=80 time=1
note_on channel=0 note=70 velocity=0 time=119
note_on channel=0 note=72 velocity=80 time=1
note_on channel=0 note=72 velocity=0 time=119
note_on channel=0 note=75 velocity=80 time=1
note_on channel=0 note=67 velocity=80 time=0
note_on channel=0 note=75 velocity=0 time=479
note_on channel=0 note=67 velocity=0 time=0
note_on channel=0 note=70 velocity=80 time=1
note_on channel=0 note=70 velocity=0 time=239
note_on channel=0 note=74 velocity=80 time=1
note_on channel=0 note=65 velocity=80 time=0
note_on channel=0 note=74 velocity=0 time=239
note_on channel=0 note=65 velocity=0 time=0
note_on channel=0 note=62 velocity=80 time=1
note_on channel=0 note=62 velocity=0 time=239
note_on channel=0 note=63 velocity=80 time=1
note_on channel=0 note=63 velocity=0 time=239
note_on channel=0 note=67 velocity=80 time=1
note_on channel=0 note=62 velocity=80 time=0
note_on channel=0 note=67 velocity=0 time=239
note_on channel=0 note=62 velocity=0 time=0
note_on channel=0 note=70 velocity=80 time=1
note_on channel=0 note=70 velocity=0 time=239
note_on channel=0 note=72 velocity=80 time=1
note_on channel=0 note=63 velocity=80 time=0
note_on channel=0 note=72 velocity=0 time=479
note_on channel=0 note=63 velocity=0 time=0
note_on channel=0 note=72 velocity=80 time=1
note_on channel=0 note=63 velocity=80 time=0
note_on channel=0 note=72 velocity=0 time=479
note_on channel=0 note=63 velocity=0 time=0
note_on channel=0 note=67 velocity=80 time=1
note_on channel=0 note=67 velocity=0 time=239
note_on channel=0 note=70 velocity=80 time=1
note_on channel=0 note=62 velocity=80 time=0
note_on channel=0 note=70 velocity=0 time=479
note_on channel=0 note=62 velocity=0 time=0
note_on channel=0 note=67 velocity=80 time=1
note_on channel=0 note=67 velocity=0 time=119
note_on channel=0 note=70 velocity=80 time=1
note_on channel=0 note=70 velocity=0 time=119
note_on channel=0 note=72 velocity=80 time=1
note_on channel=0 note=63 velocity=80 time=0
note_on channel=0 note=72 velocity=0 time=479
note_on channel=0 note=63 velocity=0 time=0
note_on channel=0 note=67 velocity=80 time=1
note_on channel=0 note=67 velocity=0 time=239
note_on channel=0 note=70 velocity=80 time=1
note_on channel=0 note=62 velocity=80 time=0
note_on channel=0 note=70 velocity=0 time=479
note_on channel=0 note=62 velocity=0 time=0
note_on channel=0 note=67 velocity=80 time=1
note_on channel=0 note=67 velocity=0 time=239
note_on channel=0 note=72 velocity=80 time=1
note_on channel=0 note=63 velocity=80 time=0
note_on channel=0 note=72 velocity=0 time=479
note_on channel=0 note=63 velocity=0 time=0
note_on channel=0 note=68 velocity=80 time=1
note_on channel=0 note=60 velocity=80 time=0
note_on channel=0 note=68 velocity=0 time=479
note_on channel=0 note=60 velocity=0 time=0
note_on channel=0 note=68 velocity=80 time=1
note_on channel=0 note=68 velocity=0 time=239
note_on channel=0 note=67 velocity=80 time=1
note_on channel=0 note=67 velocity=0 time=239
note_on channel=0 note=72 velocity=80 time=1
note_on channel=0 note=72 velocity=0 time=239
note_on channel=0 note=75 velocity=80 time=1
note_on channel=0 note=67 velocity=80 time=0
note_on channel=0 note=75 velocity=0 time=239
note_on channel=0 note=67 velocity=0 time=0
note_on channel=0 note=72 velocity=80 time=1
note_on channel=0 note=72 velocity=0 time=239
note_on channel=0 note=74 velocity=80 time=1
note_on channel=0 note=74 velocity=0 time=119
note_on channel=0 note=75 velocity=80 time=1
note_on channel=0 note=75 velocity=0 time=119
note_on channel=0 note=77 velocity=80 time=1
note_on channel=0 note=70 velocity=80 time=0
note_on channel=0 note=77 velocity=0 time=479
note_on channel=0 note=70 velocity=0 time=0
note_on channel=0 note=72 velocity=80 time=1
note_on channel=0 note=72 velocity=0 time=239
note_on channel=0 note=74 velocity=80 time=1
note_on channel=0 note=65 velocity=80 time=0
note_on channel=0 note=74 velocity=0 time=239
note_on channel=0 note=65 velocity=0 time=0
note_on channel=0 note=70 velocity=80 time=1
note_on channel=0 note=70 velocity=0 time=239
note_on channel=0 note=74 velocity=80 time=1
note_on channel=0 note=74 velocity=0 time=239
note_on channel=0 note=75 velocity=80 time=1
note_on channel=0 note=67 velocity=80 time=0
note_on channel=0 note=75 velocity=0 time=239
note_on channel=0 note=67 velocity=0 time=0
note_on channel=0 note=70 velocity=80 time=1
note_on channel=0 note=70 velocity=0 time=239
note_on channel=0 note=72 velocity=80 time=1
note_on channel=0 note=63 velocity=80 time=0
note_on channel=0 note=72 velocity=0 time=479
note_on channel=0 note=63 velocity=0 time=0
note_on channel=0 note=72 velocity=80 time=1
note_on channel=0 note=63 velocity=80 time=0
note_on channel=0 note=72 velocity=0 time=479
note_on channel=0 note=63 velocity=0 time=0
note_on channel=0 note=67 velocity=80 time=1
note_on channel=0 note=67 velocity=0 time=239
note_on channel=0 note=70 velocity=80 time=1
note_on channel=0 note=62 velocity=80 time=0
note_on channel=0 note=70 velocity=0 time=479
note_on channel=0 note=62 velocity=0 time=0
note_on channel=0 note=67 velocity=80 time=1
note_on channel=0 note=67 velocity=0 time=119
note_on channel=0 note=70 velocity=80 time=1
note_on channel=0 note=70 velocity=0 time=119
note_on channel=0 note=72 velocity=80 time=1
note_on channel=0 note=63 velocity=80 time=0
note_on channel=0 note=72 velocity=0 time=479
note_on channel=0 note=63 velocity=0 time=0
note_on channel=0 note=67 velocity=80 time=1
note_on channel=0 note=67 velocity=0 time=239
note_on channel=0 note=70 velocity=80 time=1
note_on channel=0 note=62 velocity=80 time=0
note_on channel=0 note=70 velocity=0 time=479
note_on channel=0 note=62 velocity=0 time=0
note_on channel=0 note=67 velocity=80 time=1
note_on channel=0 note=67 velocity=0 time=239
note_on channel=0 note=72 velocity=80 time=1
note_on channel=0 note=63 velocity=80 time=0
note_on channel=0 note=72 velocity=0 time=479
note_on channel=0 note=63 velocity=0 time=0
note_on channel=0 note=68 velocity=80 time=1
note_on channel=0 note=60 velocity=80 time=0
note_on channel=0 note=68 velocity=0 time=479
note_on channel=0 note=60 velocity=0 time=0
note_on channel=0 note=68 velocity=80 time=1
note_on channel=0 note=68 velocity=0 time=239
note_on channel=0 note=67 velocity=80 time=1
note_on channel=0 note=67 velocity=0 time=239
note_on channel=0 note=70 velocity=80 time=1
note_on channel=0 note=70 velocity=0 time=239
note_on channel=0 note=74 velocity=80 time=1
note_on channel=0 note=65 velocity=80 time=0
note_on channel=0 note=74 velocity=0 time=479
note_on channel=0 note=65 velocity=0 time=0
note_on channel=0 note=70 velocity=80 time=1
note_on channel=0 note=70 velocity=0 time=119
note_on channel=0 note=72 velocity=80 time=1
note_on channel=0 note=72 velocity=0 time=119
note_on channel=0 note=75 velocity=80 time=1
note_on channel=0 note=67 velocity=80 time=0
note_on channel=0 note=75 velocity=0 time=479
note_on channel=0 note=67 velocity=0 time=0
note_on channel=0 note=70 velocity=80 time=1
note_on channel=0 note=70 velocity=0 time=239
note_on channel=0 note=74 velocity=80 time=1
note_on channel=0 note=65 velocity=80 time=0
note_on channel=0 note=74 velocity=0 time=239
note_on channel=0 note=65 velocity=0 time=0
note_on channel=0 note=62 velocity=80 time=1
note_on channel=0 note=62 velocity=0 time=239
note_on channel=0 note=63 velocity=80 time=1
note_on channel=0 note=63 velocity=0 time=239
note_on channel=0 note=67 velocity=80 time=1
note_on channel=0 note=62 velocity=80 time=0
note_on channel=0 note=67 velocity=0 time=239
note_on channel=0 note=62 velocity=0 time=0
note_on channel=0 note=70 velocity=80 time=1
note_on channel=0 note=70 velocity=0 time=239
note_on channel=0 note=72 velocity=80 time=1
note_on channel=0 note=63 velocity=80 time=0
note_on channel=0 note=72 velocity=0 time=479
note_on channel=0 note=63 velocity=0 time=0
note_on channel=0 note=72 velocity=80 time=1
note_on channel=0 note=63 velocity=80 time=0
note_on channel=0 note=72 velocity=0 time=479
note_on channel=0 note=63 velocity=0 time=0
note_on channel=0 note=72 velocity=80 time=1
note_on channel=0 note=72 velocity=0 time=239
note_on channel=0 note=74 velocity=80 time=1
note_on channel=0 note=65 velocity=80 time=0
note_on channel=0 note=74 velocity=0 time=239
note_on channel=0 note=65 velocity=0 time=0
note_on channel=0 note=70 velocity=80 time=1
note_on channel=0 note=70 velocity=0 time=239
note_on channel=0 note=72 velocity=80 time=1
note_on channel=0 note=72 velocity=0 time=119
note_on channel=0 note=74 velocity=80 time=1
note_on channel=0 note=74 velocity=0 time=119
note_on channel=0 note=75 velocity=80 time=1
note_on channel=0 note=67 velocity=80 time=0
note_on channel=0 note=75 velocity=0 time=239
note_on channel=0 note=67 velocity=0 time=0
note_on channel=0 note=72 velocity=80 time=1
note_on channel=0 note=72 velocity=0 time=239
note_on channel=0 note=75 velocity=80 time=1
note_on channel=0 note=75 velocity=0 time=239
note_on channel=0 note=74 velocity=80 time=1
note_on channel=0 note=65 velocity=80 time=0
note_on channel=0 note=74 velocity=0 time=239
note_on channel=0 note=65 velocity=0 time=0
note_on channel=0 note=70 velocity=80 time=1
note_on channel=0 note=70 velocity=0 time=239
note_on channel=0 note=74 velocity=80 time=1
note_on channel=0 note=74 velocity=0 time=239
note_on channel=0 note=75 velocity=80 time=1
note_on channel=0 note=67 velocity=80 time=0
note_on channel=0 note=75 velocity=0 time=479
note_on channel=0 note=67 velocity=0 time=0
note_on channel=0 note=68 velocity=80 time=1
note_on channel=0 note=60 velocity=80 time=0
note_on channel=0 note=68 velocity=0 time=479
note_on channel=0 note=60 velocity=0 time=0
note_on channel=0 note=68 velocity=80 time=1
note_on channel=0 note=68 velocity=0 time=239
note_on channel=0 note=67 velocity=80 time=1
note_on channel=0 note=67 velocity=0 time=239
note_on channel=0 note=72 velocity=80 time=1
note_on channel=0 note=72 velocity=0 time=239
note_on channel=0 note=75 velocity=80 time=1
note_on channel=0 note=67 velocity=80 time=0
note_on channel=0 note=75 velocity=0 time=239
note_on channel=0 note=67 velocity=0 time=0
note_on channel=0 note=72 velocity=80 time=1
note_on channel=0 note=72 velocity=0 time=239
note_on channel=0 note=74 velocity=80 time=1
note_on channel=0 note=74 velocity=0 time=119
note_on channel=0 note=75 velocity=80 time=1
note_on channel=0 note=75 velocity=0 time=119
note_on channel=0 note=77 velocity=80 time=1
note_on channel=0 note=70 velocity=80 time=0
note_on channel=0 note=77 velocity=0 time=479
note_on channel=0 note=70 velocity=0 time=0
note_on channel=0 note=72 velocity=80 time=1
note_on channel=0 note=72 velocity=0 time=239
note_on channel=0 note=74 velocity=80 time=1
note_on channel=0 note=65 velocity=80 time=0
note_on channel=0 note=74 velocity=0 time=239
note_on channel=0 note=65 velocity=0 time=0
note_on channel=0 note=70 velocity=80 time=1
note_on channel=0 note=70 velocity=0 time=239
note_on channel=0 note=74 velocity=80 time=1
note_on channel=0 note=74 velocity=0 time=239
note_on channel=0 note=75 velocity=80 time=1
note_on channel=0 note=67 velocity=80 time=0
note_on channel=0 note=75 velocity=0 time=239
note_on channel=0 note=67 velocity=0 time=0
note_on channel=0 note=70 velocity=80 time=1
note_on channel=0 note=70 velocity=0 time=239
note_on channel=0 note=75 velocity=80 time=1
note_on channel=0 note=72 velocity=80 time=0
note_on channel=0 note=67 velocity=80 time=0
note_on channel=0 note=75 velocity=0 time=479
note_on channel=0 note=72 velocity=0 time=0
note_on channel=0 note=67 velocity=0 time=0
note_on channel=0 note=75 velocity=80 time=1
note_on channel=0 note=72 velocity=80 time=0
note_on channel=0 note=67 velocity=80 time=0
note_on channel=0 note=75 velocity=0 time=719
note_on channel=0 note=72 velocity=0 time=0
note_on channel=0 note=67 velocity=0 time=0
note_on channel=0 note=74 velocity=80 time=1
note_on channel=0 note=70 velocity=80 time=0
note_on channel=0 note=65 velocity=80 time=0
note_on channel=0 note=74 velocity=0 time=719
note_on channel=0 note=70 velocity=0 time=0
note_on channel=0 note=65 velocity=0 time=0
note_on channel=0 note=72 velocity=80 time=1
note_on channel=0 note=68 velocity=80 time=0
note_on channel=0 note=63 velocity=80 time=0
note_on channel=0 note=72 velocity=0 time=719
note_on channel=0 note=68 velocity=0 time=0
note_on channel=0 note=63 velocity=0 time=0
note_on channel=0 note=72 velocity=80 time=1
note_on channel=0 note=68 velocity=80 time=0
note_on channel=0 note=63 velocity=80 time=0
note_on channel=0 note=72 velocity=0 time=719
note_on channel=0 note=68 velocity=0 time=0
note_on channel=0 note=63 velocity=0 time=0
note_on channel=0 note=74 velocity=80 time=1
note_on channel=0 note=70 velocity=80 time=0
note_on channel=0 note=65 velocity=80 time=0
note_on channel=0 note=74 velocity=0 time=479
note_on channel=0 note=70 velocity=0 time=0
note_on channel=0 note=65 velocity=0 time=0
note_on channel=0 note=75 velocity=80 time=1
note_on channel=0 note=72 velocity=80 time=0
note_on channel=0 note=67 velocity=80 time=0
note_on channel=0 note=75 velocity=0 time=479
note_on channel=0 note=72 velocity=0 time=0
note_on channel=0 note=67 velocity=0 time=0
note_on channel=0 note=75 velocity=80 time=1
note_on channel=0 note=72 velocity=80 time=0
note_on channel=0 note=67 velocity=80 time=0
note_on channel=0 note=75 velocity=0 time=719
note_on channel=0 note=72 velocity=0 time=0
note_on channel=0 note=67 velocity=0 time=0
note_on channel=0 note=74 velocity=80 time=1
note_on channel=0 note=70 velocity=80 time=0
note_on channel=0 note=65 velocity=80 time=0
note_on channel=0 note=74 velocity=0 time=719
note_on channel=0 note=70 velocity=0 time=0
note_on channel=0 note=65 velocity=0 time=0
note_on channel=0 note=72 velocity=80 time=1
note_on channel=0 note=68 velocity=80 time=0
note_on channel=0 note=63 velocity=80 time=0
note_on channel=0 note=72 velocity=0 time=719
note_on channel=0 note=68 velocity=0 time=0
note_on channel=0 note=63 velocity=0 time=0
note_on channel=0 note=72 velocity=80 time=1
note_on channel=0 note=68 velocity=80 time=0
note_on channel=0 note=63 velocity=80 time=0
note_on channel=0 note=72 velocity=0 time=719
note_on channel=0 note=68 velocity=0 time=0
note_on channel=0 note=63 velocity=0 time=0
note_on channel=0 note=74 velocity=80 time=1
note_on channel=0 note=70 velocity=80 time=0
note_on channel=0 note=66 velocity=80 time=0
note_on channel=0 note=74 velocity=0 time=479
note_on channel=0 note=70 velocity=0 time=0
note_on channel=0 note=66 velocity=0 time=0
note_on channel=0 note=75 velocity=80 time=1
note_on channel=0 note=72 velocity=80 time=0
note_on channel=0 note=67 velocity=80 time=0
note_on channel=0 note=75 velocity=0 time=479
note_on channel=0 note=72 velocity=0 time=0
note_on channel=0 note=67 velocity=0 time=0
note_on channel=0 note=75 velocity=80 time=1
note_on channel=0 note=72 velocity=80 time=0
note_on channel=0 note=67 velocity=80 time=0
note_on channel=0 note=75 velocity=0 time=719
note_on channel=0 note=72 velocity=0 time=0
note_on channel=0 note=67 velocity=0 time=0
note_on channel=0 note=78 velocity=80 time=1
note_on channel=0 note=74 velocity=80 time=0
note_on channel=0 note=69 velocity=80 time=0
note_on channel=0 note=78 velocity=0 time=719
note_on channel=0 note=74 velocity=0 time=0
note_on channel=0 note=69 velocity=0 time=0
note_on channel=0 note=79 velocity=80 time=1
note_on channel=0 note=76 velocity=80 time=0
note_on channel=0 note=79 velocity=0 time=239
note_on channel=0 note=76 velocity=0 time=0
note_on channel=0 note=78 velocity=80 time=1
note_on channel=0 note=74 velocity=80 time=0
note_on channel=0 note=78 velocity=0 time=239
note_on channel=0 note=74 velocity=0 time=0
note_on channel=0 note=79 velocity=80 time=1
note_on channel=0 note=76 velocity=80 time=0
note_on channel=0 note=79 velocity=0 time=239
note_on channel=0 note=76 velocity=0 time=0
note_on channel=0 note=78 velocity=80 time=1
note_on channel=0 note=74 velocity=80 time=0
note_on channel=0 note=78 velocity=0 time=239
note_on channel=0 note=74 velocity=0 time=0
note_on channel=0 note=76 velocity=80 time=1
note_on channel=0 note=72 velocity=80 time=0
note_on channel=0 note=76 velocity=0 time=239
note_on channel=0 note=72 velocity=0 time=0
note_on channel=0 note=78 velocity=80 time=1
note_on channel=0 note=74 velocity=80 time=0
note_on channel=0 note=78 velocity=0 time=239
note_on channel=0 note=74 velocity=0 time=0
note_on channel=0 note=79 velocity=80 time=1
note_on channel=0 note=76 velocity=80 time=0
note_on channel=0 note=79 velocity=0 time=239
note_on channel=0 note=76 velocity=0 time=0
note_on channel=0 note=78 velocity=80 time=1
note_on channel=0 note=74 velocity=80 time=0
note_on channel=0 note=78 velocity=0 time=239
note_on channel=0 note=74 velocity=0 time=0
note_on channel=0 note=77 velocity=80 time=1
note_on channel=0 note=73 velocity=80 time=0
note_on channel=0 note=68 velocity=80 time=0
note_on channel=0 note=77 velocity=0 time=479
note_on channel=0 note=73 velocity=0 time=0
note_on channel=0 note=68 velocity=0 time=0
note_on channel=0 note=77 velocity=80 time=1
note_on channel=0 note=73 velocity=80 time=0
note_on channel=0 note=68 velocity=80 time=0
note_on channel=0 note=77 velocity=0 time=719
note_on channel=0 note=73 velocity=0 time=0
note_on channel=0 note=68 velocity=0 time=0
note_on channel=0 note=79 velocity=80 time=1
note_on channel=0 note=75 velocity=80 time=0
note_on channel=0 note=70 velocity=80 time=0
note_on channel=0 note=79 velocity=0 time=719
note_on channel=0 note=75 velocity=0 time=0
note_on channel=0 note=70 velocity=0 time=0
note_on channel=0 note=79 velocity=80 time=1
note_on channel=0 note=76 velocity=80 time=0
note_on channel=0 note=72 velocity=80 time=0
note_on channel=0 note=79 velocity=0 time=959
note_on channel=0 note=76 velocity=0 time=0
note_on channel=0 note=72 velocity=0 time=0
note_on channel=0 note=84 velocity=80 time=1
note_on channel=0 note=79 velocity=80 time=0
note_on channel=0 note=76 velocity=80 time=0
note_on channel=0 note=84 velocity=0 time=959
note_on channel=0 note=79 velocity=0 time=0
note_on channel=0 note=76 velocity=0 time=0
note_on channel=0 note=68 velocity=80 time=1
note_on channel=0 note=65 velocity=80 time=0
note_on channel=0 note=60 velocity=80 time=0
note_on channel=0 note=68 velocity=0 time=1919
note_on channel=0 note=65 velocity=0 time=0
note_on channel=0 note=60 velocity=0 time=0
note_on channel=0 note=72 velocity=80 time=1
note_on channel=0 note=68 velocity=80 time=0
note_on channel=0 note=63 velocity=80 time=0
note_on channel=0 note=72 velocity=0 time=1919
note_on channel=0 note=68 velocity=0 time=0
note_on channel=0 note=63 velocity=0 time=0
note_on channel=0 note=70 velocity=80 time=1
note_on channel=0 note=65 velocity=80 time=0
note_on channel=0 note=62 velocity=80 time=0
note_on channel=0 note=70 velocity=0 time=479
note_on channel=0 note=65 velocity=0 time=0
note_on channel=0 note=62 velocity=0 time=0
note_on channel=0 note=74 velocity=80 time=1
note_on channel=0 note=70 velocity=80 time=0
note_on channel=0 note=65 velocity=80 time=0
note_on channel=0 note=74 velocity=0 time=479
note_on channel=0 note=70 velocity=0 time=0
note_on channel=0 note=65 velocity=0 time=0
note_on channel=0 note=76 velocity=80 time=1
note_on channel=0 note=72 velocity=80 time=0
note_on channel=0 note=76 velocity=0 time=239
note_on channel=0 note=72 velocity=0 time=0
note_on channel=0 note=77 velocity=80 time=1
note_on channel=0 note=74 velocity=80 time=0
note_on channel=0 note=77 velocity=0 time=239
note_on channel=0 note=74 velocity=0 time=0
note_on channel=0 note=77 velocity=80 time=241
note_on channel=0 note=73 velocity=80 time=0
note_on channel=0 note=68 velocity=80 time=0
note_on channel=0 note=77 velocity=0 time=1199
note_on channel=0 note=73 velocity=0 time=0
note_on channel=0 note=68 velocity=0 time=0
note_on channel=0 note=76 velocity=80 time=1
note_on channel=0 note=72 velocity=80 time=0
note_on channel=0 note=67 velocity=80 time=0
note_on channel=0 note=76 velocity=0 time=959
note_on channel=0 note=72 velocity=0 time=0
note_on channel=0 note=67 velocity=0 time=0
note_on channel=0 note=77 velocity=80 time=1
note_on channel=0 note=72 velocity=80 time=0
note_on channel=0 note=68 velocity=80 time=0
note_on channel=0 note=77 velocity=0 time=1919
note_on channel=0 note=72 velocity=0 time=0
note_on channel=0 note=68 velocity=0 time=0
note_on channel=0 note=72 velocity=80 time=1
note_on channel=0 note=68 velocity=80 time=0
note_on channel=0 note=63 velocity=80 time=0
note_on channel=0 note=72 velocity=0 time=1439
note_on channel=0 note=68 velocity=0 time=0
note_on channel=0 note=63 velocity=0 time=0
note_on channel=0 note=72 velocity=80 time=1
note_on channel=0 note=69 velocity=80 time=0
note_on channel=0 note=72 velocity=0 time=479
note_on channel=0 note=69 velocity=0 time=0
note_on channel=0 note=70 velocity=80 time=1
note_on channel=0 note=65 velocity=80 time=0
note_on channel=0 note=62 velocity=80 time=0
note_on channel=0 note=70 velocity=0 time=719
note_on channel=0 note=65 velocity=0 time=0
note_on channel=0 note=62 velocity=0 time=0
note_on channel=0 note=65 velocity=80 time=1
note_on channel=0 note=62 velocity=80 time=0
note_on channel=0 note=58 velocity=80 time=0
note_on channel=0 note=65 velocity=0 time=719
note_on channel=0 note=62 velocity=0 time=0
note_on channel=0 note=58 velocity=0 time=0
note_on channel=0 note=70 velocity=80 time=1
note_on channel=0 note=65 velocity=80 time=0
note_on channel=0 note=62 velocity=80 time=0
note_on channel=0 note=70 velocity=0 time=479
note_on channel=0 note=65 velocity=0 time=0
note_on channel=0 note=62 velocity=0 time=0
note_on channel=0 note=68 velocity=80 time=1
note_on channel=0 note=65 velocity=80 time=0
note_on channel=0 note=60 velocity=80 time=0
note_on channel=0 note=68 velocity=0 time=959
note_on channel=0 note=65 velocity=0 time=0
note_on channel=0 note=60 velocity=0 time=0
note_on channel=0 note=67 velocity=80 time=1
note_on channel=0 note=63 velocity=80 time=0
note_on channel=0 note=58 velocity=80 time=0
note_on channel=0 note=67 velocity=0 time=959
note_on channel=0 note=63 velocity=0 time=0
note_on channel=0 note=58 velocity=0 time=0
note_on channel=0 note=68 velocity=80 time=1
note_on channel=0 note=65 velocity=80 time=0
note_on channel=0 note=60 velocity=80 time=0
note_on channel=0 note=68 velocity=0 time=1919
note_on channel=0 note=65 velocity=0 time=0
note_on channel=0 note=60 velocity=0 time=0
note_on channel=0 note=72 velocity=80 time=1
note_on channel=0 note=68 velocity=80 time=0
note_on channel=0 note=63 velocity=80 time=0
note_on channel=0 note=72 velocity=0 time=1919
note_on channel=0 note=68 velocity=0 time=0
note_on channel=0 note=63 velocity=0 time=0
note_on channel=0 note=70 velocity=80 time=1
note_on channel=0 note=65 velocity=80 time=0
note_on channel=0 note=62 velocity=80 time=0
note_on channel=0 note=70 velocity=0 time=479
note_on channel=0 note=65 velocity=0 time=0
note_on channel=0 note=62 velocity=0 time=0
note_on channel=0 note=74 velocity=80 time=1
note_on channel=0 note=70 velocity=80 time=0
note_on channel=0 note=65 velocity=80 time=0
note_on channel=0 note=74 velocity=0 time=479
note_on channel=0 note=70 velocity=0 time=0
note_on channel=0 note=65 velocity=0 time=0
note_on channel=0 note=76 velocity=80 time=1
note_on channel=0 note=72 velocity=80 time=0
note_on channel=0 note=76 velocity=0 time=239
note_on channel=0 note=72 velocity=0 time=0
note_on channel=0 note=77 velocity=80 time=1
note_on channel=0 note=74 velocity=80 time=0
note_on channel=0 note=77 velocity=0 time=239
note_on channel=0 note=74 velocity=0 time=0
note_on channel=0 note=77 velocity=80 time=241
note_on channel=0 note=73 velocity=80 time=0
note_on channel=0 note=68 velocity=80 time=0
note_on channel=0 note=77 velocity=0 time=1199
note_on channel=0 note=73 velocity=0 time=0
note_on channel=0 note=68 velocity=0 time=0
note_on channel=0 note=76 velocity=80 time=1
note_on channel=0 note=72 velocity=80 time=0
note_on channel=0 note=67 velocity=80 time=0
note_on channel=0 note=76 velocity=0 time=959
note_on channel=0 note=72 velocity=0 time=0
note_on channel=0 note=67 velocity=0 time=0
note_on channel=0 note=77 velocity=80 time=1
note_on channel=0 note=72 velocity=80 time=0
note_on channel=0 note=68 velocity=80 time=0
note_on channel=0 note=77 velocity=0 time=1919
note_on channel=0 note=72 velocity=0 time=0
note_on channel=0 note=68 velocity=0 time=0
note_on channel=0 note=72 velocity=80 time=1
note_on channel=0 note=68 velocity=80 time=0
note_on channel=0 note=63 velocity=80 time=0
note_on channel=0 note=72 velocity=0 time=1439
note_on channel=0 note=68 velocity=0 time=0
note_on channel=0 note=63 velocity=0 time=0
note_on channel=0 note=72 velocity=80 time=1
note_on channel=0 note=69 velocity=80 time=0
note_on channel=0 note=72 velocity=0 time=479
note_on channel=0 note=69 velocity=0 time=0
note_on channel=0 note=70 velocity=80 time=1
note_on channel=0 note=65 velocity=80 time=0
note_on channel=0 note=62 velocity=80 time=0
note_on channel=0 note=70 velocity=0 time=719
note_on channel=0 note=65 velocity=0 time=0
note_on channel=0 note=62 velocity=0 time=0
note_on channel=0 note=65 velocity=80 time=1
note_on channel=0 note=62 velocity=80 time=0
note_on channel=0 note=58 velocity=80 time=0
note_on channel=0 note=65 velocity=0 time=719
note_on channel=0 note=62 velocity=0 time=0
note_on channel=0 note=58 velocity=0 time=0
note_on channel=0 note=70 velocity=80 time=1
note_on channel=0 note=65 velocity=80 time=0
note_on channel=0 note=62 velocity=80 time=0
note_on channel=0 note=70 velocity=0 time=479
note_on channel=0 note=65 velocity=0 time=0
note_on channel=0 note=62 velocity=0 time=0
note_on channel=0 note=68 velocity=80 time=1
note_on channel=0 note=65 velocity=80 time=0
note_on channel=0 note=60 velocity=80 time=0
note_on channel=0 note=68 velocity=0 time=959
note_on channel=0 note=65 velocity=0 time=0
note_on channel=0 note=60 velocity=0 time=0
note_on channel=0 note=67 velocity=80 time=1
note_on channel=0 note=63 velocity=80 time=0
note_on channel=0 note=58 velocity=80 time=0
note_on channel=0 note=67 velocity=0 time=959
note_on channel=0 note=63 velocity=0 time=0
note_on channel=0 note=58 velocity=0 time=0
MetaMessage('key_signature', key='C', time=1)
note_on channel=0 note=65 velocity=80 time=0
note_on channel=0 note=65 velocity=0 time=239
note_on channel=0 note=72 velocity=80 time=1
note_on channel=0 note=72 velocity=0 time=239
note_on channel=0 note=71 velocity=80 time=1
note_on channel=0 note=71 velocity=0 time=239
note_on channel=0 note=67 velocity=80 time=1
note_on channel=0 note=67 velocity=0 time=239
note_on channel=0 note=74 velocity=80 time=1
note_on channel=0 note=74 velocity=0 time=239
note_on channel=0 note=73 velocity=80 time=1
note_on channel=0 note=73 velocity=0 time=239
note_on channel=0 note=69 velocity=80 time=1
note_on channel=0 note=69 velocity=0 time=239
note_on channel=0 note=72 velocity=80 time=1
note_on channel=0 note=72 velocity=0 time=239
note_on channel=0 note=71 velocity=80 time=1
note_on channel=0 note=71 velocity=0 time=239
note_on channel=0 note=67 velocity=80 time=1
note_on channel=0 note=67 velocity=0 time=239
note_on channel=0 note=71 velocity=80 time=1
note_on channel=0 note=71 velocity=0 time=239
note_on channel=0 note=70 velocity=80 time=1
note_on channel=0 note=70 velocity=0 time=239
note_on channel=0 note=66 velocity=80 time=1
note_on channel=0 note=66 velocity=0 time=239
note_on channel=0 note=70 velocity=80 time=1
note_on channel=0 note=70 velocity=0 time=239
note_on channel=0 note=69 velocity=80 time=1
note_on channel=0 note=69 velocity=0 time=239
note_on channel=0 note=64 velocity=80 time=1
note_on channel=0 note=64 velocity=0 time=239
note_on channel=0 note=65 velocity=80 time=1
note_on channel=0 note=65 velocity=0 time=239
note_on channel=0 note=72 velocity=80 time=1
note_on channel=0 note=72 velocity=0 time=239
note_on channel=0 note=71 velocity=80 time=1
note_on channel=0 note=71 velocity=0 time=239
note_on channel=0 note=67 velocity=80 time=1
note_on channel=0 note=67 velocity=0 time=239
note_on channel=0 note=74 velocity=80 time=1
note_on channel=0 note=74 velocity=0 time=239
note_on channel=0 note=73 velocity=80 time=1
note_on channel=0 note=73 velocity=0 time=239
note_on channel=0 note=69 velocity=80 time=1
note_on channel=0 note=69 velocity=0 time=239
note_on channel=0 note=72 velocity=80 time=1
note_on channel=0 note=72 velocity=0 time=239
note_on channel=0 note=71 velocity=80 time=1
note_on channel=0 note=71 velocity=0 time=239
note_on channel=0 note=67 velocity=80 time=1
note_on channel=0 note=67 velocity=0 time=239
note_on channel=0 note=71 velocity=80 time=1
note_on channel=0 note=71 velocity=0 time=239
note_on channel=0 note=70 velocity=80 time=1
note_on channel=0 note=70 velocity=0 time=239
note_on channel=0 note=66 velocity=80 time=1
note_on channel=0 note=66 velocity=0 time=239
note_on channel=0 note=70 velocity=80 time=1
note_on channel=0 note=70 velocity=0 time=239
note_on channel=0 note=69 velocity=80 time=1
note_on channel=0 note=69 velocity=0 time=239
note_on channel=0 note=64 velocity=80 time=1
note_on channel=0 note=64 velocity=0 time=239
note_on channel=0 note=65 velocity=80 time=1
note_on channel=0 note=65 velocity=0 time=239
note_on channel=0 note=72 velocity=80 time=1
note_on channel=0 note=72 velocity=0 time=239
note_on channel=0 note=71 velocity=80 time=1
note_on channel=0 note=71 velocity=0 time=239
note_on channel=0 note=67 velocity=80 time=1
note_on channel=0 note=67 velocity=0 time=239
note_on channel=0 note=74 velocity=80 time=1
note_on channel=0 note=74 velocity=0 time=239
note_on channel=0 note=73 velocity=80 time=1
note_on channel=0 note=73 velocity=0 time=239
note_on channel=0 note=69 velocity=80 time=1
note_on channel=0 note=69 velocity=0 time=239
note_on channel=0 note=72 velocity=80 time=1
note_on channel=0 note=72 velocity=0 time=239
note_on channel=0 note=71 velocity=80 time=1
note_on channel=0 note=71 velocity=0 time=239
note_on channel=0 note=67 velocity=80 time=1
note_on channel=0 note=67 velocity=0 time=239
note_on channel=0 note=71 velocity=80 time=1
note_on channel=0 note=71 velocity=0 time=239
note_on channel=0 note=70 velocity=80 time=1
note_on channel=0 note=70 velocity=0 time=239
note_on channel=0 note=66 velocity=80 time=1
note_on channel=0 note=66 velocity=0 time=239
note_on channel=0 note=70 velocity=80 time=1
note_on channel=0 note=70 velocity=0 time=239
note_on channel=0 note=69 velocity=80 time=1
note_on channel=0 note=69 velocity=0 time=239
note_on channel=0 note=64 velocity=80 time=1
note_on channel=0 note=64 velocity=0 time=239
note_on channel=0 note=65 velocity=80 time=1
note_on channel=0 note=65 velocity=0 time=239
note_on channel=0 note=72 velocity=80 time=1
note_on channel=0 note=72 velocity=0 time=239
note_on channel=0 note=71 velocity=80 time=1
note_on channel=0 note=71 velocity=0 time=239
note_on channel=0 note=67 velocity=80 time=1
note_on channel=0 note=67 velocity=0 time=239
note_on channel=0 note=74 velocity=80 time=1
note_on channel=0 note=74 velocity=0 time=239
note_on channel=0 note=73 velocity=80 time=1
note_on channel=0 note=73 velocity=0 time=239
note_on channel=0 note=69 velocity=80 time=1
note_on channel=0 note=69 velocity=0 time=239
note_on channel=0 note=72 velocity=80 time=1
note_on channel=0 note=72 velocity=0 time=239
note_on channel=0 note=71 velocity=80 time=1
note_on channel=0 note=71 velocity=0 time=239
note_on channel=0 note=67 velocity=80 time=1
note_on channel=0 note=67 velocity=0 time=239
note_on channel=0 note=71 velocity=80 time=1
note_on channel=0 note=71 velocity=0 time=239
note_on channel=0 note=70 velocity=80 time=1
note_on channel=0 note=70 velocity=0 time=239
note_on channel=0 note=66 velocity=80 time=1
note_on channel=0 note=66 velocity=0 time=239
note_on channel=0 note=70 velocity=80 time=1
note_on channel=0 note=70 velocity=0 time=239
note_on channel=0 note=69 velocity=80 time=1
note_on channel=0 note=69 velocity=0 time=239
note_on channel=0 note=64 velocity=80 time=1
note_on channel=0 note=64 velocity=0 time=239
note_on channel=0 note=74 velocity=80 time=1441
note_on channel=0 note=74 velocity=0 time=239
note_on channel=0 note=77 velocity=80 time=1
note_on channel=0 note=77 velocity=0 time=239
MetaMessage('key_signature', key='Bb', time=1)
note_on channel=0 note=79 velocity=80 time=0
note_on channel=0 note=70 velocity=80 time=0
note_on channel=0 note=79 velocity=0 time=479
note_on channel=0 note=70 velocity=0 time=0
note_on channel=0 note=79 velocity=80 time=1
note_on channel=0 note=70 velocity=80 time=0
note_on channel=0 note=79 velocity=0 time=479
note_on channel=0 note=70 velocity=0 time=0
note_on channel=0 note=74 velocity=80 time=1
note_on channel=0 note=74 velocity=0 time=239
note_on channel=0 note=77 velocity=80 time=1
note_on channel=0 note=69 velocity=80 time=0
note_on channel=0 note=77 velocity=0 time=479
note_on channel=0 note=69 velocity=0 time=0
note_on channel=0 note=74 velocity=80 time=1
note_on channel=0 note=74 velocity=0 time=119
note_on channel=0 note=77 velocity=80 time=1
note_on channel=0 note=77 velocity=0 time=119
note_on channel=0 note=79 velocity=80 time=1
note_on channel=0 note=70 velocity=80 time=0
note_on channel=0 note=79 velocity=0 time=479
note_on channel=0 note=70 velocity=0 time=0
note_on channel=0 note=74 velocity=80 time=1
note_on channel=0 note=74 velocity=0 time=239
note_on channel=0 note=77 velocity=80 time=1
note_on channel=0 note=69 velocity=80 time=0
note_on channel=0 note=77 velocity=0 time=479
note_on channel=0 note=69 velocity=0 time=0
note_on channel=0 note=74 velocity=80 time=1
note_on channel=0 note=74 velocity=0 time=239
note_on channel=0 note=79 velocity=80 time=1
note_on channel=0 note=70 velocity=80 time=0
note_on channel=0 note=79 velocity=0 time=479
note_on channel=0 note=70 velocity=0 time=0
note_on channel=0 note=75 velocity=80 time=1
note_on channel=0 note=67 velocity=80 time=0
note_on channel=0 note=75 velocity=0 time=479
note_on channel=0 note=67 velocity=0 time=0
note_on channel=0 note=75 velocity=80 time=1
note_on channel=0 note=75 velocity=0 time=239
note_on channel=0 note=74 velocity=80 time=1
note_on channel=0 note=74 velocity=0 time=239
note_on channel=0 note=77 velocity=80 time=1
note_on channel=0 note=77 velocity=0 time=239
note_on channel=0 note=81 velocity=80 time=1
note_on channel=0 note=72 velocity=80 time=0
note_on channel=0 note=81 velocity=0 time=479
note_on channel=0 note=72 velocity=0 time=0
note_on channel=0 note=77 velocity=80 time=1
note_on channel=0 note=77 velocity=0 time=119
note_on channel=0 note=79 velocity=80 time=1
note_on channel=0 note=79 velocity=0 time=119
note_on channel=0 note=82 velocity=80 time=1
note_on channel=0 note=74 velocity=80 time=0
note_on channel=0 note=82 velocity=0 time=479
note_on channel=0 note=74 velocity=0 time=0
note_on channel=0 note=77 velocity=80 time=1
note_on channel=0 note=77 velocity=0 time=239
note_on channel=0 note=81 velocity=80 time=1
note_on channel=0 note=72 velocity=80 time=0
note_on channel=0 note=81 velocity=0 time=239
note_on channel=0 note=72 velocity=0 time=0
note_on channel=0 note=69 velocity=80 time=1
note_on channel=0 note=69 velocity=0 time=239
note_on channel=0 note=70 velocity=80 time=1
note_on channel=0 note=70 velocity=0 time=239
note_on channel=0 note=74 velocity=80 time=1
note_on channel=0 note=69 velocity=80 time=0
note_on channel=0 note=74 velocity=0 time=239
note_on channel=0 note=69 velocity=0 time=0
note_on channel=0 note=77 velocity=80 time=1
note_on channel=0 note=77 velocity=0 time=239
note_on channel=0 note=79 velocity=80 time=1
note_on channel=0 note=70 velocity=80 time=0
note_on channel=0 note=79 velocity=0 time=479
note_on channel=0 note=70 velocity=0 time=0
note_on channel=0 note=79 velocity=80 time=1
note_on channel=0 note=70 velocity=80 time=0
note_on channel=0 note=79 velocity=0 time=479
note_on channel=0 note=70 velocity=0 time=0
note_on channel=0 note=79 velocity=80 time=1
note_on channel=0 note=79 velocity=0 time=239
note_on channel=0 note=81 velocity=80 time=1
note_on channel=0 note=72 velocity=80 time=0
note_on channel=0 note=81 velocity=0 time=239
note_on channel=0 note=72 velocity=0 time=0
note_on channel=0 note=77 velocity=80 time=1
note_on channel=0 note=77 velocity=0 time=239
note_on channel=0 note=79 velocity=80 time=1
note_on channel=0 note=79 velocity=0 time=119
note_on channel=0 note=81 velocity=80 time=1
note_on channel=0 note=81 velocity=0 time=119
note_on channel=0 note=82 velocity=80 time=1
note_on channel=0 note=74 velocity=80 time=0
note_on channel=0 note=82 velocity=0 time=239
note_on channel=0 note=74 velocity=0 time=0
note_on channel=0 note=79 velocity=80 time=1
note_on channel=0 note=79 velocity=0 time=239
note_on channel=0 note=82 velocity=80 time=1
note_on channel=0 note=82 velocity=0 time=239
note_on channel=0 note=81 velocity=80 time=1
note_on channel=0 note=72 velocity=80 time=0
note_on channel=0 note=81 velocity=0 time=239
note_on channel=0 note=72 velocity=0 time=0
note_on channel=0 note=77 velocity=80 time=1
note_on channel=0 note=77 velocity=0 time=239
note_on channel=0 note=81 velocity=80 time=1
note_on channel=0 note=81 velocity=0 time=239
note_on channel=0 note=82 velocity=80 time=1
note_on channel=0 note=74 velocity=80 time=0
note_on channel=0 note=82 velocity=0 time=479
note_on channel=0 note=74 velocity=0 time=0
note_on channel=0 note=75 velocity=80 time=1
note_on channel=0 note=67 velocity=80 time=0
note_on channel=0 note=75 velocity=0 time=479
note_on channel=0 note=67 velocity=0 time=0
note_on channel=0 note=75 velocity=80 time=1
note_on channel=0 note=75 velocity=0 time=239
note_on channel=0 note=74 velocity=80 time=1
note_on channel=0 note=74 velocity=0 time=239
note_on channel=0 note=79 velocity=80 time=1
note_on channel=0 note=79 velocity=0 time=239
note_on channel=0 note=82 velocity=80 time=1
note_on channel=0 note=74 velocity=80 time=0
note_on channel=0 note=82 velocity=0 time=239
note_on channel=0 note=74 velocity=0 time=0
note_on channel=0 note=79 velocity=80 time=1
note_on channel=0 note=79 velocity=0 time=239
note_on channel=0 note=81 velocity=80 time=1
note_on channel=0 note=81 velocity=0 time=119
note_on channel=0 note=82 velocity=80 time=1
note_on channel=0 note=82 velocity=0 time=119
note_on channel=0 note=84 velocity=80 time=1
note_on channel=0 note=77 velocity=80 time=0
note_on channel=0 note=84 velocity=0 time=479
note_on channel=0 note=77 velocity=0 time=0
note_on channel=0 note=79 velocity=80 time=1
note_on channel=0 note=79 velocity=0 time=239
note_on channel=0 note=81 velocity=80 time=1
note_on channel=0 note=72 velocity=80 time=0
note_on channel=0 note=81 velocity=0 time=239
note_on channel=0 note=72 velocity=0 time=0
note_on channel=0 note=77 velocity=80 time=1
note_on channel=0 note=77 velocity=0 time=239
note_on channel=0 note=81 velocity=80 time=1
note_on channel=0 note=81 velocity=0 time=239
note_on channel=0 note=82 velocity=80 time=1
note_on channel=0 note=74 velocity=80 time=0
note_on channel=0 note=82 velocity=0 time=239
note_on channel=0 note=74 velocity=0 time=0
note_on channel=0 note=77 velocity=80 time=1
note_on channel=0 note=77 velocity=0 time=239
note_on channel=0 note=79 velocity=80 time=1
note_on channel=0 note=70 velocity=80 time=0
note_on channel=0 note=79 velocity=0 time=479
note_on channel=0 note=70 velocity=0 time=0
note_on channel=0 note=79 velocity=80 time=1
note_on channel=0 note=70 velocity=80 time=0
note_on channel=0 note=79 velocity=0 time=479
note_on channel=0 note=70 velocity=0 time=0
note_on channel=0 note=74 velocity=80 time=1
note_on channel=0 note=74 velocity=0 time=239
note_on channel=0 note=77 velocity=80 time=1
note_on channel=0 note=69 velocity=80 time=0
note_on channel=0 note=77 velocity=0 time=479
note_on channel=0 note=69 velocity=0 time=0
note_on channel=0 note=74 velocity=80 time=1
note_on channel=0 note=74 velocity=0 time=119
note_on channel=0 note=77 velocity=80 time=1
note_on channel=0 note=77 velocity=0 time=119
note_on channel=0 note=79 velocity=80 time=1
note_on channel=0 note=70 velocity=80 time=0
note_on channel=0 note=79 velocity=0 time=479
note_on channel=0 note=70 velocity=0 time=0
note_on channel=0 note=74 velocity=80 time=1
note_on channel=0 note=74 velocity=0 time=239
note_on channel=0 note=77 velocity=80 time=1
note_on channel=0 note=69 velocity=80 time=0
note_on channel=0 note=77 velocity=0 time=479
note_on channel=0 note=69 velocity=0 time=0
note_on channel=0 note=74 velocity=80 time=1
note_on channel=0 note=74 velocity=0 time=239
note_on channel=0 note=79 velocity=80 time=1
note_on channel=0 note=70 velocity=80 time=0
note_on channel=0 note=79 velocity=0 time=479
note_on channel=0 note=70 velocity=0 time=0
note_on channel=0 note=75 velocity=80 time=1
note_on channel=0 note=67 velocity=80 time=0
note_on channel=0 note=75 velocity=0 time=479
note_on channel=0 note=67 velocity=0 time=0
note_on channel=0 note=75 velocity=80 time=1
note_on channel=0 note=75 velocity=0 time=239
note_on channel=0 note=74 velocity=80 time=1
note_on channel=0 note=74 velocity=0 time=239
note_on channel=0 note=77 velocity=80 time=1
note_on channel=0 note=77 velocity=0 time=239
note_on channel=0 note=81 velocity=80 time=1
note_on channel=0 note=72 velocity=80 time=0
note_on channel=0 note=81 velocity=0 time=479
note_on channel=0 note=72 velocity=0 time=0
note_on channel=0 note=77 velocity=80 time=1
note_on channel=0 note=77 velocity=0 time=119
note_on channel=0 note=79 velocity=80 time=1
note_on channel=0 note=79 velocity=0 time=119
note_on channel=0 note=82 velocity=80 time=1
note_on channel=0 note=74 velocity=80 time=0
note_on channel=0 note=82 velocity=0 time=479
note_on channel=0 note=74 velocity=0 time=0
note_on channel=0 note=77 velocity=80 time=1
note_on channel=0 note=77 velocity=0 time=239
note_on channel=0 note=81 velocity=80 time=1
note_on channel=0 note=72 velocity=80 time=0
note_on channel=0 note=81 velocity=0 time=239
note_on channel=0 note=72 velocity=0 time=0
note_on channel=0 note=69 velocity=80 time=1
note_on channel=0 note=69 velocity=0 time=239
note_on channel=0 note=70 velocity=80 time=1
note_on channel=0 note=70 velocity=0 time=239
note_on channel=0 note=74 velocity=80 time=1
note_on channel=0 note=69 velocity=80 time=0
note_on channel=0 note=74 velocity=0 time=239
note_on channel=0 note=69 velocity=0 time=0
note_on channel=0 note=77 velocity=80 time=1
note_on channel=0 note=77 velocity=0 time=239
note_on channel=0 note=79 velocity=80 time=1
note_on channel=0 note=70 velocity=80 time=0
note_on channel=0 note=79 velocity=0 time=479
note_on channel=0 note=70 velocity=0 time=0
note_on channel=0 note=79 velocity=80 time=1
note_on channel=0 note=70 velocity=80 time=0
note_on channel=0 note=79 velocity=0 time=479
note_on channel=0 note=70 velocity=0 time=0
note_on channel=0 note=79 velocity=80 time=1
note_on channel=0 note=79 velocity=0 time=239
note_on channel=0 note=81 velocity=80 time=1
note_on channel=0 note=72 velocity=80 time=0
note_on channel=0 note=81 velocity=0 time=239
note_on channel=0 note=72 velocity=0 time=0
note_on channel=0 note=77 velocity=80 time=1
note_on channel=0 note=77 velocity=0 time=239
note_on channel=0 note=79 velocity=80 time=1
note_on channel=0 note=79 velocity=0 time=119
note_on channel=0 note=81 velocity=80 time=1
note_on channel=0 note=81 velocity=0 time=119
note_on channel=0 note=82 velocity=80 time=1
note_on channel=0 note=74 velocity=80 time=0
note_on channel=0 note=82 velocity=0 time=239
note_on channel=0 note=74 velocity=0 time=0
note_on channel=0 note=79 velocity=80 time=1
note_on channel=0 note=79 velocity=0 time=239
note_on channel=0 note=82 velocity=80 time=1
note_on channel=0 note=82 velocity=0 time=239
note_on channel=0 note=81 velocity=80 time=1
note_on channel=0 note=72 velocity=80 time=0
note_on channel=0 note=81 velocity=0 time=239
note_on channel=0 note=72 velocity=0 time=0
note_on channel=0 note=77 velocity=80 time=1
note_on channel=0 note=77 velocity=0 time=239
note_on channel=0 note=81 velocity=80 time=1
note_on channel=0 note=81 velocity=0 time=239
note_on channel=0 note=82 velocity=80 time=1
note_on channel=0 note=74 velocity=80 time=0
note_on channel=0 note=82 velocity=0 time=479
note_on channel=0 note=74 velocity=0 time=0
note_on channel=0 note=75 velocity=80 time=1
note_on channel=0 note=67 velocity=80 time=0
note_on channel=0 note=75 velocity=0 time=479
note_on channel=0 note=67 velocity=0 time=0
note_on channel=0 note=75 velocity=80 time=1
note_on channel=0 note=75 velocity=0 time=239
note_on channel=0 note=74 velocity=80 time=1
note_on channel=0 note=74 velocity=0 time=239
note_on channel=0 note=79 velocity=80 time=1
note_on channel=0 note=79 velocity=0 time=239
note_on channel=0 note=82 velocity=80 time=1
note_on channel=0 note=74 velocity=80 time=0
note_on channel=0 note=82 velocity=0 time=239
note_on channel=0 note=74 velocity=0 time=0
note_on channel=0 note=79 velocity=80 time=1
note_on channel=0 note=79 velocity=0 time=239
note_on channel=0 note=81 velocity=80 time=1
note_on channel=0 note=81 velocity=0 time=119
note_on channel=0 note=82 velocity=80 time=1
note_on channel=0 note=82 velocity=0 time=119
note_on channel=0 note=84 velocity=80 time=1
note_on channel=0 note=77 velocity=80 time=0
note_on channel=0 note=84 velocity=0 time=479
note_on channel=0 note=77 velocity=0 time=0
note_on channel=0 note=79 velocity=80 time=1
note_on channel=0 note=79 velocity=0 time=239
note_on channel=0 note=81 velocity=80 time=1
note_on channel=0 note=72 velocity=80 time=0
note_on channel=0 note=81 velocity=0 time=239
note_on channel=0 note=72 velocity=0 time=0
note_on channel=0 note=77 velocity=80 time=1
note_on channel=0 note=77 velocity=0 time=239
note_on channel=0 note=81 velocity=80 time=1
note_on channel=0 note=81 velocity=0 time=239
note_on channel=0 note=82 velocity=80 time=1
note_on channel=0 note=74 velocity=80 time=0
note_on channel=0 note=82 velocity=0 time=239
note_on channel=0 note=74 velocity=0 time=0
note_on channel=0 note=77 velocity=80 time=1
note_on channel=0 note=77 velocity=0 time=239
note_on channel=0 note=79 velocity=80 time=1
note_on channel=0 note=70 velocity=80 time=0
note_on channel=0 note=79 velocity=0 time=479
note_on channel=0 note=70 velocity=0 time=0
note_on channel=0 note=79 velocity=80 time=1
note_on channel=0 note=70 velocity=80 time=0
note_on channel=0 note=79 velocity=0 time=479
note_on channel=0 note=70 velocity=0 time=0
note_on channel=0 note=74 velocity=80 time=1
note_on channel=0 note=74 velocity=0 time=239
note_on channel=0 note=77 velocity=80 time=1
note_on channel=0 note=69 velocity=80 time=0
note_on channel=0 note=77 velocity=0 time=479
note_on channel=0 note=69 velocity=0 time=0
note_on channel=0 note=74 velocity=80 time=1
note_on channel=0 note=74 velocity=0 time=119
note_on channel=0 note=77 velocity=80 time=1
note_on channel=0 note=77 velocity=0 time=119
note_on channel=0 note=79 velocity=80 time=1
note_on channel=0 note=70 velocity=80 time=0
note_on channel=0 note=79 velocity=0 time=479
note_on channel=0 note=70 velocity=0 time=0
note_on channel=0 note=74 velocity=80 time=1
note_on channel=0 note=74 velocity=0 time=239
note_on channel=0 note=77 velocity=80 time=1
note_on channel=0 note=69 velocity=80 time=0
note_on channel=0 note=77 velocity=0 time=479
note_on channel=0 note=69 velocity=0 time=0
note_on channel=0 note=74 velocity=80 time=1
note_on channel=0 note=74 velocity=0 time=239
note_on channel=0 note=79 velocity=80 time=1
note_on channel=0 note=70 velocity=80 time=0
note_on channel=0 note=79 velocity=0 time=479
note_on channel=0 note=70 velocity=0 time=0
note_on channel=0 note=75 velocity=80 time=1
note_on channel=0 note=67 velocity=80 time=0
note_on channel=0 note=75 velocity=0 time=479
note_on channel=0 note=67 velocity=0 time=0
note_on channel=0 note=75 velocity=80 time=1
note_on channel=0 note=75 velocity=0 time=239
note_on channel=0 note=74 velocity=80 time=1
note_on channel=0 note=74 velocity=0 time=239
note_on channel=0 note=77 velocity=80 time=1
note_on channel=0 note=77 velocity=0 time=239
note_on channel=0 note=81 velocity=80 time=1
note_on channel=0 note=72 velocity=80 time=0
note_on channel=0 note=81 velocity=0 time=479
note_on channel=0 note=72 velocity=0 time=0
note_on channel=0 note=77 velocity=80 time=1
note_on channel=0 note=77 velocity=0 time=119
note_on channel=0 note=79 velocity=80 time=1
note_on channel=0 note=79 velocity=0 time=119
note_on channel=0 note=82 velocity=80 time=1
note_on channel=0 note=74 velocity=80 time=0
note_on channel=0 note=82 velocity=0 time=479
note_on channel=0 note=74 velocity=0 time=0
note_on channel=0 note=77 velocity=80 time=1
note_on channel=0 note=77 velocity=0 time=239
note_on channel=0 note=81 velocity=80 time=1
note_on channel=0 note=72 velocity=80 time=0
note_on channel=0 note=81 velocity=0 time=239
note_on channel=0 note=72 velocity=0 time=0
note_on channel=0 note=69 velocity=80 time=1
note_on channel=0 note=69 velocity=0 time=239
note_on channel=0 note=70 velocity=80 time=1
note_on channel=0 note=70 velocity=0 time=239
note_on channel=0 note=74 velocity=80 time=1
note_on channel=0 note=69 velocity=80 time=0
note_on channel=0 note=74 velocity=0 time=239
note_on channel=0 note=69 velocity=0 time=0
note_on channel=0 note=77 velocity=80 time=1
note_on channel=0 note=77 velocity=0 time=239
note_on channel=0 note=79 velocity=80 time=1
note_on channel=0 note=70 velocity=80 time=0
note_on channel=0 note=79 velocity=0 time=479
note_on channel=0 note=70 velocity=0 time=0
note_on channel=0 note=79 velocity=80 time=1
note_on channel=0 note=70 velocity=80 time=0
note_on channel=0 note=79 velocity=0 time=479
note_on channel=0 note=70 velocity=0 time=0
note_on channel=0 note=79 velocity=80 time=1
note_on channel=0 note=79 velocity=0 time=239
note_on channel=0 note=81 velocity=80 time=1
note_on channel=0 note=72 velocity=80 time=0
note_on channel=0 note=81 velocity=0 time=239
note_on channel=0 note=72 velocity=0 time=0
note_on channel=0 note=77 velocity=80 time=1
note_on channel=0 note=77 velocity=0 time=239
note_on channel=0 note=79 velocity=80 time=1
note_on channel=0 note=79 velocity=0 time=119
note_on channel=0 note=81 velocity=80 time=1
note_on channel=0 note=81 velocity=0 time=119
note_on channel=0 note=82 velocity=80 time=1
note_on channel=0 note=74 velocity=80 time=0
note_on channel=0 note=82 velocity=0 time=239
note_on channel=0 note=74 velocity=0 time=0
note_on channel=0 note=79 velocity=80 time=1
note_on channel=0 note=79 velocity=0 time=239
note_on channel=0 note=82 velocity=80 time=1
note_on channel=0 note=82 velocity=0 time=239
note_on channel=0 note=81 velocity=80 time=1
note_on channel=0 note=72 velocity=80 time=0
note_on channel=0 note=81 velocity=0 time=239
note_on channel=0 note=72 velocity=0 time=0
note_on channel=0 note=77 velocity=80 time=1
note_on channel=0 note=77 velocity=0 time=239
note_on channel=0 note=81 velocity=80 time=1
note_on channel=0 note=81 velocity=0 time=239
note_on channel=0 note=82 velocity=80 time=1
note_on channel=0 note=74 velocity=80 time=0
note_on channel=0 note=82 velocity=0 time=479
note_on channel=0 note=74 velocity=0 time=0
note_on channel=0 note=75 velocity=80 time=1
note_on channel=0 note=67 velocity=80 time=0
note_on channel=0 note=75 velocity=0 time=479
note_on channel=0 note=67 velocity=0 time=0
note_on channel=0 note=75 velocity=80 time=1
note_on channel=0 note=75 velocity=0 time=239
note_on channel=0 note=74 velocity=80 time=1
note_on channel=0 note=74 velocity=0 time=239
note_on channel=0 note=79 velocity=80 time=1
note_on channel=0 note=79 velocity=0 time=239
note_on channel=0 note=82 velocity=80 time=1
note_on channel=0 note=74 velocity=80 time=0
note_on channel=0 note=82 velocity=0 time=239
note_on channel=0 note=74 velocity=0 time=0
note_on channel=0 note=79 velocity=80 time=1
note_on channel=0 note=79 velocity=0 time=239
note_on channel=0 note=81 velocity=80 time=1
note_on channel=0 note=81 velocity=0 time=119
note_on channel=0 note=82 velocity=80 time=1
note_on channel=0 note=82 velocity=0 time=119
note_on channel=0 note=84 velocity=80 time=1
note_on channel=0 note=77 velocity=80 time=0
note_on channel=0 note=84 velocity=0 time=479
note_on channel=0 note=77 velocity=0 time=0
note_on channel=0 note=79 velocity=80 time=1
note_on channel=0 note=79 velocity=0 time=239
note_on channel=0 note=81 velocity=80 time=1
note_on channel=0 note=72 velocity=80 time=0
note_on channel=0 note=81 velocity=0 time=239
note_on channel=0 note=72 velocity=0 time=0
note_on channel=0 note=77 velocity=80 time=1
note_on channel=0 note=77 velocity=0 time=239
note_on channel=0 note=81 velocity=80 time=1
note_on channel=0 note=81 velocity=0 time=239
note_on channel=0 note=82 velocity=80 time=1
note_on channel=0 note=74 velocity=80 time=0
note_on channel=0 note=82 velocity=0 time=239
note_on channel=0 note=74 velocity=0 time=0
note_on channel=0 note=77 velocity=80 time=1
note_on channel=0 note=77 velocity=0 time=239
note_on channel=0 note=79 velocity=80 time=1
note_on channel=0 note=70 velocity=80 time=0
note_on channel=0 note=79 velocity=0 time=479
note_on channel=0 note=70 velocity=0 time=0
note_on channel=0 note=79 velocity=80 time=1
note_on channel=0 note=70 velocity=80 time=0
note_on channel=0 note=79 velocity=0 time=479
note_on channel=0 note=70 velocity=0 time=0
note_on channel=0 note=74 velocity=80 time=1
note_on channel=0 note=74 velocity=0 time=239
note_on channel=0 note=77 velocity=80 time=1
note_on channel=0 note=69 velocity=80 time=0
note_on channel=0 note=77 velocity=0 time=479
note_on channel=0 note=69 velocity=0 time=0
note_on channel=0 note=74 velocity=80 time=1
note_on channel=0 note=74 velocity=0 time=119
note_on channel=0 note=77 velocity=80 time=1
note_on channel=0 note=77 velocity=0 time=119
note_on channel=0 note=79 velocity=80 time=1
note_on channel=0 note=70 velocity=80 time=0
note_on channel=0 note=79 velocity=0 time=479
note_on channel=0 note=70 velocity=0 time=0
note_on channel=0 note=74 velocity=80 time=1
note_on channel=0 note=74 velocity=0 time=239
note_on channel=0 note=77 velocity=80 time=1
note_on channel=0 note=69 velocity=80 time=0
note_on channel=0 note=77 velocity=0 time=479
note_on channel=0 note=69 velocity=0 time=0
note_on channel=0 note=74 velocity=80 time=1
note_on channel=0 note=74 velocity=0 time=239
note_on channel=0 note=79 velocity=80 time=1
note_on channel=0 note=70 velocity=80 time=0
note_on channel=0 note=79 velocity=0 time=479
note_on channel=0 note=70 velocity=0 time=0
note_on channel=0 note=75 velocity=80 time=1
note_on channel=0 note=67 velocity=80 time=0
note_on channel=0 note=75 velocity=0 time=479
note_on channel=0 note=67 velocity=0 time=0
note_on channel=0 note=75 velocity=80 time=1
note_on channel=0 note=75 velocity=0 time=239
note_on channel=0 note=74 velocity=80 time=1
note_on channel=0 note=74 velocity=0 time=239
note_on channel=0 note=77 velocity=80 time=1
note_on channel=0 note=77 velocity=0 time=239
note_on channel=0 note=81 velocity=80 time=1
note_on channel=0 note=72 velocity=80 time=0
note_on channel=0 note=81 velocity=0 time=479
note_on channel=0 note=72 velocity=0 time=0
note_on channel=0 note=77 velocity=80 time=1
note_on channel=0 note=77 velocity=0 time=119
note_on channel=0 note=79 velocity=80 time=1
note_on channel=0 note=79 velocity=0 time=119
note_on channel=0 note=82 velocity=80 time=1
note_on channel=0 note=74 velocity=80 time=0
note_on channel=0 note=82 velocity=0 time=479
note_on channel=0 note=74 velocity=0 time=0
note_on channel=0 note=77 velocity=80 time=1
note_on channel=0 note=77 velocity=0 time=239
note_on channel=0 note=81 velocity=80 time=1
note_on channel=0 note=72 velocity=80 time=0
note_on channel=0 note=81 velocity=0 time=239
note_on channel=0 note=72 velocity=0 time=0
note_on channel=0 note=69 velocity=80 time=1
note_on channel=0 note=69 velocity=0 time=239
note_on channel=0 note=70 velocity=80 time=1
note_on channel=0 note=70 velocity=0 time=239
note_on channel=0 note=74 velocity=80 time=1
note_on channel=0 note=69 velocity=80 time=0
note_on channel=0 note=74 velocity=0 time=239
note_on channel=0 note=69 velocity=0 time=0
note_on channel=0 note=77 velocity=80 time=1
note_on channel=0 note=77 velocity=0 time=239
note_on channel=0 note=79 velocity=80 time=1
note_on channel=0 note=70 velocity=80 time=0
note_on channel=0 note=79 velocity=0 time=479
note_on channel=0 note=70 velocity=0 time=0
note_on channel=0 note=79 velocity=80 time=1
note_on channel=0 note=70 velocity=80 time=0
note_on channel=0 note=79 velocity=0 time=479
note_on channel=0 note=70 velocity=0 time=0
note_on channel=0 note=79 velocity=80 time=1
note_on channel=0 note=79 velocity=0 time=239
note_on channel=0 note=81 velocity=80 time=1
note_on channel=0 note=72 velocity=80 time=0
note_on channel=0 note=81 velocity=0 time=239
note_on channel=0 note=72 velocity=0 time=0
note_on channel=0 note=77 velocity=80 time=1
note_on channel=0 note=77 velocity=0 time=239
note_on channel=0 note=79 velocity=80 time=1
note_on channel=0 note=79 velocity=0 time=119
note_on channel=0 note=81 velocity=80 time=1
note_on channel=0 note=81 velocity=0 time=119
note_on channel=0 note=82 velocity=80 time=1
note_on channel=0 note=74 velocity=80 time=0
note_on channel=0 note=82 velocity=0 time=239
note_on channel=0 note=74 velocity=0 time=0
note_on channel=0 note=79 velocity=80 time=1
note_on channel=0 note=79 velocity=0 time=239
note_on channel=0 note=82 velocity=80 time=1
note_on channel=0 note=82 velocity=0 time=239
note_on channel=0 note=81 velocity=80 time=1
note_on channel=0 note=72 velocity=80 time=0
note_on channel=0 note=81 velocity=0 time=239
note_on channel=0 note=72 velocity=0 time=0
note_on channel=0 note=77 velocity=80 time=1
note_on channel=0 note=77 velocity=0 time=239
note_on channel=0 note=81 velocity=80 time=1
note_on channel=0 note=81 velocity=0 time=239
note_on channel=0 note=82 velocity=80 time=1
note_on channel=0 note=74 velocity=80 time=0
note_on channel=0 note=82 velocity=0 time=479
note_on channel=0 note=74 velocity=0 time=0
note_on channel=0 note=75 velocity=80 time=1
note_on channel=0 note=67 velocity=80 time=0
note_on channel=0 note=75 velocity=0 time=479
note_on channel=0 note=67 velocity=0 time=0
note_on channel=0 note=75 velocity=80 time=1
note_on channel=0 note=75 velocity=0 time=239
note_on channel=0 note=74 velocity=80 time=1
note_on channel=0 note=74 velocity=0 time=239
note_on channel=0 note=79 velocity=80 time=1
note_on channel=0 note=79 velocity=0 time=239
note_on channel=0 note=82 velocity=80 time=1
note_on channel=0 note=74 velocity=80 time=0
note_on channel=0 note=82 velocity=0 time=239
note_on channel=0 note=74 velocity=0 time=0
note_on channel=0 note=79 velocity=80 time=1
note_on channel=0 note=79 velocity=0 time=239
note_on channel=0 note=81 velocity=80 time=1
note_on channel=0 note=81 velocity=0 time=119
note_on channel=0 note=82 velocity=80 time=1
note_on channel=0 note=82 velocity=0 time=119
note_on channel=0 note=84 velocity=80 time=1
note_on channel=0 note=77 velocity=80 time=0
note_on channel=0 note=84 velocity=0 time=479
note_on channel=0 note=77 velocity=0 time=0
note_on channel=0 note=79 velocity=80 time=1
note_on channel=0 note=79 velocity=0 time=239
note_on channel=0 note=81 velocity=80 time=1
note_on channel=0 note=72 velocity=80 time=0
note_on channel=0 note=81 velocity=0 time=239
note_on channel=0 note=72 velocity=0 time=0
note_on channel=0 note=77 velocity=80 time=1
note_on channel=0 note=77 velocity=0 time=239
note_on channel=0 note=81 velocity=80 time=1
note_on channel=0 note=81 velocity=0 time=239
note_on channel=0 note=82 velocity=80 time=1
note_on channel=0 note=74 velocity=80 time=0
note_on channel=0 note=82 velocity=0 time=239
note_on channel=0 note=74 velocity=0 time=0
note_on channel=0 note=77 velocity=80 time=1
note_on channel=0 note=77 velocity=0 time=239
note_on channel=0 note=82 velocity=80 time=1
note_on channel=0 note=79 velocity=80 time=0
note_on channel=0 note=74 velocity=80 time=0
note_on channel=0 note=82 velocity=0 time=479
note_on channel=0 note=79 velocity=0 time=0
note_on channel=0 note=74 velocity=0 time=0
note_on channel=0 note=82 velocity=80 time=1
note_on channel=0 note=79 velocity=80 time=0
note_on channel=0 note=74 velocity=80 time=0
note_on channel=0 note=82 velocity=0 time=359
note_on channel=0 note=79 velocity=0 time=0
note_on channel=0 note=74 velocity=0 time=0
note_on channel=0 note=81 velocity=80 time=361
note_on channel=0 note=77 velocity=80 time=0
note_on channel=0 note=72 velocity=80 time=0
note_on channel=0 note=81 velocity=0 time=359
note_on channel=0 note=77 velocity=0 time=0
note_on channel=0 note=72 velocity=0 time=0
note_on channel=0 note=79 velocity=80 time=361
note_on channel=0 note=75 velocity=80 time=0
note_on channel=0 note=70 velocity=80 time=0
note_on channel=0 note=79 velocity=0 time=359
note_on channel=0 note=75 velocity=0 time=0
note_on channel=0 note=70 velocity=0 time=0
note_on channel=0 note=79 velocity=80 time=361
note_on channel=0 note=75 velocity=80 time=0
note_on channel=0 note=70 velocity=80 time=0
note_on channel=0 note=79 velocity=0 time=719
note_on channel=0 note=75 velocity=0 time=0
note_on channel=0 note=70 velocity=0 time=0
note_on channel=0 note=81 velocity=80 time=1
note_on channel=0 note=77 velocity=80 time=0
note_on channel=0 note=72 velocity=80 time=0
note_on channel=0 note=81 velocity=0 time=479
note_on channel=0 note=77 velocity=0 time=0
note_on channel=0 note=72 velocity=0 time=0
note_on channel=0 note=82 velocity=80 time=1
note_on channel=0 note=79 velocity=80 time=0
note_on channel=0 note=74 velocity=80 time=0
note_on channel=0 note=82 velocity=0 time=479
note_on channel=0 note=79 velocity=0 time=0
note_on channel=0 note=74 velocity=0 time=0
note_on channel=0 note=82 velocity=80 time=1
note_on channel=0 note=79 velocity=80 time=0
note_on channel=0 note=74 velocity=80 time=0
note_on channel=0 note=82 velocity=0 time=719
note_on channel=0 note=79 velocity=0 time=0
note_on channel=0 note=74 velocity=0 time=0
note_on channel=0 note=81 velocity=80 time=1
note_on channel=0 note=77 velocity=80 time=0
note_on channel=0 note=72 velocity=80 time=0
note_on channel=0 note=81 velocity=0 time=719
note_on channel=0 note=77 velocity=0 time=0
note_on channel=0 note=72 velocity=0 time=0
note_on channel=0 note=79 velocity=80 time=1
note_on channel=0 note=75 velocity=80 time=0
note_on channel=0 note=70 velocity=80 time=0
note_on channel=0 note=79 velocity=0 time=719
note_on channel=0 note=75 velocity=0 time=0
note_on channel=0 note=70 velocity=0 time=0
note_on channel=0 note=79 velocity=80 time=1
note_on channel=0 note=75 velocity=80 time=0
note_on channel=0 note=70 velocity=80 time=0
note_on channel=0 note=79 velocity=0 time=719
note_on channel=0 note=75 velocity=0 time=0
note_on channel=0 note=70 velocity=0 time=0
note_on channel=0 note=81 velocity=80 time=1
note_on channel=0 note=77 velocity=80 time=0
note_on channel=0 note=72 velocity=80 time=0
note_on channel=0 note=81 velocity=0 time=479
note_on channel=0 note=77 velocity=0 time=0
note_on channel=0 note=72 velocity=0 time=0
note_on channel=0 note=82 velocity=80 time=1
note_on channel=0 note=79 velocity=80 time=0
note_on channel=0 note=74 velocity=80 time=0
note_on channel=0 note=82 velocity=0 time=479
note_on channel=0 note=79 velocity=0 time=0
note_on channel=0 note=74 velocity=0 time=0
note_on channel=0 note=82 velocity=80 time=1
note_on channel=0 note=79 velocity=80 time=0
note_on channel=0 note=74 velocity=80 time=0
note_on channel=0 note=82 velocity=0 time=719
note_on channel=0 note=79 velocity=0 time=0
note_on channel=0 note=74 velocity=0 time=0
note_on channel=0 note=85 velocity=80 time=1
note_on channel=0 note=81 velocity=80 time=0
note_on channel=0 note=76 velocity=80 time=0
note_on channel=0 note=85 velocity=0 time=719
note_on channel=0 note=81 velocity=0 time=0
note_on channel=0 note=76 velocity=0 time=0
note_on channel=0 note=86 velocity=80 time=1
note_on channel=0 note=83 velocity=80 time=0
note_on channel=0 note=86 velocity=0 time=239
note_on channel=0 note=83 velocity=0 time=0
note_on channel=0 note=85 velocity=80 time=1
note_on channel=0 note=81 velocity=80 time=0
note_on channel=0 note=85 velocity=0 time=239
note_on channel=0 note=81 velocity=0 time=0
note_on channel=0 note=86 velocity=80 time=1
note_on channel=0 note=83 velocity=80 time=0
note_on channel=0 note=86 velocity=0 time=239
note_on channel=0 note=83 velocity=0 time=0
note_on channel=0 note=85 velocity=80 time=1
note_on channel=0 note=81 velocity=80 time=0
note_on channel=0 note=85 velocity=0 time=239
note_on channel=0 note=81 velocity=0 time=0
note_on channel=0 note=83 velocity=80 time=1
note_on channel=0 note=79 velocity=80 time=0
note_on channel=0 note=83 velocity=0 time=239
note_on channel=0 note=79 velocity=0 time=0
note_on channel=0 note=85 velocity=80 time=1
note_on channel=0 note=81 velocity=80 time=0
note_on channel=0 note=85 velocity=0 time=239
note_on channel=0 note=81 velocity=0 time=0
note_on channel=0 note=86 velocity=80 time=1
note_on channel=0 note=83 velocity=80 time=0
note_on channel=0 note=86 velocity=0 time=239
note_on channel=0 note=83 velocity=0 time=0
note_on channel=0 note=85 velocity=80 time=1
note_on channel=0 note=81 velocity=80 time=0
note_on channel=0 note=85 velocity=0 time=239
note_on channel=0 note=81 velocity=0 time=0
note_on channel=0 note=84 velocity=80 time=1
note_on channel=0 note=80 velocity=80 time=0
note_on channel=0 note=75 velocity=80 time=0
note_on channel=0 note=84 velocity=0 time=479
note_on channel=0 note=80 velocity=0 time=0
note_on channel=0 note=75 velocity=0 time=0
note_on channel=0 note=84 velocity=80 time=1
note_on channel=0 note=80 velocity=80 time=0
note_on channel=0 note=75 velocity=80 time=0
note_on channel=0 note=84 velocity=0 time=719
note_on channel=0 note=80 velocity=0 time=0
note_on channel=0 note=75 velocity=0 time=0
note_on channel=0 note=86 velocity=80 time=1
note_on channel=0 note=82 velocity=80 time=0
note_on channel=0 note=77 velocity=80 time=0
note_on channel=0 note=86 velocity=0 time=719
note_on channel=0 note=82 velocity=0 time=0
note_on channel=0 note=77 velocity=0 time=0
note_on channel=0 note=86 velocity=80 time=1
note_on channel=0 note=83 velocity=80 time=0
note_on channel=0 note=79 velocity=80 time=0
note_on channel=0 note=86 velocity=0 time=959
note_on channel=0 note=83 velocity=0 time=0
note_on channel=0 note=79 velocity=0 time=0
note_on channel=0 note=91 velocity=80 time=1
note_on channel=0 note=86 velocity=80 time=0
note_on channel=0 note=83 velocity=80 time=0
note_on channel=0 note=91 velocity=0 time=959
note_on channel=0 note=86 velocity=0 time=0
note_on channel=0 note=83 velocity=0 time=0
note_on channel=0 note=75 velocity=80 time=1
note_on channel=0 note=72 velocity=80 time=0
note_on channel=0 note=67 velocity=80 time=0
note_on channel=0 note=75 velocity=0 time=1919
note_on channel=0 note=72 velocity=0 time=0
note_on channel=0 note=67 velocity=0 time=0
note_on channel=0 note=79 velocity=80 time=1
note_on channel=0 note=75 velocity=80 time=0
note_on channel=0 note=70 velocity=80 time=0
note_on channel=0 note=79 velocity=0 time=1919
note_on channel=0 note=75 velocity=0 time=0
note_on channel=0 note=70 velocity=0 time=0
note_on channel=0 note=77 velocity=80 time=1
note_on channel=0 note=72 velocity=80 time=0
note_on channel=0 note=69 velocity=80 time=0
note_on channel=0 note=77 velocity=0 time=479
note_on channel=0 note=72 velocity=0 time=0
note_on channel=0 note=69 velocity=0 time=0
note_on channel=0 note=81 velocity=80 time=1
note_on channel=0 note=77 velocity=80 time=0
note_on channel=0 note=72 velocity=80 time=0
note_on channel=0 note=81 velocity=0 time=479
note_on channel=0 note=77 velocity=0 time=0
note_on channel=0 note=72 velocity=0 time=0
note_on channel=0 note=83 velocity=80 time=1
note_on channel=0 note=79 velocity=80 time=0
note_on channel=0 note=83 velocity=0 time=239
note_on channel=0 note=79 velocity=0 time=0
note_on channel=0 note=84 velocity=80 time=1
note_on channel=0 note=81 velocity=80 time=0
note_on channel=0 note=84 velocity=0 time=239
note_on channel=0 note=81 velocity=0 time=0
note_on channel=0 note=84 velocity=80 time=241
note_on channel=0 note=80 velocity=80 time=0
note_on channel=0 note=75 velocity=80 time=0
note_on channel=0 note=84 velocity=0 time=1199
note_on channel=0 note=80 velocity=0 time=0
note_on channel=0 note=75 velocity=0 time=0
note_on channel=0 note=83 velocity=80 time=1
note_on channel=0 note=79 velocity=80 time=0
note_on channel=0 note=74 velocity=80 time=0
note_on channel=0 note=83 velocity=0 time=959
note_on channel=0 note=79 velocity=0 time=0
note_on channel=0 note=74 velocity=0 time=0
note_on channel=0 note=84 velocity=80 time=1
note_on channel=0 note=79 velocity=80 time=0
note_on channel=0 note=75 velocity=80 time=0
note_on channel=0 note=84 velocity=0 time=1919
note_on channel=0 note=79 velocity=0 time=0
note_on channel=0 note=75 velocity=0 time=0
note_on channel=0 note=79 velocity=80 time=1
note_on channel=0 note=75 velocity=80 time=0
note_on channel=0 note=70 velocity=80 time=0
note_on channel=0 note=79 velocity=0 time=1439
note_on channel=0 note=75 velocity=0 time=0
note_on channel=0 note=70 velocity=0 time=0
note_on channel=0 note=79 velocity=80 time=1
note_on channel=0 note=76 velocity=80 time=0
note_on channel=0 note=79 velocity=0 time=479
note_on channel=0 note=76 velocity=0 time=0
note_on channel=0 note=77 velocity=80 time=1
note_on channel=0 note=72 velocity=80 time=0
note_on channel=0 note=69 velocity=80 time=0
note_on channel=0 note=77 velocity=0 time=719
note_on channel=0 note=72 velocity=0 time=0
note_on channel=0 note=69 velocity=0 time=0
note_on channel=0 note=72 velocity=80 time=1
note_on channel=0 note=69 velocity=80 time=0
note_on channel=0 note=65 velocity=80 time=0
note_on channel=0 note=72 velocity=0 time=719
note_on channel=0 note=69 velocity=0 time=0
note_on channel=0 note=65 velocity=0 time=0
note_on channel=0 note=77 velocity=80 time=1
note_on channel=0 note=72 velocity=80 time=0
note_on channel=0 note=69 velocity=80 time=0
note_on channel=0 note=77 velocity=0 time=479
note_on channel=0 note=72 velocity=0 time=0
note_on channel=0 note=69 velocity=0 time=0
note_on channel=0 note=75 velocity=80 time=1
note_on channel=0 note=72 velocity=80 time=0
note_on channel=0 note=67 velocity=80 time=0
note_on channel=0 note=75 velocity=0 time=959
note_on channel=0 note=72 velocity=0 time=0
note_on channel=0 note=67 velocity=0 time=0
note_on channel=0 note=74 velocity=80 time=1
note_on channel=0 note=70 velocity=80 time=0
note_on channel=0 note=65 velocity=80 time=0
note_on channel=0 note=74 velocity=0 time=959
note_on channel=0 note=70 velocity=0 time=0
note_on channel=0 note=65 velocity=0 time=0
note_on channel=0 note=75 velocity=80 time=1
note_on channel=0 note=72 velocity=80 time=0
note_on channel=0 note=67 velocity=80 time=0
note_on channel=0 note=75 velocity=0 time=1919
note_on channel=0 note=72 velocity=0 time=0
note_on channel=0 note=67 velocity=0 time=0
note_on channel=0 note=79 velocity=80 time=1
note_on channel=0 note=75 velocity=80 time=0
note_on channel=0 note=70 velocity=80 time=0
note_on channel=0 note=79 velocity=0 time=1919
note_on channel=0 note=75 velocity=0 time=0
note_on channel=0 note=70 velocity=0 time=0
note_on channel=0 note=77 velocity=80 time=1
note_on channel=0 note=72 velocity=80 time=0
note_on channel=0 note=69 velocity=80 time=0
note_on channel=0 note=77 velocity=0 time=479
note_on channel=0 note=72 velocity=0 time=0
note_on channel=0 note=69 velocity=0 time=0
note_on channel=0 note=81 velocity=80 time=1
note_on channel=0 note=77 velocity=80 time=0
note_on channel=0 note=72 velocity=80 time=0
note_on channel=0 note=81 velocity=0 time=479
note_on channel=0 note=77 velocity=0 time=0
note_on channel=0 note=72 velocity=0 time=0
note_on channel=0 note=83 velocity=80 time=1
note_on channel=0 note=79 velocity=80 time=0
note_on channel=0 note=83 velocity=0 time=239
note_on channel=0 note=79 velocity=0 time=0
note_on channel=0 note=84 velocity=80 time=1
note_on channel=0 note=81 velocity=80 time=0
note_on channel=0 note=84 velocity=0 time=239
note_on channel=0 note=81 velocity=0 time=0
note_on channel=0 note=84 velocity=80 time=241
note_on channel=0 note=80 velocity=80 time=0
note_on channel=0 note=75 velocity=80 time=0
note_on channel=0 note=84 velocity=0 time=1199
note_on channel=0 note=80 velocity=0 time=0
note_on channel=0 note=75 velocity=0 time=0
note_on channel=0 note=83 velocity=80 time=1
note_on channel=0 note=79 velocity=80 time=0
note_on channel=0 note=74 velocity=80 time=0
note_on channel=0 note=83 velocity=0 time=959
note_on channel=0 note=79 velocity=0 time=0
note_on channel=0 note=74 velocity=0 time=0
note_on channel=0 note=84 velocity=80 time=1
note_on channel=0 note=79 velocity=80 time=0
note_on channel=0 note=75 velocity=80 time=0
note_on channel=0 note=84 velocity=0 time=1919
note_on channel=0 note=79 velocity=0 time=0
note_on channel=0 note=75 velocity=0 time=0
note_on channel=0 note=79 velocity=80 time=1
note_on channel=0 note=75 velocity=80 time=0
note_on channel=0 note=70 velocity=80 time=0
note_on channel=0 note=79 velocity=0 time=1439
note_on channel=0 note=75 velocity=0 time=0
note_on channel=0 note=70 velocity=0 time=0
note_on channel=0 note=79 velocity=80 time=1
note_on channel=0 note=76 velocity=80 time=0
note_on channel=0 note=79 velocity=0 time=479
note_on channel=0 note=76 velocity=0 time=0
note_on channel=0 note=77 velocity=80 time=1
note_on channel=0 note=72 velocity=80 time=0
note_on channel=0 note=69 velocity=80 time=0
note_on channel=0 note=77 velocity=0 time=719
note_on channel=0 note=72 velocity=0 time=0
note_on channel=0 note=69 velocity=0 time=0
note_on channel=0 note=72 velocity=80 time=1
note_on channel=0 note=69 velocity=80 time=0
note_on channel=0 note=65 velocity=80 time=0
note_on channel=0 note=72 velocity=0 time=719
note_on channel=0 note=69 velocity=0 time=0
note_on channel=0 note=65 velocity=0 time=0
note_on channel=0 note=77 velocity=80 time=1
note_on channel=0 note=72 velocity=80 time=0
note_on channel=0 note=69 velocity=80 time=0
note_on channel=0 note=77 velocity=0 time=479
note_on channel=0 note=72 velocity=0 time=0
note_on channel=0 note=69 velocity=0 time=0
note_on channel=0 note=75 velocity=80 time=1
note_on channel=0 note=72 velocity=80 time=0
note_on channel=0 note=67 velocity=80 time=0
note_on channel=0 note=75 velocity=0 time=959
note_on channel=0 note=72 velocity=0 time=0
note_on channel=0 note=67 velocity=0 time=0
note_on channel=0 note=74 velocity=80 time=1
note_on channel=0 note=70 velocity=80 time=0
note_on channel=0 note=65 velocity=80 time=0
note_on channel=0 note=74 velocity=0 time=959
note_on channel=0 note=70 velocity=0 time=0
note_on channel=0 note=65 velocity=0 time=0
note_on channel=0 note=72 velocity=80 time=1
note_on channel=0 note=67 velocity=80 time=0
note_on channel=0 note=63 velocity=80 time=0
note_on channel=0 note=72 velocity=0 time=1919
note_on channel=0 note=67 velocity=0 time=0
note_on channel=0 note=63 velocity=0 time=0
MetaMessage('end_of_track', time=1)
