Track 1: 
MetaMessage('key_signature', key='C', time=0)
note_on channel=0 note=48 velocity=80 time=0
note_on channel=0 note=43 velocity=80 time=0
note_on channel=0 note=48 velocity=0 time=719
note_on channel=0 note=43 velocity=0 time=0
note_on channel=0 note=52 velocity=80 time=241
note_on channel=0 note=48 velocity=80 time=0
note_on channel=0 note=52 velocity=0 time=719
note_on channel=0 note=48 velocity=0 time=0
note_on channel=0 note=51 velocity=80 time=1
note_on channel=0 note=47 velocity=80 time=0
note_on channel=0 note=51 velocity=0 time=719
note_on channel=0 note=47 velocity=0 time=0
note_on channel=0 note=50 velocity=80 time=1
note_on channel=0 note=46 velocity=80 time=0
note_on channel=0 note=50 velocity=0 time=719
note_on channel=0 note=46 velocity=0 time=0
note_on channel=0 note=47 velocity=80 time=1
note_on channel=0 note=42 velocity=80 time=0
note_on channel=0 note=47 velocity=0 time=719
note_on channel=0 note=42 velocity=0 time=0
note_on channel=0 note=48 velocity=80 time=1
note_on channel=0 note=43 velocity=80 time=0
note_on channel=0 note=48 velocity=0 time=719
note_on channel=0 note=43 velocity=0 time=0
note_on channel=0 note=52 velocity=80 time=241
note_on channel=0 note=48 velocity=80 time=0
note_on channel=0 note=52 velocity=0 time=719
note_on channel=0 note=48 velocity=0 time=0
note_on channel=0 note=51 velocity=80 time=1
note_on channel=0 note=47 velocity=80 time=0
note_on channel=0 note=51 velocity=0 time=719
note_on channel=0 note=47 velocity=0 time=0
note_on channel=0 note=50 velocity=80 time=1
note_on channel=0 note=46 velocity=80 time=0
note_on channel=0 note=50 velocity=0 time=719
note_on channel=0 note=46 velocity=0 time=0
note_on channel=0 note=47 velocity=80 time=1
note_on channel=0 note=42 velocity=80 time=0
note_on channel=0 note=47 velocity=0 time=719
note_on channel=0 note=42 velocity=0 time=0
note_on channel=0 note=48 velocity=80 time=1
note_on channel=0 note=43 velocity=80 time=0
note_on channel=0 note=48 velocity=0 time=719
note_on channel=0 note=43 velocity=0 time=0
note_on channel=0 note=52 velocity=80 time=241
note_on channel=0 note=48 velocity=80 time=0
note_on channel=0 note=52 velocity=0 time=719
note_on channel=0 note=48 velocity=0 time=0
note_on channel=0 note=51 velocity=80 time=1
note_on channel=0 note=47 velocity=80 time=0
note_on channel=0 note=51 velocity=0 time=719
note_on channel=0 note=47 velocity=0 time=0
note_on channel=0 note=50 velocity=80 time=1
note_on channel=0 note=46 velocity=80 time=0
note_on channel=0 note=50 velocity=0 time=719
note_on channel=0 note=46 velocity=0 time=0
note_on channel=0 note=47 velocity=80 time=1
note_on channel=0 note=42 velocity=80 time=0
note_on channel=0 note=47 velocity=0 time=719
note_on channel=0 note=42 velocity=0 time=0
note_on channel=0 note=48 velocity=80 time=1
note_on channel=0 note=43 velocity=80 time=0
note_on channel=0 note=48 velocity=0 time=719
note_on channel=0 note=43 velocity=0 time=0
note_on channel=0 note=52 velocity=80 time=241
note_on channel=0 note=48 velocity=80 time=0
note_on channel=0 note=52 velocity=0 time=719
note_on channel=0 note=48 velocity=0 time=0
note_on channel=0 note=51 velocity=80 time=1
note_on channel=0 note=47 velocity=80 time=0
note_on channel=0 note=51 velocity=0 time=719
note_on channel=0 note=47 velocity=0 time=0
note_on channel=0 note=50 velocity=80 time=1
note_on channel=0 note=46 velocity=80 time=0
note_on channel=0 note=50 velocity=0 time=719
note_on channel=0 note=46 velocity=0 time=0
note_on channel=0 note=47 velocity=80 time=1
note_on channel=0 note=42 velocity=80 time=0
note_on channel=0 note=47 velocity=0 time=719
note_on channel=0 note=42 velocity=0 time=0
note_on channel=0 note=48 velocity=80 time=1
note_on channel=0 note=43 velocity=80 time=0
note_on channel=0 note=48 velocity=0 time=719
note_on channel=0 note=43 velocity=0 time=0
note_on channel=0 note=52 velocity=80 time=241
note_on channel=0 note=48 velocity=80 time=0
note_on channel=0 note=52 velocity=0 time=719
note_on channel=0 note=48 velocity=0 time=0
note_on channel=0 note=51 velocity=80 time=1
note_on channel=0 note=47 velocity=80 time=0
note_on channel=0 note=51 velocity=0 time=719
note_on channel=0 note=47 velocity=0 time=0
note_on channel=0 note=50 velocity=80 time=1
note_on channel=0 note=46 velocity=80 time=0
note_on channel=0 note=50 velocity=0 time=719
note_on channel=0 note=46 velocity=0 time=0
note_on channel=0 note=47 velocity=80 time=1
note_on channel=0 note=42 velocity=80 time=0
note_on channel=0 note=47 velocity=0 time=719
note_on channel=0 note=42 velocity=0 time=0
note_on channel=0 note=48 velocity=80 time=1
note_on channel=0 note=43 velocity=80 time=0
note_on channel=0 note=48 velocity=0 time=719
note_on channel=0 note=43 velocity=0 time=0
note_on channel=0 note=52 velocity=80 time=241
note_on channel=0 note=48 velocity=80 time=0
note_on channel=0 note=52 velocity=0 time=719
note_on channel=0 note=48 velocity=0 time=0
note_on channel=0 note=51 velocity=80 time=1
note_on channel=0 note=47 velocity=80 time=0
note_on channel=0 note=51 velocity=0 time=719
note_on channel=0 note=47 velocity=0 time=0
note_on channel=0 note=50 velocity=80 time=1
note_on channel=0 note=46 velocity=80 time=0
note_on channel=0 note=50 velocity=0 time=719
note_on channel=0 note=46 velocity=0 time=0
note_on channel=0 note=47 velocity=80 time=1
note_on channel=0 note=42 velocity=80 time=0
note_on channel=0 note=47 velocity=0 time=719
note_on channel=0 note=42 velocity=0 time=0
note_on channel=0 note=60 velocity=80 time=1
note_on channel=0 note=55 velocity=80 time=0
note_on channel=0 note=60 velocity=0 time=719
note_on channel=0 note=55 velocity=0 time=0
note_on channel=0 note=64 velocity=80 time=241
note_on channel=0 note=60 velocity=80 time=0
note_on channel=0 note=64 velocity=0 time=719
note_on channel=0 note=60 velocity=0 time=0
note_on channel=0 note=63 velocity=80 time=1
note_on channel=0 note=59 velocity=80 time=0
note_on channel=0 note=63 velocity=0 time=719
note_on channel=0 note=59 velocity=0 time=0
note_on channel=0 note=62 velocity=80 time=1
note_on channel=0 note=58 velocity=80 time=0
note_on channel=0 note=62 velocity=0 time=719
note_on channel=0 note=58 velocity=0 time=0
note_on channel=0 note=59 velocity=80 time=1
note_on channel=0 note=54 velocity=80 time=0
note_on channel=0 note=59 velocity=0 time=719
note_on channel=0 note=54 velocity=0 time=0
note_on channel=0 note=60 velocity=80 time=1
note_on channel=0 note=55 velocity=80 time=0
note_on channel=0 note=60 velocity=0 time=719
note_on channel=0 note=55 velocity=0 time=0
note_on channel=0 note=64 velocity=80 time=241
note_on channel=0 note=60 velocity=80 time=0
note_on channel=0 note=64 velocity=0 time=719
note_on channel=0 note=60 velocity=0 time=0
note_on channel=0 note=63 velocity=80 time=1
note_on channel=0 note=59 velocity=80 time=0
note_on channel=0 note=63 velocity=0 time=719
note_on channel=0 note=59 velocity=0 time=0
note_on channel=0 note=62 velocity=80 time=1
note_on channel=0 note=58 velocity=80 time=0
note_on channel=0 note=62 velocity=0 time=719
note_on channel=0 note=58 velocity=0 time=0
note_on channel=0 note=59 velocity=80 time=1
note_on channel=0 note=54 velocity=80 time=0
note_on channel=0 note=59 velocity=0 time=719
note_on channel=0 note=54 velocity=0 time=0
MetaMessage('key_signature', key='Eb', time=1)
note_on channel=0 note=48 velocity=80 time=0
note_on channel=0 note=48 velocity=0 time=479
note_on channel=0 note=48 velocity=80 time=1
note_on channel=0 note=48 velocity=0 time=239
note_on channel=0 note=51 velocity=80 time=241
note_on channel=0 note=51 velocity=0 time=239
note_on channel=0 note=46 velocity=80 time=1
note_on channel=0 note=46 velocity=0 time=239
note_on channel=0 note=51 velocity=80 time=241
note_on channel=0 note=51 velocity=0 time=239
note_on channel=0 note=48 velocity=80 time=1
note_on channel=0 note=48 velocity=0 time=479
note_on channel=0 note=51 velocity=80 time=1
note_on channel=0 note=51 velocity=0 time=239
note_on channel=0 note=46 velocity=80 time=1
note_on channel=0 note=46 velocity=0 time=239
note_on channel=0 note=51 velocity=80 time=241
note_on channel=0 note=51 velocity=0 time=239
note_on channel=0 note=48 velocity=80 time=1
note_on channel=0 note=48 velocity=0 time=479
note_on channel=0 note=44 velocity=80 time=1
note_on channel=0 note=44 velocity=0 time=479
note_on channel=0 note=44 velocity=80 time=1
note_on channel=0 note=44 velocity=0 time=479
note_on channel=0 note=46 velocity=80 time=1
note_on channel=0 note=46 velocity=0 time=239
note_on channel=0 note=50 velocity=80 time=1
note_on channel=0 note=50 velocity=0 time=239
note_on channel=0 note=43 velocity=80 time=1
note_on channel=0 note=43 velocity=0 time=239
note_on channel=0 note=44 velocity=80 time=1
note_on channel=0 note=44 velocity=0 time=239
note_on channel=0 note=46 velocity=80 time=1
note_on channel=0 note=46 velocity=0 time=479
note_on channel=0 note=43 velocity=80 time=1
note_on channel=0 note=43 velocity=0 time=239
note_on channel=0 note=46 velocity=80 time=1
note_on channel=0 note=46 velocity=0 time=479
note_on channel=0 note=43 velocity=80 time=241
note_on channel=0 note=43 velocity=0 time=239
note_on channel=0 note=46 velocity=80 time=1
note_on channel=0 note=46 velocity=0 time=239
note_on channel=0 note=48 velocity=80 time=1
note_on channel=0 note=48 velocity=0 time=479
note_on channel=0 note=48 velocity=80 time=1
note_on channel=0 note=48 velocity=0 time=239
note_on channel=0 note=51 velocity=80 time=241
note_on channel=0 note=51 velocity=0 time=239
note_on channel=0 note=46 velocity=80 time=1
note_on channel=0 note=46 velocity=0 time=239
note_on channel=0 note=51 velocity=80 time=241
note_on channel=0 note=51 velocity=0 time=239
note_on channel=0 note=48 velocity=80 time=1
note_on channel=0 note=48 velocity=0 time=479
note_on channel=0 note=51 velocity=80 time=1
note_on channel=0 note=51 velocity=0 time=239
note_on channel=0 note=46 velocity=80 time=1
note_on channel=0 note=46 velocity=0 time=239
note_on channel=0 note=51 velocity=80 time=241
note_on channel=0 note=51 velocity=0 time=239
note_on channel=0 note=48 velocity=80 time=1
note_on channel=0 note=48 velocity=0 time=479
note_on channel=0 note=44 velocity=80 time=1
note_on channel=0 note=44 velocity=0 time=479
note_on channel=0 note=44 velocity=80 time=1
note_on channel=0 note=44 velocity=0 time=479
note_on channel=0 note=46 velocity=80 time=1
note_on channel=0 note=46 velocity=0 time=239
note_on channel=0 note=50 velocity=80 time=1
note_on channel=0 note=50 velocity=0 time=239
note_on channel=0 note=43 velocity=80 time=1
note_on channel=0 note=43 velocity=0 time=239
note_on channel=0 note=44 velocity=80 time=1
note_on channel=0 note=44 velocity=0 time=239
note_on channel=0 note=46 velocity=80 time=1
note_on channel=0 note=46 velocity=0 time=479
note_on channel=0 note=43 velocity=80 time=1
note_on channel=0 note=43 velocity=0 time=239
note_on channel=0 note=46 velocity=80 time=1
note_on channel=0 note=46 velocity=0 time=479
note_on channel=0 note=43 velocity=80 time=241
note_on channel=0 note=43 velocity=0 time=239
note_on channel=0 note=46 velocity=80 time=1
note_on channel=0 note=46 velocity=0 time=239
note_on channel=0 note=48 velocity=80 time=1
note_on channel=0 note=48 velocity=0 time=479
note_on channel=0 note=48 velocity=80 time=1
note_on channel=0 note=48 velocity=0 time=239
note_on channel=0 note=51 velocity=80 time=241
note_on channel=0 note=51 velocity=0 time=239
note_on channel=0 note=46 velocity=80 time=1
note_on channel=0 note=46 velocity=0 time=239
note_on channel=0 note=51 velocity=80 time=241
note_on channel=0 note=51 velocity=0 time=239
note_on channel=0 note=48 velocity=80 time=1
note_on channel=0 note=48 velocity=0 time=479
note_on channel=0 note=51 velocity=80 time=1
note_on channel=0 note=51 velocity=0 time=239
note_on channel=0 note=46 velocity=80 time=1
note_on channel=0 note=46 velocity=0 time=239
note_on channel=0 note=51 velocity=80 time=241
note_on channel=0 note=51 velocity=0 time=239
note_on channel=0 note=48 velocity=80 time=1
note_on channel=0 note=48 velocity=0 time=479
note_on channel=0 note=44 velocity=80 time=1
note_on channel=0 note=44 velocity=0 time=479
note_on channel=0 note=44 velocity=80 time=1
note_on channel=0 note=44 velocity=0 time=479
note_on channel=0 note=46 velocity=80 time=1
note_on channel=0 note=46 velocity=0 time=239
note_on channel=0 note=50 velocity=80 time=1
note_on channel=0 note=50 velocity=0 time=239
note_on channel=0 note=43 velocity=80 time=1
note_on channel=0 note=43 velocity=0 time=239
note_on channel=0 note=44 velocity=80 time=1
note_on channel=0 note=44 velocity=0 time=239
note_on channel=0 note=46 velocity=80 time=1
note_on channel=0 note=46 velocity=0 time=479
note_on channel=0 note=43 velocity=80 time=1
note_on channel=0 note=43 velocity=0 time=239
note_on channel=0 note=46 velocity=80 time=1
note_on channel=0 note=46 velocity=0 time=479
note_on channel=0 note=43 velocity=80 time=241
note_on channel=0 note=43 velocity=0 time=239
note_on channel=0 note=46 velocity=80 time=1
note_on channel=0 note=46 velocity=0 time=239
note_on channel=0 note=48 velocity=80 time=1
note_on channel=0 note=48 velocity=0 time=479
note_on channel=0 note=48 velocity=80 time=1
note_on channel=0 note=48 velocity=0 time=239
note_on channel=0 note=51 velocity=80 time=241
note_on channel=0 note=51 velocity=0 time=239
note_on channel=0 note=46 velocity=80 time=1
note_on channel=0 note=46 velocity=0 time=239
note_on channel=0 note=51 velocity=80 time=241
note_on channel=0 note=51 velocity=0 time=239
note_on channel=0 note=48 velocity=80 time=1
note_on channel=0 note=48 velocity=0 time=479
note_on channel=0 note=51 velocity=80 time=1
note_on channel=0 note=51 velocity=0 time=239
note_on channel=0 note=46 velocity=80 time=1
note_on channel=0 note=46 velocity=0 time=239
note_on channel=0 note=51 velocity=80 time=241
note_on channel=0 note=51 velocity=0 time=239
note_on channel=0 note=48 velocity=80 time=1
note_on channel=0 note=48 velocity=0 time=479
note_on channel=0 note=44 velocity=80 time=1
note_on channel=0 note=44 velocity=0 time=479
note_on channel=0 note=44 velocity=80 time=1
note_on channel=0 note=44 velocity=0 time=479
note_on channel=0 note=46 velocity=80 time=1
note_on channel=0 note=46 velocity=0 time=239
note_on channel=0 note=50 velocity=80 time=1
note_on channel=0 note=50 velocity=0 time=239
note_on channel=0 note=43 velocity=80 time=1
note_on channel=0 note=43 velocity=0 time=239
note_on channel=0 note=44 velocity=80 time=1
note_on channel=0 note=44 velocity=0 time=239
note_on channel=0 note=46 velocity=80 time=1
note_on channel=0 note=46 velocity=0 time=479
note_on channel=0 note=43 velocity=80 time=1
note_on channel=0 note=43 velocity=0 time=239
note_on channel=0 note=46 velocity=80 time=1
note_on channel=0 note=46 velocity=0 time=719
note_on channel=0 note=43 velocity=80 time=1
note_on channel=0 note=43 velocity=0 time=239
note_on channel=0 note=46 velocity=80 time=1
note_on channel=0 note=46 velocity=0 time=239
note_on channel=0 note=48 velocity=80 time=1
note_on channel=0 note=48 velocity=0 time=239
note_on channel=0 note=55 velocity=80 time=1
note_on channel=0 note=55 velocity=0 time=239
note_on channel=0 note=48 velocity=80 time=1
note_on channel=0 note=48 velocity=0 time=239
note_on channel=0 note=55 velocity=80 time=1
note_on channel=0 note=55 velocity=0 time=239
note_on channel=0 note=46 velocity=80 time=1
note_on channel=0 note=46 velocity=0 time=239
note_on channel=0 note=53 velocity=80 time=1
note_on channel=0 note=53 velocity=0 time=239
note_on channel=0 note=46 velocity=80 time=1
note_on channel=0 note=46 velocity=0 time=239
note_on channel=0 note=53 velocity=80 time=1
note_on channel=0 note=53 velocity=0 time=239
note_on channel=0 note=44 velocity=80 time=1
note_on channel=0 note=44 velocity=0 time=239
note_on channel=0 note=51 velocity=80 time=1
note_on channel=0 note=51 velocity=0 time=239
note_on channel=0 note=44 velocity=80 time=1
note_on channel=0 note=44 velocity=0 time=239
note_on channel=0 note=51 velocity=80 time=1
note_on channel=0 note=51 velocity=0 time=239
note_on channel=0 note=46 velocity=80 time=1
note_on channel=0 note=46 velocity=0 time=239
note_on channel=0 note=53 velocity=80 time=1
note_on channel=0 note=53 velocity=0 time=239
note_on channel=0 note=46 velocity=80 time=1
note_on channel=0 note=46 velocity=0 time=239
note_on channel=0 note=53 velocity=80 time=1
note_on channel=0 note=53 velocity=0 time=239
note_on channel=0 note=48 velocity=80 time=1
note_on channel=0 note=48 velocity=0 time=239
note_on channel=0 note=55 velocity=80 time=1
note_on channel=0 note=55 velocity=0 time=239
note_on channel=0 note=48 velocity=80 time=1
note_on channel=0 note=48 velocity=0 time=239
note_on channel=0 note=55 velocity=80 time=1
note_on channel=0 note=55 velocity=0 time=239
note_on channel=0 note=46 velocity=80 time=1
note_on channel=0 note=46 velocity=0 time=239
note_on channel=0 note=53 velocity=80 time=1
note_on channel=0 note=53 velocity=0 time=239
note_on channel=0 note=46 velocity=80 time=1
note_on channel=0 note=46 velocity=0 time=239
note_on channel=0 note=53 velocity=80 time=1
note_on channel=0 note=53 velocity=0 time=239
note_on channel=0 note=44 velocity=80 time=1
note_on channel=0 note=44 velocity=0 time=239
note_on channel=0 note=51 velocity=80 time=1
note_on channel=0 note=51 velocity=0 time=239
note_on channel=0 note=44 velocity=80 time=1
note_on channel=0 note=44 velocity=0 time=239
note_on channel=0 note=51 velocity=80 time=1
note_on channel=0 note=51 velocity=0 time=239
note_on channel=0 note=47 velocity=80 time=1
note_on channel=0 note=47 velocity=0 time=239
note_on channel=0 note=53 velocity=80 time=1
note_on channel=0 note=53 velocity=0 time=239
note_on channel=0 note=47 velocity=80 time=1
note_on channel=0 note=47 velocity=0 time=239
note_on channel=0 note=53 velocity=80 time=1
note_on channel=0 note=53 velocity=0 time=239
note_on channel=0 note=48 velocity=80 time=1
note_on channel=0 note=48 velocity=0 time=239
note_on channel=0 note=55 velocity=80 time=1
note_on channel=0 note=55 velocity=0 time=239
note_on channel=0 note=48 velocity=80 time=1
note_on channel=0 note=48 velocity=0 time=239
note_on channel=0 note=55 velocity=80 time=1
note_on channel=0 note=55 velocity=0 time=239
note_on channel=0 note=50 velocity=80 time=1
note_on channel=0 note=50 velocity=0 time=239
note_on channel=0 note=57 velocity=80 time=1
note_on channel=0 note=57 velocity=0 time=239
note_on channel=0 note=50 velocity=80 time=1
note_on channel=0 note=50 velocity=0 time=239
note_on channel=0 note=57 velocity=80 time=1
note_on channel=0 note=57 velocity=0 time=239
note_on channel=0 note=52 velocity=80 time=1
note_on channel=0 note=52 velocity=0 time=239
note_on channel=0 note=59 velocity=80 time=1
note_on channel=0 note=59 velocity=0 time=239
note_on channel=0 note=52 velocity=80 time=1
note_on channel=0 note=52 velocity=0 time=239
note_on channel=0 note=59 velocity=80 time=1
note_on channel=0 note=59 velocity=0 time=239
note_on channel=0 note=50 velocity=80 time=1
note_on channel=0 note=50 velocity=0 time=239
note_on channel=0 note=57 velocity=80 time=1
note_on channel=0 note=57 velocity=0 time=239
note_on channel=0 note=50 velocity=80 time=1
note_on channel=0 note=50 velocity=0 time=239
note_on channel=0 note=57 velocity=80 time=1
note_on channel=0 note=57 velocity=0 time=239
note_on channel=0 note=49 velocity=80 time=1
note_on channel=0 note=49 velocity=0 time=239
note_on channel=0 note=56 velocity=80 time=1
note_on channel=0 note=56 velocity=0 time=239
note_on channel=0 note=49 velocity=80 time=1
note_on channel=0 note=49 velocity=0 time=239
note_on channel=0 note=56 velocity=80 time=1
note_on channel=0 note=56 velocity=0 time=239
note_on channel=0 note=51 velocity=80 time=1
note_on channel=0 note=51 velocity=0 time=239
note_on channel=0 note=58 velocity=80 time=1
note_on channel=0 note=58 velocity=0 time=239
note_on channel=0 note=51 velocity=80 time=1
note_on channel=0 note=51 velocity=0 time=239
note_on channel=0 note=58 velocity=80 time=1
note_on channel=0 note=58 velocity=0 time=239
note_on channel=0 note=52 velocity=80 time=1
note_on channel=0 note=52 velocity=0 time=239
note_on channel=0 note=58 velocity=80 time=1
note_on channel=0 note=58 velocity=0 time=239
note_on channel=0 note=52 velocity=80 time=1
note_on channel=0 note=52 velocity=0 time=239
note_on channel=0 note=58 velocity=80 time=1
note_on channel=0 note=58 velocity=0 time=239
note_on channel=0 note=52 velocity=80 time=1
note_on channel=0 note=52 velocity=0 time=239
note_on channel=0 note=58 velocity=80 time=1
note_on channel=0 note=58 velocity=0 time=239
note_on channel=0 note=52 velocity=80 time=1
note_on channel=0 note=52 velocity=0 time=239
note_on channel=0 note=58 velocity=80 time=1
note_on channel=0 note=58 velocity=0 time=239
note_on channel=0 note=41 velocity=80 time=1
note_on channel=0 note=41 velocity=0 time=239
note_on channel=0 note=41 velocity=80 time=1
note_on channel=0 note=41 velocity=0 time=239
note_on channel=0 note=48 velocity=80 time=1
note_on channel=0 note=48 velocity=0 time=239
note_on channel=0 note=41 velocity=80 time=1
note_on channel=0 note=41 velocity=0 time=239
note_on channel=0 note=41 velocity=80 time=1
note_on channel=0 note=41 velocity=0 time=239
note_on channel=0 note=41 velocity=80 time=1
note_on channel=0 note=41 velocity=0 time=239
note_on channel=0 note=48 velocity=80 time=1
note_on channel=0 note=48 velocity=0 time=239
note_on channel=0 note=41 velocity=80 time=1
note_on channel=0 note=41 velocity=0 time=239
note_on channel=0 note=39 velocity=80 time=1
note_on channel=0 note=39 velocity=0 time=239
note_on channel=0 note=39 velocity=80 time=1
note_on channel=0 note=39 velocity=0 time=239
note_on channel=0 note=46 velocity=80 time=1
note_on channel=0 note=46 velocity=0 time=239
note_on channel=0 note=39 velocity=80 time=1
note_on channel=0 note=39 velocity=0 time=239
note_on channel=0 note=39 velocity=80 time=1
note_on channel=0 note=39 velocity=0 time=239
note_on channel=0 note=39 velocity=80 time=1
note_on channel=0 note=39 velocity=0 time=239
note_on channel=0 note=46 velocity=80 time=1
note_on channel=0 note=46 velocity=0 time=239
note_on channel=0 note=39 velocity=80 time=1
note_on channel=0 note=39 velocity=0 time=239
note_on channel=0 note=38 velocity=80 time=1
note_on channel=0 note=38 velocity=0 time=239
note_on channel=0 note=38 velocity=80 time=1
note_on channel=0 note=38 velocity=0 time=239
note_on channel=0 note=46 velocity=80 time=1
note_on channel=0 note=46 velocity=0 time=239
note_on channel=0 note=38 velocity=80 time=1
note_on channel=0 note=38 velocity=0 time=239
note_on channel=0 note=38 velocity=80 time=1
note_on channel=0 note=38 velocity=0 time=239
note_on channel=0 note=38 velocity=80 time=1
note_on channel=0 note=38 velocity=0 time=239
note_on channel=0 note=46 velocity=80 time=1
note_on channel=0 note=46 velocity=0 time=239
note_on channel=0 note=38 velocity=80 time=1
note_on channel=0 note=38 velocity=0 time=239
note_on channel=0 note=37 velocity=80 time=1
note_on channel=0 note=37 velocity=0 time=239
note_on channel=0 note=37 velocity=80 time=1
note_on channel=0 note=37 velocity=0 time=239
note_on channel=0 note=44 velocity=80 time=1
note_on channel=0 note=44 velocity=0 time=239
note_on channel=0 note=37 velocity=80 time=1
note_on channel=0 note=37 velocity=0 time=239
note_on channel=0 note=39 velocity=80 time=1
note_on channel=0 note=39 velocity=0 time=239
note_on channel=0 note=39 velocity=80 time=1
note_on channel=0 note=39 velocity=0 time=239
note_on channel=0 note=46 velocity=80 time=1
note_on channel=0 note=46 velocity=0 time=239
note_on channel=0 note=39 velocity=80 time=1
note_on channel=0 note=39 velocity=0 time=239
note_on channel=0 note=41 velocity=80 time=1
note_on channel=0 note=41 velocity=0 time=239
note_on channel=0 note=41 velocity=80 time=1
note_on channel=0 note=41 velocity=0 time=239
note_on channel=0 note=48 velocity=80 time=1
note_on channel=0 note=48 velocity=0 time=239
note_on channel=0 note=41 velocity=80 time=1
note_on channel=0 note=41 velocity=0 time=239
note_on channel=0 note=41 velocity=80 time=1
note_on channel=0 note=41 velocity=0 time=239
note_on channel=0 note=41 velocity=80 time=1
note_on channel=0 note=41 velocity=0 time=239
note_on channel=0 note=48 velocity=80 time=1
note_on channel=0 note=48 velocity=0 time=239
note_on channel=0 note=41 velocity=80 time=1
note_on channel=0 note=41 velocity=0 time=239
note_on channel=0 note=39 velocity=80 time=1
note_on channel=0 note=39 velocity=0 time=239
note_on channel=0 note=39 velocity=80 time=1
note_on channel=0 note=39 velocity=0 time=239
note_on channel=0 note=46 velocity=80 time=1
note_on channel=0 note=46 velocity=0 time=239
note_on channel=0 note=39 velocity=80 time=1
note_on channel=0 note=39 velocity=0 time=239
note_on channel=0 note=39 velocity=80 time=1
note_on channel=0 note=39 velocity=0 time=239
note_on channel=0 note=39 velocity=80 time=1
note_on channel=0 note=39 velocity=0 time=239
note_on channel=0 note=46 velocity=80 time=1
note_on channel=0 note=46 velocity=0 time=239
note_on channel=0 note=39 velocity=80 time=1
note_on channel=0 note=39 velocity=0 time=239
note_on channel=0 note=38 velocity=80 time=1
note_on channel=0 note=38 velocity=0 time=239
note_on channel=0 note=38 velocity=80 time=1
note_on channel=0 note=38 velocity=0 time=239
note_on channel=0 note=46 velocity=80 time=1
note_on channel=0 note=46 velocity=0 time=239
note_on channel=0 note=38 velocity=80 time=1
note_on channel=0 note=38 velocity=0 time=239
note_on channel=0 note=38 velocity=80 time=1
note_on channel=0 note=38 velocity=0 time=239
note_on channel=0 note=38 velocity=80 time=1
note_on channel=0 note=38 velocity=0 time=239
note_on channel=0 note=46 velocity=80 time=1
note_on channel=0 note=46 velocity=0 time=239
note_on channel=0 note=38 velocity=80 time=1
note_on channel=0 note=38 velocity=0 time=239
note_on channel=0 note=37 velocity=80 time=1
note_on channel=0 note=37 velocity=0 time=239
note_on channel=0 note=37 velocity=80 time=1
note_on channel=0 note=37 velocity=0 time=239
note_on channel=0 note=44 velocity=80 time=1
note_on channel=0 note=44 velocity=0 time=239
note_on channel=0 note=37 velocity=80 time=1
note_on channel=0 note=37 velocity=0 time=239
note_on channel=0 note=39 velocity=80 time=1
note_on channel=0 note=39 velocity=0 time=239
note_on channel=0 note=39 velocity=80 time=1
note_on channel=0 note=39 velocity=0 time=239
note_on channel=0 note=46 velocity=80 time=1
note_on channel=0 note=46 velocity=0 time=239
note_on channel=0 note=39 velocity=80 time=1
note_on channel=0 note=39 velocity=0 time=239
note_on channel=0 note=41 velocity=80 time=1
note_on channel=0 note=41 velocity=0 time=239
note_on channel=0 note=41 velocity=80 time=1
note_on channel=0 note=41 velocity=0 time=239
note_on channel=0 note=48 velocity=80 time=1
note_on channel=0 note=48 velocity=0 time=239
note_on channel=0 note=41 velocity=80 time=1
note_on channel=0 note=41 velocity=0 time=239
note_on channel=0 note=41 velocity=80 time=1
note_on channel=0 note=41 velocity=0 time=239
note_on channel=0 note=41 velocity=80 time=1
note_on channel=0 note=41 velocity=0 time=239
note_on channel=0 note=48 velocity=80 time=1
note_on channel=0 note=48 velocity=0 time=239
note_on channel=0 note=41 velocity=80 time=1
note_on channel=0 note=41 velocity=0 time=239
note_on channel=0 note=39 velocity=80 time=1
note_on channel=0 note=39 velocity=0 time=239
note_on channel=0 note=39 velocity=80 time=1
note_on channel=0 note=39 velocity=0 time=239
note_on channel=0 note=46 velocity=80 time=1
note_on channel=0 note=46 velocity=0 time=239
note_on channel=0 note=39 velocity=80 time=1
note_on channel=0 note=39 velocity=0 time=239
note_on channel=0 note=39 velocity=80 time=1
note_on channel=0 note=39 velocity=0 time=239
note_on channel=0 note=39 velocity=80 time=1
note_on channel=0 note=39 velocity=0 time=239
note_on channel=0 note=46 velocity=80 time=1
note_on channel=0 note=46 velocity=0 time=239
note_on channel=0 note=39 velocity=80 time=1
note_on channel=0 note=39 velocity=0 time=239
note_on channel=0 note=38 velocity=80 time=1
note_on channel=0 note=38 velocity=0 time=239
note_on channel=0 note=38 velocity=80 time=1
note_on channel=0 note=38 velocity=0 time=239
note_on channel=0 note=46 velocity=80 time=1
note_on channel=0 note=46 velocity=0 time=239
note_on channel=0 note=38 velocity=80 time=1
note_on channel=0 note=38 velocity=0 time=239
note_on channel=0 note=38 velocity=80 time=1
note_on channel=0 note=38 velocity=0 time=239
note_on channel=0 note=38 velocity=80 time=1
note_on channel=0 note=38 velocity=0 time=239
note_on channel=0 note=46 velocity=80 time=1
note_on channel=0 note=46 velocity=0 time=239
note_on channel=0 note=38 velocity=80 time=1
note_on channel=0 note=38 velocity=0 time=239
note_on channel=0 note=37 velocity=80 time=1
note_on channel=0 note=37 velocity=0 time=239
note_on channel=0 note=37 velocity=80 time=1
note_on channel=0 note=37 velocity=0 time=239
note_on channel=0 note=44 velocity=80 time=1
note_on channel=0 note=44 velocity=0 time=239
note_on channel=0 note=37 velocity=80 time=1
note_on channel=0 note=37 velocity=0 time=239
note_on channel=0 note=39 velocity=80 time=1
note_on channel=0 note=39 velocity=0 time=239
note_on channel=0 note=39 velocity=80 time=1
note_on channel=0 note=39 velocity=0 time=239
note_on channel=0 note=46 velocity=80 time=1
note_on channel=0 note=46 velocity=0 time=239
note_on channel=0 note=39 velocity=80 time=1
note_on channel=0 note=39 velocity=0 time=239
note_on channel=0 note=41 velocity=80 time=1
note_on channel=0 note=41 velocity=0 time=239
note_on channel=0 note=41 velocity=80 time=1
note_on channel=0 note=41 velocity=0 time=239
note_on channel=0 note=48 velocity=80 time=1
note_on channel=0 note=48 velocity=0 time=239
note_on channel=0 note=41 velocity=80 time=1
note_on channel=0 note=41 velocity=0 time=239
note_on channel=0 note=41 velocity=80 time=1
note_on channel=0 note=41 velocity=0 time=239
note_on channel=0 note=41 velocity=80 time=1
note_on channel=0 note=41 velocity=0 time=239
note_on channel=0 note=48 velocity=80 time=1
note_on channel=0 note=48 velocity=0 time=239
note_on channel=0 note=41 velocity=80 time=1
note_on channel=0 note=41 velocity=0 time=239
note_on channel=0 note=39 velocity=80 time=1
note_on channel=0 note=39 velocity=0 time=239
note_on channel=0 note=39 velocity=80 time=1
note_on channel=0 note=39 velocity=0 time=239
note_on channel=0 note=46 velocity=80 time=1
note_on channel=0 note=46 velocity=0 time=239
note_on channel=0 note=39 velocity=80 time=1
note_on channel=0 note=39 velocity=0 time=239
note_on channel=0 note=39 velocity=80 time=1
note_on channel=0 note=39 velocity=0 time=239
note_on channel=0 note=39 velocity=80 time=1
note_on channel=0 note=39 velocity=0 time=239
note_on channel=0 note=46 velocity=80 time=1
note_on channel=0 note=46 velocity=0 time=239
note_on channel=0 note=39 velocity=80 time=1
note_on channel=0 note=39 velocity=0 time=239
note_on channel=0 note=38 velocity=80 time=1
note_on channel=0 note=38 velocity=0 time=239
note_on channel=0 note=38 velocity=80 time=1
note_on channel=0 note=38 velocity=0 time=239
note_on channel=0 note=46 velocity=80 time=1
note_on channel=0 note=46 velocity=0 time=239
note_on channel=0 note=38 velocity=80 time=1
note_on channel=0 note=38 velocity=0 time=239
note_on channel=0 note=38 velocity=80 time=1
note_on channel=0 note=38 velocity=0 time=239
note_on channel=0 note=38 velocity=80 time=1
note_on channel=0 note=38 velocity=0 time=239
note_on channel=0 note=46 velocity=80 time=1
note_on channel=0 note=46 velocity=0 time=239
note_on channel=0 note=38 velocity=80 time=1
note_on channel=0 note=38 velocity=0 time=239
note_on channel=0 note=37 velocity=80 time=1
note_on channel=0 note=37 velocity=0 time=239
note_on channel=0 note=37 velocity=80 time=1
note_on channel=0 note=37 velocity=0 time=239
note_on channel=0 note=44 velocity=80 time=1
note_on channel=0 note=44 velocity=0 time=239
note_on channel=0 note=37 velocity=80 time=1
note_on channel=0 note=37 velocity=0 time=239
note_on channel=0 note=39 velocity=80 time=1
note_on channel=0 note=39 velocity=0 time=239
note_on channel=0 note=39 velocity=80 time=1
note_on channel=0 note=39 velocity=0 time=239
note_on channel=0 note=46 velocity=80 time=1
note_on channel=0 note=46 velocity=0 time=239
note_on channel=0 note=39 velocity=80 time=1
note_on channel=0 note=39 velocity=0 time=239
MetaMessage('key_signature', key='C', time=1)
note_on channel=0 note=53 velocity=80 time=0
note_on channel=0 note=48 velocity=80 time=0
note_on channel=0 note=53 velocity=0 time=719
note_on channel=0 note=48 velocity=0 time=0
note_on channel=0 note=57 velocity=80 time=241
note_on channel=0 note=53 velocity=80 time=0
note_on channel=0 note=57 velocity=0 time=719
note_on channel=0 note=53 velocity=0 time=0
note_on channel=0 note=56 velocity=80 time=1
note_on channel=0 note=52 velocity=80 time=0
note_on channel=0 note=56 velocity=0 time=719
note_on channel=0 note=52 velocity=0 time=0
note_on channel=0 note=55 velocity=80 time=1
note_on channel=0 note=51 velocity=80 time=0
note_on channel=0 note=55 velocity=0 time=719
note_on channel=0 note=51 velocity=0 time=0
note_on channel=0 note=52 velocity=80 time=1
note_on channel=0 note=47 velocity=80 time=0
note_on channel=0 note=52 velocity=0 time=719
note_on channel=0 note=47 velocity=0 time=0
note_on channel=0 note=53 velocity=80 time=1
note_on channel=0 note=48 velocity=80 time=0
note_on channel=0 note=53 velocity=0 time=719
note_on channel=0 note=48 velocity=0 time=0
note_on channel=0 note=57 velocity=80 time=241
note_on channel=0 note=53 velocity=80 time=0
note_on channel=0 note=57 velocity=0 time=719
note_on channel=0 note=53 velocity=0 time=0
note_on channel=0 note=56 velocity=80 time=1
note_on channel=0 note=52 velocity=80 time=0
note_on channel=0 note=56 velocity=0 time=719
note_on channel=0 note=52 velocity=0 time=0
note_on channel=0 note=55 velocity=80 time=1
note_on channel=0 note=51 velocity=80 time=0
note_on channel=0 note=55 velocity=0 time=719
note_on channel=0 note=51 velocity=0 time=0
note_on channel=0 note=52 velocity=80 time=1
note_on channel=0 note=47 velocity=80 time=0
note_on channel=0 note=52 velocity=0 time=719
note_on channel=0 note=47 velocity=0 time=0
note_on channel=0 note=53 velocity=80 time=1
note_on channel=0 note=48 velocity=80 time=0
note_on channel=0 note=53 velocity=0 time=719
note_on channel=0 note=48 velocity=0 time=0
note_on channel=0 note=57 velocity=80 time=241
note_on channel=0 note=53 velocity=80 time=0
note_on channel=0 note=57 velocity=0 time=719
note_on channel=0 note=53 velocity=0 time=0
note_on channel=0 note=56 velocity=80 time=1
note_on channel=0 note=52 velocity=80 time=0
note_on channel=0 note=56 velocity=0 time=719
note_on channel=0 note=52 velocity=0 time=0
note_on channel=0 note=55 velocity=80 time=1
note_on channel=0 note=51 velocity=80 time=0
note_on channel=0 note=55 velocity=0 time=719
note_on channel=0 note=51 velocity=0 time=0
note_on channel=0 note=52 velocity=80 time=1
note_on channel=0 note=47 velocity=80 time=0
note_on channel=0 note=52 velocity=0 time=719
note_on channel=0 note=47 velocity=0 time=0
note_on channel=0 note=53 velocity=80 time=1
note_on channel=0 note=48 velocity=80 time=0
note_on channel=0 note=53 velocity=0 time=719
note_on channel=0 note=48 velocity=0 time=0
note_on channel=0 note=57 velocity=80 time=241
note_on channel=0 note=53 velocity=80 time=0
note_on channel=0 note=57 velocity=0 time=719
note_on channel=0 note=53 velocity=0 time=0
note_on channel=0 note=56 velocity=80 time=1
note_on channel=0 note=52 velocity=80 time=0
note_on channel=0 note=56 velocity=0 time=719
note_on channel=0 note=52 velocity=0 time=0
note_on channel=0 note=55 velocity=80 time=1
note_on channel=0 note=51 velocity=80 time=0
note_on channel=0 note=55 velocity=0 time=719
note_on channel=0 note=51 velocity=0 time=0
note_on channel=0 note=52 velocity=80 time=1
note_on channel=0 note=47 velocity=80 time=0
note_on channel=0 note=52 velocity=0 time=719
note_on channel=0 note=47 velocity=0 time=0
MetaMessage('key_signature', key='Bb', time=1921)
note_on channel=0 note=55 velocity=80 time=0
note_on channel=0 note=55 velocity=0 time=479
note_on channel=0 note=55 velocity=80 time=1
note_on channel=0 note=55 velocity=0 time=239
note_on channel=0 note=58 velocity=80 time=241
note_on channel=0 note=58 velocity=0 time=239
note_on channel=0 note=53 velocity=80 time=1
note_on channel=0 note=53 velocity=0 time=239
note_on channel=0 note=58 velocity=80 time=241
note_on channel=0 note=58 velocity=0 time=239
note_on channel=0 note=55 velocity=80 time=1
note_on channel=0 note=55 velocity=0 time=479
note_on channel=0 note=58 velocity=80 time=1
note_on channel=0 note=58 velocity=0 time=239
note_on channel=0 note=53 velocity=80 time=1
note_on channel=0 note=53 velocity=0 time=239
note_on channel=0 note=58 velocity=80 time=241
note_on channel=0 note=58 velocity=0 time=239
note_on channel=0 note=55 velocity=80 time=1
note_on channel=0 note=55 velocity=0 time=479
note_on channel=0 note=51 velocity=80 time=1
note_on channel=0 note=51 velocity=0 time=479
note_on channel=0 note=51 velocity=80 time=1
note_on channel=0 note=51 velocity=0 time=479
note_on channel=0 note=53 velocity=80 time=1
note_on channel=0 note=53 velocity=0 time=239
note_on channel=0 note=55 velocity=80 time=1
note_on channel=0 note=55 velocity=0 time=239
note_on channel=0 note=50 velocity=80 time=1
note_on channel=0 note=50 velocity=0 time=239
note_on channel=0 note=51 velocity=80 time=1
note_on channel=0 note=51 velocity=0 time=239
note_on channel=0 note=53 velocity=80 time=1
note_on channel=0 note=53 velocity=0 time=479
note_on channel=0 note=50 velocity=80 time=1
note_on channel=0 note=50 velocity=0 time=239
note_on channel=0 note=53 velocity=80 time=1
note_on channel=0 note=53 velocity=0 time=479
note_on channel=0 note=50 velocity=80 time=241
note_on channel=0 note=50 velocity=0 time=239
note_on channel=0 note=53 velocity=80 time=1
note_on channel=0 note=53 velocity=0 time=239
note_on channel=0 note=55 velocity=80 time=1
note_on channel=0 note=55 velocity=0 time=479
note_on channel=0 note=55 velocity=80 time=1
note_on channel=0 note=55 velocity=0 time=239
note_on channel=0 note=58 velocity=80 time=241
note_on channel=0 note=58 velocity=0 time=239
note_on channel=0 note=53 velocity=80 time=1
note_on channel=0 note=53 velocity=0 time=239
note_on channel=0 note=58 velocity=80 time=241
note_on channel=0 note=58 velocity=0 time=239
note_on channel=0 note=55 velocity=80 time=1
note_on channel=0 note=55 velocity=0 time=239
note_on channel=0 note=58 velocity=80 time=241
note_on channel=0 note=58 velocity=0 time=239
note_on channel=0 note=53 velocity=80 time=1
note_on channel=0 note=53 velocity=0 time=239
note_on channel=0 note=58 velocity=80 time=241
note_on channel=0 note=58 velocity=0 time=239
note_on channel=0 note=55 velocity=80 time=1
note_on channel=0 note=55 velocity=0 time=479
note_on channel=0 note=51 velocity=80 time=1
note_on channel=0 note=51 velocity=0 time=479
note_on channel=0 note=51 velocity=80 time=1
note_on channel=0 note=51 velocity=0 time=479
note_on channel=0 note=53 velocity=80 time=1
note_on channel=0 note=53 velocity=0 time=239
note_on channel=0 note=55 velocity=80 time=1
note_on channel=0 note=55 velocity=0 time=239
note_on channel=0 note=50 velocity=80 time=1
note_on channel=0 note=50 velocity=0 time=239
note_on channel=0 note=51 velocity=80 time=1
note_on channel=0 note=51 velocity=0 time=239
note_on channel=0 note=53 velocity=80 time=1
note_on channel=0 note=53 velocity=0 time=479
note_on channel=0 note=50 velocity=80 time=1
note_on channel=0 note=50 velocity=0 time=239
note_on channel=0 note=53 velocity=80 time=1
note_on channel=0 note=53 velocity=0 time=479
note_on channel=0 note=50 velocity=80 time=241
note_on channel=0 note=50 velocity=0 time=239
note_on channel=0 note=53 velocity=80 time=1
note_on channel=0 note=53 velocity=0 time=239
note_on channel=0 note=55 velocity=80 time=1
note_on channel=0 note=55 velocity=0 time=479
note_on channel=0 note=55 velocity=80 time=1
note_on channel=0 note=55 velocity=0 time=239
note_on channel=0 note=58 velocity=80 time=241
note_on channel=0 note=58 velocity=0 time=239
note_on channel=0 note=53 velocity=80 time=1
note_on channel=0 note=53 velocity=0 time=239
note_on channel=0 note=58 velocity=80 time=241
note_on channel=0 note=58 velocity=0 time=239
note_on channel=0 note=55 velocity=80 time=1
note_on channel=0 note=55 velocity=0 time=239
note_on channel=0 note=58 velocity=80 time=241
note_on channel=0 note=58 velocity=0 time=239
note_on channel=0 note=53 velocity=80 time=1
note_on channel=0 note=53 velocity=0 time=239
note_on channel=0 note=58 velocity=80 time=241
note_on channel=0 note=58 velocity=0 time=239
note_on channel=0 note=55 velocity=80 time=1
note_on channel=0 note=55 velocity=0 time=479
note_on channel=0 note=51 velocity=80 time=1
note_on channel=0 note=51 velocity=0 time=479
note_on channel=0 note=51 velocity=80 time=1
note_on channel=0 note=51 velocity=0 time=479
note_on channel=0 note=53 velocity=80 time=1
note_on channel=0 note=53 velocity=0 time=239
note_on channel=0 note=55 velocity=80 time=1
note_on channel=0 note=55 velocity=0 time=239
note_on channel=0 note=50 velocity=80 time=1
note_on channel=0 note=50 velocity=0 time=239
note_on channel=0 note=51 velocity=80 time=1
note_on channel=0 note=51 velocity=0 time=239
note_on channel=0 note=53 velocity=80 time=1
note_on channel=0 note=53 velocity=0 time=479
note_on channel=0 note=50 velocity=80 time=1
note_on channel=0 note=50 velocity=0 time=239
note_on channel=0 note=53 velocity=80 time=1
note_on channel=0 note=53 velocity=0 time=479
note_on channel=0 note=50 velocity=80 time=241
note_on channel=0 note=50 velocity=0 time=239
note_on channel=0 note=53 velocity=80 time=1
note_on channel=0 note=53 velocity=0 time=239
note_on channel=0 note=55 velocity=80 time=1
note_on channel=0 note=55 velocity=0 time=479
note_on channel=0 note=55 velocity=80 time=1
note_on channel=0 note=55 velocity=0 time=239
note_on channel=0 note=58 velocity=80 time=241
note_on channel=0 note=58 velocity=0 time=239
note_on channel=0 note=53 velocity=80 time=1
note_on channel=0 note=53 velocity=0 time=239
note_on channel=0 note=58 velocity=80 time=241
note_on channel=0 note=58 velocity=0 time=239
note_on channel=0 note=55 velocity=80 time=1
note_on channel=0 note=55 velocity=0 time=239
note_on channel=0 note=58 velocity=80 time=241
note_on channel=0 note=58 velocity=0 time=239
note_on channel=0 note=53 velocity=80 time=1
note_on channel=0 note=53 velocity=0 time=239
note_on channel=0 note=58 velocity=80 time=241
note_on channel=0 note=58 velocity=0 time=239
note_on channel=0 note=55 velocity=80 time=1
note_on channel=0 note=55 velocity=0 time=479
note_on channel=0 note=51 velocity=80 time=1
note_on channel=0 note=51 velocity=0 time=479
note_on channel=0 note=51 velocity=80 time=1
note_on channel=0 note=51 velocity=0 time=479
note_on channel=0 note=53 velocity=80 time=1
note_on channel=0 note=53 velocity=0 time=239
note_on channel=0 note=55 velocity=80 time=1
note_on channel=0 note=55 velocity=0 time=239
note_on channel=0 note=50 velocity=80 time=1
note_on channel=0 note=50 velocity=0 time=239
note_on channel=0 note=51 velocity=80 time=1
note_on channel=0 note=51 velocity=0 time=239
note_on channel=0 note=53 velocity=80 time=1
note_on channel=0 note=53 velocity=0 time=479
note_on channel=0 note=50 velocity=80 time=1
note_on channel=0 note=50 velocity=0 time=239
note_on channel=0 note=53 velocity=80 time=1
note_on channel=0 note=53 velocity=0 time=479
note_on channel=0 note=50 velocity=80 time=241
note_on channel=0 note=50 velocity=0 time=239
note_on channel=0 note=53 velocity=80 time=1
note_on channel=0 note=53 velocity=0 time=239
note_on channel=0 note=55 velocity=80 time=1
note_on channel=0 note=55 velocity=0 time=479
note_on channel=0 note=55 velocity=80 time=1
note_on channel=0 note=55 velocity=0 time=239
note_on channel=0 note=58 velocity=80 time=241
note_on channel=0 note=58 velocity=0 time=239
note_on channel=0 note=53 velocity=80 time=1
note_on channel=0 note=53 velocity=0 time=239
note_on channel=0 note=58 velocity=80 time=241
note_on channel=0 note=58 velocity=0 time=239
note_on channel=0 note=55 velocity=80 time=1
note_on channel=0 note=55 velocity=0 time=479
note_on channel=0 note=58 velocity=80 time=1
note_on channel=0 note=58 velocity=0 time=239
note_on channel=0 note=53 velocity=80 time=1
note_on channel=0 note=53 velocity=0 time=239
note_on channel=0 note=58 velocity=80 time=241
note_on channel=0 note=58 velocity=0 time=239
note_on channel=0 note=55 velocity=80 time=1
note_on channel=0 note=55 velocity=0 time=479
note_on channel=0 note=51 velocity=80 time=1
note_on channel=0 note=51 velocity=0 time=479
note_on channel=0 note=51 velocity=80 time=1
note_on channel=0 note=51 velocity=0 time=479
note_on channel=0 note=53 velocity=80 time=1
note_on channel=0 note=53 velocity=0 time=239
note_on channel=0 note=55 velocity=80 time=1
note_on channel=0 note=55 velocity=0 time=239
note_on channel=0 note=50 velocity=80 time=1
note_on channel=0 note=50 velocity=0 time=239
note_on channel=0 note=51 velocity=80 time=1
note_on channel=0 note=51 velocity=0 time=239
note_on channel=0 note=53 velocity=80 time=1
note_on channel=0 note=53 velocity=0 time=479
note_on channel=0 note=50 velocity=80 time=1
note_on channel=0 note=50 velocity=0 time=239
note_on channel=0 note=53 velocity=80 time=1
note_on channel=0 note=53 velocity=0 time=479
note_on channel=0 note=50 velocity=80 time=241
note_on channel=0 note=50 velocity=0 time=239
note_on channel=0 note=53 velocity=80 time=1
note_on channel=0 note=53 velocity=0 time=239
note_on channel=0 note=55 velocity=80 time=1
note_on channel=0 note=55 velocity=0 time=479
note_on channel=0 note=55 velocity=80 time=1
note_on channel=0 note=55 velocity=0 time=239
note_on channel=0 note=58 velocity=80 time=241
note_on channel=0 note=58 velocity=0 time=239
note_on channel=0 note=53 velocity=80 time=1
note_on channel=0 note=53 velocity=0 time=239
note_on channel=0 note=58 velocity=80 time=241
note_on channel=0 note=58 velocity=0 time=239
note_on channel=0 note=55 velocity=80 time=1
note_on channel=0 note=55 velocity=0 time=479
note_on channel=0 note=58 velocity=80 time=1
note_on channel=0 note=58 velocity=0 time=239
note_on channel=0 note=53 velocity=80 time=1
note_on channel=0 note=53 velocity=0 time=239
note_on channel=0 note=58 velocity=80 time=241
note_on channel=0 note=58 velocity=0 time=239
note_on channel=0 note=55 velocity=80 time=1
note_on channel=0 note=55 velocity=0 time=479
note_on channel=0 note=51 velocity=80 time=1
note_on channel=0 note=51 velocity=0 time=479
note_on channel=0 note=51 velocity=80 time=1
note_on channel=0 note=51 velocity=0 time=479
note_on channel=0 note=53 velocity=80 time=1
note_on channel=0 note=53 velocity=0 time=239
note_on channel=0 note=55 velocity=80 time=1
note_on channel=0 note=55 velocity=0 time=239
note_on channel=0 note=50 velocity=80 time=1
note_on channel=0 note=50 velocity=0 time=239
note_on channel=0 note=51 velocity=80 time=1
note_on channel=0 note=51 velocity=0 time=239
note_on channel=0 note=53 velocity=80 time=1
note_on channel=0 note=53 velocity=0 time=479
note_on channel=0 note=50 velocity=80 time=1
note_on channel=0 note=50 velocity=0 time=239
note_on channel=0 note=53 velocity=80 time=1
note_on channel=0 note=53 velocity=0 time=479
note_on channel=0 note=50 velocity=80 time=241
note_on channel=0 note=50 velocity=0 time=239
note_on channel=0 note=53 velocity=80 time=1
note_on channel=0 note=53 velocity=0 time=239
note_on channel=0 note=55 velocity=80 time=1
note_on channel=0 note=55 velocity=0 time=479
note_on channel=0 note=55 velocity=80 time=1
note_on channel=0 note=55 velocity=0 time=239
note_on channel=0 note=58 velocity=80 time=241
note_on channel=0 note=58 velocity=0 time=239
note_on channel=0 note=53 velocity=80 time=1
note_on channel=0 note=53 velocity=0 time=239
note_on channel=0 note=58 velocity=80 time=241
note_on channel=0 note=58 velocity=0 time=239
note_on channel=0 note=55 velocity=80 time=1
note_on channel=0 note=55 velocity=0 time=479
note_on channel=0 note=58 velocity=80 time=1
note_on channel=0 note=58 velocity=0 time=239
note_on channel=0 note=53 velocity=80 time=1
note_on channel=0 note=53 velocity=0 time=239
note_on channel=0 note=58 velocity=80 time=241
note_on channel=0 note=58 velocity=0 time=239
note_on channel=0 note=55 velocity=80 time=1
note_on channel=0 note=55 velocity=0 time=479
note_on channel=0 note=51 velocity=80 time=1
note_on channel=0 note=51 velocity=0 time=479
note_on channel=0 note=51 velocity=80 time=1
note_on channel=0 note=51 velocity=0 time=479
note_on channel=0 note=53 velocity=80 time=1
note_on channel=0 note=53 velocity=0 time=239
note_on channel=0 note=55 velocity=80 time=1
note_on channel=0 note=55 velocity=0 time=239
note_on channel=0 note=50 velocity=80 time=1
note_on channel=0 note=50 velocity=0 time=239
note_on channel=0 note=51 velocity=80 time=1
note_on channel=0 note=51 velocity=0 time=239
note_on channel=0 note=53 velocity=80 time=1
note_on channel=0 note=53 velocity=0 time=479
note_on channel=0 note=50 velocity=80 time=1
note_on channel=0 note=50 velocity=0 time=239
note_on channel=0 note=53 velocity=80 time=1
note_on channel=0 note=53 velocity=0 time=479
note_on channel=0 note=50 velocity=80 time=241
note_on channel=0 note=50 velocity=0 time=239
note_on channel=0 note=53 velocity=80 time=1
note_on channel=0 note=53 velocity=0 time=239
note_on channel=0 note=55 velocity=80 time=1
note_on channel=0 note=55 velocity=0 time=479
note_on channel=0 note=55 velocity=80 time=1
note_on channel=0 note=55 velocity=0 time=239
note_on channel=0 note=58 velocity=80 time=241
note_on channel=0 note=58 velocity=0 time=239
note_on channel=0 note=53 velocity=80 time=1
note_on channel=0 note=53 velocity=0 time=239
note_on channel=0 note=58 velocity=80 time=241
note_on channel=0 note=58 velocity=0 time=239
note_on channel=0 note=55 velocity=80 time=1
note_on channel=0 note=55 velocity=0 time=479
note_on channel=0 note=58 velocity=80 time=1
note_on channel=0 note=58 velocity=0 time=239
note_on channel=0 note=53 velocity=80 time=1
note_on channel=0 note=53 velocity=0 time=239
note_on channel=0 note=58 velocity=80 time=241
note_on channel=0 note=58 velocity=0 time=239
note_on channel=0 note=55 velocity=80 time=1
note_on channel=0 note=55 velocity=0 time=479
note_on channel=0 note=51 velocity=80 time=1
note_on channel=0 note=51 velocity=0 time=479
note_on channel=0 note=51 velocity=80 time=1
note_on channel=0 note=51 velocity=0 time=479
note_on channel=0 note=53 velocity=80 time=1
note_on channel=0 note=53 velocity=0 time=239
note_on channel=0 note=55 velocity=80 time=1
note_on channel=0 note=55 velocity=0 time=239
note_on channel=0 note=50 velocity=80 time=1
note_on channel=0 note=50 velocity=0 time=239
note_on channel=0 note=51 velocity=80 time=1
note_on channel=0 note=51 velocity=0 time=239
note_on channel=0 note=53 velocity=80 time=1
note_on channel=0 note=53 velocity=0 time=479
note_on channel=0 note=50 velocity=80 time=1
note_on channel=0 note=50 velocity=0 time=239
note_on channel=0 note=53 velocity=80 time=1
note_on channel=0 note=53 velocity=0 time=479
note_on channel=0 note=50 velocity=80 time=241
note_on channel=0 note=50 velocity=0 time=239
note_on channel=0 note=53 velocity=80 time=1
note_on channel=0 note=53 velocity=0 time=239
note_on channel=0 note=55 velocity=80 time=1
note_on channel=0 note=55 velocity=0 time=239
note_on channel=0 note=62 velocity=80 time=1
note_on channel=0 note=62 velocity=0 time=239
note_on channel=0 note=55 velocity=80 time=1
note_on channel=0 note=55 velocity=0 time=239
note_on channel=0 note=62 velocity=80 time=1
note_on channel=0 note=62 velocity=0 time=239
note_on channel=0 note=53 velocity=80 time=1
note_on channel=0 note=53 velocity=0 time=239
note_on channel=0 note=60 velocity=80 time=1
note_on channel=0 note=60 velocity=0 time=239
note_on channel=0 note=53 velocity=80 time=1
note_on channel=0 note=53 velocity=0 time=239
note_on channel=0 note=60 velocity=80 time=1
note_on channel=0 note=60 velocity=0 time=239
note_on channel=0 note=51 velocity=80 time=1
note_on channel=0 note=51 velocity=0 time=239
note_on channel=0 note=58 velocity=80 time=1
note_on channel=0 note=58 velocity=0 time=239
note_on channel=0 note=51 velocity=80 time=1
note_on channel=0 note=51 velocity=0 time=239
note_on channel=0 note=58 velocity=80 time=1
note_on channel=0 note=58 velocity=0 time=239
note_on channel=0 note=53 velocity=80 time=1
note_on channel=0 note=53 velocity=0 time=239
note_on channel=0 note=60 velocity=80 time=1
note_on channel=0 note=60 velocity=0 time=239
note_on channel=0 note=53 velocity=80 time=1
note_on channel=0 note=53 velocity=0 time=239
note_on channel=0 note=60 velocity=80 time=1
note_on channel=0 note=60 velocity=0 time=239
note_on channel=0 note=55 velocity=80 time=1
note_on channel=0 note=55 velocity=0 time=239
note_on channel=0 note=62 velocity=80 time=1
note_on channel=0 note=62 velocity=0 time=239
note_on channel=0 note=55 velocity=80 time=1
note_on channel=0 note=55 velocity=0 time=239
note_on channel=0 note=62 velocity=80 time=1
note_on channel=0 note=62 velocity=0 time=239
note_on channel=0 note=53 velocity=80 time=1
note_on channel=0 note=53 velocity=0 time=239
note_on channel=0 note=60 velocity=80 time=1
note_on channel=0 note=60 velocity=0 time=239
note_on channel=0 note=53 velocity=80 time=1
note_on channel=0 note=53 velocity=0 time=239
note_on channel=0 note=60 velocity=80 time=1
note_on channel=0 note=60 velocity=0 time=239
note_on channel=0 note=51 velocity=80 time=1
note_on channel=0 note=51 velocity=0 time=239
note_on channel=0 note=58 velocity=80 time=1
note_on channel=0 note=58 velocity=0 time=239
note_on channel=0 note=51 velocity=80 time=1
note_on channel=0 note=51 velocity=0 time=239
note_on channel=0 note=58 velocity=80 time=1
note_on channel=0 note=58 velocity=0 time=239
note_on channel=0 note=54 velocity=80 time=1
note_on channel=0 note=54 velocity=0 time=239
note_on channel=0 note=60 velocity=80 time=1
note_on channel=0 note=60 velocity=0 time=239
note_on channel=0 note=54 velocity=80 time=1
note_on channel=0 note=54 velocity=0 time=239
note_on channel=0 note=60 velocity=80 time=1
note_on channel=0 note=60 velocity=0 time=239
note_on channel=0 note=55 velocity=80 time=1
note_on channel=0 note=55 velocity=0 time=239
note_on channel=0 note=62 velocity=80 time=1
note_on channel=0 note=62 velocity=0 time=239
note_on channel=0 note=55 velocity=80 time=1
note_on channel=0 note=55 velocity=0 time=239
note_on channel=0 note=62 velocity=80 time=1
note_on channel=0 note=62 velocity=0 time=239
note_on channel=0 note=57 velocity=80 time=1
note_on channel=0 note=57 velocity=0 time=239
note_on channel=0 note=64 velocity=80 time=1
note_on channel=0 note=64 velocity=0 time=239
note_on channel=0 note=57 velocity=80 time=1
note_on channel=0 note=57 velocity=0 time=239
note_on channel=0 note=64 velocity=80 time=1
note_on channel=0 note=64 velocity=0 time=239
note_on channel=0 note=59 velocity=80 time=1
note_on channel=0 note=59 velocity=0 time=239
note_on channel=0 note=66 velocity=80 time=1
note_on channel=0 note=66 velocity=0 time=239
note_on channel=0 note=59 velocity=80 time=1
note_on channel=0 note=59 velocity=0 time=239
note_on channel=0 note=66 velocity=80 time=1
note_on channel=0 note=66 velocity=0 time=239
note_on channel=0 note=57 velocity=80 time=1
note_on channel=0 note=57 velocity=0 time=239
note_on channel=0 note=64 velocity=80 time=1
note_on channel=0 note=64 velocity=0 time=239
note_on channel=0 note=57 velocity=80 time=1
note_on channel=0 note=57 velocity=0 time=239
note_on channel=0 note=64 velocity=80 time=1
note_on channel=0 note=64 velocity=0 time=239
note_on channel=0 note=56 velocity=80 time=1
note_on channel=0 note=56 velocity=0 time=239
note_on channel=0 note=63 velocity=80 time=1
note_on channel=0 note=63 velocity=0 time=239
note_on channel=0 note=56 velocity=80 time=1
note_on channel=0 note=56 velocity=0 time=239
note_on channel=0 note=63 velocity=80 time=1
note_on channel=0 note=63 velocity=0 time=239
note_on channel=0 note=58 velocity=80 time=1
note_on channel=0 note=58 velocity=0 time=239
note_on channel=0 note=65 velocity=80 time=1
note_on channel=0 note=65 velocity=0 time=239
note_on channel=0 note=58 velocity=80 time=1
note_on channel=0 note=58 velocity=0 time=239
note_on channel=0 note=65 velocity=80 time=1
note_on channel=0 note=65 velocity=0 time=239
note_on channel=0 note=59 velocity=80 time=1
note_on channel=0 note=59 velocity=0 time=239
note_on channel=0 note=65 velocity=80 time=1
note_on channel=0 note=65 velocity=0 time=239
note_on channel=0 note=59 velocity=80 time=1
note_on channel=0 note=59 velocity=0 time=239
note_on channel=0 note=65 velocity=80 time=1
note_on channel=0 note=65 velocity=0 time=239
note_on channel=0 note=59 velocity=80 time=1
note_on channel=0 note=59 velocity=0 time=239
note_on channel=0 note=65 velocity=80 time=1
note_on channel=0 note=65 velocity=0 time=239
note_on channel=0 note=59 velocity=80 time=1
note_on channel=0 note=59 velocity=0 time=239
note_on channel=0 note=65 velocity=80 time=1
note_on channel=0 note=65 velocity=0 time=239
note_on channel=0 note=48 velocity=80 time=1
note_on channel=0 note=48 velocity=0 time=239
note_on channel=0 note=48 velocity=80 time=1
note_on channel=0 note=48 velocity=0 time=239
note_on channel=0 note=55 velocity=80 time=1
note_on channel=0 note=55 velocity=0 time=239
note_on channel=0 note=48 velocity=80 time=1
note_on channel=0 note=48 velocity=0 time=239
note_on channel=0 note=48 velocity=80 time=1
note_on channel=0 note=48 velocity=0 time=239
note_on channel=0 note=48 velocity=80 time=1
note_on channel=0 note=48 velocity=0 time=239
note_on channel=0 note=55 velocity=80 time=1
note_on channel=0 note=55 velocity=0 time=239
note_on channel=0 note=48 velocity=80 time=1
note_on channel=0 note=48 velocity=0 time=239
note_on channel=0 note=46 velocity=80 time=1
note_on channel=0 note=46 velocity=0 time=239
note_on channel=0 note=46 velocity=80 time=1
note_on channel=0 note=46 velocity=0 time=239
note_on channel=0 note=53 velocity=80 time=1
note_on channel=0 note=53 velocity=0 time=239
note_on channel=0 note=46 velocity=80 time=1
note_on channel=0 note=46 velocity=0 time=239
note_on channel=0 note=46 velocity=80 time=1
note_on channel=0 note=46 velocity=0 time=239
note_on channel=0 note=46 velocity=80 time=1
note_on channel=0 note=46 velocity=0 time=239
note_on channel=0 note=53 velocity=80 time=1
note_on channel=0 note=53 velocity=0 time=239
note_on channel=0 note=46 velocity=80 time=1
note_on channel=0 note=46 velocity=0 time=239
note_on channel=0 note=45 velocity=80 time=1
note_on channel=0 note=45 velocity=0 time=239
note_on channel=0 note=45 velocity=80 time=1
note_on channel=0 note=45 velocity=0 time=239
note_on channel=0 note=53 velocity=80 time=1
note_on channel=0 note=53 velocity=0 time=239
note_on channel=0 note=45 velocity=80 time=1
note_on channel=0 note=45 velocity=0 time=239
note_on channel=0 note=45 velocity=80 time=1
note_on channel=0 note=45 velocity=0 time=239
note_on channel=0 note=45 velocity=80 time=1
note_on channel=0 note=45 velocity=0 time=239
note_on channel=0 note=53 velocity=80 time=1
note_on channel=0 note=53 velocity=0 time=239
note_on channel=0 note=45 velocity=80 time=1
note_on channel=0 note=45 velocity=0 time=239
note_on channel=0 note=44 velocity=80 time=1
note_on channel=0 note=44 velocity=0 time=239
note_on channel=0 note=44 velocity=80 time=1
note_on channel=0 note=44 velocity=0 time=239
note_on channel=0 note=51 velocity=80 time=1
note_on channel=0 note=51 velocity=0 time=239
note_on channel=0 note=44 velocity=80 time=1
note_on channel=0 note=44 velocity=0 time=239
note_on channel=0 note=46 velocity=80 time=1
note_on channel=0 note=46 velocity=0 time=239
note_on channel=0 note=46 velocity=80 time=1
note_on channel=0 note=46 velocity=0 time=239
note_on channel=0 note=53 velocity=80 time=1
note_on channel=0 note=53 velocity=0 time=239
note_on channel=0 note=46 velocity=80 time=1
note_on channel=0 note=46 velocity=0 time=239
note_on channel=0 note=48 velocity=80 time=1
note_on channel=0 note=48 velocity=0 time=239
note_on channel=0 note=48 velocity=80 time=1
note_on channel=0 note=48 velocity=0 time=239
note_on channel=0 note=55 velocity=80 time=1
note_on channel=0 note=55 velocity=0 time=239
note_on channel=0 note=48 velocity=80 time=1
note_on channel=0 note=48 velocity=0 time=239
note_on channel=0 note=48 velocity=80 time=1
note_on channel=0 note=48 velocity=0 time=239
note_on channel=0 note=48 velocity=80 time=1
note_on channel=0 note=48 velocity=0 time=239
note_on channel=0 note=55 velocity=80 time=1
note_on channel=0 note=55 velocity=0 time=239
note_on channel=0 note=48 velocity=80 time=1
note_on channel=0 note=48 velocity=0 time=239
note_on channel=0 note=46 velocity=80 time=1
note_on channel=0 note=46 velocity=0 time=239
note_on channel=0 note=46 velocity=80 time=1
note_on channel=0 note=46 velocity=0 time=239
note_on channel=0 note=53 velocity=80 time=1
note_on channel=0 note=53 velocity=0 time=239
note_on channel=0 note=46 velocity=80 time=1
note_on channel=0 note=46 velocity=0 time=239
note_on channel=0 note=46 velocity=80 time=1
note_on channel=0 note=46 velocity=0 time=239
note_on channel=0 note=46 velocity=80 time=1
note_on channel=0 note=46 velocity=0 time=239
note_on channel=0 note=53 velocity=80 time=1
note_on channel=0 note=53 velocity=0 time=239
note_on channel=0 note=46 velocity=80 time=1
note_on channel=0 note=46 velocity=0 time=239
note_on channel=0 note=45 velocity=80 time=1
note_on channel=0 note=45 velocity=0 time=239
note_on channel=0 note=45 velocity=80 time=1
note_on channel=0 note=45 velocity=0 time=239
note_on channel=0 note=53 velocity=80 time=1
note_on channel=0 note=53 velocity=0 time=239
note_on channel=0 note=45 velocity=80 time=1
note_on channel=0 note=45 velocity=0 time=239
note_on channel=0 note=45 velocity=80 time=1
note_on channel=0 note=45 velocity=0 time=239
note_on channel=0 note=45 velocity=80 time=1
note_on channel=0 note=45 velocity=0 time=239
note_on channel=0 note=53 velocity=80 time=1
note_on channel=0 note=53 velocity=0 time=239
note_on channel=0 note=45 velocity=80 time=1
note_on channel=0 note=45 velocity=0 time=239
note_on channel=0 note=44 velocity=80 time=1
note_on channel=0 note=44 velocity=0 time=239
note_on channel=0 note=44 velocity=80 time=1
note_on channel=0 note=44 velocity=0 time=239
note_on channel=0 note=51 velocity=80 time=1
note_on channel=0 note=51 velocity=0 time=239
note_on channel=0 note=44 velocity=80 time=1
note_on channel=0 note=44 velocity=0 time=239
note_on channel=0 note=46 velocity=80 time=1
note_on channel=0 note=46 velocity=0 time=239
note_on channel=0 note=46 velocity=80 time=1
note_on channel=0 note=46 velocity=0 time=239
note_on channel=0 note=53 velocity=80 time=1
note_on channel=0 note=53 velocity=0 time=239
note_on channel=0 note=46 velocity=80 time=1
note_on channel=0 note=46 velocity=0 time=239
note_on channel=0 note=48 velocity=80 time=1
note_on channel=0 note=48 velocity=0 time=239
note_on channel=0 note=48 velocity=80 time=1
note_on channel=0 note=48 velocity=0 time=239
note_on channel=0 note=55 velocity=80 time=1
note_on channel=0 note=55 velocity=0 time=239
note_on channel=0 note=48 velocity=80 time=1
note_on channel=0 note=48 velocity=0 time=239
note_on channel=0 note=48 velocity=80 time=1
note_on channel=0 note=48 velocity=0 time=239
note_on channel=0 note=48 velocity=80 time=1
note_on channel=0 note=48 velocity=0 time=239
note_on channel=0 note=55 velocity=80 time=1
note_on channel=0 note=55 velocity=0 time=239
note_on channel=0 note=48 velocity=80 time=1
note_on channel=0 note=48 velocity=0 time=239
note_on channel=0 note=46 velocity=80 time=1
note_on channel=0 note=46 velocity=0 time=239
note_on channel=0 note=46 velocity=80 time=1
note_on channel=0 note=46 velocity=0 time=239
note_on channel=0 note=53 velocity=80 time=1
note_on channel=0 note=53 velocity=0 time=239
note_on channel=0 note=46 velocity=80 time=1
note_on channel=0 note=46 velocity=0 time=239
note_on channel=0 note=46 velocity=80 time=1
note_on channel=0 note=46 velocity=0 time=239
note_on channel=0 note=46 velocity=80 time=1
note_on channel=0 note=46 velocity=0 time=239
note_on channel=0 note=53 velocity=80 time=1
note_on channel=0 note=53 velocity=0 time=239
note_on channel=0 note=46 velocity=80 time=1
note_on channel=0 note=46 velocity=0 time=239
note_on channel=0 note=45 velocity=80 time=1
note_on channel=0 note=45 velocity=0 time=239
note_on channel=0 note=45 velocity=80 time=1
note_on channel=0 note=45 velocity=0 time=239
note_on channel=0 note=53 velocity=80 time=1
note_on channel=0 note=53 velocity=0 time=239
note_on channel=0 note=45 velocity=80 time=1
note_on channel=0 note=45 velocity=0 time=239
note_on channel=0 note=45 velocity=80 time=1
note_on channel=0 note=45 velocity=0 time=239
note_on channel=0 note=45 velocity=80 time=1
note_on channel=0 note=45 velocity=0 time=239
note_on channel=0 note=53 velocity=80 time=1
note_on channel=0 note=53 velocity=0 time=239
note_on channel=0 note=45 velocity=80 time=1
note_on channel=0 note=45 velocity=0 time=239
note_on channel=0 note=44 velocity=80 time=1
note_on channel=0 note=44 velocity=0 time=239
note_on channel=0 note=44 velocity=80 time=1
note_on channel=0 note=44 velocity=0 time=239
note_on channel=0 note=51 velocity=80 time=1
note_on channel=0 note=51 velocity=0 time=239
note_on channel=0 note=44 velocity=80 time=1
note_on channel=0 note=44 velocity=0 time=239
note_on channel=0 note=46 velocity=80 time=1
note_on channel=0 note=46 velocity=0 time=239
note_on channel=0 note=46 velocity=80 time=1
note_on channel=0 note=46 velocity=0 time=239
note_on channel=0 note=53 velocity=80 time=1
note_on channel=0 note=53 velocity=0 time=239
note_on channel=0 note=46 velocity=80 time=1
note_on channel=0 note=46 velocity=0 time=239
note_on channel=0 note=48 velocity=80 time=1
note_on channel=0 note=48 velocity=0 time=239
note_on channel=0 note=48 velocity=80 time=1
note_on channel=0 note=48 velocity=0 time=239
note_on channel=0 note=55 velocity=80 time=1
note_on channel=0 note=55 velocity=0 time=239
note_on channel=0 note=48 velocity=80 time=1
note_on channel=0 note=48 velocity=0 time=239
note_on channel=0 note=48 velocity=80 time=1
note_on channel=0 note=48 velocity=0 time=239
note_on channel=0 note=48 velocity=80 time=1
note_on channel=0 note=48 velocity=0 time=239
note_on channel=0 note=55 velocity=80 time=1
note_on channel=0 note=55 velocity=0 time=239
note_on channel=0 note=48 velocity=80 time=1
note_on channel=0 note=48 velocity=0 time=239
note_on channel=0 note=46 velocity=80 time=1
note_on channel=0 note=46 velocity=0 time=239
note_on channel=0 note=46 velocity=80 time=1
note_on channel=0 note=46 velocity=0 time=239
note_on channel=0 note=53 velocity=80 time=1
note_on channel=0 note=53 velocity=0 time=239
note_on channel=0 note=46 velocity=80 time=1
note_on channel=0 note=46 velocity=0 time=239
note_on channel=0 note=46 velocity=80 time=1
note_on channel=0 note=46 velocity=0 time=239
note_on channel=0 note=46 velocity=80 time=1
note_on channel=0 note=46 velocity=0 time=239
note_on channel=0 note=53 velocity=80 time=1
note_on channel=0 note=53 velocity=0 time=239
note_on channel=0 note=46 velocity=80 time=1
note_on channel=0 note=46 velocity=0 time=239
note_on channel=0 note=45 velocity=80 time=1
note_on channel=0 note=45 velocity=0 time=239
note_on channel=0 note=45 velocity=80 time=1
note_on channel=0 note=45 velocity=0 time=239
note_on channel=0 note=53 velocity=80 time=1
note_on channel=0 note=53 velocity=0 time=239
note_on channel=0 note=45 velocity=80 time=1
note_on channel=0 note=45 velocity=0 time=239
note_on channel=0 note=45 velocity=80 time=1
note_on channel=0 note=45 velocity=0 time=239
note_on channel=0 note=45 velocity=80 time=1
note_on channel=0 note=45 velocity=0 time=239
note_on channel=0 note=53 velocity=80 time=1
note_on channel=0 note=53 velocity=0 time=239
note_on channel=0 note=45 velocity=80 time=1
note_on channel=0 note=45 velocity=0 time=239
note_on channel=0 note=44 velocity=80 time=1
note_on channel=0 note=44 velocity=0 time=239
note_on channel=0 note=44 velocity=80 time=1
note_on channel=0 note=44 velocity=0 time=239
note_on channel=0 note=51 velocity=80 time=1
note_on channel=0 note=51 velocity=0 time=239
note_on channel=0 note=44 velocity=80 time=1
note_on channel=0 note=44 velocity=0 time=239
note_on channel=0 note=46 velocity=80 time=1
note_on channel=0 note=46 velocity=0 time=239
note_on channel=0 note=46 velocity=80 time=1
note_on channel=0 note=46 velocity=0 time=239
note_on channel=0 note=53 velocity=80 time=1
note_on channel=0 note=53 velocity=0 time=239
note_on channel=0 note=46 velocity=80 time=1
note_on channel=0 note=46 velocity=0 time=239
MetaMessage('key_signature', key='C', time=1)
note_on channel=0 note=48 velocity=80 time=0
note_on channel=0 note=43 velocity=80 time=0
note_on channel=0 note=48 velocity=0 time=719
note_on channel=0 note=43 velocity=0 time=0
note_on channel=0 note=52 velocity=80 time=241
note_on channel=0 note=48 velocity=80 time=0
note_on channel=0 note=52 velocity=0 time=719
note_on channel=0 note=48 velocity=0 time=0
note_on channel=0 note=51 velocity=80 time=1
note_on channel=0 note=47 velocity=80 time=0
note_on channel=0 note=51 velocity=0 time=719
note_on channel=0 note=47 velocity=0 time=0
note_on channel=0 note=50 velocity=80 time=1
note_on channel=0 note=46 velocity=80 time=0
note_on channel=0 note=50 velocity=0 time=719
note_on channel=0 note=46 velocity=0 time=0
note_on channel=0 note=47 velocity=80 time=1
note_on channel=0 note=42 velocity=80 time=0
note_on channel=0 note=47 velocity=0 time=719
note_on channel=0 note=42 velocity=0 time=0
note_on channel=0 note=48 velocity=80 time=1
note_on channel=0 note=43 velocity=80 time=0
note_on channel=0 note=48 velocity=0 time=719
note_on channel=0 note=43 velocity=0 time=0
note_on channel=0 note=52 velocity=80 time=241
note_on channel=0 note=48 velocity=80 time=0
note_on channel=0 note=52 velocity=0 time=719
note_on channel=0 note=48 velocity=0 time=0
note_on channel=0 note=51 velocity=80 time=1
note_on channel=0 note=47 velocity=80 time=0
note_on channel=0 note=51 velocity=0 time=719
note_on channel=0 note=47 velocity=0 time=0
note_on channel=0 note=50 velocity=80 time=1
note_on channel=0 note=46 velocity=80 time=0
note_on channel=0 note=50 velocity=0 time=719
note_on channel=0 note=46 velocity=0 time=0
note_on channel=0 note=47 velocity=80 time=1
note_on channel=0 note=42 velocity=80 time=0
note_on channel=0 note=47 velocity=0 time=719
note_on channel=0 note=42 velocity=0 time=0
note_on channel=0 note=48 velocity=80 time=1
note_on channel=0 note=43 velocity=80 time=0
note_on channel=0 note=48 velocity=0 time=719
note_on channel=0 note=43 velocity=0 time=0
note_on channel=0 note=52 velocity=80 time=241
note_on channel=0 note=48 velocity=80 time=0
note_on channel=0 note=52 velocity=0 time=719
note_on channel=0 note=48 velocity=0 time=0
note_on channel=0 note=51 velocity=80 time=1
note_on channel=0 note=47 velocity=80 time=0
note_on channel=0 note=51 velocity=0 time=719
note_on channel=0 note=47 velocity=0 time=0
note_on channel=0 note=50 velocity=80 time=1
note_on channel=0 note=46 velocity=80 time=0
note_on channel=0 note=50 velocity=0 time=719
note_on channel=0 note=46 velocity=0 time=0
note_on channel=0 note=47 velocity=80 time=1
note_on channel=0 note=42 velocity=80 time=0
note_on channel=0 note=47 velocity=0 time=719
note_on channel=0 note=42 velocity=0 time=0
note_on channel=0 note=48 velocity=80 time=1
note_on channel=0 note=43 velocity=80 time=0
note_on channel=0 note=48 velocity=0 time=719
note_on channel=0 note=43 velocity=0 time=0
note_on channel=0 note=52 velocity=80 time=241
note_on channel=0 note=48 velocity=80 time=0
note_on channel=0 note=52 velocity=0 time=719
note_on channel=0 note=48 velocity=0 time=0
note_on channel=0 note=51 velocity=80 time=1
note_on channel=0 note=47 velocity=80 time=0
note_on channel=0 note=51 velocity=0 time=719
note_on channel=0 note=47 velocity=0 time=0
note_on channel=0 note=50 velocity=80 time=1
note_on channel=0 note=46 velocity=80 time=0
note_on channel=0 note=50 velocity=0 time=719
note_on channel=0 note=46 velocity=0 time=0
note_on channel=0 note=47 velocity=80 time=1
note_on channel=0 note=42 velocity=80 time=0
note_on channel=0 note=47 velocity=0 time=719
note_on channel=0 note=42 velocity=0 time=0
note_on channel=0 note=48 velocity=80 time=1
note_on channel=0 note=43 velocity=80 time=0
note_on channel=0 note=48 velocity=0 time=719
note_on channel=0 note=43 velocity=0 time=0
note_on channel=0 note=52 velocity=80 time=241
note_on channel=0 note=48 velocity=80 time=0
note_on channel=0 note=52 velocity=0 time=719
note_on channel=0 note=48 velocity=0 time=0
note_on channel=0 note=51 velocity=80 time=1
note_on channel=0 note=47 velocity=80 time=0
note_on channel=0 note=51 velocity=0 time=719
note_on channel=0 note=47 velocity=0 time=0
note_on channel=0 note=50 velocity=80 time=1
note_on channel=0 note=46 velocity=80 time=0
note_on channel=0 note=50 velocity=0 time=719
note_on channel=0 note=46 velocity=0 time=0
note_on channel=0 note=47 velocity=80 time=1
note_on channel=0 note=42 velocity=80 time=0
note_on channel=0 note=47 velocity=0 time=719
note_on channel=0 note=42 velocity=0 time=0
note_on channel=0 note=48 velocity=80 time=1
note_on channel=0 note=43 velocity=80 time=0
note_on channel=0 note=48 velocity=0 time=719
note_on channel=0 note=43 velocity=0 time=0
note_on channel=0 note=52 velocity=80 time=241
note_on channel=0 note=48 velocity=80 time=0
note_on channel=0 note=52 velocity=0 time=719
note_on channel=0 note=48 velocity=0 time=0
note_on channel=0 note=51 velocity=80 time=1
note_on channel=0 note=47 velocity=80 time=0
note_on channel=0 note=51 velocity=0 time=719
note_on channel=0 note=47 velocity=0 time=0
note_on channel=0 note=50 velocity=80 time=1
note_on channel=0 note=46 velocity=80 time=0
note_on channel=0 note=50 velocity=0 time=719
note_on channel=0 note=46 velocity=0 time=0
note_on channel=0 note=47 velocity=80 time=1
note_on channel=0 note=42 velocity=80 time=0
note_on channel=0 note=47 velocity=0 time=719
note_on channel=0 note=42 velocity=0 time=0
note_on channel=0 note=60 velocity=80 time=1
note_on channel=0 note=55 velocity=80 time=0
note_on channel=0 note=60 velocity=0 time=719
note_on channel=0 note=55 velocity=0 time=0
note_on channel=0 note=64 velocity=80 time=241
note_on channel=0 note=60 velocity=80 time=0
note_on channel=0 note=64 velocity=0 time=719
note_on channel=0 note=60 velocity=0 time=0
note_on channel=0 note=63 velocity=80 time=1
note_on channel=0 note=59 velocity=80 time=0
note_on channel=0 note=63 velocity=0 time=719
note_on channel=0 note=59 velocity=0 time=0
note_on channel=0 note=62 velocity=80 time=1
note_on channel=0 note=58 velocity=80 time=0
note_on channel=0 note=62 velocity=0 time=719
note_on channel=0 note=58 velocity=0 time=0
note_on channel=0 note=59 velocity=80 time=1
note_on channel=0 note=54 velocity=80 time=0
note_on channel=0 note=59 velocity=0 time=719
note_on channel=0 note=54 velocity=0 time=0
note_on channel=0 note=60 velocity=80 time=1
note_on channel=0 note=55 velocity=80 time=0
note_on channel=0 note=60 velocity=0 time=719
note_on channel=0 note=55 velocity=0 time=0
note_on channel=0 note=64 velocity=80 time=241
note_on channel=0 note=60 velocity=80 time=0
note_on channel=0 note=64 velocity=0 time=719
note_on channel=0 note=60 velocity=0 time=0
note_on channel=0 note=63 velocity=80 time=1
note_on channel=0 note=59 velocity=80 time=0
note_on channel=0 note=63 velocity=0 time=719
note_on channel=0 note=59 velocity=0 time=0
note_on channel=0 note=62 velocity=80 time=1
note_on channel=0 note=58 velocity=80 time=0
note_on channel=0 note=62 velocity=0 time=719
note_on channel=0 note=58 velocity=0 time=0
note_on channel=0 note=59 velocity=80 time=1
note_on channel=0 note=54 velocity=80 time=0
note_on channel=0 note=59 velocity=0 time=719
note_on channel=0 note=54 velocity=0 time=0
MetaMessage('key_signature', key='Eb', time=1)
note_on channel=0 note=48 velocity=80 time=0
note_on channel=0 note=48 velocity=0 time=479
note_on channel=0 note=48 velocity=80 time=1
note_on channel=0 note=48 velocity=0 time=239
note_on channel=0 note=51 velocity=80 time=241
note_on channel=0 note=51 velocity=0 time=239
note_on channel=0 note=46 velocity=80 time=1
note_on channel=0 note=46 velocity=0 time=239
note_on channel=0 note=51 velocity=80 time=241
note_on channel=0 note=51 velocity=0 time=239
note_on channel=0 note=48 velocity=80 time=1
note_on channel=0 note=48 velocity=0 time=479
note_on channel=0 note=51 velocity=80 time=1
note_on channel=0 note=51 velocity=0 time=239
note_on channel=0 note=46 velocity=80 time=1
note_on channel=0 note=46 velocity=0 time=239
note_on channel=0 note=51 velocity=80 time=241
note_on channel=0 note=51 velocity=0 time=239
note_on channel=0 note=48 velocity=80 time=1
note_on channel=0 note=48 velocity=0 time=479
note_on channel=0 note=44 velocity=80 time=1
note_on channel=0 note=44 velocity=0 time=479
note_on channel=0 note=44 velocity=80 time=1
note_on channel=0 note=44 velocity=0 time=479
note_on channel=0 note=46 velocity=80 time=1
note_on channel=0 note=46 velocity=0 time=239
note_on channel=0 note=50 velocity=80 time=1
note_on channel=0 note=50 velocity=0 time=239
note_on channel=0 note=43 velocity=80 time=1
note_on channel=0 note=43 velocity=0 time=239
note_on channel=0 note=44 velocity=80 time=1
note_on channel=0 note=44 velocity=0 time=239
note_on channel=0 note=46 velocity=80 time=1
note_on channel=0 note=46 velocity=0 time=479
note_on channel=0 note=43 velocity=80 time=1
note_on channel=0 note=43 velocity=0 time=239
note_on channel=0 note=46 velocity=80 time=1
note_on channel=0 note=46 velocity=0 time=479
note_on channel=0 note=43 velocity=80 time=241
note_on channel=0 note=43 velocity=0 time=239
note_on channel=0 note=46 velocity=80 time=1
note_on channel=0 note=46 velocity=0 time=239
note_on channel=0 note=48 velocity=80 time=1
note_on channel=0 note=48 velocity=0 time=479
note_on channel=0 note=48 velocity=80 time=1
note_on channel=0 note=48 velocity=0 time=239
note_on channel=0 note=51 velocity=80 time=241
note_on channel=0 note=51 velocity=0 time=239
note_on channel=0 note=46 velocity=80 time=1
note_on channel=0 note=46 velocity=0 time=239
note_on channel=0 note=51 velocity=80 time=241
note_on channel=0 note=51 velocity=0 time=239
note_on channel=0 note=48 velocity=80 time=1
note_on channel=0 note=48 velocity=0 time=479
note_on channel=0 note=51 velocity=80 time=1
note_on channel=0 note=51 velocity=0 time=239
note_on channel=0 note=46 velocity=80 time=1
note_on channel=0 note=46 velocity=0 time=239
note_on channel=0 note=51 velocity=80 time=241
note_on channel=0 note=51 velocity=0 time=239
note_on channel=0 note=48 velocity=80 time=1
note_on channel=0 note=48 velocity=0 time=479
note_on channel=0 note=44 velocity=80 time=1
note_on channel=0 note=44 velocity=0 time=479
note_on channel=0 note=44 velocity=80 time=1
note_on channel=0 note=44 velocity=0 time=479
note_on channel=0 note=46 velocity=80 time=1
note_on channel=0 note=46 velocity=0 time=239
note_on channel=0 note=50 velocity=80 time=1
note_on channel=0 note=50 velocity=0 time=239
note_on channel=0 note=43 velocity=80 time=1
note_on channel=0 note=43 velocity=0 time=239
note_on channel=0 note=44 velocity=80 time=1
note_on channel=0 note=44 velocity=0 time=239
note_on channel=0 note=46 velocity=80 time=1
note_on channel=0 note=46 velocity=0 time=479
note_on channel=0 note=43 velocity=80 time=1
note_on channel=0 note=43 velocity=0 time=239
note_on channel=0 note=46 velocity=80 time=1
note_on channel=0 note=46 velocity=0 time=479
note_on channel=0 note=43 velocity=80 time=241
note_on channel=0 note=43 velocity=0 time=239
note_on channel=0 note=46 velocity=80 time=1
note_on channel=0 note=46 velocity=0 time=239
note_on channel=0 note=48 velocity=80 time=1
note_on channel=0 note=48 velocity=0 time=479
note_on channel=0 note=48 velocity=80 time=1
note_on channel=0 note=48 velocity=0 time=239
note_on channel=0 note=51 velocity=80 time=241
note_on channel=0 note=51 velocity=0 time=239
note_on channel=0 note=46 velocity=80 time=1
note_on channel=0 note=46 velocity=0 time=239
note_on channel=0 note=51 velocity=80 time=241
note_on channel=0 note=51 velocity=0 time=239
note_on channel=0 note=48 velocity=80 time=1
note_on channel=0 note=48 velocity=0 time=479
note_on channel=0 note=51 velocity=80 time=1
note_on channel=0 note=51 velocity=0 time=239
note_on channel=0 note=46 velocity=80 time=1
note_on channel=0 note=46 velocity=0 time=239
note_on channel=0 note=51 velocity=80 time=241
note_on channel=0 note=51 velocity=0 time=239
note_on channel=0 note=48 velocity=80 time=1
note_on channel=0 note=48 velocity=0 time=479
note_on channel=0 note=44 velocity=80 time=1
note_on channel=0 note=44 velocity=0 time=479
note_on channel=0 note=44 velocity=80 time=1
note_on channel=0 note=44 velocity=0 time=479
note_on channel=0 note=46 velocity=80 time=1
note_on channel=0 note=46 velocity=0 time=239
note_on channel=0 note=50 velocity=80 time=1
note_on channel=0 note=50 velocity=0 time=239
note_on channel=0 note=43 velocity=80 time=1
note_on channel=0 note=43 velocity=0 time=239
note_on channel=0 note=44 velocity=80 time=1
note_on channel=0 note=44 velocity=0 time=239
note_on channel=0 note=46 velocity=80 time=1
note_on channel=0 note=46 velocity=0 time=479
note_on channel=0 note=43 velocity=80 time=1
note_on channel=0 note=43 velocity=0 time=239
note_on channel=0 note=46 velocity=80 time=1
note_on channel=0 note=46 velocity=0 time=479
note_on channel=0 note=43 velocity=80 time=241
note_on channel=0 note=43 velocity=0 time=239
note_on channel=0 note=46 velocity=80 time=1
note_on channel=0 note=46 velocity=0 time=239
note_on channel=0 note=48 velocity=80 time=1
note_on channel=0 note=48 velocity=0 time=479
note_on channel=0 note=48 velocity=80 time=1
note_on channel=0 note=48 velocity=0 time=239
note_on channel=0 note=51 velocity=80 time=241
note_on channel=0 note=51 velocity=0 time=239
note_on channel=0 note=46 velocity=80 time=1
note_on channel=0 note=46 velocity=0 time=239
note_on channel=0 note=51 velocity=80 time=241
note_on channel=0 note=51 velocity=0 time=239
note_on channel=0 note=48 velocity=80 time=1
note_on channel=0 note=48 velocity=0 time=479
note_on channel=0 note=51 velocity=80 time=1
note_on channel=0 note=51 velocity=0 time=239
note_on channel=0 note=46 velocity=80 time=1
note_on channel=0 note=46 velocity=0 time=239
note_on channel=0 note=51 velocity=80 time=241
note_on channel=0 note=51 velocity=0 time=239
note_on channel=0 note=48 velocity=80 time=1
note_on channel=0 note=48 velocity=0 time=479
note_on channel=0 note=44 velocity=80 time=1
note_on channel=0 note=44 velocity=0 time=479
note_on channel=0 note=44 velocity=80 time=1
note_on channel=0 note=44 velocity=0 time=479
note_on channel=0 note=46 velocity=80 time=1
note_on channel=0 note=46 velocity=0 time=239
note_on channel=0 note=50 velocity=80 time=1
note_on channel=0 note=50 velocity=0 time=239
note_on channel=0 note=43 velocity=80 time=1
note_on channel=0 note=43 velocity=0 time=239
note_on channel=0 note=44 velocity=80 time=1
note_on channel=0 note=44 velocity=0 time=239
note_on channel=0 note=46 velocity=80 time=1
note_on channel=0 note=46 velocity=0 time=479
note_on channel=0 note=43 velocity=80 time=1
note_on channel=0 note=43 velocity=0 time=239
note_on channel=0 note=46 velocity=80 time=1
note_on channel=0 note=46 velocity=0 time=719
note_on channel=0 note=43 velocity=80 time=1
note_on channel=0 note=43 velocity=0 time=239
note_on channel=0 note=46 velocity=80 time=1
note_on channel=0 note=46 velocity=0 time=239
note_on channel=0 note=48 velocity=80 time=1
note_on channel=0 note=48 velocity=0 time=239
note_on channel=0 note=55 velocity=80 time=1
note_on channel=0 note=55 velocity=0 time=239
note_on channel=0 note=48 velocity=80 time=1
note_on channel=0 note=48 velocity=0 time=239
note_on channel=0 note=55 velocity=80 time=1
note_on channel=0 note=55 velocity=0 time=239
note_on channel=0 note=46 velocity=80 time=1
note_on channel=0 note=46 velocity=0 time=239
note_on channel=0 note=53 velocity=80 time=1
note_on channel=0 note=53 velocity=0 time=239
note_on channel=0 note=46 velocity=80 time=1
note_on channel=0 note=46 velocity=0 time=239
note_on channel=0 note=53 velocity=80 time=1
note_on channel=0 note=53 velocity=0 time=239
note_on channel=0 note=44 velocity=80 time=1
note_on channel=0 note=44 velocity=0 time=239
note_on channel=0 note=51 velocity=80 time=1
note_on channel=0 note=51 velocity=0 time=239
note_on channel=0 note=44 velocity=80 time=1
note_on channel=0 note=44 velocity=0 time=239
note_on channel=0 note=51 velocity=80 time=1
note_on channel=0 note=51 velocity=0 time=239
note_on channel=0 note=46 velocity=80 time=1
note_on channel=0 note=46 velocity=0 time=239
note_on channel=0 note=53 velocity=80 time=1
note_on channel=0 note=53 velocity=0 time=239
note_on channel=0 note=46 velocity=80 time=1
note_on channel=0 note=46 velocity=0 time=239
note_on channel=0 note=53 velocity=80 time=1
note_on channel=0 note=53 velocity=0 time=239
note_on channel=0 note=48 velocity=80 time=1
note_on channel=0 note=48 velocity=0 time=239
note_on channel=0 note=55 velocity=80 time=1
note_on channel=0 note=55 velocity=0 time=239
note_on channel=0 note=48 velocity=80 time=1
note_on channel=0 note=48 velocity=0 time=239
note_on channel=0 note=55 velocity=80 time=1
note_on channel=0 note=55 velocity=0 time=239
note_on channel=0 note=46 velocity=80 time=1
note_on channel=0 note=46 velocity=0 time=239
note_on channel=0 note=53 velocity=80 time=1
note_on channel=0 note=53 velocity=0 time=239
note_on channel=0 note=46 velocity=80 time=1
note_on channel=0 note=46 velocity=0 time=239
note_on channel=0 note=53 velocity=80 time=1
note_on channel=0 note=53 velocity=0 time=239
note_on channel=0 note=44 velocity=80 time=1
note_on channel=0 note=44 velocity=0 time=239
note_on channel=0 note=51 velocity=80 time=1
note_on channel=0 note=51 velocity=0 time=239
note_on channel=0 note=44 velocity=80 time=1
note_on channel=0 note=44 velocity=0 time=239
note_on channel=0 note=51 velocity=80 time=1
note_on channel=0 note=51 velocity=0 time=239
note_on channel=0 note=47 velocity=80 time=1
note_on channel=0 note=47 velocity=0 time=239
note_on channel=0 note=53 velocity=80 time=1
note_on channel=0 note=53 velocity=0 time=239
note_on channel=0 note=47 velocity=80 time=1
note_on channel=0 note=47 velocity=0 time=239
note_on channel=0 note=53 velocity=80 time=1
note_on channel=0 note=53 velocity=0 time=239
note_on channel=0 note=48 velocity=80 time=1
note_on channel=0 note=48 velocity=0 time=239
note_on channel=0 note=55 velocity=80 time=1
note_on channel=0 note=55 velocity=0 time=239
note_on channel=0 note=48 velocity=80 time=1
note_on channel=0 note=48 velocity=0 time=239
note_on channel=0 note=55 velocity=80 time=1
note_on channel=0 note=55 velocity=0 time=239
note_on channel=0 note=50 velocity=80 time=1
note_on channel=0 note=50 velocity=0 time=239
note_on channel=0 note=57 velocity=80 time=1
note_on channel=0 note=57 velocity=0 time=239
note_on channel=0 note=50 velocity=80 time=1
note_on channel=0 note=50 velocity=0 time=239
note_on channel=0 note=57 velocity=80 time=1
note_on channel=0 note=57 velocity=0 time=239
note_on channel=0 note=52 velocity=80 time=1
note_on channel=0 note=52 velocity=0 time=239
note_on channel=0 note=59 velocity=80 time=1
note_on channel=0 note=59 velocity=0 time=239
note_on channel=0 note=52 velocity=80 time=1
note_on channel=0 note=52 velocity=0 time=239
note_on channel=0 note=59 velocity=80 time=1
note_on channel=0 note=59 velocity=0 time=239
note_on channel=0 note=50 velocity=80 time=1
note_on channel=0 note=50 velocity=0 time=239
note_on channel=0 note=57 velocity=80 time=1
note_on channel=0 note=57 velocity=0 time=239
note_on channel=0 note=50 velocity=80 time=1
note_on channel=0 note=50 velocity=0 time=239
note_on channel=0 note=57 velocity=80 time=1
note_on channel=0 note=57 velocity=0 time=239
note_on channel=0 note=49 velocity=80 time=1
note_on channel=0 note=49 velocity=0 time=239
note_on channel=0 note=56 velocity=80 time=1
note_on channel=0 note=56 velocity=0 time=239
note_on channel=0 note=49 velocity=80 time=1
note_on channel=0 note=49 velocity=0 time=239
note_on channel=0 note=56 velocity=80 time=1
note_on channel=0 note=56 velocity=0 time=239
note_on channel=0 note=51 velocity=80 time=1
note_on channel=0 note=51 velocity=0 time=239
note_on channel=0 note=58 velocity=80 time=1
note_on channel=0 note=58 velocity=0 time=239
note_on channel=0 note=51 velocity=80 time=1
note_on channel=0 note=51 velocity=0 time=239
note_on channel=0 note=58 velocity=80 time=1
note_on channel=0 note=58 velocity=0 time=239
note_on channel=0 note=52 velocity=80 time=1
note_on channel=0 note=52 velocity=0 time=239
note_on channel=0 note=58 velocity=80 time=1
note_on channel=0 note=58 velocity=0 time=239
note_on channel=0 note=52 velocity=80 time=1
note_on channel=0 note=52 velocity=0 time=239
note_on channel=0 note=58 velocity=80 time=1
note_on channel=0 note=58 velocity=0 time=239
note_on channel=0 note=52 velocity=80 time=1
note_on channel=0 note=52 velocity=0 time=239
note_on channel=0 note=58 velocity=80 time=1
note_on channel=0 note=58 velocity=0 time=239
note_on channel=0 note=52 velocity=80 time=1
note_on channel=0 note=52 velocity=0 time=239
note_on channel=0 note=58 velocity=80 time=1
note_on channel=0 note=58 velocity=0 time=239
note_on channel=0 note=41 velocity=80 time=1
note_on channel=0 note=41 velocity=0 time=239
note_on channel=0 note=41 velocity=80 time=1
note_on channel=0 note=41 velocity=0 time=239
note_on channel=0 note=48 velocity=80 time=1
note_on channel=0 note=48 velocity=0 time=239
note_on channel=0 note=41 velocity=80 time=1
note_on channel=0 note=41 velocity=0 time=239
note_on channel=0 note=41 velocity=80 time=1
note_on channel=0 note=41 velocity=0 time=239
note_on channel=0 note=41 velocity=80 time=1
note_on channel=0 note=41 velocity=0 time=239
note_on channel=0 note=48 velocity=80 time=1
note_on channel=0 note=48 velocity=0 time=239
note_on channel=0 note=41 velocity=80 time=1
note_on channel=0 note=41 velocity=0 time=239
note_on channel=0 note=39 velocity=80 time=1
note_on channel=0 note=39 velocity=0 time=239
note_on channel=0 note=39 velocity=80 time=1
note_on channel=0 note=39 velocity=0 time=239
note_on channel=0 note=46 velocity=80 time=1
note_on channel=0 note=46 velocity=0 time=239
note_on channel=0 note=39 velocity=80 time=1
note_on channel=0 note=39 velocity=0 time=239
note_on channel=0 note=39 velocity=80 time=1
note_on channel=0 note=39 velocity=0 time=239
note_on channel=0 note=39 velocity=80 time=1
note_on channel=0 note=39 velocity=0 time=239
note_on channel=0 note=46 velocity=80 time=1
note_on channel=0 note=46 velocity=0 time=239
note_on channel=0 note=39 velocity=80 time=1
note_on channel=0 note=39 velocity=0 time=239
note_on channel=0 note=38 velocity=80 time=1
note_on channel=0 note=38 velocity=0 time=239
note_on channel=0 note=38 velocity=80 time=1
note_on channel=0 note=38 velocity=0 time=239
note_on channel=0 note=46 velocity=80 time=1
note_on channel=0 note=46 velocity=0 time=239
note_on channel=0 note=38 velocity=80 time=1
note_on channel=0 note=38 velocity=0 time=239
note_on channel=0 note=38 velocity=80 time=1
note_on channel=0 note=38 velocity=0 time=239
note_on channel=0 note=38 velocity=80 time=1
note_on channel=0 note=38 velocity=0 time=239
note_on channel=0 note=46 velocity=80 time=1
note_on channel=0 note=46 velocity=0 time=239
note_on channel=0 note=38 velocity=80 time=1
note_on channel=0 note=38 velocity=0 time=239
note_on channel=0 note=37 velocity=80 time=1
note_on channel=0 note=37 velocity=0 time=239
note_on channel=0 note=37 velocity=80 time=1
note_on channel=0 note=37 velocity=0 time=239
note_on channel=0 note=44 velocity=80 time=1
note_on channel=0 note=44 velocity=0 time=239
note_on channel=0 note=37 velocity=80 time=1
note_on channel=0 note=37 velocity=0 time=239
note_on channel=0 note=39 velocity=80 time=1
note_on channel=0 note=39 velocity=0 time=239
note_on channel=0 note=39 velocity=80 time=1
note_on channel=0 note=39 velocity=0 time=239
note_on channel=0 note=46 velocity=80 time=1
note_on channel=0 note=46 velocity=0 time=239
note_on channel=0 note=39 velocity=80 time=1
note_on channel=0 note=39 velocity=0 time=239
note_on channel=0 note=41 velocity=80 time=1
note_on channel=0 note=41 velocity=0 time=239
note_on channel=0 note=41 velocity=80 time=1
note_on channel=0 note=41 velocity=0 time=239
note_on channel=0 note=48 velocity=80 time=1
note_on channel=0 note=48 velocity=0 time=239
note_on channel=0 note=41 velocity=80 time=1
note_on channel=0 note=41 velocity=0 time=239
note_on channel=0 note=41 velocity=80 time=1
note_on channel=0 note=41 velocity=0 time=239
note_on channel=0 note=41 velocity=80 time=1
note_on channel=0 note=41 velocity=0 time=239
note_on channel=0 note=48 velocity=80 time=1
note_on channel=0 note=48 velocity=0 time=239
note_on channel=0 note=41 velocity=80 time=1
note_on channel=0 note=41 velocity=0 time=239
note_on channel=0 note=39 velocity=80 time=1
note_on channel=0 note=39 velocity=0 time=239
note_on channel=0 note=39 velocity=80 time=1
note_on channel=0 note=39 velocity=0 time=239
note_on channel=0 note=46 velocity=80 time=1
note_on channel=0 note=46 velocity=0 time=239
note_on channel=0 note=39 velocity=80 time=1
note_on channel=0 note=39 velocity=0 time=239
note_on channel=0 note=39 velocity=80 time=1
note_on channel=0 note=39 velocity=0 time=239
note_on channel=0 note=39 velocity=80 time=1
note_on channel=0 note=39 velocity=0 time=239
note_on channel=0 note=46 velocity=80 time=1
note_on channel=0 note=46 velocity=0 time=239
note_on channel=0 note=39 velocity=80 time=1
note_on channel=0 note=39 velocity=0 time=239
note_on channel=0 note=38 velocity=80 time=1
note_on channel=0 note=38 velocity=0 time=239
note_on channel=0 note=38 velocity=80 time=1
note_on channel=0 note=38 velocity=0 time=239
note_on channel=0 note=46 velocity=80 time=1
note_on channel=0 note=46 velocity=0 time=239
note_on channel=0 note=38 velocity=80 time=1
note_on channel=0 note=38 velocity=0 time=239
note_on channel=0 note=38 velocity=80 time=1
note_on channel=0 note=38 velocity=0 time=239
note_on channel=0 note=38 velocity=80 time=1
note_on channel=0 note=38 velocity=0 time=239
note_on channel=0 note=46 velocity=80 time=1
note_on channel=0 note=46 velocity=0 time=239
note_on channel=0 note=38 velocity=80 time=1
note_on channel=0 note=38 velocity=0 time=239
note_on channel=0 note=37 velocity=80 time=1
note_on channel=0 note=37 velocity=0 time=239
note_on channel=0 note=37 velocity=80 time=1
note_on channel=0 note=37 velocity=0 time=239
note_on channel=0 note=44 velocity=80 time=1
note_on channel=0 note=44 velocity=0 time=239
note_on channel=0 note=37 velocity=80 time=1
note_on channel=0 note=37 velocity=0 time=239
note_on channel=0 note=39 velocity=80 time=1
note_on channel=0 note=39 velocity=0 time=239
note_on channel=0 note=39 velocity=80 time=1
note_on channel=0 note=39 velocity=0 time=239
note_on channel=0 note=46 velocity=80 time=1
note_on channel=0 note=46 velocity=0 time=239
note_on channel=0 note=39 velocity=80 time=1
note_on channel=0 note=39 velocity=0 time=239
note_on channel=0 note=41 velocity=80 time=1
note_on channel=0 note=41 velocity=0 time=239
note_on channel=0 note=41 velocity=80 time=1
note_on channel=0 note=41 velocity=0 time=239
note_on channel=0 note=48 velocity=80 time=1
note_on channel=0 note=48 velocity=0 time=239
note_on channel=0 note=41 velocity=80 time=1
note_on channel=0 note=41 velocity=0 time=239
note_on channel=0 note=41 velocity=80 time=1
note_on channel=0 note=41 velocity=0 time=239
note_on channel=0 note=41 velocity=80 time=1
note_on channel=0 note=41 velocity=0 time=239
note_on channel=0 note=48 velocity=80 time=1
note_on channel=0 note=48 velocity=0 time=239
note_on channel=0 note=41 velocity=80 time=1
note_on channel=0 note=41 velocity=0 time=239
note_on channel=0 note=39 velocity=80 time=1
note_on channel=0 note=39 velocity=0 time=239
note_on channel=0 note=39 velocity=80 time=1
note_on channel=0 note=39 velocity=0 time=239
note_on channel=0 note=46 velocity=80 time=1
note_on channel=0 note=46 velocity=0 time=239
note_on channel=0 note=39 velocity=80 time=1
note_on channel=0 note=39 velocity=0 time=239
note_on channel=0 note=39 velocity=80 time=1
note_on channel=0 note=39 velocity=0 time=239
note_on channel=0 note=39 velocity=80 time=1
note_on channel=0 note=39 velocity=0 time=239
note_on channel=0 note=46 velocity=80 time=1
note_on channel=0 note=46 velocity=0 time=239
note_on channel=0 note=39 velocity=80 time=1
note_on channel=0 note=39 velocity=0 time=239
note_on channel=0 note=38 velocity=80 time=1
note_on channel=0 note=38 velocity=0 time=239
note_on channel=0 note=38 velocity=80 time=1
note_on channel=0 note=38 velocity=0 time=239
note_on channel=0 note=46 velocity=80 time=1
note_on channel=0 note=46 velocity=0 time=239
note_on channel=0 note=38 velocity=80 time=1
note_on channel=0 note=38 velocity=0 time=239
note_on channel=0 note=38 velocity=80 time=1
note_on channel=0 note=38 velocity=0 time=239
note_on channel=0 note=38 velocity=80 time=1
note_on channel=0 note=38 velocity=0 time=239
note_on channel=0 note=46 velocity=80 time=1
note_on channel=0 note=46 velocity=0 time=239
note_on channel=0 note=38 velocity=80 time=1
note_on channel=0 note=38 velocity=0 time=239
note_on channel=0 note=37 velocity=80 time=1
note_on channel=0 note=37 velocity=0 time=239
note_on channel=0 note=37 velocity=80 time=1
note_on channel=0 note=37 velocity=0 time=239
note_on channel=0 note=44 velocity=80 time=1
note_on channel=0 note=44 velocity=0 time=239
note_on channel=0 note=37 velocity=80 time=1
note_on channel=0 note=37 velocity=0 time=239
note_on channel=0 note=39 velocity=80 time=1
note_on channel=0 note=39 velocity=0 time=239
note_on channel=0 note=39 velocity=80 time=1
note_on channel=0 note=39 velocity=0 time=239
note_on channel=0 note=46 velocity=80 time=1
note_on channel=0 note=46 velocity=0 time=239
note_on channel=0 note=39 velocity=80 time=1
note_on channel=0 note=39 velocity=0 time=239
note_on channel=0 note=41 velocity=80 time=1
note_on channel=0 note=41 velocity=0 time=239
note_on channel=0 note=41 velocity=80 time=1
note_on channel=0 note=41 velocity=0 time=239
note_on channel=0 note=48 velocity=80 time=1
note_on channel=0 note=48 velocity=0 time=239
note_on channel=0 note=41 velocity=80 time=1
note_on channel=0 note=41 velocity=0 time=239
note_on channel=0 note=41 velocity=80 time=1
note_on channel=0 note=41 velocity=0 time=239
note_on channel=0 note=41 velocity=80 time=1
note_on channel=0 note=41 velocity=0 time=239
note_on channel=0 note=48 velocity=80 time=1
note_on channel=0 note=48 velocity=0 time=239
note_on channel=0 note=41 velocity=80 time=1
note_on channel=0 note=41 velocity=0 time=239
note_on channel=0 note=39 velocity=80 time=1
note_on channel=0 note=39 velocity=0 time=239
note_on channel=0 note=39 velocity=80 time=1
note_on channel=0 note=39 velocity=0 time=239
note_on channel=0 note=46 velocity=80 time=1
note_on channel=0 note=46 velocity=0 time=239
note_on channel=0 note=39 velocity=80 time=1
note_on channel=0 note=39 velocity=0 time=239
note_on channel=0 note=39 velocity=80 time=1
note_on channel=0 note=39 velocity=0 time=239
note_on channel=0 note=39 velocity=80 time=1
note_on channel=0 note=39 velocity=0 time=239
note_on channel=0 note=46 velocity=80 time=1
note_on channel=0 note=46 velocity=0 time=239
note_on channel=0 note=39 velocity=80 time=1
note_on channel=0 note=39 velocity=0 time=239
note_on channel=0 note=38 velocity=80 time=1
note_on channel=0 note=38 velocity=0 time=239
note_on channel=0 note=38 velocity=80 time=1
note_on channel=0 note=38 velocity=0 time=239
note_on channel=0 note=46 velocity=80 time=1
note_on channel=0 note=46 velocity=0 time=239
note_on channel=0 note=38 velocity=80 time=1
note_on channel=0 note=38 velocity=0 time=239
note_on channel=0 note=38 velocity=80 time=1
note_on channel=0 note=38 velocity=0 time=239
note_on channel=0 note=38 velocity=80 time=1
note_on channel=0 note=38 velocity=0 time=239
note_on channel=0 note=46 velocity=80 time=1
note_on channel=0 note=46 velocity=0 time=239
note_on channel=0 note=38 velocity=80 time=1
note_on channel=0 note=38 velocity=0 time=239
note_on channel=0 note=37 velocity=80 time=1
note_on channel=0 note=37 velocity=0 time=239
note_on channel=0 note=37 velocity=80 time=1
note_on channel=0 note=37 velocity=0 time=239
note_on channel=0 note=44 velocity=80 time=1
note_on channel=0 note=44 velocity=0 time=239
note_on channel=0 note=37 velocity=80 time=1
note_on channel=0 note=37 velocity=0 time=239
note_on channel=0 note=39 velocity=80 time=1
note_on channel=0 note=39 velocity=0 time=239
note_on channel=0 note=39 velocity=80 time=1
note_on channel=0 note=39 velocity=0 time=239
note_on channel=0 note=46 velocity=80 time=1
note_on channel=0 note=46 velocity=0 time=239
note_on channel=0 note=39 velocity=80 time=1
note_on channel=0 note=39 velocity=0 time=239
MetaMessage('key_signature', key='C', time=1)
note_on channel=0 note=53 velocity=80 time=0
note_on channel=0 note=48 velocity=80 time=0
note_on channel=0 note=53 velocity=0 time=719
note_on channel=0 note=48 velocity=0 time=0
note_on channel=0 note=57 velocity=80 time=241
note_on channel=0 note=53 velocity=80 time=0
note_on channel=0 note=57 velocity=0 time=719
note_on channel=0 note=53 velocity=0 time=0
note_on channel=0 note=56 velocity=80 time=1
note_on channel=0 note=52 velocity=80 time=0
note_on channel=0 note=56 velocity=0 time=719
note_on channel=0 note=52 velocity=0 time=0
note_on channel=0 note=55 velocity=80 time=1
note_on channel=0 note=51 velocity=80 time=0
note_on channel=0 note=55 velocity=0 time=719
note_on channel=0 note=51 velocity=0 time=0
note_on channel=0 note=52 velocity=80 time=1
note_on channel=0 note=47 velocity=80 time=0
note_on channel=0 note=52 velocity=0 time=719
note_on channel=0 note=47 velocity=0 time=0
note_on channel=0 note=53 velocity=80 time=1
note_on channel=0 note=48 velocity=80 time=0
note_on channel=0 note=53 velocity=0 time=719
note_on channel=0 note=48 velocity=0 time=0
note_on channel=0 note=57 velocity=80 time=241
note_on channel=0 note=53 velocity=80 time=0
note_on channel=0 note=57 velocity=0 time=719
note_on channel=0 note=53 velocity=0 time=0
note_on channel=0 note=56 velocity=80 time=1
note_on channel=0 note=52 velocity=80 time=0
note_on channel=0 note=56 velocity=0 time=719
note_on channel=0 note=52 velocity=0 time=0
note_on channel=0 note=55 velocity=80 time=1
note_on channel=0 note=51 velocity=80 time=0
note_on channel=0 note=55 velocity=0 time=719
note_on channel=0 note=51 velocity=0 time=0
note_on channel=0 note=52 velocity=80 time=1
note_on channel=0 note=47 velocity=80 time=0
note_on channel=0 note=52 velocity=0 time=719
note_on channel=0 note=47 velocity=0 time=0
note_on channel=0 note=53 velocity=80 time=1
note_on channel=0 note=48 velocity=80 time=0
note_on channel=0 note=53 velocity=0 time=719
note_on channel=0 note=48 velocity=0 time=0
note_on channel=0 note=57 velocity=80 time=241
note_on channel=0 note=53 velocity=80 time=0
note_on channel=0 note=57 velocity=0 time=719
note_on channel=0 note=53 velocity=0 time=0
note_on channel=0 note=56 velocity=80 time=1
note_on channel=0 note=52 velocity=80 time=0
note_on channel=0 note=56 velocity=0 time=719
note_on channel=0 note=52 velocity=0 time=0
note_on channel=0 note=55 velocity=80 time=1
note_on channel=0 note=51 velocity=80 time=0
note_on channel=0 note=55 velocity=0 time=719
note_on channel=0 note=51 velocity=0 time=0
note_on channel=0 note=52 velocity=80 time=1
note_on channel=0 note=47 velocity=80 time=0
note_on channel=0 note=52 velocity=0 time=719
note_on channel=0 note=47 velocity=0 time=0
note_on channel=0 note=53 velocity=80 time=1
note_on channel=0 note=48 velocity=80 time=0
note_on channel=0 note=53 velocity=0 time=719
note_on channel=0 note=48 velocity=0 time=0
note_on channel=0 note=57 velocity=80 time=241
note_on channel=0 note=53 velocity=80 time=0
note_on channel=0 note=57 velocity=0 time=719
note_on channel=0 note=53 velocity=0 time=0
note_on channel=0 note=56 velocity=80 time=1
note_on channel=0 note=52 velocity=80 time=0
note_on channel=0 note=56 velocity=0 time=719
note_on channel=0 note=52 velocity=0 time=0
note_on channel=0 note=55 velocity=80 time=1
note_on channel=0 note=51 velocity=80 time=0
note_on channel=0 note=55 velocity=0 time=719
note_on channel=0 note=51 velocity=0 time=0
note_on channel=0 note=52 velocity=80 time=1
note_on channel=0 note=47 velocity=80 time=0
note_on channel=0 note=52 velocity=0 time=719
note_on channel=0 note=47 velocity=0 time=0
MetaMessage('key_signature', key='Bb', time=1921)
note_on channel=0 note=55 velocity=80 time=0
note_on channel=0 note=55 velocity=0 time=479
note_on channel=0 note=55 velocity=80 time=1
note_on channel=0 note=55 velocity=0 time=239
note_on channel=0 note=58 velocity=80 time=241
note_on channel=0 note=58 velocity=0 time=239
note_on channel=0 note=53 velocity=80 time=1
note_on channel=0 note=53 velocity=0 time=239
note_on channel=0 note=58 velocity=80 time=241
note_on channel=0 note=58 velocity=0 time=239
note_on channel=0 note=55 velocity=80 time=1
note_on channel=0 note=55 velocity=0 time=479
note_on channel=0 note=58 velocity=80 time=1
note_on channel=0 note=58 velocity=0 time=239
note_on channel=0 note=53 velocity=80 time=1
note_on channel=0 note=53 velocity=0 time=239
note_on channel=0 note=58 velocity=80 time=241
note_on channel=0 note=58 velocity=0 time=239
note_on channel=0 note=55 velocity=80 time=1
note_on channel=0 note=55 velocity=0 time=479
note_on channel=0 note=51 velocity=80 time=1
note_on channel=0 note=51 velocity=0 time=479
note_on channel=0 note=51 velocity=80 time=1
note_on channel=0 note=51 velocity=0 time=479
note_on channel=0 note=53 velocity=80 time=1
note_on channel=0 note=53 velocity=0 time=239
note_on channel=0 note=55 velocity=80 time=1
note_on channel=0 note=55 velocity=0 time=239
note_on channel=0 note=50 velocity=80 time=1
note_on channel=0 note=50 velocity=0 time=239
note_on channel=0 note=51 velocity=80 time=1
note_on channel=0 note=51 velocity=0 time=239
note_on channel=0 note=53 velocity=80 time=1
note_on channel=0 note=53 velocity=0 time=479
note_on channel=0 note=50 velocity=80 time=1
note_on channel=0 note=50 velocity=0 time=239
note_on channel=0 note=53 velocity=80 time=1
note_on channel=0 note=53 velocity=0 time=479
note_on channel=0 note=50 velocity=80 time=241
note_on channel=0 note=50 velocity=0 time=239
note_on channel=0 note=53 velocity=80 time=1
note_on channel=0 note=53 velocity=0 time=239
note_on channel=0 note=55 velocity=80 time=1
note_on channel=0 note=55 velocity=0 time=479
note_on channel=0 note=55 velocity=80 time=1
note_on channel=0 note=55 velocity=0 time=239
note_on channel=0 note=58 velocity=80 time=241
note_on channel=0 note=58 velocity=0 time=239
note_on channel=0 note=53 velocity=80 time=1
note_on channel=0 note=53 velocity=0 time=239
note_on channel=0 note=58 velocity=80 time=241
note_on channel=0 note=58 velocity=0 time=239
note_on channel=0 note=55 velocity=80 time=1
note_on channel=0 note=55 velocity=0 time=239
note_on channel=0 note=58 velocity=80 time=241
note_on channel=0 note=58 velocity=0 time=239
note_on channel=0 note=53 velocity=80 time=1
note_on channel=0 note=53 velocity=0 time=239
note_on channel=0 note=58 velocity=80 time=241
note_on channel=0 note=58 velocity=0 time=239
note_on channel=0 note=55 velocity=80 time=1
note_on channel=0 note=55 velocity=0 time=479
note_on channel=0 note=51 velocity=80 time=1
note_on channel=0 note=51 velocity=0 time=479
note_on channel=0 note=51 velocity=80 time=1
note_on channel=0 note=51 velocity=0 time=479
note_on channel=0 note=53 velocity=80 time=1
note_on channel=0 note=53 velocity=0 time=239
note_on channel=0 note=55 velocity=80 time=1
note_on channel=0 note=55 velocity=0 time=239
note_on channel=0 note=50 velocity=80 time=1
note_on channel=0 note=50 velocity=0 time=239
note_on channel=0 note=51 velocity=80 time=1
note_on channel=0 note=51 velocity=0 time=239
note_on channel=0 note=53 velocity=80 time=1
note_on channel=0 note=53 velocity=0 time=479
note_on channel=0 note=50 velocity=80 time=1
note_on channel=0 note=50 velocity=0 time=239
note_on channel=0 note=53 velocity=80 time=1
note_on channel=0 note=53 velocity=0 time=479
note_on channel=0 note=50 velocity=80 time=241
note_on channel=0 note=50 velocity=0 time=239
note_on channel=0 note=53 velocity=80 time=1
note_on channel=0 note=53 velocity=0 time=239
note_on channel=0 note=55 velocity=80 time=1
note_on channel=0 note=55 velocity=0 time=479
note_on channel=0 note=55 velocity=80 time=1
note_on channel=0 note=55 velocity=0 time=239
note_on channel=0 note=58 velocity=80 time=241
note_on channel=0 note=58 velocity=0 time=239
note_on channel=0 note=53 velocity=80 time=1
note_on channel=0 note=53 velocity=0 time=239
note_on channel=0 note=58 velocity=80 time=241
note_on channel=0 note=58 velocity=0 time=239
note_on channel=0 note=55 velocity=80 time=1
note_on channel=0 note=55 velocity=0 time=239
note_on channel=0 note=58 velocity=80 time=241
note_on channel=0 note=58 velocity=0 time=239
note_on channel=0 note=53 velocity=80 time=1
note_on channel=0 note=53 velocity=0 time=239
note_on channel=0 note=58 velocity=80 time=241
note_on channel=0 note=58 velocity=0 time=239
note_on channel=0 note=55 velocity=80 time=1
note_on channel=0 note=55 velocity=0 time=479
note_on channel=0 note=51 velocity=80 time=1
note_on channel=0 note=51 velocity=0 time=479
note_on channel=0 note=51 velocity=80 time=1
note_on channel=0 note=51 velocity=0 time=479
note_on channel=0 note=53 velocity=80 time=1
note_on channel=0 note=53 velocity=0 time=239
note_on channel=0 note=55 velocity=80 time=1
note_on channel=0 note=55 velocity=0 time=239
note_on channel=0 note=50 velocity=80 time=1
note_on channel=0 note=50 velocity=0 time=239
note_on channel=0 note=51 velocity=80 time=1
note_on channel=0 note=51 velocity=0 time=239
note_on channel=0 note=53 velocity=80 time=1
note_on channel=0 note=53 velocity=0 time=479
note_on channel=0 note=50 velocity=80 time=1
note_on channel=0 note=50 velocity=0 time=239
note_on channel=0 note=53 velocity=80 time=1
note_on channel=0 note=53 velocity=0 time=479
note_on channel=0 note=50 velocity=80 time=241
note_on channel=0 note=50 velocity=0 time=239
note_on channel=0 note=53 velocity=80 time=1
note_on channel=0 note=53 velocity=0 time=239
note_on channel=0 note=55 velocity=80 time=1
note_on channel=0 note=55 velocity=0 time=479
note_on channel=0 note=55 velocity=80 time=1
note_on channel=0 note=55 velocity=0 time=239
note_on channel=0 note=58 velocity=80 time=241
note_on channel=0 note=58 velocity=0 time=239
note_on channel=0 note=53 velocity=80 time=1
note_on channel=0 note=53 velocity=0 time=239
note_on channel=0 note=58 velocity=80 time=241
note_on channel=0 note=58 velocity=0 time=239
note_on channel=0 note=55 velocity=80 time=1
note_on channel=0 note=55 velocity=0 time=239
note_on channel=0 note=58 velocity=80 time=241
note_on channel=0 note=58 velocity=0 time=239
note_on channel=0 note=53 velocity=80 time=1
note_on channel=0 note=53 velocity=0 time=239
note_on channel=0 note=58 velocity=80 time=241
note_on channel=0 note=58 velocity=0 time=239
note_on channel=0 note=55 velocity=80 time=1
note_on channel=0 note=55 velocity=0 time=479
note_on channel=0 note=51 velocity=80 time=1
note_on channel=0 note=51 velocity=0 time=479
note_on channel=0 note=51 velocity=80 time=1
note_on channel=0 note=51 velocity=0 time=479
note_on channel=0 note=53 velocity=80 time=1
note_on channel=0 note=53 velocity=0 time=239
note_on channel=0 note=55 velocity=80 time=1
note_on channel=0 note=55 velocity=0 time=239
note_on channel=0 note=50 velocity=80 time=1
note_on channel=0 note=50 velocity=0 time=239
note_on channel=0 note=51 velocity=80 time=1
note_on channel=0 note=51 velocity=0 time=239
note_on channel=0 note=53 velocity=80 time=1
note_on channel=0 note=53 velocity=0 time=479
note_on channel=0 note=50 velocity=80 time=1
note_on channel=0 note=50 velocity=0 time=239
note_on channel=0 note=53 velocity=80 time=1
note_on channel=0 note=53 velocity=0 time=479
note_on channel=0 note=50 velocity=80 time=241
note_on channel=0 note=50 velocity=0 time=239
note_on channel=0 note=53 velocity=80 time=1
note_on channel=0 note=53 velocity=0 time=239
note_on channel=0 note=55 velocity=80 time=1
note_on channel=0 note=55 velocity=0 time=479
note_on channel=0 note=55 velocity=80 time=1
note_on channel=0 note=55 velocity=0 time=239
note_on channel=0 note=58 velocity=80 time=241
note_on channel=0 note=58 velocity=0 time=239
note_on channel=0 note=53 velocity=80 time=1
note_on channel=0 note=53 velocity=0 time=239
note_on channel=0 note=58 velocity=80 time=241
note_on channel=0 note=58 velocity=0 time=239
note_on channel=0 note=55 velocity=80 time=1
note_on channel=0 note=55 velocity=0 time=479
note_on channel=0 note=58 velocity=80 time=1
note_on channel=0 note=58 velocity=0 time=239
note_on channel=0 note=53 velocity=80 time=1
note_on channel=0 note=53 velocity=0 time=239
note_on channel=0 note=58 velocity=80 time=241
note_on channel=0 note=58 velocity=0 time=239
note_on channel=0 note=55 velocity=80 time=1
note_on channel=0 note=55 velocity=0 time=479
note_on channel=0 note=51 velocity=80 time=1
note_on channel=0 note=51 velocity=0 time=479
note_on channel=0 note=51 velocity=80 time=1
note_on channel=0 note=51 velocity=0 time=479
note_on channel=0 note=53 velocity=80 time=1
note_on channel=0 note=53 velocity=0 time=239
note_on channel=0 note=55 velocity=80 time=1
note_on channel=0 note=55 velocity=0 time=239
note_on channel=0 note=50 velocity=80 time=1
note_on channel=0 note=50 velocity=0 time=239
note_on channel=0 note=51 velocity=80 time=1
note_on channel=0 note=51 velocity=0 time=239
note_on channel=0 note=53 velocity=80 time=1
note_on channel=0 note=53 velocity=0 time=479
note_on channel=0 note=50 velocity=80 time=1
note_on channel=0 note=50 velocity=0 time=239
note_on channel=0 note=53 velocity=80 time=1
note_on channel=0 note=53 velocity=0 time=479
note_on channel=0 note=50 velocity=80 time=241
note_on channel=0 note=50 velocity=0 time=239
note_on channel=0 note=53 velocity=80 time=1
note_on channel=0 note=53 velocity=0 time=239
note_on channel=0 note=55 velocity=80 time=1
note_on channel=0 note=55 velocity=0 time=479
note_on channel=0 note=55 velocity=80 time=1
note_on channel=0 note=55 velocity=0 time=239
note_on channel=0 note=58 velocity=80 time=241
note_on channel=0 note=58 velocity=0 time=239
note_on channel=0 note=53 velocity=80 time=1
note_on channel=0 note=53 velocity=0 time=239
note_on channel=0 note=58 velocity=80 time=241
note_on channel=0 note=58 velocity=0 time=239
note_on channel=0 note=55 velocity=80 time=1
note_on channel=0 note=55 velocity=0 time=479
note_on channel=0 note=58 velocity=80 time=1
note_on channel=0 note=58 velocity=0 time=239
note_on channel=0 note=53 velocity=80 time=1
note_on channel=0 note=53 velocity=0 time=239
note_on channel=0 note=58 velocity=80 time=241
note_on channel=0 note=58 velocity=0 time=239
note_on channel=0 note=55 velocity=80 time=1
note_on channel=0 note=55 velocity=0 time=479
note_on channel=0 note=51 velocity=80 time=1
note_on channel=0 note=51 velocity=0 time=479
note_on channel=0 note=51 velocity=80 time=1
note_on channel=0 note=51 velocity=0 time=479
note_on channel=0 note=53 velocity=80 time=1
note_on channel=0 note=53 velocity=0 time=239
note_on channel=0 note=55 velocity=80 time=1
note_on channel=0 note=55 velocity=0 time=239
note_on channel=0 note=50 velocity=80 time=1
note_on channel=0 note=50 velocity=0 time=239
note_on channel=0 note=51 velocity=80 time=1
note_on channel=0 note=51 velocity=0 time=239
note_on channel=0 note=53 velocity=80 time=1
note_on channel=0 note=53 velocity=0 time=479
note_on channel=0 note=50 velocity=80 time=1
note_on channel=0 note=50 velocity=0 time=239
note_on channel=0 note=53 velocity=80 time=1
note_on channel=0 note=53 velocity=0 time=479
note_on channel=0 note=50 velocity=80 time=241
note_on channel=0 note=50 velocity=0 time=239
note_on channel=0 note=53 velocity=80 time=1
note_on channel=0 note=53 velocity=0 time=239
note_on channel=0 note=55 velocity=80 time=1
note_on channel=0 note=55 velocity=0 time=479
note_on channel=0 note=55 velocity=80 time=1
note_on channel=0 note=55 velocity=0 time=239
note_on channel=0 note=58 velocity=80 time=241
note_on channel=0 note=58 velocity=0 time=239
note_on channel=0 note=53 velocity=80 time=1
note_on channel=0 note=53 velocity=0 time=239
note_on channel=0 note=58 velocity=80 time=241
note_on channel=0 note=58 velocity=0 time=239
note_on channel=0 note=55 velocity=80 time=1
note_on channel=0 note=55 velocity=0 time=479
note_on channel=0 note=58 velocity=80 time=1
note_on channel=0 note=58 velocity=0 time=239
note_on channel=0 note=53 velocity=80 time=1
note_on channel=0 note=53 velocity=0 time=239
note_on channel=0 note=58 velocity=80 time=241
note_on channel=0 note=58 velocity=0 time=239
note_on channel=0 note=55 velocity=80 time=1
note_on channel=0 note=55 velocity=0 time=479
note_on channel=0 note=51 velocity=80 time=1
note_on channel=0 note=51 velocity=0 time=479
note_on channel=0 note=51 velocity=80 time=1
note_on channel=0 note=51 velocity=0 time=479
note_on channel=0 note=53 velocity=80 time=1
note_on channel=0 note=53 velocity=0 time=239
note_on channel=0 note=55 velocity=80 time=1
note_on channel=0 note=55 velocity=0 time=239
note_on channel=0 note=50 velocity=80 time=1
note_on channel=0 note=50 velocity=0 time=239
note_on channel=0 note=51 velocity=80 time=1
note_on channel=0 note=51 velocity=0 time=239
note_on channel=0 note=53 velocity=80 time=1
note_on channel=0 note=53 velocity=0 time=479
note_on channel=0 note=50 velocity=80 time=1
note_on channel=0 note=50 velocity=0 time=239
note_on channel=0 note=53 velocity=80 time=1
note_on channel=0 note=53 velocity=0 time=479
note_on channel=0 note=50 velocity=80 time=241
note_on channel=0 note=50 velocity=0 time=239
note_on channel=0 note=53 velocity=80 time=1
note_on channel=0 note=53 velocity=0 time=239
note_on channel=0 note=55 velocity=80 time=1
note_on channel=0 note=55 velocity=0 time=479
note_on channel=0 note=55 velocity=80 time=1
note_on channel=0 note=55 velocity=0 time=239
note_on channel=0 note=58 velocity=80 time=241
note_on channel=0 note=58 velocity=0 time=239
note_on channel=0 note=53 velocity=80 time=1
note_on channel=0 note=53 velocity=0 time=239
note_on channel=0 note=58 velocity=80 time=241
note_on channel=0 note=58 velocity=0 time=239
note_on channel=0 note=55 velocity=80 time=1
note_on channel=0 note=55 velocity=0 time=479
note_on channel=0 note=58 velocity=80 time=1
note_on channel=0 note=58 velocity=0 time=239
note_on channel=0 note=53 velocity=80 time=1
note_on channel=0 note=53 velocity=0 time=239
note_on channel=0 note=58 velocity=80 time=241
note_on channel=0 note=58 velocity=0 time=239
note_on channel=0 note=55 velocity=80 time=1
note_on channel=0 note=55 velocity=0 time=479
note_on channel=0 note=51 velocity=80 time=1
note_on channel=0 note=51 velocity=0 time=479
note_on channel=0 note=51 velocity=80 time=1
note_on channel=0 note=51 velocity=0 time=479
note_on channel=0 note=53 velocity=80 time=1
note_on channel=0 note=53 velocity=0 time=239
note_on channel=0 note=55 velocity=80 time=1
note_on channel=0 note=55 velocity=0 time=239
note_on channel=0 note=50 velocity=80 time=1
note_on channel=0 note=50 velocity=0 time=239
note_on channel=0 note=51 velocity=80 time=1
note_on channel=0 note=51 velocity=0 time=239
note_on channel=0 note=53 velocity=80 time=1
note_on channel=0 note=53 velocity=0 time=479
note_on channel=0 note=50 velocity=80 time=1
note_on channel=0 note=50 velocity=0 time=239
note_on channel=0 note=53 velocity=80 time=1
note_on channel=0 note=53 velocity=0 time=479
note_on channel=0 note=50 velocity=80 time=241
note_on channel=0 note=50 velocity=0 time=239
note_on channel=0 note=53 velocity=80 time=1
note_on channel=0 note=53 velocity=0 time=239
note_on channel=0 note=55 velocity=80 time=1
note_on channel=0 note=55 velocity=0 time=239
note_on channel=0 note=62 velocity=80 time=1
note_on channel=0 note=62 velocity=0 time=239
note_on channel=0 note=55 velocity=80 time=1
note_on channel=0 note=55 velocity=0 time=239
note_on channel=0 note=62 velocity=80 time=1
note_on channel=0 note=62 velocity=0 time=239
note_on channel=0 note=53 velocity=80 time=1
note_on channel=0 note=53 velocity=0 time=239
note_on channel=0 note=60 velocity=80 time=1
note_on channel=0 note=60 velocity=0 time=239
note_on channel=0 note=53 velocity=80 time=1
note_on channel=0 note=53 velocity=0 time=239
note_on channel=0 note=60 velocity=80 time=1
note_on channel=0 note=60 velocity=0 time=239
note_on channel=0 note=51 velocity=80 time=1
note_on channel=0 note=51 velocity=0 time=239
note_on channel=0 note=58 velocity=80 time=1
note_on channel=0 note=58 velocity=0 time=239
note_on channel=0 note=51 velocity=80 time=1
note_on channel=0 note=51 velocity=0 time=239
note_on channel=0 note=58 velocity=80 time=1
note_on channel=0 note=58 velocity=0 time=239
note_on channel=0 note=53 velocity=80 time=1
note_on channel=0 note=53 velocity=0 time=239
note_on channel=0 note=60 velocity=80 time=1
note_on channel=0 note=60 velocity=0 time=239
note_on channel=0 note=53 velocity=80 time=1
note_on channel=0 note=53 velocity=0 time=239
note_on channel=0 note=60 velocity=80 time=1
note_on channel=0 note=60 velocity=0 time=239
note_on channel=0 note=55 velocity=80 time=1
note_on channel=0 note=55 velocity=0 time=239
note_on channel=0 note=62 velocity=80 time=1
note_on channel=0 note=62 velocity=0 time=239
note_on channel=0 note=55 velocity=80 time=1
note_on channel=0 note=55 velocity=0 time=239
note_on channel=0 note=62 velocity=80 time=1
note_on channel=0 note=62 velocity=0 time=239
note_on channel=0 note=53 velocity=80 time=1
note_on channel=0 note=53 velocity=0 time=239
note_on channel=0 note=60 velocity=80 time=1
note_on channel=0 note=60 velocity=0 time=239
note_on channel=0 note=53 velocity=80 time=1
note_on channel=0 note=53 velocity=0 time=239
note_on channel=0 note=60 velocity=80 time=1
note_on channel=0 note=60 velocity=0 time=239
note_on channel=0 note=51 velocity=80 time=1
note_on channel=0 note=51 velocity=0 time=239
note_on channel=0 note=58 velocity=80 time=1
note_on channel=0 note=58 velocity=0 time=239
note_on channel=0 note=51 velocity=80 time=1
note_on channel=0 note=51 velocity=0 time=239
note_on channel=0 note=58 velocity=80 time=1
note_on channel=0 note=58 velocity=0 time=239
note_on channel=0 note=54 velocity=80 time=1
note_on channel=0 note=54 velocity=0 time=239
note_on channel=0 note=60 velocity=80 time=1
note_on channel=0 note=60 velocity=0 time=239
note_on channel=0 note=54 velocity=80 time=1
note_on channel=0 note=54 velocity=0 time=239
note_on channel=0 note=60 velocity=80 time=1
note_on channel=0 note=60 velocity=0 time=239
note_on channel=0 note=55 velocity=80 time=1
note_on channel=0 note=55 velocity=0 time=239
note_on channel=0 note=62 velocity=80 time=1
note_on channel=0 note=62 velocity=0 time=239
note_on channel=0 note=55 velocity=80 time=1
note_on channel=0 note=55 velocity=0 time=239
note_on channel=0 note=62 velocity=80 time=1
note_on channel=0 note=62 velocity=0 time=239
note_on channel=0 note=57 velocity=80 time=1
note_on channel=0 note=57 velocity=0 time=239
note_on channel=0 note=64 velocity=80 time=1
note_on channel=0 note=64 velocity=0 time=239
note_on channel=0 note=57 velocity=80 time=1
note_on channel=0 note=57 velocity=0 time=239
note_on channel=0 note=64 velocity=80 time=1
note_on channel=0 note=64 velocity=0 time=239
note_on channel=0 note=59 velocity=80 time=1
note_on channel=0 note=59 velocity=0 time=239
note_on channel=0 note=66 velocity=80 time=1
note_on channel=0 note=66 velocity=0 time=239
note_on channel=0 note=59 velocity=80 time=1
note_on channel=0 note=59 velocity=0 time=239
note_on channel=0 note=66 velocity=80 time=1
note_on channel=0 note=66 velocity=0 time=239
note_on channel=0 note=57 velocity=80 time=1
note_on channel=0 note=57 velocity=0 time=239
note_on channel=0 note=64 velocity=80 time=1
note_on channel=0 note=64 velocity=0 time=239
note_on channel=0 note=57 velocity=80 time=1
note_on channel=0 note=57 velocity=0 time=239
note_on channel=0 note=64 velocity=80 time=1
note_on channel=0 note=64 velocity=0 time=239
note_on channel=0 note=56 velocity=80 time=1
note_on channel=0 note=56 velocity=0 time=239
note_on channel=0 note=63 velocity=80 time=1
note_on channel=0 note=63 velocity=0 time=239
note_on channel=0 note=56 velocity=80 time=1
note_on channel=0 note=56 velocity=0 time=239
note_on channel=0 note=63 velocity=80 time=1
note_on channel=0 note=63 velocity=0 time=239
note_on channel=0 note=58 velocity=80 time=1
note_on channel=0 note=58 velocity=0 time=239
note_on channel=0 note=65 velocity=80 time=1
note_on channel=0 note=65 velocity=0 time=239
note_on channel=0 note=58 velocity=80 time=1
note_on channel=0 note=58 velocity=0 time=239
note_on channel=0 note=65 velocity=80 time=1
note_on channel=0 note=65 velocity=0 time=239
note_on channel=0 note=59 velocity=80 time=1
note_on channel=0 note=59 velocity=0 time=239
note_on channel=0 note=65 velocity=80 time=1
note_on channel=0 note=65 velocity=0 time=239
note_on channel=0 note=59 velocity=80 time=1
note_on channel=0 note=59 velocity=0 time=239
note_on channel=0 note=65 velocity=80 time=1
note_on channel=0 note=65 velocity=0 time=239
note_on channel=0 note=59 velocity=80 time=1
note_on channel=0 note=59 velocity=0 time=239
note_on channel=0 note=65 velocity=80 time=1
note_on channel=0 note=65 velocity=0 time=239
note_on channel=0 note=59 velocity=80 time=1
note_on channel=0 note=59 velocity=0 time=239
note_on channel=0 note=65 velocity=80 time=1
note_on channel=0 note=65 velocity=0 time=239
note_on channel=0 note=48 velocity=80 time=1
note_on channel=0 note=48 velocity=0 time=239
note_on channel=0 note=48 velocity=80 time=1
note_on channel=0 note=48 velocity=0 time=239
note_on channel=0 note=55 velocity=80 time=1
note_on channel=0 note=55 velocity=0 time=239
note_on channel=0 note=48 velocity=80 time=1
note_on channel=0 note=48 velocity=0 time=239
note_on channel=0 note=48 velocity=80 time=1
note_on channel=0 note=48 velocity=0 time=239
note_on channel=0 note=48 velocity=80 time=1
note_on channel=0 note=48 velocity=0 time=239
note_on channel=0 note=55 velocity=80 time=1
note_on channel=0 note=55 velocity=0 time=239
note_on channel=0 note=48 velocity=80 time=1
note_on channel=0 note=48 velocity=0 time=239
note_on channel=0 note=46 velocity=80 time=1
note_on channel=0 note=46 velocity=0 time=239
note_on channel=0 note=46 velocity=80 time=1
note_on channel=0 note=46 velocity=0 time=239
note_on channel=0 note=53 velocity=80 time=1
note_on channel=0 note=53 velocity=0 time=239
note_on channel=0 note=46 velocity=80 time=1
note_on channel=0 note=46 velocity=0 time=239
note_on channel=0 note=46 velocity=80 time=1
note_on channel=0 note=46 velocity=0 time=239
note_on channel=0 note=46 velocity=80 time=1
note_on channel=0 note=46 velocity=0 time=239
note_on channel=0 note=53 velocity=80 time=1
note_on channel=0 note=53 velocity=0 time=239
note_on channel=0 note=46 velocity=80 time=1
note_on channel=0 note=46 velocity=0 time=239
note_on channel=0 note=45 velocity=80 time=1
note_on channel=0 note=45 velocity=0 time=239
note_on channel=0 note=45 velocity=80 time=1
note_on channel=0 note=45 velocity=0 time=239
note_on channel=0 note=53 velocity=80 time=1
note_on channel=0 note=53 velocity=0 time=239
note_on channel=0 note=45 velocity=80 time=1
note_on channel=0 note=45 velocity=0 time=239
note_on channel=0 note=45 velocity=80 time=1
note_on channel=0 note=45 velocity=0 time=239
note_on channel=0 note=45 velocity=80 time=1
note_on channel=0 note=45 velocity=0 time=239
note_on channel=0 note=53 velocity=80 time=1
note_on channel=0 note=53 velocity=0 time=239
note_on channel=0 note=45 velocity=80 time=1
note_on channel=0 note=45 velocity=0 time=239
note_on channel=0 note=44 velocity=80 time=1
note_on channel=0 note=44 velocity=0 time=239
note_on channel=0 note=44 velocity=80 time=1
note_on channel=0 note=44 velocity=0 time=239
note_on channel=0 note=51 velocity=80 time=1
note_on channel=0 note=51 velocity=0 time=239
note_on channel=0 note=44 velocity=80 time=1
note_on channel=0 note=44 velocity=0 time=239
note_on channel=0 note=46 velocity=80 time=1
note_on channel=0 note=46 velocity=0 time=239
note_on channel=0 note=46 velocity=80 time=1
note_on channel=0 note=46 velocity=0 time=239
note_on channel=0 note=53 velocity=80 time=1
note_on channel=0 note=53 velocity=0 time=239
note_on channel=0 note=46 velocity=80 time=1
note_on channel=0 note=46 velocity=0 time=239
note_on channel=0 note=48 velocity=80 time=1
note_on channel=0 note=48 velocity=0 time=239
note_on channel=0 note=48 velocity=80 time=1
note_on channel=0 note=48 velocity=0 time=239
note_on channel=0 note=55 velocity=80 time=1
note_on channel=0 note=55 velocity=0 time=239
note_on channel=0 note=48 velocity=80 time=1
note_on channel=0 note=48 velocity=0 time=239
note_on channel=0 note=48 velocity=80 time=1
note_on channel=0 note=48 velocity=0 time=239
note_on channel=0 note=48 velocity=80 time=1
note_on channel=0 note=48 velocity=0 time=239
note_on channel=0 note=55 velocity=80 time=1
note_on channel=0 note=55 velocity=0 time=239
note_on channel=0 note=48 velocity=80 time=1
note_on channel=0 note=48 velocity=0 time=239
note_on channel=0 note=46 velocity=80 time=1
note_on channel=0 note=46 velocity=0 time=239
note_on channel=0 note=46 velocity=80 time=1
note_on channel=0 note=46 velocity=0 time=239
note_on channel=0 note=53 velocity=80 time=1
note_on channel=0 note=53 velocity=0 time=239
note_on channel=0 note=46 velocity=80 time=1
note_on channel=0 note=46 velocity=0 time=239
note_on channel=0 note=46 velocity=80 time=1
note_on channel=0 note=46 velocity=0 time=239
note_on channel=0 note=46 velocity=80 time=1
note_on channel=0 note=46 velocity=0 time=239
note_on channel=0 note=53 velocity=80 time=1
note_on channel=0 note=53 velocity=0 time=239
note_on channel=0 note=46 velocity=80 time=1
note_on channel=0 note=46 velocity=0 time=239
note_on channel=0 note=45 velocity=80 time=1
note_on channel=0 note=45 velocity=0 time=239
note_on channel=0 note=45 velocity=80 time=1
note_on channel=0 note=45 velocity=0 time=239
note_on channel=0 note=53 velocity=80 time=1
note_on channel=0 note=53 velocity=0 time=239
note_on channel=0 note=45 velocity=80 time=1
note_on channel=0 note=45 velocity=0 time=239
note_on channel=0 note=45 velocity=80 time=1
note_on channel=0 note=45 velocity=0 time=239
note_on channel=0 note=45 velocity=80 time=1
note_on channel=0 note=45 velocity=0 time=239
note_on channel=0 note=53 velocity=80 time=1
note_on channel=0 note=53 velocity=0 time=239
note_on channel=0 note=45 velocity=80 time=1
note_on channel=0 note=45 velocity=0 time=239
note_on channel=0 note=44 velocity=80 time=1
note_on channel=0 note=44 velocity=0 time=239
note_on channel=0 note=44 velocity=80 time=1
note_on channel=0 note=44 velocity=0 time=239
note_on channel=0 note=51 velocity=80 time=1
note_on channel=0 note=51 velocity=0 time=239
note_on channel=0 note=44 velocity=80 time=1
note_on channel=0 note=44 velocity=0 time=239
note_on channel=0 note=46 velocity=80 time=1
note_on channel=0 note=46 velocity=0 time=239
note_on channel=0 note=46 velocity=80 time=1
note_on channel=0 note=46 velocity=0 time=239
note_on channel=0 note=53 velocity=80 time=1
note_on channel=0 note=53 velocity=0 time=239
note_on channel=0 note=46 velocity=80 time=1
note_on channel=0 note=46 velocity=0 time=239
note_on channel=0 note=48 velocity=80 time=1
note_on channel=0 note=48 velocity=0 time=239
note_on channel=0 note=48 velocity=80 time=1
note_on channel=0 note=48 velocity=0 time=239
note_on channel=0 note=55 velocity=80 time=1
note_on channel=0 note=55 velocity=0 time=239
note_on channel=0 note=48 velocity=80 time=1
note_on channel=0 note=48 velocity=0 time=239
note_on channel=0 note=48 velocity=80 time=1
note_on channel=0 note=48 velocity=0 time=239
note_on channel=0 note=48 velocity=80 time=1
note_on channel=0 note=48 velocity=0 time=239
note_on channel=0 note=55 velocity=80 time=1
note_on channel=0 note=55 velocity=0 time=239
note_on channel=0 note=48 velocity=80 time=1
note_on channel=0 note=48 velocity=0 time=239
note_on channel=0 note=46 velocity=80 time=1
note_on channel=0 note=46 velocity=0 time=239
note_on channel=0 note=46 velocity=80 time=1
note_on channel=0 note=46 velocity=0 time=239
note_on channel=0 note=53 velocity=80 time=1
note_on channel=0 note=53 velocity=0 time=239
note_on channel=0 note=46 velocity=80 time=1
note_on channel=0 note=46 velocity=0 time=239
note_on channel=0 note=46 velocity=80 time=1
note_on channel=0 note=46 velocity=0 time=239
note_on channel=0 note=46 velocity=80 time=1
note_on channel=0 note=46 velocity=0 time=239
note_on channel=0 note=53 velocity=80 time=1
note_on channel=0 note=53 velocity=0 time=239
note_on channel=0 note=46 velocity=80 time=1
note_on channel=0 note=46 velocity=0 time=239
note_on channel=0 note=45 velocity=80 time=1
note_on channel=0 note=45 velocity=0 time=239
note_on channel=0 note=45 velocity=80 time=1
note_on channel=0 note=45 velocity=0 time=239
note_on channel=0 note=53 velocity=80 time=1
note_on channel=0 note=53 velocity=0 time=239
note_on channel=0 note=45 velocity=80 time=1
note_on channel=0 note=45 velocity=0 time=239
note_on channel=0 note=45 velocity=80 time=1
note_on channel=0 note=45 velocity=0 time=239
note_on channel=0 note=45 velocity=80 time=1
note_on channel=0 note=45 velocity=0 time=239
note_on channel=0 note=53 velocity=80 time=1
note_on channel=0 note=53 velocity=0 time=239
note_on channel=0 note=45 velocity=80 time=1
note_on channel=0 note=45 velocity=0 time=239
note_on channel=0 note=44 velocity=80 time=1
note_on channel=0 note=44 velocity=0 time=239
note_on channel=0 note=44 velocity=80 time=1
note_on channel=0 note=44 velocity=0 time=239
note_on channel=0 note=51 velocity=80 time=1
note_on channel=0 note=51 velocity=0 time=239
note_on channel=0 note=44 velocity=80 time=1
note_on channel=0 note=44 velocity=0 time=239
note_on channel=0 note=46 velocity=80 time=1
note_on channel=0 note=46 velocity=0 time=239
note_on channel=0 note=46 velocity=80 time=1
note_on channel=0 note=46 velocity=0 time=239
note_on channel=0 note=53 velocity=80 time=1
note_on channel=0 note=53 velocity=0 time=239
note_on channel=0 note=46 velocity=80 time=1
note_on channel=0 note=46 velocity=0 time=239
note_on channel=0 note=48 velocity=80 time=1
note_on channel=0 note=48 velocity=0 time=239
note_on channel=0 note=48 velocity=80 time=1
note_on channel=0 note=48 velocity=0 time=239
note_on channel=0 note=55 velocity=80 time=1
note_on channel=0 note=55 velocity=0 time=239
note_on channel=0 note=48 velocity=80 time=1
note_on channel=0 note=48 velocity=0 time=239
note_on channel=0 note=48 velocity=80 time=1
note_on channel=0 note=48 velocity=0 time=239
note_on channel=0 note=48 velocity=80 time=1
note_on channel=0 note=48 velocity=0 time=239
note_on channel=0 note=55 velocity=80 time=1
note_on channel=0 note=55 velocity=0 time=239
note_on channel=0 note=48 velocity=80 time=1
note_on channel=0 note=48 velocity=0 time=239
note_on channel=0 note=46 velocity=80 time=1
note_on channel=0 note=46 velocity=0 time=239
note_on channel=0 note=46 velocity=80 time=1
note_on channel=0 note=46 velocity=0 time=239
note_on channel=0 note=53 velocity=80 time=1
note_on channel=0 note=53 velocity=0 time=239
note_on channel=0 note=46 velocity=80 time=1
note_on channel=0 note=46 velocity=0 time=239
note_on channel=0 note=46 velocity=80 time=1
note_on channel=0 note=46 velocity=0 time=239
note_on channel=0 note=46 velocity=80 time=1
note_on channel=0 note=46 velocity=0 time=239
note_on channel=0 note=53 velocity=80 time=1
note_on channel=0 note=53 velocity=0 time=239
note_on channel=0 note=46 velocity=80 time=1
note_on channel=0 note=46 velocity=0 time=239
note_on channel=0 note=45 velocity=80 time=1
note_on channel=0 note=45 velocity=0 time=239
note_on channel=0 note=45 velocity=80 time=1
note_on channel=0 note=45 velocity=0 time=239
note_on channel=0 note=53 velocity=80 time=1
note_on channel=0 note=53 velocity=0 time=239
note_on channel=0 note=45 velocity=80 time=1
note_on channel=0 note=45 velocity=0 time=239
note_on channel=0 note=45 velocity=80 time=1
note_on channel=0 note=45 velocity=0 time=239
note_on channel=0 note=45 velocity=80 time=1
note_on channel=0 note=45 velocity=0 time=239
note_on channel=0 note=53 velocity=80 time=1
note_on channel=0 note=53 velocity=0 time=239
note_on channel=0 note=45 velocity=80 time=1
note_on channel=0 note=45 velocity=0 time=239
note_on channel=0 note=44 velocity=80 time=1
note_on channel=0 note=44 velocity=0 time=239
note_on channel=0 note=44 velocity=80 time=1
note_on channel=0 note=44 velocity=0 time=239
note_on channel=0 note=51 velocity=80 time=1
note_on channel=0 note=51 velocity=0 time=239
note_on channel=0 note=44 velocity=80 time=1
note_on channel=0 note=44 velocity=0 time=239
note_on channel=0 note=46 velocity=80 time=1
note_on channel=0 note=46 velocity=0 time=239
note_on channel=0 note=46 velocity=80 time=1
note_on channel=0 note=46 velocity=0 time=239
note_on channel=0 note=53 velocity=80 time=1
note_on channel=0 note=53 velocity=0 time=239
note_on channel=0 note=46 velocity=80 time=1
note_on channel=0 note=46 velocity=0 time=239
note_on channel=0 note=55 velocity=80 time=1
note_on channel=0 note=51 velocity=80 time=0
note_on channel=0 note=48 velocity=80 time=0
note_on channel=0 note=55 velocity=0 time=1919
note_on channel=0 note=51 velocity=0 time=0
note_on channel=0 note=48 velocity=0 time=0
MetaMessage('end_of_track', time=1)
