Track 2: Piano LH
MetaMessage('track_name', name='Piano LH', time=0)
control_change channel=1 control=0 value=0 time=0
program_change channel=1 program=0 time=0
control_change channel=1 control=7 value=127 time=0
control_change channel=1 control=10 value=34 time=0
MetaMessage('key_signature', key='C', time=0)
pitchwheel channel=1 pitch=0 time=2
control_change channel=1 control=11 value=127 time=4
control_change channel=1 control=1 value=0 time=6
control_change channel=1 control=64 value=127 time=500
note_on channel=1 note=45 velocity=120 time=272
note_off channel=1 note=45 velocity=64 time=92
note_on channel=1 note=52 velocity=120 time=6
control_change channel=1 control=64 value=0 time=20
note_off channel=1 note=52 velocity=64 time=74
note_on channel=1 note=57 velocity=120 time=2
control_change channel=1 control=64 value=127 time=14
note_off channel=1 note=57 velocity=64 time=80
note_on channel=1 note=40 velocity=120 time=288
control_change channel=1 control=64 value=0 time=16
note_off channel=1 note=40 velocity=64 time=76
note_on channel=1 note=52 velocity=120 time=6
control_change channel=1 control=64 value=127 time=4
note_off channel=1 note=52 velocity=64 time=90
note_on channel=1 note=56 velocity=120 time=0
note_off channel=1 note=56 velocity=64 time=92
note_on channel=1 note=45 velocity=120 time=294
control_change channel=1 control=64 value=0 time=10
note_off channel=1 note=45 velocity=64 time=84
note_on channel=1 note=52 velocity=120 time=2
control_change channel=1 control=64 value=127 time=0
note_off channel=1 note=52 velocity=64 time=94
note_on channel=1 note=57 velocity=120 time=2
note_off channel=1 note=57 velocity=64 time=94
note_on channel=1 note=45 velocity=120 time=864
control_change channel=1 control=64 value=0 time=18
note_off channel=1 note=45 velocity=64 time=74
note_on channel=1 note=52 velocity=120 time=6
control_change channel=1 control=64 value=127 time=22
note_off channel=1 note=52 velocity=64 time=72
note_on channel=1 note=57 velocity=120 time=0
note_off channel=1 note=57 velocity=64 time=92
note_on channel=1 note=40 velocity=120 time=292
control_change channel=1 control=64 value=0 time=22
note_off channel=1 note=40 velocity=64 time=70
note_on channel=1 note=52 velocity=120 time=6
control_change channel=1 control=64 value=127 time=54
note_off channel=1 note=52 velocity=64 time=40
note_on channel=1 note=56 velocity=120 time=2
note_off channel=1 note=56 velocity=64 time=94
note_on channel=1 note=45 velocity=120 time=288
control_change channel=1 control=64 value=0 time=2
note_off channel=1 note=45 velocity=64 time=90
note_on channel=1 note=52 velocity=120 time=4
control_change channel=1 control=64 value=127 time=22
control_change channel=1 control=64 value=0 time=2
control_change channel=1 control=64 value=127 time=0
note_off channel=1 note=52 velocity=64 time=68
note_on channel=1 note=57 velocity=120 time=4
note_off channel=1 note=57 velocity=64 time=92
note_on channel=1 note=45 velocity=120 time=870
control_change channel=1 control=64 value=0 time=16
note_off channel=1 note=45 velocity=64 time=78
note_on channel=1 note=52 velocity=120 time=2
control_change channel=1 control=64 value=127 time=52
note_off channel=1 note=52 velocity=64 time=42
note_on channel=1 note=57 velocity=120 time=0
note_off channel=1 note=57 velocity=64 time=92
note_on channel=1 note=40 velocity=120 time=294
control_change channel=1 control=64 value=0 time=30
note_off channel=1 note=40 velocity=64 time=64
note_on channel=1 note=52 velocity=120 time=0
control_change channel=1 control=64 value=127 time=60
note_off channel=1 note=52 velocity=64 time=32
note_on channel=1 note=56 velocity=120 time=4
note_off channel=1 note=56 velocity=64 time=92
note_on channel=1 note=45 velocity=120 time=292
control_change channel=1 control=64 value=0 time=34
note_off channel=1 note=45 velocity=64 time=58
note_on channel=1 note=52 velocity=120 time=6
control_change channel=1 control=64 value=127 time=42
note_off channel=1 note=52 velocity=64 time=52
note_on channel=1 note=57 velocity=120 time=0
note_off channel=1 note=57 velocity=64 time=92
note_on channel=1 note=45 velocity=120 time=870
control_change channel=1 control=64 value=0 time=30
note_off channel=1 note=45 velocity=64 time=64
note_on channel=1 note=52 velocity=120 time=0
control_change channel=1 control=64 value=127 time=64
note_off channel=1 note=52 velocity=64 time=28
note_on channel=1 note=57 velocity=120 time=4
note_off channel=1 note=57 velocity=64 time=92
note_on channel=1 note=40 velocity=120 time=292
control_change channel=1 control=64 value=0 time=16
note_off channel=1 note=40 velocity=64 time=76
note_on channel=1 note=52 velocity=120 time=6
control_change channel=1 control=64 value=127 time=38
note_off channel=1 note=52 velocity=64 time=56
note_on channel=1 note=56 velocity=120 time=2
note_off channel=1 note=56 velocity=64 time=94
note_on channel=1 note=45 velocity=120 time=290
control_change channel=1 control=64 value=0 time=22
note_off channel=1 note=45 velocity=64 time=72
note_on channel=1 note=52 velocity=120 time=2
control_change channel=1 control=64 value=127 time=30
note_off channel=1 note=52 velocity=64 time=64
note_on channel=1 note=57 velocity=120 time=2
note_off channel=1 note=57 velocity=64 time=94
note_on channel=1 note=48 velocity=120 time=290
control_change channel=1 control=64 value=0 time=16
note_off channel=1 note=48 velocity=64 time=78
note_on channel=1 note=55 velocity=120 time=0
control_change channel=1 control=64 value=127 time=38
note_off channel=1 note=55 velocity=64 time=54
note_on channel=1 note=60 velocity=120 time=6
note_off channel=1 note=60 velocity=64 time=94
note_on channel=1 note=43 velocity=120 time=290
control_change channel=1 control=64 value=0 time=20
note_off channel=1 note=43 velocity=64 time=74
note_on channel=1 note=55 velocity=120 time=0
control_change channel=1 control=64 value=127 time=34
note_off channel=1 note=55 velocity=64 time=58
note_on channel=1 note=59 velocity=120 time=6
note_off channel=1 note=59 velocity=64 time=94
note_on channel=1 note=45 velocity=120 time=288
control_change channel=1 control=64 value=0 time=0
note_off channel=1 note=45 velocity=64 time=92
note_on channel=1 note=52 velocity=120 time=6
control_change channel=1 control=64 value=127 time=6
note_off channel=1 note=52 velocity=64 time=88
note_on channel=1 note=57 velocity=120 time=0
note_off channel=1 note=57 velocity=64 time=92
control_change channel=1 control=64 value=0 time=266
note_on channel=1 note=40 velocity=120 time=26
control_change channel=1 control=64 value=127 time=88
note_off channel=1 note=40 velocity=64 time=4
note_on channel=1 note=52 velocity=120 time=4
note_off channel=1 note=52 velocity=64 time=92
note_on channel=1 note=64 velocity=120 time=6
note_off channel=1 note=64 velocity=64 time=94
note_on channel=1 note=64 velocity=120 time=194
note_off channel=1 note=64 velocity=64 time=94
note_on channel=1 note=76 velocity=120 time=2
note_off channel=1 note=76 velocity=64 time=94
control_change channel=1 control=64 value=0 time=150
note_on channel=1 note=75 velocity=120 time=44
control_change channel=1 control=64 value=127 time=80
note_off channel=1 note=75 velocity=64 time=14
note_on channel=1 note=76 velocity=120 time=0
note_off channel=1 note=76 velocity=64 time=92
note_on channel=1 note=75 velocity=120 time=198
note_off channel=1 note=75 velocity=64 time=94
note_on channel=1 note=76 velocity=120 time=0
note_off channel=1 note=76 velocity=64 time=92
note_on channel=1 note=45 velocity=120 time=870
control_change channel=1 control=64 value=0 time=26
note_off channel=1 note=45 velocity=64 time=68
note_on channel=1 note=52 velocity=120 time=0
control_change channel=1 control=64 value=127 time=48
note_off channel=1 note=52 velocity=64 time=44
note_on channel=1 note=57 velocity=120 time=4
note_off channel=1 note=57 velocity=64 time=92
note_on channel=1 note=40 velocity=120 time=292
control_change channel=1 control=64 value=0 time=8
note_off channel=1 note=40 velocity=64 time=84
note_on channel=1 note=52 velocity=120 time=4
control_change channel=1 control=64 value=127 time=32
note_off channel=1 note=52 velocity=64 time=60
note_on channel=1 note=56 velocity=120 time=4
note_off channel=1 note=56 velocity=64 time=92
note_on channel=1 note=45 velocity=120 time=292
control_change channel=1 control=64 value=0 time=16
note_off channel=1 note=45 velocity=64 time=76
note_on channel=1 note=52 velocity=120 time=4
control_change channel=1 control=64 value=127 time=38
note_off channel=1 note=52 velocity=64 time=54
note_on channel=1 note=57 velocity=120 time=4
note_off channel=1 note=57 velocity=64 time=92
note_on channel=1 note=45 velocity=120 time=870
control_change channel=1 control=64 value=0 time=26
note_off channel=1 note=45 velocity=64 time=68
note_on channel=1 note=52 velocity=120 time=2
control_change channel=1 control=64 value=127 time=38
note_off channel=1 note=52 velocity=64 time=56
note_on channel=1 note=57 velocity=120 time=0
note_off channel=1 note=57 velocity=64 time=92
note_on channel=1 note=40 velocity=120 time=292
control_change channel=1 control=64 value=0 time=2
note_off channel=1 note=40 velocity=64 time=90
note_on channel=1 note=52 velocity=120 time=4
control_change channel=1 control=64 value=127 time=18
note_off channel=1 note=52 velocity=64 time=74
note_on channel=1 note=56 velocity=120 time=6
note_off channel=1 note=56 velocity=64 time=94
note_on channel=1 note=45 velocity=120 time=288
control_change channel=1 control=64 value=0 time=22
note_off channel=1 note=45 velocity=64 time=70
note_on channel=1 note=52 velocity=120 time=4
control_change channel=1 control=64 value=127 time=38
note_off channel=1 note=52 velocity=64 time=54
note_on channel=1 note=57 velocity=120 time=6
note_off channel=1 note=57 velocity=64 time=94
note_on channel=1 note=48 velocity=120 time=290
control_change channel=1 control=64 value=0 time=14
note_off channel=1 note=48 velocity=64 time=80
note_on channel=1 note=55 velocity=120 time=0
control_change channel=1 control=64 value=127 time=24
note_off channel=1 note=55 velocity=64 time=68
note_on channel=1 note=60 velocity=120 time=6
note_off channel=1 note=60 velocity=64 time=94
note_on channel=1 note=43 velocity=120 time=290
control_change channel=1 control=64 value=0 time=4
note_off channel=1 note=43 velocity=64 time=90
note_on channel=1 note=55 velocity=120 time=2
control_change channel=1 control=64 value=127 time=46
note_off channel=1 note=55 velocity=64 time=48
note_on channel=1 note=59 velocity=120 time=0
note_off channel=1 note=59 velocity=64 time=92
note_on channel=1 note=45 velocity=120 time=294
control_change channel=1 control=64 value=0 time=4
note_off channel=1 note=45 velocity=64 time=90
note_on channel=1 note=52 velocity=120 time=2
control_change channel=1 control=64 value=127 time=22
note_off channel=1 note=52 velocity=64 time=72
note_on channel=1 note=57 velocity=120 time=2
note_off channel=1 note=57 velocity=64 time=94
control_change channel=1 control=64 value=0 time=278
note_on channel=1 note=40 velocity=120 time=12
note_off channel=1 note=40 velocity=64 time=94
note_on channel=1 note=52 velocity=120 time=2
control_change channel=1 control=64 value=127 time=4
note_off channel=1 note=52 velocity=64 time=90
note_on channel=1 note=64 velocity=120 time=2
note_off channel=1 note=64 velocity=64 time=94
note_on channel=1 note=64 velocity=120 time=194
note_off channel=1 note=64 velocity=64 time=94
note_on channel=1 note=76 velocity=120 time=0
note_off channel=1 note=76 velocity=64 time=92
control_change channel=1 control=64 value=0 time=134
note_on channel=1 note=75 velocity=120 time=62
control_change channel=1 control=64 value=127 time=48
note_off channel=1 note=75 velocity=64 time=44
note_on channel=1 note=76 velocity=120 time=6
note_off channel=1 note=76 velocity=64 time=94
note_on channel=1 note=75 velocity=120 time=192
note_off channel=1 note=75 velocity=64 time=92
note_on channel=1 note=76 velocity=120 time=6
note_off channel=1 note=76 velocity=64 time=94
note_on channel=1 note=45 velocity=120 time=866
control_change channel=1 control=64 value=0 time=26
note_off channel=1 note=45 velocity=64 time=68
note_on channel=1 note=52 velocity=120 time=0
control_change channel=1 control=64 value=127 time=50
note_off channel=1 note=52 velocity=64 time=42
note_on channel=1 note=57 velocity=120 time=6
note_off channel=1 note=57 velocity=64 time=94
note_on channel=1 note=40 velocity=120 time=288
control_change channel=1 control=64 value=0 time=24
note_off channel=1 note=40 velocity=64 time=68
note_on channel=1 note=52 velocity=120 time=6
control_change channel=1 control=64 value=127 time=32
note_off channel=1 note=52 velocity=64 time=62
note_on channel=1 note=56 velocity=120 time=0
note_off channel=1 note=56 velocity=64 time=92
control_change channel=1 control=64 value=0 time=288
note_on channel=1 note=45 velocity=120 time=6
note_off channel=1 note=45 velocity=64 time=94
note_on channel=1 note=52 velocity=120 time=0
control_change channel=1 control=64 value=127 time=6
note_off channel=1 note=52 velocity=64 time=86
note_on channel=1 note=57 velocity=120 time=6
note_off channel=1 note=57 velocity=64 time=94
note_on channel=1 note=45 velocity=120 time=864
control_change channel=1 control=64 value=0 time=8
note_off channel=1 note=45 velocity=64 time=84
note_on channel=1 note=52 velocity=120 time=4
control_change channel=1 control=64 value=127 time=22
note_off channel=1 note=52 velocity=64 time=70
note_on channel=1 note=57 velocity=120 time=6
note_off channel=1 note=57 velocity=64 time=94
note_on channel=1 note=40 velocity=120 time=288
control_change channel=1 control=64 value=0 time=34
note_off channel=1 note=40 velocity=64 time=58
note_on channel=1 note=52 velocity=120 time=6
control_change channel=1 control=64 value=127 time=52
note_off channel=1 note=52 velocity=64 time=42
note_on channel=1 note=56 velocity=120 time=2
note_off channel=1 note=56 velocity=64 time=94
note_on channel=1 note=45 velocity=120 time=288
control_change channel=1 control=64 value=0 time=2
note_off channel=1 note=45 velocity=64 time=90
note_on channel=1 note=52 velocity=120 time=4
control_change channel=1 control=64 value=127 time=6
note_off channel=1 note=52 velocity=64 time=86
note_on channel=1 note=57 velocity=120 time=4
note_off channel=1 note=57 velocity=64 time=92
note_on channel=1 note=60 velocity=120 time=4
note_on channel=1 note=58 velocity=120 time=2
note_off channel=1 note=60 velocity=64 time=90
note_off channel=1 note=58 velocity=64 time=4
note_on channel=1 note=57 velocity=120 time=2
note_on channel=1 note=60 velocity=120 time=0
note_off channel=1 note=57 velocity=64 time=94
note_off channel=1 note=60 velocity=64 time=0
note_on channel=1 note=60 velocity=120 time=0
note_on channel=1 note=55 velocity=120 time=2
note_on channel=1 note=58 velocity=120 time=0
note_off channel=1 note=60 velocity=64 time=90
note_off channel=1 note=55 velocity=64 time=4
note_off channel=1 note=58 velocity=64 time=0
note_on channel=1 note=53 velocity=120 time=0
control_change channel=1 control=64 value=0 time=0
note_off channel=1 note=53 velocity=64 time=92
note_on channel=1 note=57 velocity=120 time=4
note_off channel=1 note=57 velocity=64 time=92
note_on channel=1 note=60 velocity=120 time=4
control_change channel=1 control=64 value=127 time=0
note_off channel=1 note=60 velocity=64 time=92
note_on channel=1 note=57 velocity=120 time=6
note_off channel=1 note=57 velocity=64 time=94
note_on channel=1 note=60 velocity=120 time=2
note_off channel=1 note=60 velocity=64 time=94
note_on channel=1 note=57 velocity=120 time=2
note_off channel=1 note=57 velocity=64 time=94
note_on channel=1 note=53 velocity=120 time=2
control_change channel=1 control=64 value=0 time=20
note_off channel=1 note=53 velocity=64 time=74
note_on channel=1 note=58 velocity=120 time=2
control_change channel=1 control=64 value=127 time=16
note_off channel=1 note=58 velocity=64 time=78
note_on channel=1 note=62 velocity=120 time=2
note_off channel=1 note=62 velocity=64 time=94
note_on channel=1 note=58 velocity=120 time=2
note_off channel=1 note=58 velocity=64 time=94
note_on channel=1 note=62 velocity=120 time=2
note_off channel=1 note=62 velocity=64 time=94
note_on channel=1 note=58 velocity=120 time=0
note_off channel=1 note=58 velocity=64 time=92
note_on channel=1 note=53 velocity=120 time=4
control_change channel=1 control=64 value=0 time=12
note_off channel=1 note=53 velocity=64 time=80
note_on channel=1 note=62 velocity=120 time=4
control_change channel=1 control=64 value=127 time=6
note_off channel=1 note=62 velocity=64 time=86
note_on channel=1 note=53 velocity=120 time=4
note_on channel=1 note=58 velocity=120 time=2
note_on channel=1 note=55 velocity=120 time=0
note_off channel=1 note=53 velocity=64 time=90
note_off channel=1 note=58 velocity=64 time=4
note_off channel=1 note=55 velocity=64 time=0
note_on channel=1 note=62 velocity=120 time=2
note_off channel=1 note=62 velocity=64 time=94
note_on channel=1 note=58 velocity=120 time=2
note_on channel=1 note=55 velocity=120 time=0
note_on channel=1 note=53 velocity=120 time=0
note_off channel=1 note=58 velocity=64 time=94
note_off channel=1 note=55 velocity=64 time=0
note_off channel=1 note=53 velocity=64 time=0
note_on channel=1 note=62 velocity=120 time=0
note_off channel=1 note=62 velocity=64 time=92
note_on channel=1 note=53 velocity=120 time=6
control_change channel=1 control=64 value=0 time=0
note_off channel=1 note=53 velocity=64 time=94
note_on channel=1 note=57 velocity=120 time=2
control_change channel=1 control=64 value=127 time=4
note_off channel=1 note=57 velocity=64 time=90
note_on channel=1 note=60 velocity=120 time=2
note_off channel=1 note=60 velocity=64 time=94
note_on channel=1 note=57 velocity=120 time=0
note_off channel=1 note=57 velocity=64 time=92
note_on channel=1 note=60 velocity=120 time=6
note_off channel=1 note=60 velocity=64 time=94
note_on channel=1 note=57 velocity=120 time=0
control_change channel=1 control=64 value=0 time=86
note_off channel=1 note=57 velocity=64 time=6
note_on channel=1 note=53 velocity=120 time=4
note_off channel=1 note=53 velocity=64 time=92
note_on channel=1 note=57 velocity=120 time=4
control_change channel=1 control=64 value=127 time=24
note_off channel=1 note=57 velocity=64 time=68
note_on channel=1 note=60 velocity=120 time=6
note_off channel=1 note=60 velocity=64 time=94
note_on channel=1 note=57 velocity=120 time=2
note_off channel=1 note=57 velocity=64 time=94
note_on channel=1 note=60 velocity=120 time=0
note_off channel=1 note=60 velocity=64 time=92
note_on channel=1 note=57 velocity=120 time=6
note_off channel=1 note=57 velocity=64 time=94
control_change channel=1 control=64 value=0 time=0
note_on channel=1 note=52 velocity=120 time=2
note_off channel=1 note=52 velocity=64 time=94
note_on channel=1 note=57 velocity=120 time=0
control_change channel=1 control=64 value=127 time=22
note_off channel=1 note=57 velocity=64 time=70
note_on channel=1 note=60 velocity=120 time=4
note_off channel=1 note=60 velocity=64 time=92
note_on channel=1 note=57 velocity=120 time=6
note_off channel=1 note=57 velocity=64 time=94
note_on channel=1 note=50 velocity=120 time=2
note_on channel=1 note=62 velocity=120 time=0
note_off channel=1 note=50 velocity=64 time=94
note_off channel=1 note=62 velocity=64 time=0
note_on channel=1 note=53 velocity=120 time=0
control_change channel=1 control=64 value=0 time=40
note_off channel=1 note=53 velocity=64 time=52
note_on channel=1 note=55 velocity=120 time=6
control_change channel=1 control=64 value=127 time=90
note_off channel=1 note=55 velocity=64 time=4
note_on channel=1 note=64 velocity=120 time=2
note_off channel=1 note=64 velocity=64 time=94
note_on channel=1 note=55 velocity=120 time=2
note_off channel=1 note=55 velocity=64 time=94
note_on channel=1 note=64 velocity=120 time=0
note_off channel=1 note=64 velocity=64 time=92
note_on channel=1 note=55 velocity=120 time=4
control_change channel=1 control=64 value=0 time=64
note_off channel=1 note=55 velocity=64 time=28
note_on channel=1 note=65 velocity=120 time=6
control_change channel=1 control=64 value=127 time=80
note_off channel=1 note=65 velocity=64 time=14
note_on channel=1 note=60 velocity=120 time=0
note_on channel=1 note=64 velocity=120 time=0
note_off channel=1 note=60 velocity=64 time=92
note_off channel=1 note=64 velocity=64 time=0
note_on channel=1 note=67 velocity=120 time=196
note_on channel=1 note=65 velocity=120 time=2
note_off channel=1 note=67 velocity=64 time=90
note_off channel=1 note=65 velocity=64 time=4
note_on channel=1 note=64 velocity=120 time=0
note_on channel=1 note=67 velocity=120 time=2
control_change channel=1 control=64 value=0 time=0
note_off channel=1 note=64 velocity=64 time=90
note_off channel=1 note=67 velocity=64 time=4
note_on channel=1 note=62 velocity=120 time=0
note_on channel=1 note=67 velocity=120 time=0
note_on channel=1 note=65 velocity=120 time=2
control_change channel=1 control=64 value=127 time=22
note_off channel=1 note=62 velocity=64 time=68
note_off channel=1 note=67 velocity=64 time=0
note_off channel=1 note=65 velocity=64 time=4
note_on channel=1 note=60 velocity=120 time=0
note_on channel=1 note=64 velocity=120 time=2
note_on channel=1 note=67 velocity=120 time=0
note_off channel=1 note=60 velocity=64 time=90
control_change channel=1 control=64 value=0 time=0
note_off channel=1 note=64 velocity=64 time=4
note_off channel=1 note=67 velocity=64 time=0
note_on channel=1 note=57 velocity=120 time=96
note_on channel=1 note=53 velocity=120 time=2
control_change channel=1 control=64 value=127 time=30
control_change channel=1 control=64 value=0 time=104
note_off channel=1 note=57 velocity=64 time=52
note_off channel=1 note=53 velocity=64 time=4
note_on channel=1 note=59 velocity=120 time=2
note_on channel=1 note=55 velocity=120 time=0
control_change channel=1 control=64 value=127 time=42
note_off channel=1 note=59 velocity=64 time=52
note_off channel=1 note=55 velocity=64 time=0
control_change channel=1 control=64 value=0 time=66
note_on channel=1 note=60 velocity=120 time=32
control_change channel=1 control=64 value=127 time=68
note_off channel=1 note=60 velocity=64 time=26
control_change channel=1 control=64 value=0 time=128
note_on channel=1 note=67 velocity=120 time=64
note_on channel=1 note=65 velocity=120 time=2
control_change channel=1 control=64 value=127 time=26
note_off channel=1 note=67 velocity=64 time=64
note_off channel=1 note=65 velocity=64 time=4
note_on channel=1 note=64 velocity=120 time=0
note_on channel=1 note=67 velocity=120 time=0
control_change channel=1 control=64 value=0 time=28
note_off channel=1 note=64 velocity=64 time=64
note_off channel=1 note=67 velocity=64 time=0
note_on channel=1 note=65 velocity=120 time=4
note_on channel=1 note=62 velocity=120 time=0
note_on channel=1 note=67 velocity=120 time=2
control_change channel=1 control=64 value=127 time=22
note_off channel=1 note=65 velocity=64 time=68
note_off channel=1 note=62 velocity=64 time=0
note_off channel=1 note=67 velocity=64 time=4
note_on channel=1 note=67 velocity=120 time=0
note_on channel=1 note=60 velocity=120 time=0
note_on channel=1 note=64 velocity=120 time=2
control_change channel=1 control=64 value=0 time=14
note_off channel=1 note=67 velocity=64 time=76
note_off channel=1 note=60 velocity=64 time=0
note_off channel=1 note=64 velocity=64 time=4
control_change channel=1 control=64 value=127 time=16
note_on channel=1 note=53 velocity=120 time=82
note_on channel=1 note=57 velocity=120 time=0
control_change channel=1 control=64 value=0 time=64
note_off channel=1 note=53 velocity=64 time=30
note_off channel=1 note=57 velocity=64 time=0
control_change channel=1 control=64 value=127 time=54
note_on channel=1 note=59 velocity=120 time=44
note_on channel=1 note=55 velocity=120 time=0
control_change channel=1 control=64 value=0 time=36
note_off channel=1 note=59 velocity=64 time=58
note_off channel=1 note=55 velocity=64 time=0
control_change channel=1 control=64 value=127 time=66
note_on channel=1 note=59 velocity=120 time=30
note_on channel=1 note=56 velocity=120 time=2
control_change channel=1 control=64 value=0 time=14
note_off channel=1 note=59 velocity=64 time=172
note_off channel=1 note=56 velocity=64 time=4
control_change channel=1 control=64 value=127 time=304
control_change channel=1 control=64 value=0 time=680
control_change channel=1 control=64 value=127 time=110
note_on channel=1 note=75 velocity=120 time=346
note_off channel=1 note=75 velocity=64 time=92
note_on channel=1 note=76 velocity=120 time=4
control_change channel=1 control=64 value=0 time=12
note_off channel=1 note=76 velocity=64 time=80
control_change channel=1 control=64 value=127 time=22
note_on channel=1 note=75 velocity=120 time=176
note_off channel=1 note=75 velocity=64 time=94
note_on channel=1 note=76 velocity=120 time=2
note_off channel=1 note=76 velocity=64 time=94
note_on channel=1 note=45 velocity=120 time=672
control_change channel=1 control=64 value=0 time=22
note_off channel=1 note=45 velocity=64 time=70
note_on channel=1 note=52 velocity=120 time=4
control_change channel=1 control=64 value=127 time=28
note_off channel=1 note=52 velocity=64 time=64
note_on channel=1 note=57 velocity=120 time=4
note_off channel=1 note=57 velocity=64 time=92
note_on channel=1 note=40 velocity=120 time=294
control_change channel=1 control=64 value=0 time=6
note_off channel=1 note=40 velocity=64 time=88
note_on channel=1 note=52 velocity=120 time=0
control_change channel=1 control=64 value=127 time=18
note_off channel=1 note=52 velocity=64 time=74
note_on channel=1 note=56 velocity=120 time=4
note_off channel=1 note=56 velocity=64 time=92
control_change channel=1 control=64 value=0 time=288
note_on channel=1 note=45 velocity=120 time=4
note_off channel=1 note=45 velocity=64 time=92
note_on channel=1 note=52 velocity=120 time=6
control_change channel=1 control=64 value=127 time=0
note_off channel=1 note=52 velocity=64 time=94
note_on channel=1 note=57 velocity=120 time=0
note_off channel=1 note=57 velocity=64 time=92
note_on channel=1 note=45 velocity=120 time=868
control_change channel=1 control=64 value=0 time=16
note_off channel=1 note=45 velocity=64 time=76
note_on channel=1 note=52 velocity=120 time=6
control_change channel=1 control=64 value=127 time=36
note_off channel=1 note=52 velocity=64 time=58
note_on channel=1 note=57 velocity=120 time=2
note_off channel=1 note=57 velocity=64 time=94
note_on channel=1 note=40 velocity=120 time=290
control_change channel=1 control=64 value=0 time=10
note_off channel=1 note=40 velocity=64 time=84
note_on channel=1 note=52 velocity=120 time=0
control_change channel=1 control=64 value=127 time=28
note_off channel=1 note=52 velocity=64 time=64
note_on channel=1 note=56 velocity=120 time=4
note_off channel=1 note=56 velocity=64 time=92
control_change channel=1 control=64 value=0 time=288
note_on channel=1 note=45 velocity=120 time=6
note_off channel=1 note=45 velocity=64 time=94
note_on channel=1 note=52 velocity=120 time=0
control_change channel=1 control=64 value=127 time=18
note_off channel=1 note=52 velocity=64 time=74
note_on channel=1 note=57 velocity=120 time=6
note_off channel=1 note=57 velocity=64 time=94
note_on channel=1 note=48 velocity=120 time=290
control_change channel=1 control=64 value=0 time=6
note_off channel=1 note=48 velocity=64 time=88
note_on channel=1 note=55 velocity=120 time=0
control_change channel=1 control=64 value=127 time=32
note_off channel=1 note=55 velocity=64 time=60
note_on channel=1 note=60 velocity=120 time=6
note_off channel=1 note=60 velocity=64 time=94
note_on channel=1 note=43 velocity=120 time=288
control_change channel=1 control=64 value=0 time=2
note_off channel=1 note=43 velocity=64 time=90
note_on channel=1 note=55 velocity=120 time=6
control_change channel=1 control=64 value=127 time=22
note_off channel=1 note=55 velocity=64 time=72
note_on channel=1 note=59 velocity=120 time=0
note_off channel=1 note=59 velocity=64 time=92
note_on channel=1 note=45 velocity=120 time=292
control_change channel=1 control=64 value=0 time=0
note_off channel=1 note=45 velocity=64 time=92
note_on channel=1 note=52 velocity=120 time=6
control_change channel=1 control=64 value=127 time=16
note_off channel=1 note=52 velocity=64 time=78
note_on channel=1 note=57 velocity=120 time=0
note_off channel=1 note=57 velocity=64 time=92
control_change channel=1 control=64 value=0 time=292
note_on channel=1 note=40 velocity=120 time=0
note_off channel=1 note=40 velocity=64 time=92
note_on channel=1 note=52 velocity=120 time=6
control_change channel=1 control=64 value=127 time=4
note_off channel=1 note=52 velocity=64 time=90
note_on channel=1 note=64 velocity=120 time=0
note_off channel=1 note=64 velocity=64 time=92
note_on channel=1 note=64 velocity=120 time=196
note_off channel=1 note=64 velocity=64 time=92
note_on channel=1 note=76 velocity=120 time=4
note_off channel=1 note=76 velocity=64 time=92
note_on channel=1 note=75 velocity=120 time=196
control_change channel=1 control=64 value=0 time=64
note_off channel=1 note=75 velocity=64 time=28
note_on channel=1 note=76 velocity=120 time=4
control_change channel=1 control=64 value=127 time=80
note_off channel=1 note=76 velocity=64 time=12
note_on channel=1 note=75 velocity=120 time=196
note_off channel=1 note=75 velocity=64 time=92
note_on channel=1 note=76 velocity=120 time=4
note_off channel=1 note=76 velocity=64 time=92
note_on channel=1 note=45 velocity=120 time=870
control_change channel=1 control=64 value=0 time=14
note_off channel=1 note=45 velocity=64 time=80
note_on channel=1 note=52 velocity=120 time=0
control_change channel=1 control=64 value=127 time=34
note_off channel=1 note=52 velocity=64 time=58
note_on channel=1 note=57 velocity=120 time=6
note_off channel=1 note=57 velocity=64 time=94
note_on channel=1 note=40 velocity=120 time=288
control_change channel=1 control=64 value=0 time=8
note_off channel=1 note=40 velocity=64 time=84
note_on channel=1 note=52 velocity=120 time=4
control_change channel=1 control=64 value=127 time=24
note_off channel=1 note=52 velocity=64 time=68
note_on channel=1 note=56 velocity=120 time=6
note_off channel=1 note=56 velocity=64 time=94
note_on channel=1 note=45 velocity=120 time=290
control_change channel=1 control=64 value=0 time=16
note_off channel=1 note=45 velocity=64 time=78
note_on channel=1 note=52 velocity=120 time=2
control_change channel=1 control=64 value=127 time=38
note_off channel=1 note=52 velocity=64 time=56
note_on channel=1 note=57 velocity=120 time=2
note_off channel=1 note=57 velocity=64 time=94
note_on channel=1 note=45 velocity=120 time=864
control_change channel=1 control=64 value=0 time=50
note_off channel=1 note=45 velocity=64 time=42
note_on channel=1 note=52 velocity=120 time=4
control_change channel=1 control=64 value=127 time=70
note_off channel=1 note=52 velocity=64 time=22
note_on channel=1 note=57 velocity=120 time=6
note_off channel=1 note=57 velocity=64 time=94
note_on channel=1 note=40 velocity=120 time=288
control_change channel=1 control=64 value=0 time=48
note_off channel=1 note=40 velocity=64 time=44
note_on channel=1 note=52 velocity=120 time=4
control_change channel=1 control=64 value=127 time=60
note_off channel=1 note=52 velocity=64 time=32
note_on channel=1 note=56 velocity=120 time=4
note_off channel=1 note=56 velocity=64 time=92
note_on channel=1 note=45 velocity=120 time=292
control_change channel=1 control=64 value=0 time=18
note_off channel=1 note=45 velocity=64 time=74
note_on channel=1 note=45 velocity=120 time=6
control_change channel=1 control=64 value=127 time=32
note_off channel=1 note=45 velocity=64 time=62
note_on channel=1 note=45 velocity=120 time=0
note_off channel=1 note=45 velocity=64 time=92
note_on channel=1 note=45 velocity=120 time=4
note_off channel=1 note=45 velocity=64 time=92
note_on channel=1 note=45 velocity=120 time=6
note_off channel=1 note=45 velocity=64 time=94
note_on channel=1 note=45 velocity=120 time=2
note_off channel=1 note=45 velocity=64 time=94
note_on channel=1 note=45 velocity=120 time=2
control_change channel=1 control=64 value=0 time=26
note_off channel=1 note=45 velocity=64 time=68
note_on channel=1 note=45 velocity=120 time=0
control_change channel=1 control=64 value=127 time=28
note_off channel=1 note=45 velocity=64 time=64
note_on channel=1 note=45 velocity=120 time=6
note_off channel=1 note=45 velocity=64 time=94
note_on channel=1 note=45 velocity=120 time=2
note_off channel=1 note=45 velocity=64 time=94
note_on channel=1 note=45 velocity=120 time=0
note_off channel=1 note=45 velocity=64 time=92
note_on channel=1 note=45 velocity=120 time=4
note_off channel=1 note=45 velocity=64 time=92
note_on channel=1 note=45 velocity=120 time=4
control_change channel=1 control=64 value=0 time=12
note_off channel=1 note=45 velocity=64 time=80
note_on channel=1 note=45 velocity=120 time=4
control_change channel=1 control=64 value=127 time=8
note_off channel=1 note=45 velocity=64 time=84
note_on channel=1 note=45 velocity=120 time=6
note_off channel=1 note=45 velocity=64 time=94
note_on channel=1 note=45 velocity=120 time=0
note_off channel=1 note=45 velocity=64 time=92
note_on channel=1 note=45 velocity=120 time=4
note_off channel=1 note=45 velocity=64 time=92
note_on channel=1 note=45 velocity=120 time=4
note_off channel=1 note=45 velocity=64 time=92
note_on channel=1 note=45 velocity=120 time=4
control_change channel=1 control=64 value=0 time=2
note_off channel=1 note=45 velocity=64 time=90
note_on channel=1 note=45 velocity=120 time=4
control_change channel=1 control=64 value=127 time=16
note_off channel=1 note=45 velocity=64 time=76
note_on channel=1 note=45 velocity=120 time=6
note_off channel=1 note=45 velocity=64 time=94
note_on channel=1 note=45 velocity=120 time=0
note_off channel=1 note=45 velocity=64 time=92
note_on channel=1 note=45 velocity=120 time=6
note_off channel=1 note=45 velocity=64 time=94
note_on channel=1 note=45 velocity=120 time=0
note_off channel=1 note=45 velocity=64 time=92
note_on channel=1 note=45 velocity=120 time=6
control_change channel=1 control=64 value=0 time=0
control_change channel=1 control=64 value=127 time=84
note_off channel=1 note=45 velocity=64 time=10
note_on channel=1 note=45 velocity=120 time=0
note_off channel=1 note=45 velocity=64 time=92
note_on channel=1 note=45 velocity=120 time=6
note_off channel=1 note=45 velocity=64 time=94
note_on channel=1 note=45 velocity=120 time=0
note_off channel=1 note=45 velocity=64 time=92
note_on channel=1 note=45 velocity=120 time=6
note_off channel=1 note=45 velocity=64 time=94
note_on channel=1 note=45 velocity=120 time=0
note_off channel=1 note=45 velocity=64 time=92
control_change channel=1 control=64 value=0 time=0
note_on channel=1 note=45 velocity=120 time=6
note_on channel=1 note=38 velocity=120 time=0
note_off channel=1 note=45 velocity=64 time=94
note_off channel=1 note=38 velocity=64 time=0
control_change channel=1 control=64 value=127 time=0
note_on channel=1 note=45 velocity=120 time=2
note_on channel=1 note=38 velocity=120 time=0
note_off channel=1 note=45 velocity=64 time=94
note_off channel=1 note=38 velocity=64 time=0
note_on channel=1 note=38 velocity=120 time=0
note_on channel=1 note=45 velocity=120 time=2
note_off channel=1 note=38 velocity=64 time=90
note_off channel=1 note=45 velocity=64 time=4
note_on channel=1 note=45 velocity=120 time=2
note_on channel=1 note=38 velocity=120 time=0
note_off channel=1 note=38 velocity=64 time=94
note_off channel=1 note=45 velocity=64 time=0
note_on channel=1 note=45 velocity=120 time=0
note_on channel=1 note=38 velocity=120 time=2
note_off channel=1 note=45 velocity=64 time=90
note_off channel=1 note=38 velocity=64 time=4
note_on channel=1 note=45 velocity=120 time=0
note_on channel=1 note=38 velocity=120 time=2
note_off channel=1 note=45 velocity=64 time=90
note_off channel=1 note=38 velocity=64 time=4
control_change channel=1 control=64 value=0 time=0
note_on channel=1 note=39 velocity=120 time=2
note_on channel=1 note=45 velocity=120 time=0
note_off channel=1 note=39 velocity=64 time=94
note_off channel=1 note=45 velocity=64 time=0
note_on channel=1 note=45 velocity=120 time=0
note_on channel=1 note=39 velocity=120 time=2
control_change channel=1 control=64 value=127 time=16
note_off channel=1 note=45 velocity=64 time=74
note_off channel=1 note=39 velocity=64 time=4
note_on channel=1 note=45 velocity=120 time=2
note_on channel=1 note=39 velocity=120 time=0
note_off channel=1 note=45 velocity=64 time=94
note_off channel=1 note=39 velocity=64 time=0
note_on channel=1 note=39 velocity=120 time=0
note_on channel=1 note=45 velocity=120 time=0
note_off channel=1 note=39 velocity=64 time=92
note_off channel=1 note=45 velocity=64 time=0
note_on channel=1 note=45 velocity=120 time=4
note_on channel=1 note=39 velocity=120 time=2
note_off channel=1 note=45 velocity=64 time=90
note_off channel=1 note=39 velocity=64 time=4
note_on channel=1 note=39 velocity=120 time=0
note_on channel=1 note=45 velocity=120 time=0
note_off channel=1 note=39 velocity=64 time=92
note_off channel=1 note=45 velocity=64 time=0
note_on channel=1 note=45 velocity=120 time=4
note_on channel=1 note=40 velocity=120 time=0
control_change channel=1 control=64 value=0 time=2
note_off channel=1 note=45 velocity=64 time=90
note_off channel=1 note=40 velocity=64 time=0
note_on channel=1 note=45 velocity=120 time=6
note_on channel=1 note=40 velocity=120 time=0
control_change channel=1 control=64 value=127 time=0
note_off channel=1 note=45 velocity=64 time=94
note_off channel=1 note=40 velocity=64 time=0
note_on channel=1 note=40 velocity=120 time=0
note_on channel=1 note=45 velocity=120 time=2
note_off channel=1 note=40 velocity=64 time=90
note_off channel=1 note=45 velocity=64 time=4
note_on channel=1 note=40 velocity=120 time=0
note_on channel=1 note=45 velocity=120 time=2
note_off channel=1 note=40 velocity=64 time=90
note_off channel=1 note=45 velocity=64 time=4
note_on channel=1 note=44 velocity=120 time=0
note_on channel=1 note=40 velocity=120 time=0
note_off channel=1 note=44 velocity=64 time=92
note_off channel=1 note=40 velocity=64 time=0
note_on channel=1 note=44 velocity=120 time=6
note_on channel=1 note=40 velocity=120 time=0
control_change channel=1 control=64 value=0 time=80
note_off channel=1 note=44 velocity=64 time=14
note_off channel=1 note=40 velocity=64 time=0
note_on channel=1 note=33 velocity=120 time=0
note_on channel=1 note=45 velocity=120 time=0
note_off channel=1 note=45 velocity=64 time=92
note_on channel=1 note=45 velocity=120 time=4
control_change channel=1 control=64 value=127 time=0
note_off channel=1 note=33 velocity=64 time=92
note_off channel=1 note=45 velocity=64 time=0
note_on channel=1 note=45 velocity=120 time=6
note_off channel=1 note=45 velocity=64 time=94
note_on channel=1 note=45 velocity=120 time=2
note_off channel=1 note=45 velocity=64 time=94
note_on channel=1 note=45 velocity=120 time=2
note_off channel=1 note=45 velocity=64 time=94
note_on channel=1 note=45 velocity=120 time=2
note_off channel=1 note=45 velocity=64 time=94
note_on channel=1 note=45 velocity=120 time=2
control_change channel=1 control=64 value=0 time=10
note_off channel=1 note=45 velocity=64 time=84
note_on channel=1 note=45 velocity=120 time=2
control_change channel=1 control=64 value=127 time=26
note_off channel=1 note=45 velocity=64 time=68
note_on channel=1 note=45 velocity=120 time=2
note_off channel=1 note=45 velocity=64 time=94
note_on channel=1 note=45 velocity=120 time=2
note_off channel=1 note=45 velocity=64 time=94
note_on channel=1 note=45 velocity=120 time=0
note_off channel=1 note=45 velocity=64 time=92
note_on channel=1 note=45 velocity=120 time=4
note_off channel=1 note=45 velocity=64 time=92
note_on channel=1 note=45 velocity=120 time=4
control_change channel=1 control=64 value=0 time=2
note_off channel=1 note=45 velocity=64 time=90
note_on channel=1 note=45 velocity=120 time=6
control_change channel=1 control=64 value=127 time=16
note_off channel=1 note=45 velocity=64 time=78
note_on channel=1 note=45 velocity=120 time=2
note_off channel=1 note=45 velocity=64 time=94
note_on channel=1 note=45 velocity=120 time=2
note_off channel=1 note=45 velocity=64 time=94
note_on channel=1 note=45 velocity=120 time=2
note_off channel=1 note=45 velocity=64 time=94
note_on channel=1 note=45 velocity=120 time=2
note_off channel=1 note=45 velocity=64 time=94
note_on channel=1 note=45 velocity=120 time=2
control_change channel=1 control=64 value=0 time=16
note_off channel=1 note=45 velocity=64 time=78
note_on channel=1 note=45 velocity=120 time=2
control_change channel=1 control=64 value=127 time=30
note_off channel=1 note=45 velocity=64 time=64
note_on channel=1 note=45 velocity=120 time=0
note_off channel=1 note=45 velocity=64 time=92
note_on channel=1 note=45 velocity=120 time=4
note_off channel=1 note=45 velocity=64 time=92
note_on channel=1 note=45 velocity=120 time=6
note_off channel=1 note=45 velocity=64 time=94
note_on channel=1 note=45 velocity=120 time=0
note_off channel=1 note=45 velocity=64 time=92
note_on channel=1 note=46 velocity=120 time=4
control_change channel=1 control=64 value=0 time=24
note_off channel=1 note=46 velocity=64 time=68
note_on channel=1 note=46 velocity=120 time=6
control_change channel=1 control=64 value=127 time=38
note_off channel=1 note=46 velocity=64 time=56
note_on channel=1 note=46 velocity=120 time=0
note_off channel=1 note=46 velocity=64 time=92
note_on channel=1 note=46 velocity=120 time=4
note_off channel=1 note=46 velocity=64 time=92
note_on channel=1 note=46 velocity=120 time=6
note_off channel=1 note=46 velocity=64 time=94
note_on channel=1 note=46 velocity=120 time=2
note_off channel=1 note=46 velocity=64 time=94
note_on channel=1 note=46 velocity=120 time=2
control_change channel=1 control=64 value=0 time=4
note_off channel=1 note=46 velocity=64 time=90
note_on channel=1 note=46 velocity=120 time=0
control_change channel=1 control=64 value=127 time=24
note_off channel=1 note=46 velocity=64 time=68
note_on channel=1 note=46 velocity=120 time=6
note_off channel=1 note=46 velocity=64 time=94
note_on channel=1 note=46 velocity=120 time=0
note_off channel=1 note=46 velocity=64 time=92
note_on channel=1 note=46 velocity=120 time=4
note_off channel=1 note=46 velocity=64 time=92
note_on channel=1 note=46 velocity=120 time=4
note_off channel=1 note=46 velocity=64 time=92
control_change channel=1 control=64 value=0 time=0
note_on channel=1 note=46 velocity=120 time=6
note_off channel=1 note=46 velocity=64 time=94
note_on channel=1 note=46 velocity=120 time=0
control_change channel=1 control=64 value=127 time=12
note_off channel=1 note=46 velocity=64 time=80
note_on channel=1 note=46 velocity=120 time=4
note_off channel=1 note=46 velocity=64 time=92
note_on channel=1 note=46 velocity=120 time=4
note_off channel=1 note=46 velocity=64 time=92
note_on channel=1 note=46 velocity=120 time=6
note_off channel=1 note=46 velocity=64 time=94
note_on channel=1 note=46 velocity=120 time=2
note_off channel=1 note=46 velocity=64 time=94
note_on channel=1 note=47 velocity=120 time=0
control_change channel=1 control=64 value=0 time=16
note_off channel=1 note=47 velocity=64 time=76
note_on channel=1 note=47 velocity=120 time=4
control_change channel=1 control=64 value=127 time=44
note_off channel=1 note=47 velocity=64 time=48
note_on channel=1 note=47 velocity=120 time=6
note_off channel=1 note=47 velocity=64 time=94
note_on channel=1 note=47 velocity=120 time=0
note_off channel=1 note=47 velocity=64 time=92
note_on channel=1 note=47 velocity=120 time=6
note_off channel=1 note=47 velocity=64 time=94
note_on channel=1 note=47 velocity=120 time=0
note_off channel=1 note=47 velocity=64 time=92
note_on channel=1 note=48 velocity=120 time=4
control_change channel=1 control=64 value=0 time=2
control_change channel=1 control=64 value=127 time=94
note_off channel=1 note=48 velocity=64 time=92
note_on channel=1 note=52 velocity=120 time=388
note_on channel=1 note=56 velocity=120 time=0
control_change channel=1 control=64 value=0 time=44
control_change channel=1 control=64 value=127 time=96
note_off channel=1 note=52 velocity=64 time=48
note_off channel=1 note=56 velocity=64 time=0
note_on channel=1 note=33 velocity=120 time=390
control_change channel=1 control=64 value=0 time=6
note_off channel=1 note=33 velocity=64 time=184
control_change channel=1 control=64 value=127 time=60
note_on channel=1 note=64 velocity=120 time=134
note_on channel=1 note=60 velocity=120 time=0
note_on channel=1 note=57 velocity=120 time=0
note_off channel=1 note=64 velocity=64 time=94
note_off channel=1 note=57 velocity=64 time=0
note_off channel=1 note=60 velocity=64 time=96
note_on channel=1 note=64 velocity=120 time=2
note_on channel=1 note=57 velocity=120 time=0
note_on channel=1 note=60 velocity=120 time=0
note_off channel=1 note=64 velocity=64 time=94
note_off channel=1 note=57 velocity=64 time=0
note_off channel=1 note=60 velocity=64 time=0
note_on channel=1 note=57 velocity=120 time=288
note_on channel=1 note=60 velocity=120 time=0
note_on channel=1 note=64 velocity=120 time=2
note_off channel=1 note=57 velocity=64 time=90
note_off channel=1 note=60 velocity=64 time=0
note_off channel=1 note=64 velocity=64 time=4
note_on channel=1 note=64 velocity=120 time=96
note_on channel=1 note=57 velocity=120 time=0
note_on channel=1 note=60 velocity=120 time=0
note_off channel=1 note=64 velocity=64 time=92
note_off channel=1 note=57 velocity=64 time=0
note_off channel=1 note=60 velocity=64 time=0
note_on channel=1 note=64 velocity=120 time=292
note_on channel=1 note=60 velocity=120 time=0
note_on channel=1 note=57 velocity=120 time=2
control_change channel=1 control=64 value=0 time=0
note_off channel=1 note=64 velocity=64 time=90
note_off channel=1 note=60 velocity=64 time=0
note_off channel=1 note=57 velocity=64 time=4
control_change channel=1 control=64 value=127 time=8
note_on channel=1 note=60 velocity=120 time=88
note_on channel=1 note=64 velocity=120 time=0
note_on channel=1 note=57 velocity=120 time=2
control_change channel=1 control=64 value=0 time=26
note_off channel=1 note=60 velocity=64 time=64
note_off channel=1 note=64 velocity=64 time=0
note_off channel=1 note=57 velocity=64 time=4
control_change channel=1 control=64 value=127 time=8
note_on channel=1 note=45 velocity=120 time=1624
control_change channel=1 control=64 value=0 time=2
note_off channel=1 note=45 velocity=64 time=90
note_on channel=1 note=52 velocity=120 time=6
control_change channel=1 control=64 value=127 time=38
note_off channel=1 note=52 velocity=64 time=56
note_on channel=1 note=57 velocity=120 time=2
note_off channel=1 note=57 velocity=64 time=94
note_on channel=1 note=40 velocity=120 time=288
control_change channel=1 control=64 value=0 time=38
note_off channel=1 note=40 velocity=64 time=54
note_on channel=1 note=52 velocity=120 time=6
control_change channel=1 control=64 value=127 time=68
note_off channel=1 note=52 velocity=64 time=26
note_on channel=1 note=56 velocity=120 time=0
note_off channel=1 note=56 velocity=64 time=92
note_on channel=1 note=45 velocity=120 time=292
control_change channel=1 control=64 value=0 time=34
note_off channel=1 note=45 velocity=64 time=58
note_on channel=1 note=52 velocity=120 time=4
control_change channel=1 control=64 value=127 time=50
note_off channel=1 note=52 velocity=64 time=42
note_on channel=1 note=57 velocity=120 time=4
note_off channel=1 note=57 velocity=64 time=92
note_on channel=1 note=45 velocity=120 time=868
control_change channel=1 control=64 value=0 time=2
note_off channel=1 note=45 velocity=64 time=90
note_on channel=1 note=52 velocity=120 time=6
control_change channel=1 control=64 value=127 time=84
note_off channel=1 note=52 velocity=64 time=10
note_on channel=1 note=57 velocity=120 time=2
note_off channel=1 note=57 velocity=64 time=94
note_on channel=1 note=40 velocity=120 time=288
control_change channel=1 control=64 value=0 time=8
note_off channel=1 note=40 velocity=64 time=84
note_on channel=1 note=52 velocity=120 time=6
control_change channel=1 control=64 value=127 time=64
note_off channel=1 note=52 velocity=64 time=30
note_on channel=1 note=56 velocity=120 time=0
note_off channel=1 note=56 velocity=64 time=92
note_on channel=1 note=45 velocity=120 time=294
control_change channel=1 control=64 value=0 time=20
note_off channel=1 note=45 velocity=64 time=74
note_on channel=1 note=52 velocity=120 time=2
control_change channel=1 control=64 value=127 time=38
note_off channel=1 note=52 velocity=64 time=56
note_on channel=1 note=57 velocity=120 time=2
note_off channel=1 note=57 velocity=64 time=94
note_on channel=1 note=48 velocity=120 time=290
control_change channel=1 control=64 value=0 time=6
note_off channel=1 note=48 velocity=64 time=88
note_on channel=1 note=55 velocity=120 time=2
control_change channel=1 control=64 value=127 time=46
note_off channel=1 note=55 velocity=64 time=48
note_on channel=1 note=60 velocity=120 time=2
note_off channel=1 note=60 velocity=64 time=94
control_change channel=1 control=64 value=0 time=288
note_on channel=1 note=43 velocity=120 time=2
note_off channel=1 note=43 velocity=64 time=94
note_on channel=1 note=55 velocity=120 time=2
control_change channel=1 control=64 value=127 time=26
note_off channel=1 note=55 velocity=64 time=68
note_on channel=1 note=59 velocity=120 time=0
note_off channel=1 note=59 velocity=64 time=92
note_on channel=1 note=45 velocity=120 time=292
control_change channel=1 control=64 value=0 time=44
note_off channel=1 note=45 velocity=64 time=48
note_on channel=1 note=52 velocity=120 time=4
note_off channel=1 note=52 velocity=64 time=92
note_on channel=1 note=57 velocity=120 time=4
control_change channel=1 control=64 value=127 time=8
note_off channel=1 note=57 velocity=64 time=84
note_on channel=1 note=40 velocity=120 time=292
control_change channel=1 control=64 value=0 time=2
note_off channel=1 note=40 velocity=64 time=90
note_on channel=1 note=52 velocity=120 time=6
control_change channel=1 control=64 value=127 time=16
note_off channel=1 note=52 velocity=64 time=78
note_on channel=1 note=64 velocity=120 time=0
note_off channel=1 note=64 velocity=64 time=92
note_on channel=1 note=64 velocity=120 time=196
note_off channel=1 note=64 velocity=64 time=92
note_on channel=1 note=76 velocity=120 time=6
note_off channel=1 note=76 velocity=64 time=94
note_on channel=1 note=75 velocity=120 time=192
note_off channel=1 note=75 velocity=64 time=92
note_on channel=1 note=76 velocity=120 time=6
note_off channel=1 note=76 velocity=64 time=94
note_on channel=1 note=75 velocity=120 time=194
note_off channel=1 note=75 velocity=64 time=94
note_on channel=1 note=76 velocity=120 time=2
note_off channel=1 note=76 velocity=64 time=94
note_on channel=1 note=45 velocity=120 time=866
control_change channel=1 control=64 value=0 time=16
note_off channel=1 note=45 velocity=64 time=78
note_on channel=1 note=52 velocity=120 time=0
control_change channel=1 control=64 value=127 time=40
note_off channel=1 note=52 velocity=64 time=52
note_on channel=1 note=57 velocity=120 time=6
note_off channel=1 note=57 velocity=64 time=94
note_on channel=1 note=40 velocity=120 time=290
control_change channel=1 control=64 value=0 time=22
note_off channel=1 note=40 velocity=64 time=72
note_on channel=1 note=52 velocity=120 time=0
control_change channel=1 control=64 value=127 time=50
note_off channel=1 note=52 velocity=64 time=42
note_on channel=1 note=56 velocity=120 time=6
note_off channel=1 note=56 velocity=64 time=94
note_on channel=1 note=45 velocity=120 time=288
control_change channel=1 control=64 value=0 time=24
note_off channel=1 note=45 velocity=64 time=68
note_on channel=1 note=52 velocity=120 time=4
control_change channel=1 control=64 value=127 time=40
note_off channel=1 note=52 velocity=64 time=52
note_on channel=1 note=57 velocity=120 time=6
note_off channel=1 note=57 velocity=64 time=94
note_on channel=1 note=45 velocity=120 time=864
control_change channel=1 control=64 value=0 time=6
note_off channel=1 note=45 velocity=64 time=86
note_on channel=1 note=52 velocity=120 time=4
control_change channel=1 control=64 value=127 time=28
note_off channel=1 note=52 velocity=64 time=64
note_on channel=1 note=57 velocity=120 time=6
note_off channel=1 note=57 velocity=64 time=94
note_on channel=1 note=40 velocity=120 time=288
control_change channel=1 control=64 value=0 time=24
note_off channel=1 note=40 velocity=64 time=68
note_on channel=1 note=52 velocity=120 time=4
control_change channel=1 control=64 value=127 time=60
note_off channel=1 note=52 velocity=64 time=32
note_on channel=1 note=56 velocity=120 time=4
note_off channel=1 note=56 velocity=64 time=92
control_change channel=1 control=64 value=0 time=272
note_on channel=1 note=45 velocity=120 time=20
note_on channel=1 note=33 velocity=120 time=2
control_change channel=1 control=64 value=127 time=38
note_off channel=1 note=45 velocity=64 time=340
note_off channel=1 note=33 velocity=64 time=4
control_change channel=1 control=64 value=0 time=694
MetaMessage('end_of_track', time=0)
