Track 1: 
MetaMessage('key_signature', key='C', time=0)
note_on channel=0 note=53 velocity=96 time=0
note_on channel=0 note=53 velocity=0 time=239
note_on channel=0 note=60 velocity=96 time=1
note_on channel=0 note=57 velocity=96 time=0
note_on channel=0 note=60 velocity=0 time=239
note_on channel=0 note=57 velocity=0 time=0
note_on channel=0 note=60 velocity=96 time=1
note_on channel=0 note=57 velocity=96 time=0
note_on channel=0 note=60 velocity=0 time=239
note_on channel=0 note=57 velocity=0 time=0
note_on channel=0 note=60 velocity=96 time=1
note_on channel=0 note=57 velocity=96 time=0
note_on channel=0 note=60 velocity=0 time=239
note_on channel=0 note=57 velocity=0 time=0
note_on channel=0 note=53 velocity=96 time=1
note_on channel=0 note=53 velocity=0 time=239
note_on channel=0 note=60 velocity=96 time=1
note_on channel=0 note=57 velocity=96 time=0
note_on channel=0 note=60 velocity=0 time=239
note_on channel=0 note=57 velocity=0 time=0
note_on channel=0 note=60 velocity=96 time=1
note_on channel=0 note=57 velocity=96 time=0
note_on channel=0 note=60 velocity=0 time=239
note_on channel=0 note=57 velocity=0 time=0
note_on channel=0 note=60 velocity=96 time=1
note_on channel=0 note=57 velocity=96 time=0
note_on channel=0 note=60 velocity=0 time=239
note_on channel=0 note=57 velocity=0 time=0
note_on channel=0 note=53 velocity=96 time=1
note_on channel=0 note=53 velocity=0 time=239
note_on channel=0 note=60 velocity=96 time=1
note_on channel=0 note=57 velocity=96 time=0
note_on channel=0 note=60 velocity=0 time=239
note_on channel=0 note=57 velocity=0 time=0
note_on channel=0 note=60 velocity=96 time=1
note_on channel=0 note=57 velocity=96 time=0
note_on channel=0 note=60 velocity=0 time=239
note_on channel=0 note=57 velocity=0 time=0
note_on channel=0 note=60 velocity=96 time=1
note_on channel=0 note=57 velocity=96 time=0
note_on channel=0 note=60 velocity=0 time=239
note_on channel=0 note=57 velocity=0 time=0
note_on channel=0 note=53 velocity=96 time=1
note_on channel=0 note=53 velocity=0 time=239
note_on channel=0 note=60 velocity=96 time=1
note_on channel=0 note=57 velocity=96 time=0
note_on channel=0 note=60 velocity=0 time=239
note_on channel=0 note=57 velocity=0 time=0
note_on channel=0 note=60 velocity=96 time=1
note_on channel=0 note=57 velocity=96 time=0
note_on channel=0 note=60 velocity=0 time=239
note_on channel=0 note=57 velocity=0 time=0
note_on channel=0 note=60 velocity=96 time=1
note_on channel=0 note=57 velocity=96 time=0
note_on channel=0 note=60 velocity=0 time=239
note_on channel=0 note=57 velocity=0 time=0
note_on channel=0 note=48 velocity=96 time=1
note_on channel=0 note=48 velocity=0 time=239
note_on channel=0 note=55 velocity=96 time=1
note_on channel=0 note=52 velocity=96 time=0
note_on channel=0 note=55 velocity=0 time=239
note_on channel=0 note=52 velocity=0 time=0
note_on channel=0 note=55 velocity=96 time=1
note_on channel=0 note=52 velocity=96 time=0
note_on channel=0 note=55 velocity=0 time=239
note_on channel=0 note=52 velocity=0 time=0
note_on channel=0 note=55 velocity=96 time=1
note_on channel=0 note=52 velocity=96 time=0
note_on channel=0 note=55 velocity=0 time=239
note_on channel=0 note=52 velocity=0 time=0
note_on channel=0 note=48 velocity=96 time=1
note_on channel=0 note=48 velocity=0 time=239
note_on channel=0 note=55 velocity=96 time=1
note_on channel=0 note=52 velocity=96 time=0
note_on channel=0 note=55 velocity=0 time=239
note_on channel=0 note=52 velocity=0 time=0
note_on channel=0 note=55 velocity=96 time=1
note_on channel=0 note=52 velocity=96 time=0
note_on channel=0 note=55 velocity=0 time=239
note_on channel=0 note=52 velocity=0 time=0
note_on channel=0 note=55 velocity=96 time=1
note_on channel=0 note=52 velocity=96 time=0
note_on channel=0 note=55 velocity=0 time=239
note_on channel=0 note=52 velocity=0 time=0
note_on channel=0 note=48 velocity=96 time=1
note_on channel=0 note=48 velocity=0 time=239
note_on channel=0 note=55 velocity=96 time=1
note_on channel=0 note=52 velocity=96 time=0
note_on channel=0 note=55 velocity=0 time=239
note_on channel=0 note=52 velocity=0 time=0
note_on channel=0 note=55 velocity=96 time=1
note_on channel=0 note=52 velocity=96 time=0
note_on channel=0 note=55 velocity=0 time=239
note_on channel=0 note=52 velocity=0 time=0
note_on channel=0 note=55 velocity=96 time=1
note_on channel=0 note=52 velocity=96 time=0
note_on channel=0 note=55 velocity=0 time=239
note_on channel=0 note=52 velocity=0 time=0
note_on channel=0 note=48 velocity=96 time=1
note_on channel=0 note=48 velocity=0 time=239
note_on channel=0 note=55 velocity=96 time=1
note_on channel=0 note=52 velocity=96 time=0
note_on channel=0 note=55 velocity=0 time=239
note_on channel=0 note=52 velocity=0 time=0
note_on channel=0 note=55 velocity=96 time=1
note_on channel=0 note=52 velocity=96 time=0
note_on channel=0 note=55 velocity=0 time=239
note_on channel=0 note=52 velocity=0 time=0
note_on channel=0 note=48 velocity=96 time=1
note_on channel=0 note=48 velocity=0 time=239
note_on channel=0 note=53 velocity=96 time=1
note_on channel=0 note=53 velocity=0 time=239
note_on channel=0 note=60 velocity=96 time=1
note_on channel=0 note=57 velocity=96 time=0
note_on channel=0 note=60 velocity=0 time=239
note_on channel=0 note=57 velocity=0 time=0
note_on channel=0 note=60 velocity=96 time=1
note_on channel=0 note=57 velocity=96 time=0
note_on channel=0 note=60 velocity=0 time=239
note_on channel=0 note=57 velocity=0 time=0
note_on channel=0 note=60 velocity=96 time=1
note_on channel=0 note=57 velocity=96 time=0
note_on channel=0 note=60 velocity=0 time=239
note_on channel=0 note=57 velocity=0 time=0
note_on channel=0 note=53 velocity=96 time=1
note_on channel=0 note=53 velocity=0 time=239
note_on channel=0 note=60 velocity=96 time=1
note_on channel=0 note=57 velocity=96 time=0
note_on channel=0 note=60 velocity=0 time=239
note_on channel=0 note=57 velocity=0 time=0
note_on channel=0 note=60 velocity=96 time=1
note_on channel=0 note=57 velocity=96 time=0
note_on channel=0 note=60 velocity=0 time=239
note_on channel=0 note=57 velocity=0 time=0
note_on channel=0 note=60 velocity=96 time=1
note_on channel=0 note=57 velocity=96 time=0
note_on channel=0 note=60 velocity=0 time=239
note_on channel=0 note=57 velocity=0 time=0
note_on channel=0 note=53 velocity=96 time=1
note_on channel=0 note=53 velocity=0 time=239
note_on channel=0 note=60 velocity=96 time=1
note_on channel=0 note=57 velocity=96 time=0
note_on channel=0 note=60 velocity=0 time=239
note_on channel=0 note=57 velocity=0 time=0
note_on channel=0 note=60 velocity=96 time=1
note_on channel=0 note=57 velocity=96 time=0
note_on channel=0 note=60 velocity=0 time=239
note_on channel=0 note=57 velocity=0 time=0
note_on channel=0 note=60 velocity=96 time=1
note_on channel=0 note=57 velocity=96 time=0
note_on channel=0 note=60 velocity=0 time=239
note_on channel=0 note=57 velocity=0 time=0
note_on channel=0 note=53 velocity=96 time=1
note_on channel=0 note=53 velocity=0 time=239
note_on channel=0 note=60 velocity=96 time=1
note_on channel=0 note=57 velocity=96 time=0
note_on channel=0 note=60 velocity=0 time=239
note_on channel=0 note=57 velocity=0 time=0
note_on channel=0 note=60 velocity=96 time=1
note_on channel=0 note=57 velocity=96 time=0
note_on channel=0 note=60 velocity=0 time=239
note_on channel=0 note=57 velocity=0 time=0
note_on channel=0 note=60 velocity=96 time=1
note_on channel=0 note=57 velocity=96 time=0
note_on channel=0 note=60 velocity=0 time=239
note_on channel=0 note=57 velocity=0 time=0
note_on channel=0 note=48 velocity=96 time=1
note_on channel=0 note=48 velocity=0 time=239
note_on channel=0 note=55 velocity=96 time=1
note_on channel=0 note=52 velocity=96 time=0
note_on channel=0 note=55 velocity=0 time=239
note_on channel=0 note=52 velocity=0 time=0
note_on channel=0 note=55 velocity=96 time=1
note_on channel=0 note=52 velocity=96 time=0
note_on channel=0 note=55 velocity=0 time=239
note_on channel=0 note=52 velocity=0 time=0
note_on channel=0 note=55 velocity=96 time=1
note_on channel=0 note=52 velocity=96 time=0
note_on channel=0 note=55 velocity=0 time=239
note_on channel=0 note=52 velocity=0 time=0
note_on channel=0 note=48 velocity=96 time=1
note_on channel=0 note=48 velocity=0 time=239
note_on channel=0 note=55 velocity=96 time=1
note_on channel=0 note=52 velocity=96 time=0
note_on channel=0 note=55 velocity=0 time=239
note_on channel=0 note=52 velocity=0 time=0
note_on channel=0 note=55 velocity=96 time=1
note_on channel=0 note=52 velocity=96 time=0
note_on channel=0 note=55 velocity=0 time=239
note_on channel=0 note=52 velocity=0 time=0
note_on channel=0 note=48 velocity=96 time=1
note_on channel=0 note=48 velocity=0 time=239
note_on channel=0 note=48 velocity=96 time=1
note_on channel=0 note=48 velocity=0 time=239
note_on channel=0 note=55 velocity=96 time=1
note_on channel=0 note=52 velocity=96 time=0
note_on channel=0 note=55 velocity=0 time=239
note_on channel=0 note=52 velocity=0 time=0
note_on channel=0 note=55 velocity=96 time=1
note_on channel=0 note=52 velocity=96 time=0
note_on channel=0 note=55 velocity=0 time=239
note_on channel=0 note=52 velocity=0 time=0
note_on channel=0 note=55 velocity=96 time=1
note_on channel=0 note=52 velocity=96 time=0
note_on channel=0 note=55 velocity=0 time=239
note_on channel=0 note=52 velocity=0 time=0
note_on channel=0 note=48 velocity=96 time=1
note_on channel=0 note=48 velocity=0 time=239
note_on channel=0 note=55 velocity=96 time=1
note_on channel=0 note=52 velocity=96 time=0
note_on channel=0 note=55 velocity=0 time=239
note_on channel=0 note=52 velocity=0 time=0
note_on channel=0 note=55 velocity=96 time=1
note_on channel=0 note=52 velocity=96 time=0
note_on channel=0 note=55 velocity=0 time=239
note_on channel=0 note=52 velocity=0 time=0
note_on channel=0 note=48 velocity=96 time=1
note_on channel=0 note=48 velocity=0 time=239
note_on channel=0 note=50 velocity=96 time=1
note_on channel=0 note=50 velocity=0 time=239
note_on channel=0 note=57 velocity=96 time=1
note_on channel=0 note=57 velocity=0 time=239
note_on channel=0 note=50 velocity=96 time=1
note_on channel=0 note=50 velocity=0 time=239
note_on channel=0 note=57 velocity=96 time=1
note_on channel=0 note=57 velocity=0 time=239
note_on channel=0 note=43 velocity=96 time=1
note_on channel=0 note=43 velocity=0 time=239
note_on channel=0 note=50 velocity=96 time=1
note_on channel=0 note=50 velocity=0 time=239
note_on channel=0 note=43 velocity=96 time=1
note_on channel=0 note=43 velocity=0 time=239
note_on channel=0 note=50 velocity=96 time=1
note_on channel=0 note=50 velocity=0 time=239
note_on channel=0 note=48 velocity=96 time=1
note_on channel=0 note=48 velocity=0 time=239
note_on channel=0 note=55 velocity=96 time=1
note_on channel=0 note=55 velocity=0 time=239
note_on channel=0 note=48 velocity=96 time=1
note_on channel=0 note=48 velocity=0 time=239
note_on channel=0 note=55 velocity=96 time=1
note_on channel=0 note=55 velocity=0 time=239
note_on channel=0 note=45 velocity=96 time=1
note_on channel=0 note=45 velocity=0 time=239
note_on channel=0 note=52 velocity=96 time=1
note_on channel=0 note=52 velocity=0 time=239
note_on channel=0 note=45 velocity=96 time=1
note_on channel=0 note=45 velocity=0 time=239
note_on channel=0 note=52 velocity=96 time=1
note_on channel=0 note=52 velocity=0 time=239
note_on channel=0 note=50 velocity=96 time=1
note_on channel=0 note=50 velocity=0 time=239
note_on channel=0 note=57 velocity=96 time=1
note_on channel=0 note=57 velocity=0 time=239
note_on channel=0 note=50 velocity=96 time=1
note_on channel=0 note=50 velocity=0 time=239
note_on channel=0 note=57 velocity=96 time=1
note_on channel=0 note=57 velocity=0 time=239
note_on channel=0 note=43 velocity=96 time=1
note_on channel=0 note=43 velocity=0 time=239
note_on channel=0 note=50 velocity=96 time=1
note_on channel=0 note=50 velocity=0 time=239
note_on channel=0 note=43 velocity=96 time=1
note_on channel=0 note=43 velocity=0 time=239
note_on channel=0 note=50 velocity=96 time=1
note_on channel=0 note=50 velocity=0 time=239
note_on channel=0 note=48 velocity=96 time=1
note_on channel=0 note=48 velocity=0 time=239
note_on channel=0 note=55 velocity=96 time=1
note_on channel=0 note=55 velocity=0 time=239
note_on channel=0 note=48 velocity=96 time=1
note_on channel=0 note=48 velocity=0 time=239
note_on channel=0 note=55 velocity=96 time=1
note_on channel=0 note=55 velocity=0 time=239
note_on channel=0 note=45 velocity=96 time=1
note_on channel=0 note=45 velocity=0 time=239
note_on channel=0 note=52 velocity=96 time=1
note_on channel=0 note=52 velocity=0 time=239
note_on channel=0 note=45 velocity=96 time=1
note_on channel=0 note=45 velocity=0 time=239
note_on channel=0 note=52 velocity=96 time=1
note_on channel=0 note=52 velocity=0 time=239
note_on channel=0 note=50 velocity=96 time=1
note_on channel=0 note=50 velocity=0 time=239
note_on channel=0 note=57 velocity=96 time=1
note_on channel=0 note=57 velocity=0 time=239
note_on channel=0 note=50 velocity=96 time=1
note_on channel=0 note=50 velocity=0 time=239
note_on channel=0 note=57 velocity=96 time=1
note_on channel=0 note=57 velocity=0 time=239
note_on channel=0 note=43 velocity=96 time=1
note_on channel=0 note=43 velocity=0 time=239
note_on channel=0 note=50 velocity=96 time=1
note_on channel=0 note=50 velocity=0 time=239
note_on channel=0 note=43 velocity=96 time=1
note_on channel=0 note=43 velocity=0 time=239
note_on channel=0 note=50 velocity=96 time=1
note_on channel=0 note=50 velocity=0 time=239
note_on channel=0 note=48 velocity=96 time=1
note_on channel=0 note=48 velocity=0 time=239
note_on channel=0 note=55 velocity=96 time=1
note_on channel=0 note=55 velocity=0 time=239
note_on channel=0 note=48 velocity=96 time=1
note_on channel=0 note=48 velocity=0 time=239
note_on channel=0 note=55 velocity=96 time=1
note_on channel=0 note=55 velocity=0 time=239
note_on channel=0 note=45 velocity=96 time=1
note_on channel=0 note=45 velocity=0 time=239
note_on channel=0 note=52 velocity=96 time=1
note_on channel=0 note=52 velocity=0 time=239
note_on channel=0 note=45 velocity=96 time=1
note_on channel=0 note=45 velocity=0 time=239
note_on channel=0 note=52 velocity=96 time=1
note_on channel=0 note=52 velocity=0 time=239
note_on channel=0 note=50 velocity=96 time=1
note_on channel=0 note=50 velocity=0 time=239
note_on channel=0 note=57 velocity=96 time=1
note_on channel=0 note=53 velocity=96 time=0
note_on channel=0 note=57 velocity=0 time=239
note_on channel=0 note=53 velocity=0 time=0
note_on channel=0 note=57 velocity=96 time=1
note_on channel=0 note=53 velocity=96 time=0
note_on channel=0 note=57 velocity=0 time=239
note_on channel=0 note=53 velocity=0 time=0
note_on channel=0 note=50 velocity=96 time=241
note_on channel=0 note=50 velocity=0 time=239
note_on channel=0 note=57 velocity=96 time=1
note_on channel=0 note=53 velocity=96 time=0
note_on channel=0 note=57 velocity=0 time=239
note_on channel=0 note=53 velocity=0 time=0
note_on channel=0 note=57 velocity=96 time=1
note_on channel=0 note=53 velocity=96 time=0
note_on channel=0 note=57 velocity=0 time=239
note_on channel=0 note=53 velocity=0 time=0
note_on channel=0 note=48 velocity=96 time=241
note_on channel=0 note=48 velocity=0 time=239
note_on channel=0 note=59 velocity=96 time=1
note_on channel=0 note=55 velocity=96 time=0
note_on channel=0 note=59 velocity=0 time=239
note_on channel=0 note=55 velocity=0 time=0
note_on channel=0 note=59 velocity=96 time=1
note_on channel=0 note=55 velocity=96 time=0
note_on channel=0 note=59 velocity=0 time=239
note_on channel=0 note=55 velocity=0 time=0
note_on channel=0 note=48 velocity=96 time=241
note_on channel=0 note=48 velocity=0 time=239
note_on channel=0 note=59 velocity=96 time=1
note_on channel=0 note=55 velocity=96 time=0
note_on channel=0 note=59 velocity=0 time=239
note_on channel=0 note=55 velocity=0 time=0
note_on channel=0 note=59 velocity=96 time=1
note_on channel=0 note=55 velocity=96 time=0
note_on channel=0 note=59 velocity=0 time=239
note_on channel=0 note=55 velocity=0 time=0
note_on channel=0 note=52 velocity=96 time=241
note_on channel=0 note=52 velocity=0 time=239
note_on channel=0 note=59 velocity=96 time=1
note_on channel=0 note=57 velocity=96 time=0
note_on channel=0 note=59 velocity=0 time=239
note_on channel=0 note=57 velocity=0 time=0
note_on channel=0 note=59 velocity=96 time=241
note_on channel=0 note=57 velocity=96 time=0
note_on channel=0 note=59 velocity=0 time=239
note_on channel=0 note=57 velocity=0 time=0
note_on channel=0 note=52 velocity=96 time=1
note_on channel=0 note=52 velocity=0 time=239
note_on channel=0 note=59 velocity=96 time=1
note_on channel=0 note=57 velocity=96 time=0
note_on channel=0 note=59 velocity=0 time=239
note_on channel=0 note=57 velocity=0 time=0
note_on channel=0 note=59 velocity=96 time=241
note_on channel=0 note=57 velocity=96 time=0
note_on channel=0 note=59 velocity=0 time=239
note_on channel=0 note=57 velocity=0 time=0
note_on channel=0 note=52 velocity=96 time=1
note_on channel=0 note=52 velocity=0 time=239
note_on channel=0 note=59 velocity=96 time=1
note_on channel=0 note=56 velocity=96 time=0
note_on channel=0 note=59 velocity=0 time=239
note_on channel=0 note=56 velocity=0 time=0
note_on channel=0 note=59 velocity=96 time=1
note_on channel=0 note=56 velocity=96 time=0
note_on channel=0 note=59 velocity=0 time=239
note_on channel=0 note=56 velocity=0 time=0
note_on channel=0 note=59 velocity=96 time=1
note_on channel=0 note=56 velocity=96 time=0
note_on channel=0 note=59 velocity=0 time=239
note_on channel=0 note=56 velocity=0 time=0
note_on channel=0 note=59 velocity=96 time=1
note_on channel=0 note=56 velocity=96 time=0
note_on channel=0 note=59 velocity=0 time=479
note_on channel=0 note=56 velocity=0 time=0
note_on channel=0 note=52 velocity=96 time=1
note_on channel=0 note=52 velocity=0 time=479
MetaMessage('end_of_track', time=1)
